<?xml version="1.0" standalone="no"?>
<!DOCTYPE svg PUBLIC "-//W3C//DTD SVG 1.1//EN" "http://www.w3.org/Graphics/SVG/1.1/DTD/svg11.dtd" >
<svg xmlns="http://www.w3.org/2000/svg" width="100%" height="100%">
<metadata>
Created by FontForge 20090622 at Wed Apr 17 08:23:09 2013
 By fontface
Copyright (c) 1995 Adobe Systems Incorporated. All Rights Reserved.ITC Franklin Gothic is a registered trademark of International Typeface Corporation.
</metadata>
<defs>
<font id="FranklinGothicLT-BookCnd" horiz-adv-x="511" >
  <font-face 
    font-family="ITCFranklinGothic LT BookCn"
    font-weight="400"
    font-stretch="normal"
    units-per-em="1000"
    panose-1="2 0 5 6 4 0 0 2 0 4"
    ascent="800"
    descent="-200"
    x-height="493"
    cap-height="667"
    bbox="-162 -250 940 893"
    underline-thickness="50"
    underline-position="-75"
    unicode-range="U+0020-U+FB02"
  />
<missing-glyph horiz-adv-x="250" 
 />
    <glyph glyph-name=".notdef" horiz-adv-x="250" 
 />
    <glyph glyph-name=".null" horiz-adv-x="0" 
 />
    <glyph glyph-name="nonmarkingreturn" horiz-adv-x="250" 
 />
    <glyph glyph-name="space" unicode=" " horiz-adv-x="250" 
 />
    <glyph glyph-name="dollar" unicode="$" 
d="M288 82q30 3 50 14t31 27t15.5 34t4.5 35q0 33 -11 53t-27 31.5t-33.5 17t-29.5 8.5v-220zM233 595q-25 -5 -41.5 -14.5t-26 -23t-13.5 -30t-4 -34.5q0 -28 9.5 -46t22.5 -29.5t27.5 -17t25.5 -8.5v203zM233 721h55v-66q69 -5 104.5 -36.5t55.5 -91.5l-58 -24
q-18 42 -39.5 66t-62.5 27v-216q22 -5 51 -14.5t55 -28.5t44.5 -51t18.5 -83q0 -13 -2.5 -32.5t-10 -41.5t-23 -43t-40.5 -37q-27 -17 -51 -22.5t-42 -7.5v-86h-55v86q-42 6 -71 18.5t-49.5 31t-34.5 44t-25 58.5l64 30q10 -33 23.5 -55t28.5 -35.5t31 -20t33 -8.5v232
q-16 4 -42 13.5t-50.5 29t-42.5 50.5t-18 79q0 42 14 73t36 51.5t49 31.5t54 13v66z" />
    <glyph glyph-name="percent" unicode="%" horiz-adv-x="681" 
d="M502 287q-21 0 -34 -10.5t-20 -27.5t-9.5 -39t-2.5 -45q0 -54 13.5 -88t53.5 -34q22 0 35 10.5t20 28t9 39t2 44.5q0 21 -2 43t-9 39.5t-20 28.5t-35 11h-1zM503 338q30 0 54.5 -12.5t41 -35.5t25.5 -55t9 -70q0 -79 -35 -126t-95 -47t-95.5 47t-35.5 126q0 38 9 70
t26 55t41.5 35.5t54.5 12.5zM538 667l-334 -667h-58l333 667h59zM179 624q-23 0 -36.5 -12t-20.5 -30t-8.5 -40t-1.5 -41t1.5 -40.5t8.5 -39.5t20.5 -30t36.5 -12q21 0 34.5 10t20.5 27t9.5 39t2.5 46q0 54 -13.5 88.5t-53.5 34.5zM179 675q30 0 54.5 -12.5t41.5 -35.5
t26 -55t9 -70q0 -78 -34.5 -126t-96.5 -48q-60 0 -95.5 47.5t-35.5 126.5q0 78 35.5 125.5t95.5 47.5z" />
    <glyph glyph-name="ampersand" unicode="&#x26;" horiz-adv-x="613" 
d="M226 334q-16 -10 -32.5 -23t-30.5 -30.5t-23 -41t-9 -54.5q0 -63 33.5 -100.5t87.5 -37.5q36 0 67.5 17.5t54.5 44.5zM208 544q0 -18 5 -38t12.5 -38t15 -33t12.5 -23q39 23 65.5 55t26.5 77q0 37 -19.5 58t-48.5 21q-28 0 -48.5 -21t-20.5 -58zM543 348q-7 -41 -15 -74
t-18.5 -60.5t-24 -53t-31.5 -51.5l19.5 -24t16.5 -16t17.5 -9t21.5 -3t19.5 2l14.5 4v-63q-12 -4 -25.5 -7.5t-29.5 -3.5q-18 0 -32 5t-25.5 14t-22 21.5t-21.5 27.5l-24.5 -21.5t-34.5 -23.5t-45.5 -18.5t-58.5 -7.5q-41 0 -76 14.5t-60.5 40.5t-40 62t-14.5 80
q0 48 16.5 83t39.5 58.5t47 37.5l38 22l-18 32t-18 38.5t-13.5 42.5t-5.5 44q0 24 9 49t27 45t44.5 33t61.5 13q33 0 58 -10.5t41.5 -28.5t24.5 -42t8 -51q0 -41 -15 -72t-36 -53.5t-42.5 -37.5t-33.5 -22l131 -198q21 33 37.5 78t27.5 120z" />
    <glyph glyph-name="quoteright" unicode="&#x2019;" horiz-adv-x="204" 
d="M66 667h91v-99l-65 -121h-44l59 115h-41v105z" />
    <glyph glyph-name="parenleft" unicode="(" horiz-adv-x="307" 
d="M258 667q-68 -106 -96 -213.5t-28 -203.5q0 -95 27.5 -202t96.5 -215h-59q-17 24 -41.5 62t-48.5 93q-35 80 -45.5 146.5t-10.5 115.5q0 80 17 147t41 120t48.5 91t39.5 59h59z" />
    <glyph glyph-name="parenright" unicode=")" horiz-adv-x="307" 
d="M49 -167q70 110 97 216.5t27 200.5q0 95 -27.5 201.5t-96.5 215.5h59q15 -21 39.5 -58.5t48.5 -90.5t41 -120.5t17 -147.5q0 -57 -12 -123t-44 -139q-24 -56 -48.5 -93.5l-41.5 -61.5h-59z" />
    <glyph glyph-name="asterisk" unicode="*" 
d="M288 667l-10 -139l116 76l29 -60l-120 -54l120 -54l-29 -60l-116 76l10 -139h-65l10 139l-116 -76l-29 60l120 54l-120 54l29 60l116 -76l-10 139h65z" />
    <glyph glyph-name="plus" unicode="+" 
d="M460 364v-61h-172v-174h-65v174h-172v61h172v174h65v-174h172z" />
    <glyph glyph-name="comma" unicode="," horiz-adv-x="239" 
d="M174 108v-108l-65 -127h-44l59 127h-41v108h91z" />
    <glyph glyph-name="hyphen" unicode="-" horiz-adv-x="290" 
d="M255 278v-60h-220v60h220z" />
    <glyph glyph-name="hyphen" unicode="&#xad;" horiz-adv-x="290" 
d="M255 278v-60h-220v60h220z" />
    <glyph glyph-name="period" unicode="." horiz-adv-x="239" 
d="M165 108v-108h-91v108h91z" />
    <glyph glyph-name="slash" unicode="/" horiz-adv-x="443" 
d="M40 -167h-62l336 834h63z" />
    <glyph glyph-name="zero" unicode="0" 
d="M256 620q-33 0 -56 -17.5t-37.5 -45t-22.5 -61t-12 -65t-4.5 -58.5t-0.5 -40t0.5 -39t4.5 -58t12 -65.5t22.5 -61t37.5 -45t56 -17.5t55.5 17.5t37.5 45t22.5 61t11.5 65t4.5 58t0.5 39.5t-0.5 40t-4.5 58.5t-11.5 65t-22.5 61t-37.5 45t-55.5 17.5zM256 681
q49 0 84 -18.5t58.5 -48t37.5 -67t21.5 -75.5t9.5 -72.5t2 -58.5q0 -95 -17.5 -174t-63.5 -127q-23 -24 -57 -39t-75 -15q-50 0 -85.5 19t-59.5 49t-37.5 68t-20.5 75.5t-9 71.5t-2 57q0 28 2 61.5t7 67t13.5 65t21.5 56.5q9 17 23.5 35.5t35 34t48 25.5t63.5 10z" />
    <glyph glyph-name="one" unicode="1" 
d="M315 60h107v-60h-301v60h113v504q-17 -23 -43 -46.5t-76 -52.5v80q51 29 85 62.5t60 67.5h55v-615z" />
    <glyph glyph-name="two" unicode="2" 
d="M36 486q8 35 20 69.5t47 69.5q21 20 42 31.5t40.5 17t35 6.5t24.5 1q45 0 81.5 -14.5t61.5 -40.5t38.5 -62.5t13.5 -80.5q0 -36 -10 -74.5t-43 -86.5t-94.5 -109.5t-164.5 -143.5h312v-69h-404v67l67.5 59.5l69 64.5t67 67.5t59.5 69.5q9 12 19.5 28t19.5 35.5t15 41
t6 45.5q0 17 -5 40.5t-18.5 44.5t-37.5 35.5t-62 14.5q-40 0 -64.5 -17t-38 -40t-19 -47t-7.5 -38z" />
    <glyph glyph-name="three" unicode="3" 
d="M43 527q4 16 14 42t31.5 51t58 43t95.5 18q40 0 75 -11.5t60 -34.5t39.5 -57t14.5 -78q0 -38 -10.5 -63t-27 -41.5t-35.5 -27t-35 -17.5q12 -3 33.5 -10.5t43.5 -25.5t38 -49.5t16 -81.5q0 -39 -13.5 -74.5t-40.5 -63t-68 -43.5t-96 -16q-19 0 -41.5 3t-45.5 10.5t-45 21
t-40 35.5q-21 25 -28.5 48.5t-12.5 44.5l66 23q3 -12 7.5 -25t11.5 -26.5t18 -26.5t27 -23q38 -24 82 -24q15 0 37 5t43 19.5t36 41.5t15 72q0 49 -18.5 75.5t-44 38.5t-53 14t-45.5 2h-43v60h43q33 0 57 3t46 20q24 19 32.5 44.5t8.5 51.5q0 60 -31.5 92.5t-81.5 32.5
q-36 0 -59 -12.5t-37 -30.5t-21.5 -37.5t-11.5 -32.5z" />
    <glyph glyph-name="four" unicode="4" 
d="M311 221v397l-202 -397h202zM387 681v-460h90v-60h-90v-161h-76v161h-276v54l252 466h100z" />
    <glyph glyph-name="five" unicode="5" 
d="M430 667l-7 -69h-269l-10 -213q10 12 21 23.5t26 20.5t35 15t49 6q52 0 88 -20t58.5 -51.5t32 -71.5t9.5 -80q0 -69 -20 -115.5t-51.5 -74t-69.5 -39.5t-74 -12q-47 0 -82 14.5t-59 36.5q-30 28 -41 55t-17 52l69 26q6 -19 14.5 -39.5t23 -37.5t37.5 -28t59 -11
q31 0 55 10t39 28q23 29 30.5 65.5t7.5 66.5q0 32 -6 60.5t-20.5 50.5t-38.5 34.5t-60 12.5q-33 0 -55 -10t-37 -24t-24 -29.5t-14 -26.5l-56 14l18 361h339z" />
    <glyph glyph-name="six" unicode="6" 
d="M282 369q-42 0 -68.5 -18t-41.5 -42.5t-20 -51t-5 -43.5q0 -24 7 -52t22.5 -52t41 -40t62.5 -16q30 0 50.5 10t33.5 25t20 33.5t10.5 36t4 31.5t0.5 20q0 81 -34 120t-83 39zM400 508q-6 20 -14.5 39t-21.5 33.5t-32 23.5t-47 9q-8 0 -23.5 -1.5t-33 -10t-35 -27.5
t-30.5 -53q-20 -55 -26 -108.5t-7 -92.5q6 13 16 33t28 39t46 32t69 13q42 0 76.5 -16.5t59 -46t38.5 -70.5t14 -89q0 -44 -12.5 -85t-37.5 -73t-62.5 -51.5t-88.5 -19.5q-66 0 -108.5 32t-70.5 83q-15 29 -23.5 62.5t-12 64t-4.5 53.5t-1 32q0 77 14 144.5t42.5 117
t71.5 78t102 28.5q51 0 84 -17t53 -40.5t30.5 -49t16.5 -42.5z" />
    <glyph glyph-name="seven" unicode="7" 
d="M464 667v-49q-14 -18 -32 -44.5t-38.5 -64t-42 -89t-42.5 -120.5q-17 -57 -26 -104.5t-13 -84.5t-4.5 -65t-0.5 -46h-83q0 18 0.5 39t2.5 47.5t7.5 59.5t15.5 74q16 67 35.5 119.5t42 97t47.5 83.5t53 78h-305l7 69h376z" />
    <glyph glyph-name="eight" unicode="8" 
d="M248 312q-17 -6 -40.5 -16t-44.5 -26.5t-36 -40.5t-15 -59q0 -32 12 -55t32 -38t45.5 -22.5t52.5 -7.5q21 0 45.5 5.5t45 19t34.5 36t14 56.5q0 58 -39 91t-106 57zM253 385l40.5 16.5t41.5 24t32 36t13 51.5q0 46 -33 76.5t-88 30.5q-52 0 -84 -29.5t-32 -75.5
q0 -34 13 -57t31 -38t36.5 -23t29.5 -12zM333 358l40.5 -21t46.5 -34.5t38 -53t16 -74.5q0 -36 -14 -70.5t-42 -60.5t-69 -42t-96 -16q-57 0 -97.5 14.5t-67 39t-39 57.5t-12.5 70q0 44 15.5 75.5t37.5 52.5t45 33.5t38 19.5q-15 8 -34 20.5t-36.5 31t-29 44.5t-11.5 62
q0 34 12 65.5t37 56t62.5 39t87.5 14.5q45 0 80 -12.5t60 -35t38 -53.5t13 -68t-13.5 -63.5t-32.5 -44.5t-39.5 -29t-33.5 -17z" />
    <glyph glyph-name="nine" unicode="9" 
d="M241 613q-32 0 -56 -12.5t-40 -34.5t-23.5 -51.5t-7.5 -63.5q0 -39 10 -68t27.5 -48.5t40 -29t47.5 -9.5q31 0 54 14t38.5 36.5t23 51t7.5 57.5q0 25 -6.5 53t-20.5 51.5t-37.5 38.5t-56.5 15zM113 150q6 -16 13 -33t19.5 -31t32 -23t48.5 -9q43 0 72 22.5t46 73.5
q20 56 24.5 105t6.5 84q-6 -14 -16.5 -33t-28 -36.5t-44 -29.5t-63.5 -12q-34 0 -67.5 13.5t-60 41.5t-43 70t-16.5 98q0 52 15.5 94.5t43 72.5t65.5 46.5t83 16.5q48 0 82.5 -15.5t58 -41.5t37 -59.5t21 -68.5t9.5 -69t2 -62q0 -59 -8.5 -125.5t-34 -123t-71.5 -93.5
t-121 -37q-45 0 -75 13.5t-49 34t-30.5 43.5t-18.5 42z" />
    <glyph glyph-name="colon" unicode=":" horiz-adv-x="239" 
d="M165 493v-108h-91v108h91zM165 108v-108h-91v108h91z" />
    <glyph glyph-name="semicolon" unicode=";" horiz-adv-x="239" 
d="M174 493v-108h-91v108h91zM174 108v-108l-65 -127h-44l59 127h-41v108h91z" />
    <glyph glyph-name="semicolon" unicode="&#x37e;" horiz-adv-x="239" 
d="M174 493v-108h-91v108h91zM174 108v-108l-65 -127h-44l59 127h-41v108h91z" />
    <glyph glyph-name="less" unicode="&#x3c;" 
d="M472 497l-361 -164l361 -163v-67l-433 201v59l433 200v-66z" />
    <glyph glyph-name="equal" unicode="=" 
d="M51 245v61h409v-61h-409zM51 361v61h409v-61h-409z" />
    <glyph glyph-name="greater" unicode="&#x3e;" 
d="M39 170l362 163l-362 164v66l433 -201v-58l-433 -201v67z" />
    <glyph glyph-name="question" unicode="?" horiz-adv-x="494" 
d="M263 102v-102h-91v102h91zM39 486q1 11 3.5 26t7.5 32.5t14 36t23 36.5q26 34 67 49t85 15q38 0 72 -11t59.5 -33.5t40.5 -55.5t15 -78q0 -33 -7 -58t-20.5 -46t-32.5 -39t-42 -36q-26 -21 -41 -36t-22 -31t-8 -37t1 -53h-72q0 35 1.5 61.5t7.5 48t18 39t34 34.5l45.5 36
t32 33t18.5 36.5t6 47.5q0 22 -5 43t-18 37.5t-34 26.5t-52 10q-53 0 -86.5 -35t-40.5 -118z" />
    <glyph glyph-name="at" unicode="@" horiz-adv-x="579" 
d="M297 455q-19 0 -33.5 -13t-25 -35t-16 -50.5t-5.5 -59.5q0 -56 17 -80.5t37 -24.5t35 15.5t25.5 39.5t15.5 53t5 57q0 16 -2.5 33t-8.5 31.5t-17 24t-27 9.5zM438 506l-29 -208q0 -4 -1.5 -13t-2.5 -19.5l-2 -21.5t-1 -18q0 -23 8.5 -28t17.5 -5q22 0 39 13.5t29 37.5
t18 56t6 68q0 22 -2.5 49.5t-10 56.5t-22 56.5t-37.5 49.5q-26 26 -62 40t-77 14q-59 0 -104.5 -26t-76.5 -69t-47 -98.5t-16 -114.5q0 -65 18.5 -119t52 -92.5t80.5 -59.5t105 -21q34 0 61.5 5.5t50 13t40 16.5l30.5 16l18 -44q-17 -9 -37 -18.5t-45.5 -17.5t-55.5 -13.5
t-66 -5.5q-66 0 -123 21.5t-99 64t-66.5 105.5t-24.5 146q0 70 19 135t57.5 114.5t96 79t135.5 29.5q56 0 104.5 -19t84 -57t55.5 -94t20 -131q0 -58 -12 -103t-32.5 -76t-48.5 -47.5t-60 -16.5q-23 0 -36.5 6t-21 15t-10.5 19t-4 18q-5 -10 -11.5 -21t-16 -20t-24 -15
t-35.5 -6q-29 0 -50.5 12t-35.5 33.5t-20.5 51t-6.5 64.5q0 45 10 85t29 70t45.5 47.5t59.5 17.5q23 0 38 -8t24 -19t13.5 -23l7.5 -20l9 62h51z" />
    <glyph glyph-name="A" unicode="A" horiz-adv-x="494" 
d="M329 256l-83 332l-84 -332h167zM299 667l178 -667h-82l-49 191h-200l-48 -191h-82l187 667h96z" />
    <glyph glyph-name="B" unicode="B" horiz-adv-x="528" 
d="M151 67h103q62 0 101 28t39 95q0 21 -8 50.5t-39 51.5q-24 17 -50 21t-59 4h-87v-250zM151 384h89q20 0 43 2.5t42.5 13t32.5 33t13 61.5q0 40 -13.5 61.5t-32.5 31.5t-39.5 11.5t-34.5 1.5h-100v-216zM70 667h181q23 0 45.5 -1t44 -5.5t40.5 -14t34 -27.5
q14 -16 22 -33.5t12 -33.5t5 -29.5t1 -20.5q0 -41 -12 -67.5t-28.5 -43t-34 -25t-27.5 -12.5q11 -3 32 -11t41.5 -26t36 -49.5t15.5 -81.5q0 -39 -11 -73t-37 -59t-68.5 -39.5t-105.5 -14.5h-186v667z" />
    <glyph glyph-name="C" unicode="C" 
d="M482 191q-7 -38 -18.5 -74.5t-34 -65.5t-59.5 -47t-94 -18q-50 0 -87 16.5t-63 43.5t-42 63t-25 74t-12 76.5t-3 71.5q0 23 2 57.5t10 73.5t23 78t41 70.5t65 51t94 19.5q61 0 99.5 -23t61 -55.5t32 -67t14.5 -57.5l-77 -19q-5 24 -12 51.5t-20.5 50t-36.5 37.5t-59 15
q-37 0 -62.5 -16t-42 -42t-26 -57.5t-14 -62.5t-5.5 -58.5t-1 -43.5q0 -35 4.5 -83t20 -91.5t45.5 -74t81 -30.5q28 0 48 8t35 26.5t25.5 48t19.5 72.5z" />
    <glyph glyph-name="D" unicode="D" horiz-adv-x="562" 
d="M151 67h63q61 0 103 23t67.5 60t37 84.5t11.5 96.5q0 60 -14 110t-41.5 85t-68.5 54.5t-95 19.5h-63v-533zM70 667h144q62 0 108.5 -15.5t80.5 -41t56.5 -59.5t35.5 -70.5t18.5 -73.5t5.5 -69q0 -66 -18 -127.5t-55.5 -108t-95 -74.5t-136.5 -28h-144v667z" />
    <glyph glyph-name="E" unicode="E" horiz-adv-x="460" 
d="M433 667v-67h-282v-221h222v-67h-222v-245h290v-67h-371v667h363z" />
    <glyph glyph-name="F" unicode="F" horiz-adv-x="409" 
d="M420 667v-67h-269v-221h221v-67h-221v-312h-81v667h350z" />
    <glyph glyph-name="G" unicode="G" horiz-adv-x="562" 
d="M500 330v-339h-56l-11 91q-6 -12 -16.5 -28.5t-29 -31.5t-46 -25.5t-68.5 -10.5q-50 0 -86.5 17.5t-62 46.5t-41 65.5t-24.5 74.5t-12 74t-3 64q0 54 8.5 115.5t35 114.5t74.5 88t126 35q51 0 86.5 -15t58.5 -40t37.5 -58.5t23.5 -69.5l-73 -28q-7 25 -16 50.5t-23.5 46
t-37.5 33.5t-58 13q-44 0 -74 -21t-48 -58.5t-26 -88t-8 -110.5q0 -39 5 -88t21 -92t47 -72t83 -29q35 0 58.5 12.5t38.5 32t23 43.5t11.5 47.5t3.5 42.5v31h-136v67h215z" />
    <glyph glyph-name="H" unicode="H" horiz-adv-x="545" 
d="M70 667h81v-283h243v283h81v-667h-81v317h-243v-317h-81v667z" />
    <glyph glyph-name="I" unicode="I" horiz-adv-x="222" 
d="M151 667v-667h-81v667h81z" />
    <glyph glyph-name="J" unicode="J" horiz-adv-x="307" 
d="M237 275q0 -59 -2.5 -111t-18.5 -92t-51 -63t-99 -23q-16 0 -37.5 2.5t-46.5 11.5v66q13 -5 29.5 -8.5t39.5 -3.5q39 0 60.5 12.5t31.5 39.5t11.5 69t1.5 100v392h81v-392z" />
    <glyph glyph-name="K" unicode="K" horiz-adv-x="494" 
d="M151 667v-351l233 351h91l-175 -244l217 -423h-93l-176 350l-97 -137v-213h-81v667h81z" />
    <glyph glyph-name="L" unicode="L" horiz-adv-x="392" 
d="M151 667v-600h253v-67h-334v667h81z" />
    <glyph glyph-name="M" unicode="M" horiz-adv-x="682" 
d="M68 667h117l157 -537l157 537h114v-667h-76v578l-172 -578h-59l-168 579v-579h-70v667z" />
    <glyph glyph-name="N" unicode="N" horiz-adv-x="562" 
d="M170 667l255 -527v527h70v-667h-80l-278 568v-568h-70v667h103z" />
    <glyph glyph-name="O" unicode="O" horiz-adv-x="562" 
d="M281 614q-44 0 -70.5 -18.5t-44.5 -52.5q-11 -21 -18 -46.5t-11.5 -53t-6.5 -55.5t-2 -55q0 -57 8.5 -112.5t29.5 -95.5q20 -38 47 -55t70 -17q44 0 70 19.5t43 51.5q22 42 30 99.5t8 109.5q0 58 -8.5 114t-29.5 95q-17 32 -42 52t-73 20zM283 681q74 0 120 -33.5
t71.5 -84.5t34.5 -112.5t9 -117.5q0 -36 -3.5 -76t-13 -78.5t-26.5 -73.5t-43 -61.5t-62.5 -42t-86.5 -15.5q-52 0 -89.5 16.5t-64.5 44t-43.5 63t-25.5 74t-12.5 77.5t-3.5 72q0 35 3.5 74.5t13 78t26.5 74t43.5 62.5t64 43t88.5 16z" />
    <glyph glyph-name="P" unicode="P" horiz-adv-x="477" 
d="M151 600v-262h62q26 0 54 2t51.5 14t38.5 38t15 74q0 40 -10 62.5t-20 34.5q-11 14 -23 21.5t-27.5 11t-34.5 4t-44 0.5h-62zM213 667q72 0 117 -13t74 -45t40.5 -70.5t11.5 -72.5q0 -51 -21 -94.5t-60 -68.5q-18 -12 -39.5 -18.5t-43.5 -9.5t-42.5 -3.5t-36.5 -0.5h-62
v-271h-81v667h143z" />
    <glyph glyph-name="Q" unicode="Q" horiz-adv-x="562" 
d="M281 614q-44 0 -70 -18.5t-44 -52.5q-11 -21 -18.5 -47t-12 -53.5t-6 -55.5t-1.5 -54q0 -53 7.5 -109.5t30.5 -98.5q19 -36 45.5 -54t68.5 -18q41 0 67.5 17t46.5 54q22 43 30 100.5t8 109.5q0 56 -8 111.5t-29 96.5q-17 32 -43 52t-72 20zM472 -153q-14 -5 -28.5 -9.5
t-39.5 -4.5q-42 0 -69 12.5t-43 34t-21.5 49.5t-5.5 58q-17 2 -43 6.5t-59 24.5q-42 25 -65.5 69t-35.5 91.5t-15 90t-3 64.5q0 53 8.5 114t34.5 113t72.5 86.5t123.5 34.5q50 0 87 -16t63 -42.5t42.5 -62t26 -74t13 -78t3.5 -75.5q0 -38 -3.5 -77t-13 -76t-25 -70.5
t-39.5 -60.5q-25 -29 -50.5 -39.5t-45.5 -16.5q-1 -21 1.5 -37.5t11 -28.5t24.5 -18t43 -6q17 0 28.5 3t22.5 7v-66z" />
    <glyph glyph-name="R" unicode="R" 
d="M151 600v-242h101q35 0 60 10t40.5 27t22.5 40.5t7 50.5q0 36 -12.5 58.5t-31 34.5t-40 16.5t-40.5 4.5h-107zM264 667q4 0 19 -0.5t35 -4.5t41.5 -11.5t39.5 -20.5q24 -18 44 -54t20 -91q0 -45 -13 -76t-31 -51.5t-36.5 -31.5t-29.5 -16l125 -310h-87l-112 291h-128
v-291h-81v667h194z" />
    <glyph glyph-name="S" unicode="S" 
d="M381 494q-7 20 -15.5 41t-23.5 38.5t-38 28.5t-57 11t-55.5 -11.5t-34 -27.5t-17 -34t-4.5 -31q0 -26 10 -44.5t29 -32.5t46 -25.5t62 -24.5q29 -11 62.5 -26t62 -38t47 -56t18.5 -81q0 -31 -11 -65.5t-36.5 -63t-66 -47.5t-99.5 -19q-43 0 -87.5 13.5t-76.5 42.5
q-35 32 -48 69t-18 64l74 21q4 -17 11.5 -41t24.5 -46.5t46 -38.5t76 -16q37 0 62 11.5t39 29t20 37t6 36.5q0 30 -11.5 51t-30.5 36t-42 25.5t-47 19.5l-50 19.5t-37.5 16.5t-29.5 16.5t-26 20.5q-26 23 -42 58.5t-16 73.5q0 30 11.5 61.5t35.5 57t61 41.5t89 16
q56 0 92.5 -19t58 -46t32.5 -55t16 -46z" />
    <glyph glyph-name="T" unicode="T" horiz-adv-x="358" 
d="M379 667v-68h-160v-599h-81v599h-159v68h400z" />
    <glyph glyph-name="U" unicode="U" horiz-adv-x="545" 
d="M151 667v-441q0 -33 2 -64t13.5 -55t36 -38.5t70.5 -14.5q47 0 72.5 15.5t37.5 40t14 56t2 64.5v437h76v-433q0 -38 -3 -81t-22.5 -80.5t-61 -62t-118.5 -24.5q-73 0 -113.5 23.5t-59.5 59t-23 77.5t-4 80v441h81z" />
    <glyph glyph-name="V" unicode="V" horiz-adv-x="460" 
d="M90 667l146 -551l144 551h77l-186 -667h-83l-181 667h83z" />
    <glyph glyph-name="W" unicode="W" horiz-adv-x="699" 
d="M97 667l107 -530l118 530h64l121 -530l105 530h71l-138 -667h-76l-119 510l-114 -510h-75l-143 667h79z" />
    <glyph glyph-name="X" unicode="X" horiz-adv-x="426" 
d="M105 667l109 -245l125 245h72l-152 -304l174 -363h-94l-127 286l-143 -286h-76l174 348l-151 319h89z" />
    <glyph glyph-name="Y" unicode="Y" horiz-adv-x="392" 
d="M57 667l146 -307l144 307h74l-184 -385v-282h-81v282l-185 385h86z" />
    <glyph glyph-name="Z" unicode="Z" horiz-adv-x="409" 
d="M399 667v-55l-309 -541h315v-71h-399v71l302 529h-286v67h377z" />
    <glyph glyph-name="bracketleft" unicode="[" horiz-adv-x="307" 
d="M229 667v-51h-74v-732h74v-51h-147v834h147z" />
    <glyph glyph-name="backslash" unicode="\" horiz-adv-x="443" 
d="M450 -167h-62l-337 834h63z" />
    <glyph glyph-name="bracketright" unicode="]" horiz-adv-x="307" 
d="M77 -167v51h74v732h-74v51h147v-834h-147z" />
    <glyph glyph-name="asciicircum" unicode="^" 
d="M478 305h-77l-146 299l-146 -299h-76l188 369h77z" />
    <glyph glyph-name="underscore" unicode="_" horiz-adv-x="500" 
d="M0 -75h500v-50h-500v50z" />
    <glyph glyph-name="quoteleft" unicode="&#x2018;" horiz-adv-x="204" 
d="M48 459v98l65 121h44l-59 -115h41v-104h-91z" />
    <glyph glyph-name="a" unicode="a" horiz-adv-x="460" 
d="M321 245q-17 3 -28.5 4.5t-28.5 1.5q-76 0 -111.5 -29.5t-35.5 -89.5q0 -38 19.5 -61.5t62.5 -23.5q37 0 61.5 18.5t39.5 44.5q18 34 20.5 64.5t0.5 70.5zM59 380q2 9 5.5 22t12 27.5t23.5 29.5t39 27q11 5 34.5 13t60.5 8q45 0 78 -14.5t52 -37.5q22 -27 26 -68.5
t4 -83.5v-145q0 -37 0.5 -61t1 -40.5t2.5 -29t5 -27.5h-70q-4 27 -5 44t-1 43l-18 -32.5t-26.5 -32.5t-40 -25.5t-57.5 -10.5q-65 0 -105 39.5t-40 108.5q0 31 9.5 59.5t27.5 50.5q28 33 73 48t106 15q21 0 36 -1t29 -3v21q0 13 -1.5 34t-10 40.5t-27.5 33.5t-53 14
q-29 0 -47 -9t-28.5 -22t-15.5 -26t-7 -21z" />
    <glyph glyph-name="b" unicode="b" horiz-adv-x="477" 
d="M139 211q0 -15 1.5 -41.5t12 -53t32.5 -46t63 -19.5q38 0 59.5 20.5t32 51t13 65.5t2.5 65q0 39 -4 73t-15 60t-31.5 41t-54.5 15q-47 0 -79 -42.5t-32 -113.5v-75zM139 667v-239q6 9 15.5 22t24.5 25t35.5 20t49.5 8q38 0 64 -13t42 -28q20 -21 33 -46t20.5 -52.5
t10 -55.5t2.5 -55q0 -33 -5.5 -78.5t-25 -86.5t-57 -69.5t-100.5 -28.5q-31 0 -51.5 7t-34.5 18t-23 25t-16 29q-2 -8 -3.5 -13l-3.5 -11.5t-4.5 -16.5t-7.5 -28h-38v667h73z" />
    <glyph glyph-name="c" unicode="c" horiz-adv-x="409" 
d="M314 325q-3 23 -7.5 45t-14 39t-26 27t-43.5 10q-26 0 -45 -10.5t-31.5 -36t-18.5 -67t-6 -102.5q0 -21 1.5 -52.5t11.5 -60.5t31 -49.5t59 -20.5q28 0 45 12t26 30t12.5 39t5.5 39l74 -9q-4 -25 -11 -55t-24.5 -56t-49 -43.5t-83.5 -17.5q-55 0 -89.5 23t-54.5 60
t-27.5 82.5t-7.5 89.5q0 50 8 98t29 85.5t56.5 60t90.5 22.5q49 0 78.5 -17t47 -42t25 -54.5t12.5 -53.5z" />
    <glyph glyph-name="d" unicode="d" horiz-adv-x="477" 
d="M338 293q0 19 -3.5 48t-24.5 58q-17 24 -39 33.5t-43 9.5q-33 0 -54 -17t-33 -44.5t-16 -62t-4 -68.5q0 -43 5.5 -79.5t18 -63t34 -41.5t53.5 -15q23 0 44.5 10.5t35.5 29.5q18 23 22 53t4 67v82zM411 667v-667h-66v69q-5 -9 -14 -22.5t-24 -26t-38 -21.5t-56 -9
q-59 0 -93.5 28.5t-52 68.5t-22.5 82.5t-5 70.5q0 64 13 113t36 82.5t55.5 50.5t70.5 17q31 0 52.5 -8.5t35.5 -20.5t22 -25.5l13 -22.5v241h73z" />
    <glyph glyph-name="e" unicode="e" horiz-adv-x="443" 
d="M326 297q0 28 -5 54.5t-16.5 47.5t-31 34t-48.5 13q-28 0 -47 -13.5t-30.5 -35t-17.5 -48t-8 -52.5h204zM118 237q0 -11 0.5 -29t3.5 -39t10 -43t19.5 -39.5t32.5 -28.5t49 -11q26 0 43.5 10t28.5 25t17.5 32.5t10.5 31.5l69 -16q-12 -43 -30.5 -71t-41 -44t-48.5 -22.5
t-53 -6.5q-53 0 -89 21.5t-58 56.5t-31.5 81t-9.5 94q0 69 15.5 119.5t41.5 83.5t61 49t74 16q83 0 128.5 -65.5t47.5 -204.5h-291z" />
    <glyph glyph-name="f" unicode="f" horiz-adv-x="239" 
d="M243 493v-60h-90v-433h-73v433h-71v60h71q1 37 3.5 71t15 60t38.5 41.5t74 15.5q22 0 33.5 -2l22.5 -4v-60q-6 2 -14 3.5t-21 1.5q-28 0 -43.5 -7t-23.5 -22t-10 -39.5t-2 -58.5h90z" />
    <glyph glyph-name="g" unicode="g" horiz-adv-x="426" 
d="M147 21l-13 -9t-13.5 -13t-11 -19t-4.5 -26q0 -25 9.5 -41t26 -25.5t40 -13t51.5 -3.5q16 0 38 2t42 10.5t34.5 24.5t14.5 44q0 16 -7.5 33.5t-35.5 25.5q-7 2 -15 3t-25.5 2t-48.5 2t-82 3zM225 446q-32 0 -50.5 -13.5t-27.5 -31.5t-11.5 -37t-2.5 -29q0 -32 8.5 -53.5
t22 -34t28.5 -17.5t29 -5q17 0 33.5 7t29 20.5t20 34.5t7.5 48q0 19 -5 39t-15.5 36t-26.5 26t-39 10zM420 508q-8 2 -12 2h-8q-29 0 -39 -19t-13 -43l10.5 -15.5t12.5 -23.5t10.5 -32t4.5 -40q0 -27 -9 -57t-29 -55t-51.5 -41t-76.5 -16q-20 0 -33.5 2.5t-27.5 6.5
q-14 -5 -27.5 -13.5t-13.5 -32.5q0 -17 6 -26t21 -13.5t40 -6.5t63 -4t72.5 -5.5t60 -16t40.5 -37t15 -67.5q0 -51 -26 -79.5t-60.5 -42.5t-69.5 -17.5t-53 -3.5q-24 0 -57.5 4t-64 17t-52.5 38.5t-22 69.5q0 28 7.5 45.5t17.5 28.5t21 16t19 8l-15 11t-15 15t-11.5 21.5
t-4.5 29.5q0 34 16.5 55.5t47.5 35.5q-8 7 -18 18t-18.5 26.5t-14.5 36.5t-6 49q0 38 14 69.5t37 54t52.5 34.5t61.5 12q30 0 49.5 -7.5t32.5 -13.5q6 32 17 49t25.5 25t33 9t40.5 1v-62z" />
    <glyph glyph-name="h" unicode="h" horiz-adv-x="460" 
d="M139 667v-250q3 10 10 25t21 29.5t36 25t56 10.5q38 0 68.5 -16.5t46.5 -45.5q13 -25 15 -61.5t2 -77.5v-306h-73v306q0 25 -1.5 50t-9 45t-23.5 32.5t-46 12.5q-35 0 -55 -21t-30.5 -50.5t-13.5 -61.5t-3 -55v-258h-73v667h73z" />
    <glyph glyph-name="i" unicode="i" horiz-adv-x="204" 
d="M63 580v85h79v-85h-79zM139 493v-493h-73v493h73z" />
    <glyph glyph-name="j" unicode="j" horiz-adv-x="204" 
d="M63 580v85h79v-85h-79zM139 493v-475q0 -37 -2 -72t-13.5 -62t-36.5 -43t-71 -16q-18 0 -30.5 2t-26.5 6v61q11 -3 21.5 -5.5t27.5 -2.5q22 0 33.5 6t17 21t6.5 40.5t1 64.5v475h73z" />
    <glyph glyph-name="k" unicode="k" horiz-adv-x="409" 
d="M139 667v-419l176 245h80l-129 -174l146 -319h-79l-116 262l-78 -107v-155h-73v667h73z" />
    <glyph glyph-name="l" unicode="l" horiz-adv-x="204" 
d="M139 667v-667h-73v667h73z" />
    <glyph glyph-name="m" unicode="m" horiz-adv-x="698" 
d="M66 493h68v-75q7 15 15.5 31t22 29t33.5 21t50 8q36 0 58 -11t34.5 -26.5t17.5 -33t8 -29.5q5 12 13 29t22.5 32.5t37.5 27t57 11.5q30 0 60 -13t49 -42q8 -12 12 -29.5t6 -37.5t2.5 -41t0.5 -40v-304h-73v300q0 28 -1 54.5t-8 46.5t-22.5 32.5t-43.5 12.5
q-32 0 -51.5 -16t-30 -39.5t-14 -50.5t-3.5 -49v-291h-73v333q0 36 -5.5 58t-16 34t-24.5 16.5t-31 4.5q-20 0 -33.5 -6t-23 -14.5t-15.5 -18.5l-10 -17q-11 -24 -13 -49.5t-2 -54.5v-286h-73v493z" />
    <glyph glyph-name="n" unicode="n" horiz-adv-x="460" 
d="M66 493h68v-76q5 11 13 26.5t22.5 29.5t36.5 24t55 10q42 0 73 -18t45 -48q11 -23 13 -54t2 -73v-314h-73v304q0 31 -1 57t-8.5 45t-23 29.5t-43.5 10.5q-22 0 -41.5 -8.5t-33.5 -29.5t-22.5 -55.5t-8.5 -86.5v-266h-73v493z" />
    <glyph glyph-name="o" unicode="o" horiz-adv-x="460" 
d="M230 446q-39 0 -61 -24t-32.5 -57t-12.5 -66.5t-2 -52.5q0 -21 2.5 -54.5t13 -66t32 -55.5t60.5 -23t60.5 23t32 55.5t13 66t2.5 54.5q0 12 -0.5 31t-4 41.5t-10 45t-18.5 41t-30.5 30t-44.5 11.5zM232 507q58 0 94.5 -25t57 -63.5t28 -83t7.5 -83.5q0 -33 -5 -78.5
t-24 -87t-57 -71t-104 -29.5q-57 0 -93.5 24.5t-57.5 62.5t-29 84t-8 89q0 25 2.5 54t10 58t20.5 56t34 47.5t51.5 33t72.5 12.5z" />
    <glyph glyph-name="p" unicode="p" horiz-adv-x="477" 
d="M139 209q0 -31 3.5 -59.5t23.5 -55.5q15 -20 35 -31.5t46 -11.5q25 0 44 10.5t35 38.5q18 32 23.5 74.5t5.5 74.5q0 27 -4 60.5t-15.5 63t-32.5 49.5t-56 20q-22 0 -44 -10t-41 -44q-17 -31 -20 -55.5t-3 -49.5v-74zM132 493v-86q5 11 13.5 27.5t23.5 31.5t37.5 26
t56.5 11q40 0 72 -17.5t54.5 -50.5t34.5 -79t12 -103q0 -12 -1.5 -36.5t-7.5 -54t-17 -60t-30 -55.5t-48 -41t-69 -16q-27 0 -46.5 6t-33.5 16t-24.5 23.5t-19.5 28.5v-231h-73v660h66z" />
    <glyph glyph-name="q" unicode="q" horiz-adv-x="477" 
d="M338 284q0 44 -10.5 74.5t-27 49t-35.5 26.5t-35 8q-38 0 -59.5 -22.5t-32.5 -54t-14 -65t-3 -56.5q0 -33 4 -66t17 -64q4 -10 11.5 -21t18 -20.5t24.5 -15.5t32 -6q11 0 27.5 4.5t36.5 24.5q31 31 38.5 69t7.5 78v57zM411 500v-667h-73v240l-16.5 -25.5t-24.5 -27.5
t-36 -21.5t-51 -8.5q-78 0 -124 65t-46 181q0 78 17 129t43.5 82t58.5 43.5t62 12.5q31 0 52 -9.5t35.5 -23t22.5 -29.5l14 -28l7.5 20t6.5 18.5t6 21l7 27.5h39z" />
    <glyph glyph-name="r" unicode="r" horiz-adv-x="255" 
d="M131 493v-103q5 13 14.5 34t26 40t41.5 32t60 10v-82q-61 7 -97.5 -35t-36.5 -134v-255h-73v493h65z" />
    <glyph glyph-name="s" unicode="s" horiz-adv-x="392" 
d="M288 366q-3 8 -9 21.5t-16.5 26.5t-28 22.5t-42.5 9.5q-22 0 -38 -7t-26.5 -17.5t-15.5 -24.5t-5 -27q0 -19 6.5 -31t20.5 -21t36 -16.5t52 -16.5q24 -8 50.5 -18t49 -26.5t37 -41.5t14.5 -62q0 -27 -10.5 -53.5t-32 -48.5t-55.5 -35.5t-81 -13.5q-56 0 -89 17t-52 40
t-26 46.5t-10 37.5l68 15q2 -10 6.5 -26t16.5 -31.5t33.5 -26.5t57.5 -11q27 0 45.5 7.5t30 19.5t17 26.5t5.5 27.5q0 21 -9 34.5t-22.5 23t-31 16t-33.5 11.5l-54.5 17.5t-39 16t-28 18t-20.5 22.5q-11 16 -17.5 34.5t-6.5 38.5q0 22 9.5 48t29 48t50 36.5t72.5 14.5
q45 0 73.5 -14.5t45.5 -34.5t25 -41.5t12 -34.5z" />
    <glyph glyph-name="t" unicode="t" horiz-adv-x="255" 
d="M147 615v-122h96v-60h-96v-248q0 -36 1 -61.5t8.5 -42t22.5 -24t44 -7.5q14 0 24 1.5t20 3.5v-62l-30 -4.5t-38 -2.5q-47 0 -72.5 14.5t-37 40.5t-13.5 62.5t-2 81.5v248h-71v60h71v115z" />
    <glyph glyph-name="u" unicode="u" horiz-adv-x="460" 
d="M139 493v-311q0 -31 1 -56t8 -42.5t22.5 -27t43.5 -9.5q40 0 62 24t32 58t11.5 72t1.5 67v225h73v-493h-68v73q-6 -12 -15 -27t-23.5 -28.5t-36.5 -22.5t-54 -9q-9 0 -23.5 1.5t-31 8t-32.5 19.5t-27 36q-6 13 -9.5 30.5t-5 36t-2 35.5t-0.5 28v312h73z" />
    <glyph glyph-name="v" unicode="v" horiz-adv-x="375" 
d="M81 493l112 -405l108 405h67l-143 -493h-75l-143 493h74z" />
    <glyph glyph-name="w" unicode="w" horiz-adv-x="562" 
d="M85 493l85 -370l84 370h53l91 -374l88 374h61l-121 -493h-62l-84 347l-79 -347h-65l-124 493h73z" />
    <glyph glyph-name="x" unicode="x" horiz-adv-x="341" 
d="M83 493l88 -167l85 167h75l-122 -227l144 -266h-84l-103 196l-102 -196h-77l141 259l-128 234h83z" />
    <glyph glyph-name="y" unicode="y" horiz-adv-x="375" 
d="M92 493l101 -369l109 369h70l-170 -543q-9 -27 -18.5 -50.5t-24 -41t-35 -27t-51.5 -9.5q-15 0 -26 1.5t-22 3.5v60q8 -2 15.5 -3t18.5 -1q21 0 34.5 5.5t24 20.5t19.5 42t21 71l-139 471h73z" />
    <glyph glyph-name="z" unicode="z" horiz-adv-x="324" 
d="M320 493v-40l-228 -393h228v-60h-311v60l217 373h-199v60h293z" />
    <glyph glyph-name="braceleft" unicode="{" horiz-adv-x="307" 
d="M236 615q-23 0 -36 -5t-19.5 -17t-8 -32.5t-1.5 -52.5v-103q0 -39 -1.5 -64.5t-8 -42t-19 -26.5t-34.5 -17q22 -7 34.5 -17t19 -26.5t8 -42t1.5 -64.5v-115q0 -32 1.5 -52.5t8 -32.5t19.5 -17t36 -5l-1 -52q-51 -3 -79 8t-41 32.5t-15 52t-2 66.5v115q0 30 -1 52.5
t-6 37.5t-17 22.5t-33 6.5v61q21 -1 33 6.5t17 23t6 38t1 52.5v103q0 36 2 66.5t15 52t41 32.5t80 8v-52z" />
    <glyph glyph-name="bar" unicode="|" horiz-adv-x="500" 
d="M284 750v-1000h-67v1000h67z" />
    <glyph glyph-name="braceright" unicode="}" horiz-adv-x="307" 
d="M71 -117q24 0 37 5t19 17.5t7.5 33t1.5 51.5v114q0 39 1.5 65t8 42.5t19 26.5t34.5 17q-22 7 -34.5 16.5t-19 26t-8 42.5t-1.5 65v103q0 31 -1.5 51.5t-7.5 33t-19 17.5t-37 5v52q52 3 80 -8t41 -32.5t15 -52t2 -66.5v-103q0 -30 1 -52.5t6 -38t17 -23t33 -6.5v-61
q-21 1 -33 -6.5t-17 -22.5t-6 -37.5t-1 -52.5v-115q0 -36 -2 -66.5t-15 -52t-41 -32.5t-80 -8v52z" />
    <glyph glyph-name="asciitilde" unicode="~" 
d="M16 290q9 18 20.5 37.5t27 36.5t37 28t51.5 11q6 0 13.5 -0.5t20.5 -4t32 -10.5t47 -20l32.5 -15.5t24.5 -10.5t20.5 -5.5t20.5 -1.5q35 0 55 20.5t37 49.5l41 -24q-6 -12 -16.5 -31t-27.5 -36.5t-41 -30t-56 -12.5q-26 0 -58 12.5t-82 35.5q-42 20 -68 20
q-19 0 -33.5 -8t-25.5 -19.5t-18.5 -24.5l-13.5 -23z" />
    <glyph glyph-name="exclamdown" unicode="&#xa1;" horiz-adv-x="341" 
d="M125 391v102h91v-102h-91zM120 -174l26 504h49l26 -504h-101z" />
    <glyph glyph-name="cent" unicode="&#xa2;" 
d="M238 513q-12 -4 -25 -12t-23.5 -26t-17 -50.5t-6.5 -86.5q0 -49 6 -79.5t16 -49t23 -27.5t27 -15v346zM288 667v-95q21 -3 41 -11t38 -24.5t32 -45t22 -71.5l-61 -15q-9 48 -25.5 73.5t-46.5 35.5v-347q36 13 50 39t22 69l61 -13q-2 -14 -7 -37t-18.5 -46.5t-39 -43.5
t-68.5 -27v-115h-50v115q-18 3 -46 13t-55 46q-24 31 -35.5 77.5t-11.5 91.5q0 16 2.5 42t10 55t22 57.5t39.5 49.5q22 17 40.5 23t33.5 9v95h50z" />
    <glyph glyph-name="sterling" unicode="&#xa3;" 
d="M402 376v-60h-132l4.5 -29t2.5 -40q0 -44 -9 -74.5t-22.5 -51t-29 -34t-28.5 -22.5h76q43 0 72.5 2.5t51 11t37 24.5t31.5 43l55 -43q-20 -38 -43 -59t-52.5 -30.5t-66.5 -11.5t-85 -2h-235v67h21q40 0 69 13.5t47.5 35.5t27 49t8.5 54q0 29 -3.5 53t-7.5 44h-113v60h103
q-5 27 -10 60.5t-5 64.5q0 21 6 52t25 59.5t53 48.5t91 20q34 0 59.5 -9.5t43 -23.5t29 -30l19.5 -28l-57 -47q-5 10 -12.5 22.5t-18.5 23.5t-27.5 18.5t-38.5 7.5q-35 0 -54 -16.5t-28 -37.5t-10.5 -41t-1.5 -26q0 -12 1 -23t3 -24t5.5 -30l8.5 -41h140z" />
    <glyph glyph-name="yen" unicode="&#xa5;" 
d="M118 667l143 -322l143 322h77l-133 -271h120v-52h-144l-33 -75h177v-52h-177v-217h-73v217h-163v52h162l-36 75h-126v52h104l-128 271h87z" />
    <glyph glyph-name="florin" unicode="&#x192;" 
d="M391 383h-115l-54 -307q-8 -45 -17.5 -86t-28.5 -72t-52.5 -49.5t-88.5 -18.5q-14 0 -24 1l-20 2l11 65q8 -2 14 -2h15q29 0 48 5.5t32 22.5t22 48.5t18 83.5l54 307h-87l10 60h87q10 49 20.5 92t31 75t54.5 50.5t91 18.5q9 0 17 -1t21 -3l-11 -60q-42 2 -67 -5.5
t-40.5 -27.5t-25 -54t-19.5 -85h113z" />
    <glyph glyph-name="section" unicode="&#xa7;" 
d="M209 378q-22 -19 -40.5 -42t-18.5 -59q0 -25 8 -41t27 -28.5t51 -24l80 -27.5q19 17 38 39.5t19 58.5q0 21 -8 35.5t-18.5 24.5t-21 16t-16.5 9q-5 3 -19 8.5l-30 11.5l-30.5 11.5t-20.5 7.5zM365 537q-3 10 -9 25.5t-17.5 29t-30.5 23.5t-49 10q-15 0 -34.5 -5.5
t-33.5 -22.5q-11 -14 -15 -31t-4 -30q0 -26 10 -44t27 -30.5t39.5 -21.5t48.5 -18q25 -9 50.5 -20t46.5 -27.5t34 -40.5t13 -60q0 -28 -7.5 -49.5t-18.5 -38t-24 -29t-24 -21.5l25 -18.5t26.5 -26.5t21 -39t8.5 -54q0 -37 -14 -68.5t-39.5 -55t-61.5 -36.5t-81 -13
q-60 0 -96 19t-56 44t-27.5 50t-9.5 36l71 13q2 -10 7.5 -27t18.5 -33.5t36 -28.5t60 -12q36 0 59 10.5t36 26t17.5 33t4.5 31.5q0 25 -9 43t-22.5 30t-28.5 18.5t-26 10.5q-39 13 -65 22.5t-45 17.5t-31.5 15.5t-24.5 18.5q-24 21 -31.5 47t-7.5 46q0 30 9 53.5t21.5 41
t27 30t25.5 20.5q-8 6 -19 16t-21 25.5t-17.5 37.5t-7.5 52q0 33 12 60.5t34 47t51 30.5t64 11q34 0 70.5 -11t61.5 -36q21 -21 29.5 -44.5t13.5 -42.5z" />
    <glyph glyph-name="currency" unicode="&#xa4;" 
d="M256 250q38 0 65.5 26.5t27.5 66.5q0 19 -7.5 36.5t-20 30t-29.5 20t-36 7.5q-20 0 -36.5 -7.5t-29.5 -20.5t-20 -29.5t-7 -35.5q0 -20 7.5 -37t20 -30t29.5 -20t36 -7zM419 546l41 -41l-74 -74q6 -10 16 -31.5t10 -55.5q0 -35 -10 -56.5t-17 -31.5l74 -74l-41 -41
l-74 73q-14 -8 -34 -17.5t-54 -9.5q-33 0 -55 10t-32 16l-74 -73l-41 41l74 73q-10 15 -19 34.5t-9 54.5t10.5 57t16.5 32l-74 74l41 41l75 -74q10 7 31 17t56 10t54 -8.5t35 -19.5z" />
    <glyph glyph-name="quotesingle" unicode="'" horiz-adv-x="204" 
d="M129 409h-54l-14 258h82z" />
    <glyph glyph-name="quotedblleft" unicode="&#x201c;" horiz-adv-x="341" 
d="M48 459v98l65 121h44l-59 -115h41v-104h-91zM184 459v98l65 121h44l-59 -115h41v-104h-91z" />
    <glyph glyph-name="guillemotleft" unicode="&#xab;" horiz-adv-x="358" 
d="M132 116l-87 141l87 140h45l-46 -140l46 -141h-45zM268 109l-87 148l87 148h45l-46 -148l46 -148h-45z" />
    <glyph glyph-name="guilsinglleft" unicode="&#x2039;" horiz-adv-x="221" 
d="M132 109l-87 148l87 148h45l-46 -148l46 -148h-45z" />
    <glyph glyph-name="guilsinglright" unicode="&#x203a;" horiz-adv-x="221" 
d="M90 405l87 -148l-87 -148h-45l46 148l-46 148h45z" />
    <glyph glyph-name="fi" unicode="&#xfb01;" horiz-adv-x="443" 
d="M301 580v85h80v-85h-80zM377 493v-493h-73v493h73zM243 493v-60h-90v-433h-73v433h-71v60h71q1 38 3.5 72.5t15.5 60t39.5 40.5t74.5 15q16 0 24 -1t19 -3v-60q-5 2 -10 2.5t-13 0.5q-28 0 -44 -6.5t-24 -21.5t-10 -39.5t-2 -59.5h90z" />
    <glyph glyph-name="fl" unicode="&#xfb02;" horiz-adv-x="443" 
d="M377 667v-667h-73v667h73zM243 493v-60h-90v-433h-73v433h-71v60h71q1 38 3.5 72.5t15.5 60t39.5 40.5t74.5 15q16 0 24 -1t19 -3v-60q-5 2 -10 2.5t-13 0.5q-28 0 -44 -6.5t-24 -21.5t-10 -39.5t-2 -59.5h90z" />
    <glyph glyph-name="endash" unicode="&#x2013;" horiz-adv-x="392" 
d="M361 278v-60h-330v60h330z" />
    <glyph glyph-name="dagger" unicode="&#x2020;" 
d="M290 667v-196h154v-64h-154v-574h-68v574h-154v64h154v196h68z" />
    <glyph glyph-name="daggerdbl" unicode="&#x2021;" 
d="M290 667v-196h154v-64h-154v-314h154v-64h-154v-196h-68v196h-154v64h154v314h-154v64h154v196h68z" />
    <glyph glyph-name="periodcentered" unicode="&#xb7;" horiz-adv-x="238" 
d="M165 387v-108h-91v108h91z" />
    <glyph glyph-name="periodcentered" unicode="&#x22c5;" horiz-adv-x="238" 
d="M165 387v-108h-91v108h91z" />
    <glyph glyph-name="paragraph" unicode="&#xb6;" 
d="M435 -167h-58v777h-51v-777h-58v464h-39q-37 0 -70.5 4t-65.5 28q-24 17 -37 39.5t-20 44.5t-8.5 40.5t-1.5 27.5q0 55 20.5 96t49.5 61q15 10 34.5 16t38.5 9t35 3.5t25 0.5h206v-834z" />
    <glyph glyph-name="bullet" unicode="&#x2022;" horiz-adv-x="99" 
d="M99 398v-117h-99v117h99z" />
    <glyph glyph-name="quotesinglbase" unicode="&#x201a;" horiz-adv-x="204" 
d="M157 105v-99l-65 -121h-44l59 115h-41v105h91z" />
    <glyph glyph-name="quotedblbase" unicode="&#x201e;" horiz-adv-x="341" 
d="M293 105v-99l-65 -121h-44l59 115h-41v105h91zM157 105v-99l-65 -121h-44l59 115h-41v105h91z" />
    <glyph glyph-name="quotedblright" unicode="&#x201d;" horiz-adv-x="341" 
d="M293 667v-99l-65 -121h-44l59 115h-41v105h91zM157 667v-99l-65 -121h-44l59 115h-41v105h91z" />
    <glyph glyph-name="guillemotright" unicode="&#xbb;" horiz-adv-x="358" 
d="M226 405l87 -148l-87 -148h-45l46 148l-46 148h45zM90 405l87 -148l-87 -148h-45l46 148l-46 148h45z" />
    <glyph glyph-name="ellipsis" unicode="&#x2026;" horiz-adv-x="715" 
d="M641 108v-108h-91v108h91zM403 108v-108h-91v108h91zM165 108v-108h-91v108h91z" />
    <glyph glyph-name="perthousand" unicode="&#x2030;" horiz-adv-x="988" 
d="M809 287q-22 0 -35.5 -11t-20.5 -28.5t-9 -39t-2 -43.5q0 -25 2.5 -47.5t10 -39t20.5 -26t34 -9.5q22 0 35.5 10.5t20.5 28t9 39t2 44.5q0 21 -2 43t-9 39.5t-20.5 28.5t-35.5 11zM809 338q30 0 54.5 -12.5t41.5 -35.5t26 -55t9 -70q0 -79 -35.5 -126t-95.5 -47
q-62 0 -96.5 48t-34.5 125q0 37 8.5 68.5t25.5 55t41 36.5t56 13zM502 287q-21 0 -34 -10.5t-20 -27.5t-9.5 -39t-2.5 -45q0 -54 13.5 -88t53.5 -34q22 0 35 10.5t20 28t9 39t2 44.5q0 21 -2 43t-9 39.5t-20 28.5t-35 11h-1zM503 338q30 0 54.5 -12.5t41 -35.5t25.5 -55
t9 -70q0 -79 -35 -126t-95 -47t-95.5 47t-35.5 126q0 38 9 70t26 55t41.5 35.5t54.5 12.5zM537 667l-334 -667h-58l334 667h58zM179 624q-23 0 -36.5 -12t-20.5 -30t-8.5 -40t-1.5 -41t1.5 -40.5t8.5 -39.5t20.5 -30t36.5 -12q21 0 34.5 10t20.5 27t9.5 39t2.5 46
q0 54 -13.5 88.5t-53.5 34.5zM179 675q30 0 54.5 -12.5t41.5 -35.5t26 -55t9 -70q0 -78 -34.5 -126t-96.5 -48q-60 0 -95.5 47.5t-35.5 126.5q0 78 35.5 125.5t95.5 47.5z" />
    <glyph glyph-name="questiondown" unicode="&#xbf;" horiz-adv-x="494" 
d="M231 391v102h91v-102h-91zM455 8q-3 -22 -11 -55.5t-29 -64.5t-59 -53t-101 -22q-39 0 -73.5 11.5t-59.5 34t-39.5 55.5t-14.5 77q0 33 7.5 58.5t21 46t32 38t41.5 35.5q26 21 41 36t22 31.5t7.5 37t-0.5 52.5h72q0 -34 -1.5 -60.5t-7 -48t-17.5 -39t-34 -34.5l-45.5 -36
t-32.5 -33t-19 -37t-6 -48q0 -19 4.5 -39.5t16.5 -37.5t33.5 -28t54.5 -11q115 0 127 152z" />
    <glyph glyph-name="grave" unicode="`" horiz-adv-x="500" 
d="M264 562l-166 105l51 55l149 -124z" />
    <glyph glyph-name="acute" unicode="&#xb4;" horiz-adv-x="500" 
d="M351 722l51 -55l-166 -105l-34 36z" />
    <glyph glyph-name="circumflex" unicode="&#x2c6;" horiz-adv-x="500" 
d="M250 700l157 -118l-71 -13l-86 61l-86 -61l-71 13z" />
    <glyph glyph-name="tilde" unicode="&#x2dc;" horiz-adv-x="500" 
d="M393 649q-6 -12 -14 -25t-19 -24t-25 -18.5t-33 -7.5q-12 0 -26 4.5t-38 21.5q-19 14 -28 17.5t-16 3.5q-10 0 -17.5 -4.5t-13 -11t-9 -13.5t-6.5 -12l-41 24q12 26 24.5 41.5t24.5 23.5t23 10.5t20 2.5q14 0 26.5 -4.5t35.5 -20.5q19 -14 29.5 -18t19.5 -4q17 0 26 11.5
t16 26.5z" />
    <glyph glyph-name="macron" unicode="&#xaf;" horiz-adv-x="500" 
d="M383 651v-58h-267v58h267z" />
    <glyph glyph-name="macron" unicode="&#x2c9;" horiz-adv-x="500" 
d="M383 651v-58h-267v58h267z" />
    <glyph glyph-name="breve" unicode="&#x2d8;" horiz-adv-x="500" 
d="M171 678q2 -9 5 -19t11.5 -18.5t23 -14.5t38.5 -6q44 0 59.5 17t20.5 41h61q-3 -19 -11 -39.5t-23 -37.5t-39.5 -28t-61.5 -11q-66 0 -100 28t-45 88h61z" />
    <glyph glyph-name="dotaccent" unicode="&#x2d9;" horiz-adv-x="500" 
d="M250 567q-9 0 -18.5 3.5t-18 10t-14 17t-5.5 24.5q0 24 16.5 40t39.5 16q22 0 39 -15.5t17 -40.5q0 -14 -5.5 -24.5t-14 -17t-18 -10t-18.5 -3.5z" />
    <glyph glyph-name="dieresis" unicode="&#xa8;" horiz-adv-x="500" 
d="M324 575q-18 0 -34.5 12.5t-16.5 35.5q0 20 14.5 34t36.5 14t36.5 -14t14.5 -34q0 -23 -17 -35.5t-34 -12.5zM176 575q-17 0 -34 12.5t-17 35.5q0 20 14.5 34t36.5 14t36.5 -14t14.5 -34q0 -23 -17 -35.5t-34 -12.5z" />
    <glyph glyph-name="ring" unicode="&#x2da;" horiz-adv-x="500" 
d="M262 590q16 0 30.5 12t14.5 34q0 20 -14 33t-31 13q-18 0 -32 -13t-14 -33q0 -22 14.5 -34t31.5 -12zM262 546q-15 0 -31 5.5t-29 17t-21.5 28t-8.5 38.5q0 20 7.5 37t20 29t28.5 18.5t34 6.5q35 0 62 -25t27 -66q0 -22 -8.5 -38.5t-21 -28t-28.5 -17t-31 -5.5z" />
    <glyph glyph-name="cedilla" unicode="&#xb8;" horiz-adv-x="500" 
d="M191 -132q15 -5 32 -9t37 -4q4 0 11 0.5t14.5 3.5t13 9t5.5 18q0 9 -4 15t-9 10t-10.5 5.5t-8.5 2.5q-6 2 -21.5 2.5t-35.5 0.5l25 78h41l-13 -44h16q37 0 59.5 -19t22.5 -48q0 -14 -6.5 -28.5t-19 -26t-31 -18.5t-42.5 -7q-32 0 -52.5 9.5t-34.5 17.5z" />
    <glyph glyph-name="hungarumlaut" unicode="&#x2dd;" horiz-adv-x="500" 
d="M455 661l-132 -99l-26 31l106 121zM328 661l-132 -99l-26 31l106 121z" />
    <glyph glyph-name="ogonek" unicode="&#x2db;" horiz-adv-x="500" 
d="M393 -149q-11 -5 -26.5 -9.5t-41.5 -4.5q-30 0 -49 8t-30.5 20t-15.5 25.5t-4 24.5q0 19 7 33t17 24t21 16.5l20 11.5h39q-14 -13 -27.5 -30t-13.5 -43q0 -17 7 -26.5t16.5 -14t20 -5t18.5 -0.5t14 0.5t19 2.5z" />
    <glyph glyph-name="caron" unicode="&#x2c7;" horiz-adv-x="500" 
d="M164 694l86 -61l86 61l71 -12l-157 -119l-157 119z" />
    <glyph glyph-name="emdash" unicode="&#x2014;" horiz-adv-x="613" 
d="M582 278v-60h-551v60h551z" />
    <glyph glyph-name="AE" unicode="&#xc6;" horiz-adv-x="733" 
d="M345 273v337l-164 -337h164zM711 667v-67h-285v-221h224v-67h-224v-245h287v-67h-368v206h-196l-100 -206h-79l337 667h404z" />
    <glyph glyph-name="ordfeminine" unicode="&#xaa;" 
d="M193 428q0 -30 15.5 -40.5t33.5 -10.5q30 0 46.5 15t24 34.5t9 39t1.5 29.5q-9 2 -16 3t-18 1q-20 0 -37.5 -3t-30.5 -11t-20.5 -22t-7.5 -35zM135 585q2 9 7.5 25t19.5 31.5t39 27.5t67 12q35 0 59.5 -11t37.5 -27q17 -19 20 -46.5t3 -56.5v-96q0 -28 0.5 -45t1 -28.5
t2 -20t4.5 -18.5h-61q-2 11 -2.5 19.5t-2.5 28.5l-14.5 -20t-19 -18.5t-27 -13.5t-37.5 -5q-47 0 -78.5 27t-31.5 78q0 45 21.5 70t49.5 36t54.5 13t36.5 2q14 0 22.5 -0.5t16.5 -2.5q0 11 -1 25t-6.5 26.5t-17.5 21t-35 8.5q-19 0 -30.5 -5.5t-18.5 -13t-10 -17t-4 -16.5z
" />
    <glyph glyph-name="Oslash" unicode="&#xd8;" horiz-adv-x="562" 
d="M194 77q8 -6 28 -16.5t60 -10.5q42 0 69 18t47 54q12 22 19 48.5t11.5 54.5t6 56t1.5 52q0 58 -5.5 107t-22.5 94zM373 586q-5 4 -12 9t-18 10t-26 8.5t-36 3.5q-44 0 -71 -18t-45 -53q-12 -22 -19.5 -48.5t-12 -54.5t-6 -56.5t-1.5 -53.5q0 -49 3.5 -84t8.5 -59.5
t10.5 -40t9.5 -24.5zM449 602q38 -56 51.5 -125t13.5 -144q0 -50 -7.5 -110t-32 -113t-70 -88.5t-120.5 -35.5q-34 0 -66 9t-60 27l-32 -63h-58l51 101q-24 33 -38 70.5t-21.5 74t-9.5 70t-2 58.5q0 33 3 71.5t12 77.5t25.5 74.5t42.5 63.5t63 44.5t88 16.5q35 0 67.5 -9.5
t60.5 -29.5l31 61h58z" />
    <glyph glyph-name="OE" unicode="&#x152;" horiz-adv-x="818" 
d="M429 508q-3 9 -11 27t-24 35.5t-43 30.5t-67 13q-10 0 -23.5 -1.5t-28.5 -7t-29.5 -16.5t-26.5 -30q-15 -24 -24.5 -53.5t-14.5 -61t-7 -64t-2 -61.5q0 -140 39 -203t117 -63q41 0 68 15.5t43 36.5t23.5 41.5t10.5 30.5v331zM794 600h-288v-221h227v-67h-227v-245h292
v-67h-369v80l-20.5 -30.5t-29.5 -30.5t-44.5 -23.5t-65.5 -9.5q-56 0 -94.5 21.5t-63.5 55t-38.5 74t-20 78.5t-7.5 68.5t-1 44.5q0 17 1.5 50t8 72t21 80t40 74.5t65 55t96.5 21.5q37 0 63 -9t43.5 -21.5t28 -27l18.5 -26.5v70h365v-67z" />
    <glyph glyph-name="ordmasculine" unicode="&#xba;" 
d="M185 502q0 -17 2 -39.5t9.5 -42.5t21.5 -34t38 -14q25 0 39.5 16t21 37t8 43t1.5 34q0 10 -1 31.5t-7.5 43.5t-21 39t-40.5 17q-25 0 -39.5 -15t-21.5 -36t-8.5 -43.5t-1.5 -36.5zM120 502q0 36 9 76.5t37 69.5q31 33 90 33q41 0 67 -16.5t41 -42t21 -56.5t6 -60
q0 -26 -4.5 -57.5t-18.5 -59.5t-41 -46.5t-73 -18.5q-41 0 -67 17t-41 43t-20.5 57.5t-5.5 60.5z" />
    <glyph glyph-name="ae" unicode="&#xe6;" horiz-adv-x="716" 
d="M117 132q0 -39 19.5 -62t62.5 -23q16 0 38 7.5t41.5 28.5t32 60t8.5 102q-17 3 -28 4.5t-28 1.5q-71 0 -108.5 -27.5t-37.5 -91.5zM599 297q0 28 -5 54.5t-16.5 47.5t-31 34t-48.5 13q-28 0 -47 -13.5t-30.5 -35t-17.5 -48t-8 -52.5h204zM40 134q0 30 9.5 59t27.5 51
q53 63 178 63q21 0 35.5 -1t28.5 -3q0 21 -1 45.5t-9 46.5t-26.5 36.5t-52.5 14.5q-29 0 -47 -9t-28.5 -22t-15 -26t-6.5 -21l-72 12q10 48 35.5 73.5t54 37.5t52.5 14t30 2q34 0 57.5 -7.5t40 -18t26.5 -22.5t16 -21q5 7 15 18.5t26 22.5t39 19.5t53 8.5q83 0 128.5 -65.5
t47.5 -204.5h-291q0 -11 0.5 -29t3.5 -39t10 -43t19.5 -39.5t32.5 -28.5t49 -11q26 0 43.5 10t28.5 25t17.5 32.5t10.5 31.5l69 -16q-12 -43 -30.5 -71t-41 -44t-48.5 -22.5t-53 -6.5q-38 0 -64.5 11.5t-44.5 27.5t-28 33l-16 28q-8 -13 -20 -30.5t-30.5 -33t-45.5 -26
t-66 -10.5t-67 12.5t-46 33.5t-26 47.5t-8 54.5z" />
    <glyph glyph-name="dotlessi" unicode="&#x131;" horiz-adv-x="204" 
d="M139 493v-493h-73v493h73z" />
    <glyph glyph-name="oslash" unicode="&#xf8;" horiz-adv-x="460" 
d="M174 59q12 -8 25.5 -11t26.5 -3q36 0 59.5 17.5t36.5 46t18 64.5t5 74q0 61 -6.5 91.5t-11.5 47.5zM294 431q-18 13 -37 15t-25 2q-36 0 -59 -18.5t-36 -47t-17.5 -64.5t-4.5 -70q0 -35 2.5 -59t6 -41t8 -28t7.5 -20zM365 448q32 -42 43 -93t11 -104q0 -33 -5 -78.5
t-24.5 -87t-57.5 -70.5t-104 -29q-32 0 -52 6.5t-36 14.5l-28 -55h-53l43 86q-35 44 -48 98t-13 111q0 34 6 78.5t25.5 85t56.5 68.5t99 28q26 0 51.5 -6t48.5 -20l25 50h54z" />
    <glyph glyph-name="oe" unicode="&#x153;" horiz-adv-x="733" 
d="M616 297q0 27 -5 53.5t-16 48t-30.5 34.5t-48.5 13q-27 0 -45 -12.5t-29.5 -33.5t-17.5 -48t-9 -55h201zM228 446q-39 0 -60.5 -25t-31.5 -58t-12 -66.5t-2 -50.5q0 -13 1 -33t4 -42.5t9.5 -44.5t18.5 -39.5t29.5 -28.5t43.5 -11q40 0 61.5 25t31.5 58.5t11.5 66.5
t1.5 49q0 15 -1.5 48.5t-11.5 67t-31.5 59t-61.5 25.5zM411 237q0 -17 2 -49t12.5 -63.5t33.5 -54.5t65 -23q25 0 42 10t28.5 25t17.5 32l11 32l68 -16q-5 -18 -14.5 -43t-28.5 -47.5t-50 -38t-78 -15.5q-37 0 -63.5 10t-44 24.5t-28 29.5t-16.5 25q-17 -31 -37 -49t-39 -27
t-36.5 -11t-30.5 -2q-42 0 -72 14t-50.5 36.5t-32.5 51t-18.5 57.5t-8.5 55.5t-2 45.5q0 16 1.5 41.5t7.5 54.5t17.5 58.5t32 53t51.5 38.5t75 15q36 0 62 -10t43 -23.5t27.5 -28.5t16.5 -25q7 11 19 26t29.5 28.5t41.5 23t57 9.5q28 0 51 -7.5t40.5 -19t29.5 -26t20 -29.5
q24 -51 28.5 -96.5t6.5 -91.5h-287z" />
    <glyph glyph-name="germandbls" unicode="&#xdf;" horiz-adv-x="477" 
d="M5 447h61v44t3 45.5t10.5 44.5t21.5 43q16 24 38 38t43 21t39 9t27 2q32 0 60.5 -10t50.5 -28.5t34.5 -44t12.5 -56.5q0 -58 -43 -94.5t-127 -54.5l5.5 -11t10 -11t21.5 -13.5t39 -19.5l47 -25.5t49 -36.5t38.5 -52.5t15.5 -71.5q0 -26 -8 -57t-28 -58t-53.5 -45.5
t-84.5 -18.5q-28 0 -49 5.5t-39 11.5l19 58q29 -11 48.5 -12.5t23.5 -1.5q42 0 69 30.5t27 81.5q0 27 -8 46t-22 33.5t-34 26.5t-44 25q-53 28 -76 52t-23 58q0 14 2.5 24t5.5 18q21 4 46 11t47 19t37 31t15 48q0 43 -26.5 65t-63.5 22q-56 0 -84 -50q-15 -26 -17.5 -66
t-2.5 -75v-484h-73v424h-61v60z" />
    <glyph glyph-name="degree" unicode="&#xb0;" 
d="M255 625q-18 0 -33.5 -7.5t-27 -21t-18 -31.5t-6.5 -38q0 -21 6.5 -38.5t18.5 -31t27.5 -21t33.5 -7.5t33.5 7.5t27 21t18 31.5t6.5 38t-6.5 38t-18 31.5t-27 21t-33.5 7.5h-1zM256 681q31 0 59 -12t49 -33t33 -49t12 -60q0 -33 -12.5 -61t-33.5 -48.5t-49 -32.5t-59 -12
q-32 0 -59.5 12t-48.5 33t-33 49t-12 60t12 60t33 49t49 33t60 12z" />
    <glyph glyph-name="oacute" unicode="&#xf3;" horiz-adv-x="460" 
d="M331 722l51 -55l-166 -105l-34 36zM230 446q-39 0 -61 -24t-32.5 -57t-12.5 -66.5t-2 -52.5q0 -21 2.5 -54.5t13 -66t32 -55.5t60.5 -23t60.5 23t32 55.5t13 66t2.5 54.5q0 12 -0.5 31t-4 41.5t-10 45t-18.5 41t-30.5 30t-44.5 11.5zM232 507q58 0 94.5 -25t57 -63.5
t28 -83t7.5 -83.5q0 -33 -5 -78.5t-24 -87t-57 -71t-104 -29.5q-57 0 -93.5 24.5t-57.5 62.5t-29 84t-8 89q0 25 2.5 54t10 58t20.5 56t34 47.5t51.5 33t72.5 12.5z" />
    <glyph glyph-name="Odieresis" unicode="&#xd6;" horiz-adv-x="562" 
d="M357 736q-8 0 -17.5 3t-17.5 9t-13 15.5t-5 22.5q0 21 15.5 35.5t37.5 14.5t37 -14.5t15 -35.5q0 -25 -18 -37.5t-34 -12.5zM204 736q-8 0 -17.5 3t-17.5 9t-13 15.5t-5 22.5q0 20 15 35t37 15q23 0 38 -14.5t15 -35.5q0 -26 -18 -38t-34 -12zM281 614q-44 0 -70.5 -18.5
t-44.5 -52.5q-11 -21 -18 -46.5t-11.5 -53t-6.5 -55.5t-2 -55q0 -57 8.5 -112.5t29.5 -95.5q20 -38 47 -55t70 -17q44 0 70 19.5t43 51.5q22 42 30 99.5t8 109.5q0 58 -8.5 114t-29.5 95q-17 32 -42 52t-73 20zM283 681q74 0 120 -33.5t71.5 -84.5t34.5 -112.5t9 -117.5
q0 -36 -3.5 -76t-13 -78.5t-26.5 -73.5t-43 -61.5t-62.5 -42t-86.5 -15.5q-52 0 -89.5 16.5t-64.5 44t-43.5 63t-25.5 74t-12.5 77.5t-3.5 72q0 35 3.5 74.5t13 78t26.5 74t43.5 62.5t64 43t88.5 16z" />
    <glyph glyph-name="odieresis" unicode="&#xf6;" horiz-adv-x="460" 
d="M304 575q-18 0 -34.5 12.5t-16.5 35.5q0 20 14.5 34t36.5 14t36.5 -14t14.5 -34q0 -23 -17 -35.5t-34 -12.5zM156 575q-17 0 -34 12.5t-17 35.5q0 20 14.5 34t36.5 14t36.5 -14t14.5 -34q0 -23 -17 -35.5t-34 -12.5zM230 446q-39 0 -61 -24t-32.5 -57t-12.5 -66.5
t-2 -52.5q0 -21 2.5 -54.5t13 -66t32 -55.5t60.5 -23t60.5 23t32 55.5t13 66t2.5 54.5q0 12 -0.5 31t-4 41.5t-10 45t-18.5 41t-30.5 30t-44.5 11.5zM232 507q58 0 94.5 -25t57 -63.5t28 -83t7.5 -83.5q0 -33 -5 -78.5t-24 -87t-57 -71t-104 -29.5q-57 0 -93.5 24.5
t-57.5 62.5t-29 84t-8 89q0 25 2.5 54t10 58t20.5 56t34 47.5t51.5 33t72.5 12.5z" />
    <glyph glyph-name="Eacute" unicode="&#xc9;" horiz-adv-x="460" 
d="M372 861l36 -68l-193 -59l-24 44zM433 667v-67h-282v-221h222v-67h-222v-245h290v-67h-371v667h363z" />
    <glyph glyph-name="ucircumflex" unicode="&#xfb;" horiz-adv-x="460" 
d="M230 700l157 -118l-71 -13l-86 61l-86 -61l-71 13zM139 493v-311q0 -31 1 -56t8 -42.5t22.5 -27t43.5 -9.5q40 0 62 24t32 58t11.5 72t1.5 67v225h73v-493h-68v73q-6 -12 -15 -27t-23.5 -28.5t-36.5 -22.5t-54 -9q-9 0 -23.5 1.5t-31 8t-32.5 19.5t-27 36
q-6 13 -9.5 30.5t-5 36t-2 35.5t-0.5 28v312h73z" />
    <glyph glyph-name="logicalnot" unicode="&#xac;" 
d="M402 361h-351v61h409v-227h-58v166z" />
    <glyph glyph-name="Ecircumflex" unicode="&#xca;" horiz-adv-x="460" 
d="M235 850l162 -111l-73 -13l-89 52l-89 -52l-73 13zM433 667v-67h-282v-221h222v-67h-222v-245h290v-67h-371v667h363z" />
    <glyph glyph-name="Otilde" unicode="&#xd5;" horiz-adv-x="562" 
d="M433 809q-6 -11 -14 -23.5t-20 -23t-28 -18t-37 -7.5q-12 0 -26.5 3.5t-40.5 17.5q-21 11 -30.5 13.5t-16.5 2.5q-21 0 -32.5 -13.5t-17.5 -22.5l-43 24q21 42 45.5 58.5t53.5 16.5q8 0 14 -1t14 -4t20.5 -8.5l32.5 -14.5q9 -4 17.5 -6.5t19.5 -2.5q18 0 27.5 9.5
t18.5 23.5zM281 614q-44 0 -70.5 -18.5t-44.5 -52.5q-11 -21 -18 -46.5t-11.5 -53t-6.5 -55.5t-2 -55q0 -57 8.5 -112.5t29.5 -95.5q20 -38 47 -55t70 -17q44 0 70 19.5t43 51.5q22 42 30 99.5t8 109.5q0 58 -8.5 114t-29.5 95q-17 32 -42 52t-73 20zM283 681
q74 0 120 -33.5t71.5 -84.5t34.5 -112.5t9 -117.5q0 -36 -3.5 -76t-13 -78.5t-26.5 -73.5t-43 -61.5t-62.5 -42t-86.5 -15.5q-52 0 -89.5 16.5t-64.5 44t-43.5 63t-25.5 74t-12.5 77.5t-3.5 72q0 35 3.5 74.5t13 78t26.5 74t43.5 62.5t64 43t88.5 16z" />
    <glyph glyph-name="uacute" unicode="&#xfa;" horiz-adv-x="460" 
d="M331 722l51 -55l-166 -105l-34 36zM139 493v-311q0 -31 1 -56t8 -42.5t22.5 -27t43.5 -9.5q40 0 62 24t32 58t11.5 72t1.5 67v225h73v-493h-68v73q-6 -12 -15 -27t-23.5 -28.5t-36.5 -22.5t-54 -9q-9 0 -23.5 1.5t-31 8t-32.5 19.5t-27 36q-6 13 -9.5 30.5t-5 36t-2 35.5
t-0.5 28v312h73z" />
    <glyph glyph-name="eacute" unicode="&#xe9;" horiz-adv-x="443" 
d="M323 722l51 -55l-166 -105l-34 36zM326 297q0 28 -5 54.5t-16.5 47.5t-31 34t-48.5 13q-28 0 -47 -13.5t-30.5 -35t-17.5 -48t-8 -52.5h204zM118 237q0 -11 0.5 -29t3.5 -39t10 -43t19.5 -39.5t32.5 -28.5t49 -11q26 0 43.5 10t28.5 25t17.5 32.5t10.5 31.5l69 -16
q-12 -43 -30.5 -71t-41 -44t-48.5 -22.5t-53 -6.5q-53 0 -89 21.5t-58 56.5t-31.5 81t-9.5 94q0 69 15.5 119.5t41.5 83.5t61 49t74 16q83 0 128.5 -65.5t47.5 -204.5h-291z" />
    <glyph glyph-name="iacute" unicode="&#xed;" horiz-adv-x="204" 
d="M203 722l51 -55l-166 -105l-34 36zM139 493v-493h-73v493h73z" />
    <glyph glyph-name="Egrave" unicode="&#xc8;" horiz-adv-x="460" 
d="M285 734l-193 59l36 68l181 -83zM433 667v-67h-282v-221h222v-67h-222v-245h290v-67h-371v667h363z" />
    <glyph glyph-name="icircumflex" unicode="&#xee;" horiz-adv-x="204" 
d="M102 700l157 -118l-71 -13l-86 61l-86 -61l-71 13zM139 493v-493h-73v493h73z" />
    <glyph glyph-name="mu" unicode="&#xb5;" horiz-adv-x="460" 
d="M394 493v-493h-68v73q-7 -19 -14.5 -35t-18.5 -27.5t-26.5 -18t-36.5 -6.5q-41 0 -61.5 23t-34.5 64v-240h-68v660h73v-225q0 -40 1.5 -79.5t10 -71t27 -51t52.5 -19.5t52.5 19.5t27 51t10 71t1.5 79.5v225h73z" />
    <glyph glyph-name="mu" unicode="&#x3bc;" horiz-adv-x="460" 
d="M394 493v-493h-68v73q-7 -19 -14.5 -35t-18.5 -27.5t-26.5 -18t-36.5 -6.5q-41 0 -61.5 23t-34.5 64v-240h-68v660h73v-225q0 -40 1.5 -79.5t10 -71t27 -51t52.5 -19.5t52.5 19.5t27 51t10 71t1.5 79.5v225h73z" />
    <glyph glyph-name="Aring" unicode="&#xc5;" horiz-adv-x="494" 
d="M250 847q-18 0 -32.5 -13t-14.5 -34q0 -22 15 -34t32 -12q16 0 31.5 11.5t15.5 34.5q0 21 -14.5 34t-32.5 13zM250 893q19 0 35.5 -7t29.5 -19.5t20.5 -29.5t7.5 -36q0 -20 -7.5 -36.5t-20.5 -29.5t-29.5 -20t-35.5 -7q-38 0 -65.5 26.5t-27.5 66.5q0 19 7.5 36t20 29.5
t29.5 19.5t36 7zM329 256l-83 332l-84 -332h167zM299 667l178 -667h-82l-49 191h-200l-48 -191h-82l187 667h96z" />
    <glyph glyph-name="Ydieresis" unicode="&#x178;" horiz-adv-x="392" 
d="M282 736q-8 0 -17.5 3t-17.5 9t-13 15.5t-5 22.5q0 21 15.5 35.5t37.5 14.5t37 -14.5t15 -35.5q0 -25 -18 -37.5t-34 -12.5zM129 736q-8 0 -17.5 3t-17.5 9t-13 15.5t-5 22.5q0 20 15 35t37 15q23 0 38 -14.5t15 -35.5q0 -26 -18 -38t-34 -12zM57 667l146 -307l144 307
h74l-184 -385v-282h-81v282l-185 385h86z" />
    <glyph glyph-name="trademark" unicode="&#x2122;" horiz-adv-x="716" 
d="M292 667h91l83 -306l84 305h89v-379h-58v321l-90 -321h-56l-88 322v-322h-55v380zM112 618h-88v49h239v-49h-88v-331h-63v331z" />
    <glyph glyph-name="registered" unicode="&#xae;" 
d="M256 634q-32 0 -60.5 -12.5t-50 -34t-34 -51t-12.5 -63.5t12.5 -63t34.5 -50.5t50 -33.5t60 -12t60.5 12t49.5 33.5t33.5 50.5t12.5 63t-12.5 63t-33.5 51t-49.5 34.5t-60.5 12.5zM256 674q40 0 76.5 -15.5t63.5 -42.5t43 -64t16 -79t-16 -78.5t-43.5 -63t-63.5 -42
t-76 -15.5q-41 0 -77.5 15.5t-63.5 42.5t-43 63t-16 78t16 78.5t43 64t63.5 43t77.5 15.5zM231 558v-69h29q17 0 28.5 9t11.5 29q0 31 -38 31h-31zM263 587q11 0 24.5 -2t25.5 -8.5t20 -18.5t8 -31q0 -14 -4.5 -24t-10.5 -16t-13 -10t-12 -6l44 -104h-43l-38 93h-33v-93h-41
v220h73z" />
    <glyph glyph-name="ocircumflex" unicode="&#xf4;" horiz-adv-x="460" 
d="M230 700l157 -118l-71 -13l-86 61l-86 -61l-71 13zM230 446q-39 0 -61 -24t-32.5 -57t-12.5 -66.5t-2 -52.5q0 -21 2.5 -54.5t13 -66t32 -55.5t60.5 -23t60.5 23t32 55.5t13 66t2.5 54.5q0 12 -0.5 31t-4 41.5t-10 45t-18.5 41t-30.5 30t-44.5 11.5zM232 507
q58 0 94.5 -25t57 -63.5t28 -83t7.5 -83.5q0 -33 -5 -78.5t-24 -87t-57 -71t-104 -29.5q-57 0 -93.5 24.5t-57.5 62.5t-29 84t-8 89q0 25 2.5 54t10 58t20.5 56t34 47.5t51.5 33t72.5 12.5z" />
    <glyph glyph-name="Agrave" unicode="&#xc0;" horiz-adv-x="494" 
d="M285 734l-193 59l36 68l181 -83zM329 256l-83 332l-84 -332h167zM299 667l178 -667h-82l-49 191h-200l-48 -191h-82l187 667h96z" />
    <glyph glyph-name="Ugrave" unicode="&#xd9;" horiz-adv-x="545" 
d="M285 734l-193 59l36 68l181 -83zM151 667v-441q0 -33 2 -64t13.5 -55t36 -38.5t70.5 -14.5q47 0 72.5 15.5t37.5 40t14 56t2 64.5v437h76v-433q0 -38 -3 -81t-22.5 -80.5t-61 -62t-118.5 -24.5q-73 0 -113.5 23.5t-59.5 59t-23 77.5t-4 80v441h81z" />
    <glyph glyph-name="Edieresis" unicode="&#xcb;" horiz-adv-x="460" 
d="M312 736q-8 0 -17.5 3t-17.5 9t-13 15.5t-5 22.5q0 21 15.5 35.5t37.5 14.5t37 -14.5t15 -35.5q0 -25 -18 -37.5t-34 -12.5zM159 736q-8 0 -17.5 3t-17.5 9t-13 15.5t-5 22.5q0 20 15 35t37 15q23 0 38 -14.5t15 -35.5q0 -26 -18 -38t-34 -12zM433 667v-67h-282v-221h222
v-67h-222v-245h290v-67h-371v667h363z" />
    <glyph glyph-name="Uacute" unicode="&#xda;" horiz-adv-x="545" 
d="M372 861l36 -68l-193 -59l-24 44zM151 667v-441q0 -33 2 -64t13.5 -55t36 -38.5t70.5 -14.5q47 0 72.5 15.5t37.5 40t14 56t2 64.5v437h76v-433q0 -38 -3 -81t-22.5 -80.5t-61 -62t-118.5 -24.5q-73 0 -113.5 23.5t-59.5 59t-23 77.5t-4 80v441h81z" />
    <glyph glyph-name="otilde" unicode="&#xf5;" horiz-adv-x="460" 
d="M373 649q-6 -12 -14 -25t-19 -24t-25 -18.5t-33 -7.5q-12 0 -26 4.5t-38 21.5q-19 14 -28 17.5t-16 3.5q-10 0 -17.5 -4.5t-13 -11t-9 -13.5t-6.5 -12l-41 24q12 26 24.5 41.5t24.5 23.5t23 10.5t20 2.5q14 0 26.5 -4.5t35.5 -20.5q19 -14 29.5 -18t19.5 -4q17 0 26 11.5
t16 26.5zM230 446q-39 0 -61 -24t-32.5 -57t-12.5 -66.5t-2 -52.5q0 -21 2.5 -54.5t13 -66t32 -55.5t60.5 -23t60.5 23t32 55.5t13 66t2.5 54.5q0 12 -0.5 31t-4 41.5t-10 45t-18.5 41t-30.5 30t-44.5 11.5zM232 507q58 0 94.5 -25t57 -63.5t28 -83t7.5 -83.5
q0 -33 -5 -78.5t-24 -87t-57 -71t-104 -29.5q-57 0 -93.5 24.5t-57.5 62.5t-29 84t-8 89q0 25 2.5 54t10 58t20.5 56t34 47.5t51.5 33t72.5 12.5z" />
    <glyph glyph-name="ntilde" unicode="&#xf1;" horiz-adv-x="460" 
d="M373 649q-6 -12 -14 -25t-19 -24t-25 -18.5t-33 -7.5q-12 0 -26 4.5t-38 21.5q-19 14 -28 17.5t-16 3.5q-10 0 -17.5 -4.5t-13 -11t-9 -13.5t-6.5 -12l-41 24q12 26 24.5 41.5t24.5 23.5t23 10.5t20 2.5q14 0 26.5 -4.5t35.5 -20.5q19 -14 29.5 -18t19.5 -4q17 0 26 11.5
t16 26.5zM66 493h68v-76q5 11 13 26.5t22.5 29.5t36.5 24t55 10q42 0 73 -18t45 -48q11 -23 13 -54t2 -73v-314h-73v304q0 31 -1 57t-8.5 45t-23 29.5t-43.5 10.5q-22 0 -41.5 -8.5t-33.5 -29.5t-22.5 -55.5t-8.5 -86.5v-266h-73v493z" />
    <glyph glyph-name="ydieresis" unicode="&#xff;" horiz-adv-x="375" 
d="M262 575q-18 0 -34.5 12.5t-16.5 35.5q0 20 14.5 34t36.5 14t36.5 -14t14.5 -34q0 -23 -17 -35.5t-34 -12.5zM114 575q-17 0 -34 12.5t-17 35.5q0 20 14.5 34t36.5 14t36.5 -14t14.5 -34q0 -23 -17 -35.5t-34 -12.5zM92 493l101 -369l109 369h70l-170 -543
q-9 -27 -18.5 -50.5t-24 -41t-35 -27t-51.5 -9.5q-15 0 -26 1.5t-22 3.5v60q8 -2 15.5 -3t18.5 -1q21 0 34.5 5.5t24 20.5t19.5 42t21 71l-139 471h73z" />
    <glyph glyph-name="Aacute" unicode="&#xc1;" horiz-adv-x="494" 
d="M372 861l36 -68l-193 -59l-24 44zM329 256l-83 332l-84 -332h167zM299 667l178 -667h-82l-49 191h-200l-48 -191h-82l187 667h96z" />
    <glyph glyph-name="acircumflex" unicode="&#xe2;" horiz-adv-x="460" 
d="M230 700l157 -118l-71 -13l-86 61l-86 -61l-71 13zM321 245q-17 3 -28.5 4.5t-28.5 1.5q-76 0 -111.5 -29.5t-35.5 -89.5q0 -38 19.5 -61.5t62.5 -23.5q37 0 61.5 18.5t39.5 44.5q18 34 20.5 64.5t0.5 70.5zM59 380q2 9 5.5 22t12 27.5t23.5 29.5t39 27q11 5 34.5 13
t60.5 8q45 0 78 -14.5t52 -37.5q22 -27 26 -68.5t4 -83.5v-145q0 -37 0.5 -61t1 -40.5t2.5 -29t5 -27.5h-70q-4 27 -5 44t-1 43l-18 -32.5t-26.5 -32.5t-40 -25.5t-57.5 -10.5q-65 0 -105 39.5t-40 108.5q0 31 9.5 59.5t27.5 50.5q28 33 73 48t106 15q21 0 36 -1t29 -3v21
q0 13 -1.5 34t-10 40.5t-27.5 33.5t-53 14q-29 0 -47 -9t-28.5 -22t-15.5 -26t-7 -21z" />
    <glyph glyph-name="aring" unicode="&#xe5;" horiz-adv-x="460" 
d="M242 590q16 0 30.5 12t14.5 34q0 20 -14 33t-31 13q-18 0 -32 -13t-14 -33q0 -22 14.5 -34t31.5 -12zM242 546q-15 0 -31 5.5t-29 17t-21.5 28t-8.5 38.5q0 20 7.5 37t20 29t28.5 18.5t34 6.5q35 0 62 -25t27 -66q0 -22 -8.5 -38.5t-21 -28t-28.5 -17t-31 -5.5zM321 245
q-17 3 -28.5 4.5t-28.5 1.5q-76 0 -111.5 -29.5t-35.5 -89.5q0 -38 19.5 -61.5t62.5 -23.5q37 0 61.5 18.5t39.5 44.5q18 34 20.5 64.5t0.5 70.5zM59 380q2 9 5.5 22t12 27.5t23.5 29.5t39 27q11 5 34.5 13t60.5 8q45 0 78 -14.5t52 -37.5q22 -27 26 -68.5t4 -83.5v-145
q0 -37 0.5 -61t1 -40.5t2.5 -29t5 -27.5h-70q-4 27 -5 44t-1 43l-18 -32.5t-26.5 -32.5t-40 -25.5t-57.5 -10.5q-65 0 -105 39.5t-40 108.5q0 31 9.5 59.5t27.5 50.5q28 33 73 48t106 15q21 0 36 -1t29 -3v21q0 13 -1.5 34t-10 40.5t-27.5 33.5t-53 14q-29 0 -47 -9
t-28.5 -22t-15.5 -26t-7 -21z" />
    <glyph glyph-name="Ograve" unicode="&#xd2;" horiz-adv-x="562" 
d="M305 734l-193 59l36 68l181 -83zM281 614q-44 0 -70.5 -18.5t-44.5 -52.5q-11 -21 -18 -46.5t-11.5 -53t-6.5 -55.5t-2 -55q0 -57 8.5 -112.5t29.5 -95.5q20 -38 47 -55t70 -17q44 0 70 19.5t43 51.5q22 42 30 99.5t8 109.5q0 58 -8.5 114t-29.5 95q-17 32 -42 52t-73 20
zM283 681q74 0 120 -33.5t71.5 -84.5t34.5 -112.5t9 -117.5q0 -36 -3.5 -76t-13 -78.5t-26.5 -73.5t-43 -61.5t-62.5 -42t-86.5 -15.5q-52 0 -89.5 16.5t-64.5 44t-43.5 63t-25.5 74t-12.5 77.5t-3.5 72q0 35 3.5 74.5t13 78t26.5 74t43.5 62.5t64 43t88.5 16z" />
    <glyph glyph-name="ccedilla" unicode="&#xe7;" horiz-adv-x="409" 
d="M313 325q-3 23 -7.5 45t-14 39t-25.5 27t-43 10q-26 0 -45 -10.5t-31.5 -36t-18.5 -67t-6 -102.5q0 -21 1.5 -52.5t11.5 -60.5t31 -49.5t59 -20.5q28 0 44.5 12t25.5 30.5t12.5 39.5t5.5 39l74 -10q-6 -36 -14 -65.5t-25 -51.5t-44.5 -36.5t-72.5 -18.5l-9 -30
q37 1 57 -8t29 -21t10.5 -23.5t1.5 -14.5q0 -30 -25.5 -55t-73.5 -25q-32 0 -52 9.5t-34 17.5l11 32q15 -5 31.5 -9t36.5 -4q4 0 11 0.5t14.5 3.5t13 9t5.5 18q0 19 -12.5 25t-19.5 8q-2 0 -10 0.5t-18 1t-18.5 1t-10.5 0.5l22 66q-48 7 -77.5 34.5t-45.5 64t-21.5 77.5
t-5.5 76q0 50 8 98t28.5 85.5t56 60.5t91.5 23q48 0 77.5 -17t47 -42t25 -54.5t12.5 -53.5z" />
    <glyph glyph-name="divide" unicode="&#xf7;" 
d="M214 156v93h83v-93h-83zM214 418v93h83v-93h-83zM51 303v61h409v-61h-409z" />
    <glyph glyph-name="Ntilde" unicode="&#xd1;" horiz-adv-x="562" 
d="M428 809q-6 -11 -14 -23.5t-20 -23t-28 -18t-37 -7.5q-12 0 -26.5 3.5t-40.5 17.5q-21 11 -30.5 13.5t-16.5 2.5q-21 0 -32.5 -13.5t-17.5 -22.5l-43 24q21 42 45.5 58.5t53.5 16.5q8 0 14 -1t14 -4t20.5 -8.5l32.5 -14.5q9 -4 17.5 -6.5t19.5 -2.5q18 0 27.5 9.5
t18.5 23.5zM170 667l255 -527v527h70v-667h-80l-278 568v-568h-70v667h103z" />
    <glyph glyph-name="ugrave" unicode="&#xf9;" horiz-adv-x="460" 
d="M244 562l-166 105l51 55l149 -124zM139 493v-311q0 -31 1 -56t8 -42.5t22.5 -27t43.5 -9.5q40 0 62 24t32 58t11.5 72t1.5 67v225h73v-493h-68v73q-6 -12 -15 -27t-23.5 -28.5t-36.5 -22.5t-54 -9q-9 0 -23.5 1.5t-31 8t-32.5 19.5t-27 36q-6 13 -9.5 30.5t-5 36t-2 35.5
t-0.5 28v312h73z" />
    <glyph glyph-name="Ucircumflex" unicode="&#xdb;" horiz-adv-x="545" 
d="M250 850l162 -111l-73 -13l-89 52l-89 -52l-73 13zM151 667v-441q0 -33 2 -64t13.5 -55t36 -38.5t70.5 -14.5q47 0 72.5 15.5t37.5 40t14 56t2 64.5v437h76v-433q0 -38 -3 -81t-22.5 -80.5t-61 -62t-118.5 -24.5q-73 0 -113.5 23.5t-59.5 59t-23 77.5t-4 80v441h81z" />
    <glyph glyph-name="Atilde" unicode="&#xc3;" horiz-adv-x="494" 
d="M393 809q-6 -11 -14 -23.5t-20 -23t-28 -18t-37 -7.5q-12 0 -26.5 3.5t-40.5 17.5q-21 11 -30.5 13.5t-16.5 2.5q-21 0 -32.5 -13.5t-17.5 -22.5l-43 24q21 42 45.5 58.5t53.5 16.5q8 0 14 -1t14 -4t20.5 -8.5l32.5 -14.5q9 -4 17.5 -6.5t19.5 -2.5q18 0 27.5 9.5
t18.5 23.5zM329 256l-83 332l-84 -332h167zM299 667l178 -667h-82l-49 191h-200l-48 -191h-82l187 667h96z" />
    <glyph glyph-name="idieresis" unicode="&#xef;" horiz-adv-x="204" 
d="M176 575q-18 0 -34.5 12.5t-16.5 35.5q0 20 14.5 34t36.5 14t36.5 -14t14.5 -34q0 -23 -17 -35.5t-34 -12.5zM28 575q-17 0 -34 12.5t-17 35.5q0 20 14.5 34t36.5 14t36.5 -14t14.5 -34q0 -23 -17 -35.5t-34 -12.5zM139 493v-493h-73v493h73z" />
    <glyph glyph-name="Acircumflex" unicode="&#xc2;" horiz-adv-x="494" 
d="M250 850l162 -111l-73 -13l-89 52l-89 -52l-73 13zM329 256l-83 332l-84 -332h167zM299 667l178 -667h-82l-49 191h-200l-48 -191h-82l187 667h96z" />
    <glyph glyph-name="Icircumflex" unicode="&#xce;" horiz-adv-x="222" 
d="M115 850l162 -111l-73 -13l-89 52l-89 -52l-73 13zM151 667v-667h-81v667h81z" />
    <glyph glyph-name="Oacute" unicode="&#xd3;" horiz-adv-x="562" 
d="M372 861l36 -68l-193 -59l-24 44zM281 614q-44 0 -70.5 -18.5t-44.5 -52.5q-11 -21 -18 -46.5t-11.5 -53t-6.5 -55.5t-2 -55q0 -57 8.5 -112.5t29.5 -95.5q20 -38 47 -55t70 -17q44 0 70 19.5t43 51.5q22 42 30 99.5t8 109.5q0 58 -8.5 114t-29.5 95q-17 32 -42 52
t-73 20zM283 681q74 0 120 -33.5t71.5 -84.5t34.5 -112.5t9 -117.5q0 -36 -3.5 -76t-13 -78.5t-26.5 -73.5t-43 -61.5t-62.5 -42t-86.5 -15.5q-52 0 -89.5 16.5t-64.5 44t-43.5 63t-25.5 74t-12.5 77.5t-3.5 72q0 35 3.5 74.5t13 78t26.5 74t43.5 62.5t64 43t88.5 16z" />
    <glyph glyph-name="Adieresis" unicode="&#xc4;" horiz-adv-x="494" 
d="M327 736q-8 0 -17.5 3t-17.5 9t-13 15.5t-5 22.5q0 21 15.5 35.5t37.5 14.5t37 -14.5t15 -35.5q0 -25 -18 -37.5t-34 -12.5zM174 736q-8 0 -17.5 3t-17.5 9t-13 15.5t-5 22.5q0 20 15 35t37 15q23 0 38 -14.5t15 -35.5q0 -26 -18 -38t-34 -12zM329 256l-83 332l-84 -332
h167zM299 667l178 -667h-82l-49 191h-200l-48 -191h-82l187 667h96z" />
    <glyph glyph-name="agrave" unicode="&#xe0;" horiz-adv-x="460" 
d="M244 562l-166 105l51 55l149 -124zM321 245q-17 3 -28.5 4.5t-28.5 1.5q-76 0 -111.5 -29.5t-35.5 -89.5q0 -38 19.5 -61.5t62.5 -23.5q37 0 61.5 18.5t39.5 44.5q18 34 20.5 64.5t0.5 70.5zM59 380q2 9 5.5 22t12 27.5t23.5 29.5t39 27q11 5 34.5 13t60.5 8
q45 0 78 -14.5t52 -37.5q22 -27 26 -68.5t4 -83.5v-145q0 -37 0.5 -61t1 -40.5t2.5 -29t5 -27.5h-70q-4 27 -5 44t-1 43l-18 -32.5t-26.5 -32.5t-40 -25.5t-57.5 -10.5q-65 0 -105 39.5t-40 108.5q0 31 9.5 59.5t27.5 50.5q28 33 73 48t106 15q21 0 36 -1t29 -3v21
q0 13 -1.5 34t-10 40.5t-27.5 33.5t-53 14q-29 0 -47 -9t-28.5 -22t-15.5 -26t-7 -21z" />
    <glyph glyph-name="ograve" unicode="&#xf2;" horiz-adv-x="460" 
d="M244 562l-166 105l51 55l149 -124zM230 446q-39 0 -61 -24t-32.5 -57t-12.5 -66.5t-2 -52.5q0 -21 2.5 -54.5t13 -66t32 -55.5t60.5 -23t60.5 23t32 55.5t13 66t2.5 54.5q0 12 -0.5 31t-4 41.5t-10 45t-18.5 41t-30.5 30t-44.5 11.5zM232 507q58 0 94.5 -25t57 -63.5
t28 -83t7.5 -83.5q0 -33 -5 -78.5t-24 -87t-57 -71t-104 -29.5q-57 0 -93.5 24.5t-57.5 62.5t-29 84t-8 89q0 25 2.5 54t10 58t20.5 56t34 47.5t51.5 33t72.5 12.5z" />
    <glyph glyph-name="plusminus" unicode="&#xb1;" 
d="M51 19v61h409v-61h-409zM460 364v-61h-172v-174h-65v174h-172v61h172v174h65v-174h172z" />
    <glyph glyph-name="udieresis" unicode="&#xfc;" horiz-adv-x="460" 
d="M304 575q-18 0 -34.5 12.5t-16.5 35.5q0 20 14.5 34t36.5 14t36.5 -14t14.5 -34q0 -23 -17 -35.5t-34 -12.5zM156 575q-17 0 -34 12.5t-17 35.5q0 20 14.5 34t36.5 14t36.5 -14t14.5 -34q0 -23 -17 -35.5t-34 -12.5zM139 493v-311q0 -31 1 -56t8 -42.5t22.5 -27
t43.5 -9.5q40 0 62 24t32 58t11.5 72t1.5 67v225h73v-493h-68v73q-6 -12 -15 -27t-23.5 -28.5t-36.5 -22.5t-54 -9q-9 0 -23.5 1.5t-31 8t-32.5 19.5t-27 36q-6 13 -9.5 30.5t-5 36t-2 35.5t-0.5 28v312h73z" />
    <glyph glyph-name="edieresis" unicode="&#xeb;" horiz-adv-x="443" 
d="M296 575q-18 0 -34.5 12.5t-16.5 35.5q0 20 14.5 34t36.5 14t36.5 -14t14.5 -34q0 -23 -17 -35.5t-34 -12.5zM148 575q-17 0 -34 12.5t-17 35.5q0 20 14.5 34t36.5 14t36.5 -14t14.5 -34q0 -23 -17 -35.5t-34 -12.5zM326 297q0 28 -5 54.5t-16.5 47.5t-31 34t-48.5 13
q-28 0 -47 -13.5t-30.5 -35t-17.5 -48t-8 -52.5h204zM118 237q0 -11 0.5 -29t3.5 -39t10 -43t19.5 -39.5t32.5 -28.5t49 -11q26 0 43.5 10t28.5 25t17.5 32.5t10.5 31.5l69 -16q-12 -43 -30.5 -71t-41 -44t-48.5 -22.5t-53 -6.5q-53 0 -89 21.5t-58 56.5t-31.5 81t-9.5 94
q0 69 15.5 119.5t41.5 83.5t61 49t74 16q83 0 128.5 -65.5t47.5 -204.5h-291z" />
    <glyph glyph-name="aacute" unicode="&#xe1;" horiz-adv-x="460" 
d="M331 722l51 -55l-166 -105l-34 36zM321 245q-17 3 -28.5 4.5t-28.5 1.5q-76 0 -111.5 -29.5t-35.5 -89.5q0 -38 19.5 -61.5t62.5 -23.5q37 0 61.5 18.5t39.5 44.5q18 34 20.5 64.5t0.5 70.5zM59 380q2 9 5.5 22t12 27.5t23.5 29.5t39 27q11 5 34.5 13t60.5 8
q45 0 78 -14.5t52 -37.5q22 -27 26 -68.5t4 -83.5v-145q0 -37 0.5 -61t1 -40.5t2.5 -29t5 -27.5h-70q-4 27 -5 44t-1 43l-18 -32.5t-26.5 -32.5t-40 -25.5t-57.5 -10.5q-65 0 -105 39.5t-40 108.5q0 31 9.5 59.5t27.5 50.5q28 33 73 48t106 15q21 0 36 -1t29 -3v21
q0 13 -1.5 34t-10 40.5t-27.5 33.5t-53 14q-29 0 -47 -9t-28.5 -22t-15.5 -26t-7 -21z" />
    <glyph glyph-name="igrave" unicode="&#xec;" horiz-adv-x="204" 
d="M116 562l-166 105l51 55l149 -124zM139 493v-493h-73v493h73z" />
    <glyph glyph-name="Idieresis" unicode="&#xcf;" horiz-adv-x="222" 
d="M187 736q-8 0 -17.5 3t-17.5 9t-13 15.5t-5 22.5q0 21 15.5 35.5t37.5 14.5t37 -14.5t15 -35.5q0 -25 -18 -37.5t-34 -12.5zM34 736q-8 0 -17.5 3t-17.5 9t-13 15.5t-5 22.5q0 20 15 35t37 15q23 0 38 -14.5t15 -35.5q0 -26 -18 -38t-34 -12zM151 667v-667h-81v667h81z
" />
    <glyph glyph-name="adieresis" unicode="&#xe4;" horiz-adv-x="460" 
d="M304 575q-18 0 -34.5 12.5t-16.5 35.5q0 20 14.5 34t36.5 14t36.5 -14t14.5 -34q0 -23 -17 -35.5t-34 -12.5zM156 575q-17 0 -34 12.5t-17 35.5q0 20 14.5 34t36.5 14t36.5 -14t14.5 -34q0 -23 -17 -35.5t-34 -12.5zM321 245q-17 3 -28.5 4.5t-28.5 1.5
q-76 0 -111.5 -29.5t-35.5 -89.5q0 -38 19.5 -61.5t62.5 -23.5q37 0 61.5 18.5t39.5 44.5q18 34 20.5 64.5t0.5 70.5zM59 380q2 9 5.5 22t12 27.5t23.5 29.5t39 27q11 5 34.5 13t60.5 8q45 0 78 -14.5t52 -37.5q22 -27 26 -68.5t4 -83.5v-145q0 -37 0.5 -61t1 -40.5t2.5 -29
t5 -27.5h-70q-4 27 -5 44t-1 43l-18 -32.5t-26.5 -32.5t-40 -25.5t-57.5 -10.5q-65 0 -105 39.5t-40 108.5q0 31 9.5 59.5t27.5 50.5q28 33 73 48t106 15q21 0 36 -1t29 -3v21q0 13 -1.5 34t-10 40.5t-27.5 33.5t-53 14q-29 0 -47 -9t-28.5 -22t-15.5 -26t-7 -21z" />
    <glyph glyph-name="Iacute" unicode="&#xcd;" horiz-adv-x="222" 
d="M252 861l36 -68l-193 -59l-24 44zM151 667v-667h-81v667h81z" />
    <glyph glyph-name="copyright" unicode="&#xa9;" horiz-adv-x="784" 
d="M392 39q60 0 113.5 23t93.5 63t63 93.5t23 114.5t-23 115t-63 94t-93 63.5t-114 23.5q-60 0 -113.5 -23.5t-93.5 -63.5t-63 -94t-23 -115t23 -114.5t63 -93.5t93.5 -63t113.5 -23zM392 -13q-72 0 -135.5 27t-111 74t-75 110.5t-27.5 135.5q0 71 27.5 134t75 110.5t111 75
t135.5 27.5t136 -27.5t111 -75t74.5 -110.5t27.5 -134q0 -72 -27.5 -135.5t-75 -110.5t-111 -74t-135.5 -27zM532 254q-4 -20 -11 -42.5t-21.5 -41.5t-39.5 -31.5t-65 -12.5q-50 0 -79.5 20.5t-46.5 53.5q-10 19 -15 40.5t-7.5 40.5t-3 33t-0.5 18q0 22 4 57.5t19.5 69
t46 58t84.5 24.5q41 0 66.5 -14.5t40.5 -34.5t21.5 -42t9.5 -37l-61 -13q-3 16 -7.5 32.5t-12.5 29.5t-21.5 21t-34.5 8q-31 0 -48.5 -17.5t-26.5 -42.5t-11.5 -52t-2.5 -46q0 -20 2.5 -46.5t12 -51.5t27 -42t47.5 -17q34 0 49.5 20t26.5 71z" />
    <glyph glyph-name="Igrave" unicode="&#xcc;" horiz-adv-x="222" 
d="M135 734l-193 59l36 68l181 -83zM151 667v-667h-81v667h81z" />
    <glyph glyph-name="Ccedilla" unicode="&#xc7;" 
d="M409 459q-5 24 -12 51.5t-20.5 50t-36 37.5t-58.5 15q-37 0 -62.5 -16t-42.5 -42t-26.5 -57.5t-14 -62.5t-5.5 -58.5t-1 -43.5q0 -23 2 -53t7.5 -61t15.5 -60.5t27 -53t41.5 -37.5t58.5 -14q28 0 48 8t34.5 26.5t25 48t19.5 72.5l74 -18q-11 -57 -27.5 -95.5t-40.5 -62
t-56.5 -34.5t-74.5 -13l-11 -36q38 1 59 -8.5t30.5 -22t11 -24t1.5 -14.5q0 -31 -27 -56.5t-75 -25.5q-33 0 -54.5 10t-35.5 18l12 32q15 -5 32 -9t38 -4q4 0 12 0.5t15.5 3.5t13 9.5t5.5 18.5q0 19 -12.5 25t-20.5 8q-3 0 -11.5 0.5t-18 1l-18.5 1t-12 0.5l24 74
q-35 5 -67.5 20.5t-54.5 44.5q-44 55 -60 128.5t-16 149.5q0 23 2 57.5t10 73.5t23 78t41 70.5t65 51t95 19.5q61 0 99 -23t60.5 -55.5t32.5 -67t15 -57.5z" />
    <glyph glyph-name="egrave" unicode="&#xe8;" horiz-adv-x="443" 
d="M236 562l-166 105l51 55l149 -124zM326 297q0 28 -5 54.5t-16.5 47.5t-31 34t-48.5 13q-28 0 -47 -13.5t-30.5 -35t-17.5 -48t-8 -52.5h204zM118 237q0 -11 0.5 -29t3.5 -39t10 -43t19.5 -39.5t32.5 -28.5t49 -11q26 0 43.5 10t28.5 25t17.5 32.5t10.5 31.5l69 -16
q-12 -43 -30.5 -71t-41 -44t-48.5 -22.5t-53 -6.5q-53 0 -89 21.5t-58 56.5t-31.5 81t-9.5 94q0 69 15.5 119.5t41.5 83.5t61 49t74 16q83 0 128.5 -65.5t47.5 -204.5h-291z" />
    <glyph glyph-name="Ocircumflex" unicode="&#xd4;" horiz-adv-x="562" 
d="M280 850l162 -111l-73 -13l-89 52l-89 -52l-73 13zM281 614q-44 0 -70.5 -18.5t-44.5 -52.5q-11 -21 -18 -46.5t-11.5 -53t-6.5 -55.5t-2 -55q0 -57 8.5 -112.5t29.5 -95.5q20 -38 47 -55t70 -17q44 0 70 19.5t43 51.5q22 42 30 99.5t8 109.5q0 58 -8.5 114t-29.5 95
q-17 32 -42 52t-73 20zM283 681q74 0 120 -33.5t71.5 -84.5t34.5 -112.5t9 -117.5q0 -36 -3.5 -76t-13 -78.5t-26.5 -73.5t-43 -61.5t-62.5 -42t-86.5 -15.5q-52 0 -89.5 16.5t-64.5 44t-43.5 63t-25.5 74t-12.5 77.5t-3.5 72q0 35 3.5 74.5t13 78t26.5 74t43.5 62.5t64 43
t88.5 16z" />
    <glyph glyph-name="atilde" unicode="&#xe3;" horiz-adv-x="460" 
d="M373 649q-6 -12 -14 -25t-19 -24t-25 -18.5t-33 -7.5q-12 0 -26 4.5t-38 21.5q-19 14 -28 17.5t-16 3.5q-10 0 -17.5 -4.5t-13 -11t-9 -13.5t-6.5 -12l-41 24q12 26 24.5 41.5t24.5 23.5t23 10.5t20 2.5q14 0 26.5 -4.5t35.5 -20.5q19 -14 29.5 -18t19.5 -4q17 0 26 11.5
t16 26.5zM321 245q-17 3 -28.5 4.5t-28.5 1.5q-76 0 -111.5 -29.5t-35.5 -89.5q0 -38 19.5 -61.5t62.5 -23.5q37 0 61.5 18.5t39.5 44.5q18 34 20.5 64.5t0.5 70.5zM59 380q2 9 5.5 22t12 27.5t23.5 29.5t39 27q11 5 34.5 13t60.5 8q45 0 78 -14.5t52 -37.5q22 -27 26 -68.5
t4 -83.5v-145q0 -37 0.5 -61t1 -40.5t2.5 -29t5 -27.5h-70q-4 27 -5 44t-1 43l-18 -32.5t-26.5 -32.5t-40 -25.5t-57.5 -10.5q-65 0 -105 39.5t-40 108.5q0 31 9.5 59.5t27.5 50.5q28 33 73 48t106 15q21 0 36 -1t29 -3v21q0 13 -1.5 34t-10 40.5t-27.5 33.5t-53 14
q-29 0 -47 -9t-28.5 -22t-15.5 -26t-7 -21z" />
    <glyph glyph-name="Udieresis" unicode="&#xdc;" horiz-adv-x="545" 
d="M352 736q-8 0 -17.5 3t-17.5 9t-13 15.5t-5 22.5q0 21 15.5 35.5t37.5 14.5t37 -14.5t15 -35.5q0 -25 -18 -37.5t-34 -12.5zM199 736q-8 0 -17.5 3t-17.5 9t-13 15.5t-5 22.5q0 20 15 35t37 15q23 0 38 -14.5t15 -35.5q0 -26 -18 -38t-34 -12zM151 667v-441q0 -33 2 -64
t13.5 -55t36 -38.5t70.5 -14.5q47 0 72.5 15.5t37.5 40t14 56t2 64.5v437h76v-433q0 -38 -3 -81t-22.5 -80.5t-61 -62t-118.5 -24.5q-73 0 -113.5 23.5t-59.5 59t-23 77.5t-4 80v441h81z" />
    <glyph glyph-name="ecircumflex" unicode="&#xea;" horiz-adv-x="443" 
d="M222 700l157 -118l-71 -13l-86 61l-86 -61l-71 13zM326 297q0 28 -5 54.5t-16.5 47.5t-31 34t-48.5 13q-28 0 -47 -13.5t-30.5 -35t-17.5 -48t-8 -52.5h204zM118 237q0 -11 0.5 -29t3.5 -39t10 -43t19.5 -39.5t32.5 -28.5t49 -11q26 0 43.5 10t28.5 25t17.5 32.5
t10.5 31.5l69 -16q-12 -43 -30.5 -71t-41 -44t-48.5 -22.5t-53 -6.5q-53 0 -89 21.5t-58 56.5t-31.5 81t-9.5 94q0 69 15.5 119.5t41.5 83.5t61 49t74 16q83 0 128.5 -65.5t47.5 -204.5h-291z" />
    <glyph glyph-name="nonbreakingspace" unicode="&#xa0;" horiz-adv-x="250" 
 />
    <glyph glyph-name="notequal" unicode="&#x2260;" horiz-adv-x="540" 
d="M231 123l-76 -143l-43 24l64 119h-156v50h183l73 139h-256v50h283l78 146l42 -23l-65 -123h162v-50h-189l-74 -139h263v-50h-289z" />
    <glyph glyph-name="infinity" unicode="&#x221e;" horiz-adv-x="700" 
d="M307 312l-25 30.5t-28.5 27.5t-33 20t-38.5 8t-40 -8.5t-33.5 -23t-22.5 -34t-8 -41.5q0 -21 8 -40t21.5 -33t32 -22t39.5 -8q28 0 48 9.5t35.5 25.5t28.5 35l28 39zM623 292q0 21 -8 39.5t-21.5 33t-31.5 22.5t-39 8t-41 -11.5t-38 -28.5t-33.5 -35.5l-27.5 -33.5
q12 -17 26 -35t31 -32.5t36.5 -24t42.5 -9.5q21 0 40 8.5t33 23t22.5 34t8.5 41.5zM670 293q0 -33 -11.5 -61.5t-31.5 -49.5t-47.5 -33t-59.5 -12q-31 0 -54.5 9t-42.5 24.5t-35.5 36.5t-32.5 44q-17 -22 -34.5 -42t-38 -35.5t-44.5 -25t-53 -9.5q-33 0 -61 11.5t-48.5 31.5
t-32.5 47.5t-12 59.5q0 33 11.5 61.5t31.5 49.5t48 32.5t60 11.5q28 0 53.5 -10t47.5 -26t40 -36.5t33 -42.5q35 50 72.5 82.5t85.5 32.5q34 0 62.5 -11.5t49.5 -31.5t32.5 -47.5t11.5 -60.5z" />
    <glyph glyph-name="lessequal" unicode="&#x2264;" horiz-adv-x="540" 
d="M20 -26v42h499v-42h-499zM20 267v51l499 191v-47l-448 -170l448 -168v-48z" />
    <glyph glyph-name="greaterequal" unicode="&#x2265;" horiz-adv-x="540" 
d="M21 -26v42h499v-42h-499zM21 76v48l447 168l-447 170v47l499 -191v-51z" />
    <glyph glyph-name="partialdiff" unicode="&#x2202;" horiz-adv-x="530" 
d="M389 257q0 32 -11 60.5t-28 50.5t-38 34.5t-41 12.5q-34 0 -57.5 -11t-38.5 -35.5t-22 -63.5t-7 -95q0 -102 33 -154.5t94 -52.5q30 0 51.5 19.5t36 53.5t21.5 80.5t7 100.5zM475 357q0 -108 -11.5 -180.5t-36 -116t-62.5 -62t-91 -18.5q-46 0 -87 15t-72 44.5t-49 74
t-18 103.5q0 46 13 86.5t39.5 71.5t66.5 49t93 18q42 0 76 -21.5t54 -52.5q0 49 -1 85t-6 62q-7 40 -24.5 68t-41 45t-49.5 24.5t-50 7.5q-35 0 -68.5 -15t-56.5 -34l-19 25q33 26 66.5 41.5t71.5 15.5q56 0 104 -21.5t83.5 -64t55.5 -105.5t20 -145z" />
    <glyph glyph-name="summation" unicode="&#x2211;" horiz-adv-x="720" 
d="M668 68q-1 -7 -2 -19.5t-1.5 -27t-1.5 -28t-2 -23.5q-2 -21 -2.5 -42.5t-0.5 -38.5q0 -11 -9 -11h-595v10l265 419l-256 433v10h532q11 0 11 -8t1 -22.5t2 -31.5l2 -33t2 -26q2 -20 5.5 -38.5t5.5 -32.5h-25q-3 23 -7 38t-10 26q-11 23 -38.5 35t-65.5 12h-246
q-10 0 -11 -5.5t1 -9.5l176 -296l-252 -399h377q29 0 50 3.5t32 8.5q29 14 39 97h24v0z" />
    <glyph glyph-name="product" unicode="&#x220f;" horiz-adv-x="810" 
d="M516 -122v18l35 1q28 1 35.5 6t7.5 22v744q0 44 -40 44h-305q-33 0 -33 -35v-753q0 -17 8.5 -22t36.5 -6l35 -1v-18h-250v18l35 1q28 1 35.5 6t7.5 22v778q0 17 -7.5 22t-35.5 6l-35 1v18h718v-18l-35 -1q-28 -1 -35.5 -6t-7.5 -22v-778q0 -17 7.5 -22t35.5 -6l35 -1v-18
h-248z" />
    <glyph glyph-name="pi" unicode="&#x3c0;" horiz-adv-x="540" 
d="M533 491q-1 -23 -7.5 -55t-23.5 -51q-16 -17 -60 -17h-22q-11 0 -11 -14v-264q0 -26 2 -43t6 -27t11 -14t16 -4q11 0 22 11.5t17 38.5h25q-6 -31 -24.5 -51.5t-56.5 -20.5q-54 0 -77 29t-23 88v262q0 9 -9 9h-123q-10 0 -10 -11v-230q0 -28 -4.5 -54.5t-15.5 -47
t-30.5 -33t-49.5 -12.5q-35 0 -54 19.5t-24 52.5h27q6 -25 20 -37.5t32 -12.5q29 0 48 30t19 84v242q0 10 -9 10h-37q-20 0 -33 -1.5t-20.5 -6t-11 -11.5t-5.5 -17h-23q4 64 33 91q22 21 62 21h324q21 0 35 3t22 9t12.5 14.5t6.5 20.5h24z" />
    <glyph glyph-name="integral" unicode="&#x222b;" horiz-adv-x="540" 
d="M463 690q0 -18 -8.5 -32t-30.5 -14q-17 0 -30.5 10t-13.5 27q0 9 2 14t5 8t5 5.5t2 7.5q0 7 -5.5 12.5t-27.5 5.5q-32 0 -46 -32.5t-14 -79.5v-564q0 -33 -4 -65t-17 -57.5t-38 -41.5t-68 -16q-23 0 -41 6.5t-30.5 15.5t-19.5 20t-7 20q0 14 9.5 27.5t31.5 13.5
q19 0 29 -9.5t10 -25.5q0 -18 -4.5 -21.5t-4.5 -12.5q0 -7 10.5 -11.5t28.5 -4.5q31 0 42.5 26t11.5 84v564q0 33 4 65t17 58t38 42t68 16q22 0 40 -6t30.5 -15.5t19 -20t6.5 -19.5z" />
    <glyph glyph-name="radical" unicode="&#x221a;" horiz-adv-x="540" 
d="M305 -122h-51l-159 330l-46 -20l-19 34l93 39l154 -322l153 811h43z" />
    <glyph glyph-name="approxequal" unicode="&#x2248;" horiz-adv-x="540" 
d="M532 230q-7 -63 -39 -98t-83 -35q-35 0 -72 11.5t-73.5 25.5t-71 25.5t-63.5 11.5q-31 0 -53 -22.5t-27 -59.5h-41q4 25 6 35t7 24q14 35 43.5 55.5t66.5 20.5q35 0 71.5 -11.5t72.5 -25t70 -25t65 -11.5q38 0 55.5 23.5t25.5 55.5h40zM532 396q-3 -25 -11 -49
t-22.5 -42.5t-36 -30t-51.5 -11.5q-35 0 -72.5 11.5t-74 25.5t-71 25.5t-62.5 11.5q-31 0 -53.5 -22.5t-27.5 -59.5h-41q2 13 3 21t2.5 14t3 11t4.5 12q14 35 43.5 56t66.5 21q34 0 70.5 -11.5t72.5 -25t71 -25t66 -11.5q36 0 55 23.5t25 55.5h40z" />
    <glyph glyph-name="lozenge" unicode="&#x25ca;" horiz-adv-x="540" 
d="M270 635l-138 -286l138 -308l139 308zM299 -20h-59l-167 369l167 344h59l169 -344z" />
    <glyph glyph-name="numbersign" unicode="#" 
d="M209 416l-27 -148h120l27 148h-120zM254 667l-35 -194h120l36 194h60l-35 -194h102l-10 -57h-103l-26 -148h102l-10 -57h-103l-38 -211h-60l38 211h-120l-38 -211h-61l39 211h-102l10 57h102l27 148h-103l11 57h102l35 194h60z" />
    <glyph glyph-name="exclam" unicode="!" horiz-adv-x="341" 
d="M216 102v-102h-91v102h91zM221 667l-26 -504h-49l-26 504h101z" />
    <glyph glyph-name="quotedbl" unicode="&#x22;" horiz-adv-x="341" 
d="M266 409h-54l-14 258h82zM129 409h-54l-14 258h82z" />
    <glyph glyph-name="fraction" unicode="&#x2215;" horiz-adv-x="68" 
d="M230 667l-334 -667h-58l334 667h58z" />
    <glyph glyph-name="Lslash" unicode="&#x141;" horiz-adv-x="392" 
d="M151 667v-290l120 119v-77l-120 -119v-233h253v-67h-334v243l-66 -67v77l66 68v346h81z" />
    <glyph glyph-name="lslash" unicode="&#x142;" horiz-adv-x="204" 
d="M139 667v-268l60 62v-70l-60 -61v-330h-73v283l-60 -61v69l60 61v315h73z" />
    <glyph glyph-name="onesuperior" unicode="&#xb9;" horiz-adv-x="341" 
d="M220 672v-359h66v-46h-199v46h70v273l-17.5 -15.5t-15.5 -12l-17.5 -11.5t-23.5 -13v60q16 8 39.5 24.5t53.5 53.5h44z" />
    <glyph glyph-name="minus" unicode="&#x2212;" 
d="M51 303v61h409v-61h-409z" />
    <glyph glyph-name="onequarter" unicode="&#xbc;" horiz-adv-x="749" 
d="M585 140v211l-112 -211h112zM644 408v-268h55v-46h-55v-94h-59v94h-174v38l161 276h72zM571 667l-334 -667h-59l335 667h58zM220 672v-359h66v-46h-199v46h70v273l-17.5 -15.5t-15.5 -12l-17.5 -11.5t-23.5 -13v60q16 8 39.5 24.5t53.5 53.5h44z" />
    <glyph glyph-name="onehalf" unicode="&#xbd;" horiz-adv-x="749" 
d="M414 285q2 10 8.5 30.5t21 41t40 36t66.5 15.5q57 0 92 -32t35 -89q0 -18 -4.5 -39t-23 -48t-54.5 -63t-99 -84h181v-53h-262v47l81.5 70t81.5 84q11 14 23 35.5t12 47.5q0 6 -2 18t-9 24.5t-20.5 21.5t-36.5 9t-36.5 -9t-21.5 -22t-11 -27.5t-5 -25.5zM548 667
l-333 -667h-59l334 667h58zM198 672v-359h66v-46h-199v46h70v273l-17.5 -15.5t-15.5 -12l-17.5 -11.5t-23.5 -13v60q16 8 39.5 24.5t53.5 53.5h44z" />
    <glyph glyph-name="brokenbar" unicode="&#xa6;" horiz-adv-x="500" 
d="M283 -175h-67v350h67v-350zM283 325h-67v350h67v-350z" />
    <glyph glyph-name="thorn" unicode="&#xfe;" horiz-adv-x="477" 
d="M139 209q0 -31 3.5 -59.5t23.5 -55.5q15 -20 35 -31.5t46 -11.5q25 0 44 10.5t35 38.5q18 32 23.5 74.5t5.5 74.5q0 88 -27 140.5t-78 52.5q-29 0 -49.5 -18t-34.5 -43t-20.5 -52t-6.5 -46v-74zM139 667v-260l14.5 30t23 31.5t35.5 24.5t52 10q38 0 69.5 -17t54.5 -49.5
t35.5 -79t12.5 -104.5q0 -12 -1.5 -36.5t-7.5 -54t-17 -60t-30 -55.5t-48 -41t-69 -16q-27 0 -46.5 6t-33.5 16t-24.5 23.5t-19.5 28.5v-231h-73v834h73z" />
    <glyph glyph-name="yacute" unicode="&#xfd;" horiz-adv-x="375" 
d="M289 722l51 -55l-166 -105l-34 36zM92 493l101 -369l109 369h70l-170 -543q-9 -27 -18.5 -50.5t-24 -41t-35 -27t-51.5 -9.5q-15 0 -26 1.5t-22 3.5v60q8 -2 15.5 -3t18.5 -1q21 0 34.5 5.5t24 20.5t19.5 42t21 71l-139 471h73z" />
    <glyph glyph-name="Scaron" unicode="&#x160;" 
d="M161 850l89 -52l89 52l73 -13l-162 -111l-162 111zM381 494q-7 20 -15.5 41t-23.5 38.5t-38 28.5t-57 11t-55.5 -11.5t-34 -27.5t-17 -34t-4.5 -31q0 -26 10 -44.5t29 -32.5t46 -25.5t62 -24.5q29 -11 62.5 -26t62 -38t47 -56t18.5 -81q0 -31 -11 -65.5t-36.5 -63
t-66 -47.5t-99.5 -19q-43 0 -87.5 13.5t-76.5 42.5q-35 32 -48 69t-18 64l74 21q4 -17 11.5 -41t24.5 -46.5t46 -38.5t76 -16q37 0 62 11.5t39 29t20 37t6 36.5q0 30 -11.5 51t-30.5 36t-42 25.5t-47 19.5l-50 19.5t-37.5 16.5t-29.5 16.5t-26 20.5q-26 23 -42 58.5
t-16 73.5q0 30 11.5 61.5t35.5 57t61 41.5t89 16q56 0 92.5 -19t58 -46t32.5 -55t16 -46z" />
    <glyph glyph-name="eth" unicode="&#xf0;" horiz-adv-x="443" 
d="M287 616q25 -42 48 -87.5t39.5 -93t26.5 -96.5t10 -98q0 -33 -6 -76.5t-26 -83.5t-57.5 -67.5t-101.5 -27.5q-58 0 -94.5 24.5t-57.5 63t-28.5 84.5t-7.5 88q0 84 19 135.5t46 79.5t56 37t49 9q29 0 44.5 -8.5t28.5 -19.5q-11 28 -24.5 53l-27.5 50l-118 -62l-31 54
l117 61l-26 39l62 33l27 -39l115 61l31 -54zM222 446q-40 0 -62 -24t-32.5 -57t-12.5 -66.5t-2 -52.5q0 -21 2.5 -54.5t13 -66t32.5 -55.5t61 -23t60.5 23t32 55.5t13 66t2.5 54.5q0 12 -0.5 31t-4 41.5t-10 45t-18.5 41t-30.5 30t-44.5 11.5z" />
    <glyph glyph-name="multiply" unicode="&#xd7;" 
d="M384 507l45 -46l-128 -128l128 -128l-45 -45l-128 128l-128 -128l-46 45l128 128l-128 128l46 46l128 -128z" />
    <glyph glyph-name="twosuperior" unicode="&#xb2;" horiz-adv-x="341" 
d="M28 552q2 10 8.5 30.5t21 41t40 36t66.5 15.5q57 0 92 -32.5t35 -88.5q0 -47 -22.5 -80.5t-52.5 -63.5l-47 -42.5t-59 -47.5h181v-53h-262v47q69 57 108.5 95.5t59.5 65t25 44t5 32.5q0 4 -1.5 16t-8 24.5t-20.5 22.5t-38 10q-23 0 -37 -9t-21.5 -22t-11 -27.5
t-4.5 -25.5z" />
    <glyph glyph-name="zcaron" unicode="&#x17e;" horiz-adv-x="324" 
d="M76 694l86 -61l86 61l71 -12l-157 -119l-157 119zM320 493v-40l-228 -393h228v-60h-311v60l217 373h-199v60h293z" />
    <glyph glyph-name="Yacute" unicode="&#xdd;" horiz-adv-x="392" 
d="M347 861l36 -68l-193 -59l-24 44zM57 667l146 -307l144 307h74l-184 -385v-282h-81v282l-185 385h86z" />
    <glyph glyph-name="Zcaron" unicode="&#x17d;" horiz-adv-x="409" 
d="M121 850l89 -52l89 52l73 -13l-162 -111l-162 111zM399 667v-55l-309 -541h315v-71h-399v71l302 529h-286v67h377z" />
    <glyph glyph-name="threesuperior" unicode="&#xb3;" horiz-adv-x="341" 
d="M32 576q3 10 9 27t20.5 33t38.5 27.5t62 11.5q52 0 87.5 -28t35.5 -83q0 -22 -7 -37t-17 -25t-20 -15l-16 -8q11 -4 24.5 -10t27.5 -22q13 -17 17.5 -35t4.5 -32q0 -23 -8.5 -45t-26 -39t-44 -27t-62.5 -10q-42 0 -68 12t-41 29t-21.5 35t-9.5 29l54 17l7.5 -21.5
t14 -24.5t25 -20.5t39.5 -8.5q7 0 19 2.5t24 10t21 22.5t9 41q0 25 -10 39.5t-24 21t-30 8t-28 1.5h-33v46h33q11 0 25 1t26.5 7t21 19t8.5 37q0 32 -17 49t-45 17q-21 0 -34 -6.5t-21.5 -16.5t-12.5 -22t-7 -22z" />
    <glyph glyph-name="threequarters" unicode="&#xbe;" horiz-adv-x="749" 
d="M590 140v211l-112 -211h112zM649 408v-268h56v-46h-56v-94h-59v94h-173v38l160 276h72zM587 667l-334 -667h-58l334 667h58zM49 576q3 10 9 27t20.5 33t38.5 27.5t62 11.5q52 0 87.5 -28t35.5 -83q0 -22 -7 -37t-17 -25t-20 -15l-16 -8q11 -4 24.5 -10t27.5 -22
q13 -17 17.5 -35t4.5 -32q0 -23 -8.5 -45t-26 -39t-44 -27t-62.5 -10q-42 0 -68 12t-41 29t-21.5 35t-9.5 29l54 17l7.5 -21.5t14 -24.5t25 -20.5t39.5 -8.5q7 0 19 2.5t24 10t21 22.5t9 41q0 25 -10 39.5t-24 21t-30 8t-28 1.5h-33v46h33q11 0 25 1t26.5 7t21 19t8.5 37
q0 32 -17 49t-45 17q-21 0 -34 -6.5t-21.5 -16.5t-12.5 -22t-7 -22z" />
    <glyph glyph-name="Eth" unicode="&#xd0;" horiz-adv-x="562" 
d="M151 379h137v-67h-137v-245h63q61 0 103 22.5t67.5 60t37 84.5t11.5 97q0 60 -14 109.5t-41.5 85t-68.5 55t-95 19.5h-63v-221zM70 312h-64v67h64v288h144q62 0 108.5 -15.5t80.5 -41t56.5 -59.5t35.5 -70.5t18.5 -73.5t5.5 -69q0 -66 -18 -127.5t-55.5 -108t-95 -74.5
t-136.5 -28h-144v312z" />
    <glyph glyph-name="scaron" unicode="&#x161;" horiz-adv-x="392" 
d="M110 694l86 -61l86 61l71 -12l-157 -119l-157 119zM288 366q-3 8 -9 21.5t-16.5 26.5t-28 22.5t-42.5 9.5q-22 0 -38 -7t-26.5 -17.5t-15.5 -24.5t-5 -27q0 -19 6.5 -31t20.5 -21t36 -16.5t52 -16.5q24 -8 50.5 -18t49 -26.5t37 -41.5t14.5 -62q0 -27 -10.5 -53.5
t-32 -48.5t-55.5 -35.5t-81 -13.5q-56 0 -89 17t-52 40t-26 46.5t-10 37.5l68 15q2 -10 6.5 -26t16.5 -31.5t33.5 -26.5t57.5 -11q27 0 45.5 7.5t30 19.5t17 26.5t5.5 27.5q0 21 -9 34.5t-22.5 23t-31 16t-33.5 11.5l-54.5 17.5t-39 16t-28 18t-20.5 22.5q-11 16 -17.5 34.5
t-6.5 38.5q0 22 9.5 48t29 48t50 36.5t72.5 14.5q45 0 73.5 -14.5t45.5 -34.5t25 -41.5t12 -34.5z" />
    <glyph glyph-name="Thorn" unicode="&#xde;" horiz-adv-x="477" 
d="M151 486v-261h62q26 0 54 2t51.5 14t38.5 38t15 74q0 38 -10 61t-20 35q-11 14 -23 21.5t-27.5 11t-34.5 4t-44 0.5h-62zM151 667v-114h62q71 0 116 -13t75 -45q29 -32 40.5 -70t11.5 -73q0 -51 -21 -94t-59 -68q-19 -12 -40 -18.5t-42.5 -9.5t-42 -3.5t-38.5 -0.5h-62
v-158h-81v667h81z" />
    <glyph glyph-name="Euro" unicode="&#x20ac;" 
d="M478 198q-6 -44 -17.5 -82.5t-32.5 -67.5t-55 -45.5t-85 -16.5q-56 0 -94 24.5t-61.5 62.5t-35.5 85.5t-16 94.5h-105l13 52h89v9v33t1 33h-103l13 52h94q5 46 17.5 90.5t36.5 79.5t61 57t91 22q48 0 80.5 -16t53.5 -43t33 -63.5t19 -77.5l-74 -8q-4 24 -10.5 50
t-18.5 47.5t-31.5 35.5t-49.5 14q-36 0 -59 -19t-37.5 -47t-21.5 -61t-10 -61h228l-14 -52h-217q-1 -17 -1 -33v-32v-10h199l-13 -52h-183q2 -29 8.5 -65t20.5 -67.5t38.5 -52.5t62.5 -21q31 0 52 15.5t33.5 39t19.5 51.5t10 53l71 -8v0z" />
    <glyph glyph-name="Omega" unicode="&#x3a9;" horiz-adv-x="750" 
d="M688 170q-2 -17 -3.5 -38t-3.5 -43q-2 -26 -2.5 -50t0.5 -41q-23 2 -55 2h-66q-36 0 -70.5 -0.5t-57.5 -1.5q-7 0 -9 2t-2 10v162q76 8 111 68.5t35 181.5q0 130 -46.5 189t-143.5 59t-140 -59t-43 -189q0 -230 137 -250v-163q0 -7 -1.5 -9t-9.5 -2q-24 1 -59.5 1.5
t-70.5 0.5q-38 0 -69.5 -0.5t-47.5 -1.5q1 22 0.5 45.5t-1.5 47.5q-1 21 -2.5 41t-4.5 38h23q4 -29 8 -50.5t14 -35.5t29 -21t53 -7h99q8 0 8 8v83q-48 7 -88.5 33.5t-70 65.5t-46 85.5t-16.5 92.5q0 60 22 109.5t62 85t95 55t121 19.5q65 0 120.5 -18.5t96.5 -53.5
t64.5 -85t23.5 -113q0 -51 -16.5 -98t-47 -84t-73 -62t-93.5 -32v-82q0 -9 8 -9h101q58 0 80.5 27t22.5 87h25z" />
    <glyph glyph-name="Delta" unicode="&#x394;" horiz-adv-x="540" 
d="M270 614l-244 -547q-5 -11 -3.5 -14t9.5 -3h454q12 0 13.5 4t-1.5 12zM-48 0l314 693h34l289 -693h-637z" />
    </font>
</defs>
</svg>
