<?xml version="1.0" encoding="utf-8"?>
<!-- Generator: Adobe Illustrator 15.1.0, SVG Export Plug-In . SVG Version: 6.00 Build 0)  -->
<!DOCTYPE svg PUBLIC "-//W3C//DTD SVG 1.1//EN" "http://www.w3.org/Graphics/SVG/1.1/DTD/svg11.dtd">
<svg version="1.1" xmlns="http://www.w3.org/2000/svg" xmlns:xlink="http://www.w3.org/1999/xlink" x="0px" y="0px" width="850px"
	 height="567px" viewBox="0 0 850 567" enable-background="new 0 0 850 567" xml:space="preserve">
<g id="tacon_2_xA0_Image_1_" display="none">
	<path display="inline" fill="none" d="M827.689,301.32c0,1.33,0,2.67,0,4c-26.33,54.999-34.061,128.609-36,208
		c-6.24,3.129-15.17,4.02-21,0c-0.279-8.09-6.189-13.861-7-25c-2.061-28.24,3.9-105.001-14-119.001c-6.25-4.889-14.4-2.039-21-8
		c-37.049,21.66-59.18,61.78-84,99.001c-14.24,21.35-28.83,38.389-34,68c-7.819,3-16.31,12.049-26,7c-3.729,9.27-21.799,4.199-30,9
		c-1.33,0-2.67,0-4,0c-26.75-5.91-68.789,3.459-72-26c-10.689,5.07-16.02-1.611-24-6c-9.299-5.121-14.66-7.801-22-12
		c-3.959-2.27-8.749-2.98-11.999-5c-13.15-8.15-10.67-12.971-15-28c-2.52-8.75-9.04-19.041-10-27c-2.06-17.1,4.54-33.81,13-39.001
		c21.75-13.33,57.759-6.4,84-20c33.15,23.201,86.621,14.66,114-9c7.961-6.879,12.721-16.639,21-22
		c57.16,9.92,92.08-19.08,111-53.999c14.07-8.391,25.92,1.6,42,3c19.33,1.689,32.441-2.24,45-4
		C825.801,297.88,826.26,300.09,827.689,301.32z"/>
	<path display="inline" d="M827.689,301.32h-1c0,1.33,0,2.67,0,4h1l-0.902-0.432c-26.439,55.247-34.15,128.967-36.098,208.407
		l1,0.024l-0.447-0.895c-3.168,1.592-7.107,2.588-10.896,2.586c-3.354,0-6.568-0.775-9.088-2.515l-0.568,0.823l1-0.035
		c-0.152-4.29-1.777-7.881-3.379-11.709c-1.609-3.836-3.229-7.925-3.623-13.328c-0.512-6.997-0.527-17.084-0.537-28.468
		c-0.018-17.081-0.023-37.094-1.713-54.2c-0.846-8.556-2.109-16.384-4.027-22.786c-1.926-6.397-4.475-11.404-8.104-14.262
		c-1.684-1.318-3.498-2.109-5.324-2.646c-2.744-0.803-5.527-1.064-8.17-1.68c-2.65-0.613-5.139-1.543-7.453-3.629l-0.543-0.49
		l-0.631,0.369c-18.686,10.925-33.567,26.477-46.877,43.922c-13.31,17.449-25.056,36.801-37.451,55.388
		c-7.099,10.645-14.321,20.26-20.438,30.961c-6.115,10.699-11.109,22.49-13.715,37.422l0.984,0.172l-0.357-0.934
		c-3.239,1.248-6.445,3.396-9.727,5.197c-3.279,1.809-6.599,3.244-9.941,3.238c-1.791-0.002-3.604-0.396-5.512-1.389l-0.979-0.51
		l-0.412,1.023c-0.408,1.014-0.996,1.807-1.754,2.473c-1.32,1.158-3.213,1.906-5.472,2.381c-3.384,0.721-7.523,0.824-11.519,1.131
		c-3.997,0.316-7.867,0.805-10.833,2.525l0.505,0.863v-1c-1.33,0-2.67,0-4,0v1l0.217-0.977c-6.795-1.5-14.482-2.02-22.247-2.436
		c-11.64-0.613-23.465-1.006-32.524-3.926c-4.531-1.457-8.353-3.527-11.174-6.516c-2.818-2.992-4.689-6.908-5.277-12.255
		l-0.152-1.397l-1.27,0.603c-2.614,1.238-4.83,1.722-6.821,1.722c-2.913,0-5.422-1.039-8.013-2.546
		c-2.584-1.503-5.203-3.468-8.256-5.149v0.001c-9.315-5.13-14.672-7.808-21.985-11.992l-0.036-0.021l0.037,0.021
		c-2.093-1.198-4.343-1.958-6.441-2.674c-2.1-0.711-4.048-1.385-5.528-2.309h-0.001c-3.239-2.008-5.474-3.787-7.073-5.527
		c-2.391-2.611-3.422-5.141-4.304-8.557c-0.875-3.406-1.55-7.65-3.189-13.344l0,0c-1.296-4.491-3.575-9.276-5.632-13.925
		c-2.061-4.641-3.888-9.15-4.336-12.918c-0.252-2.098-0.373-4.19-0.373-6.256c-0.001-7.227,1.471-14.127,3.836-19.742
		c2.358-5.62,5.631-9.934,9.067-12.029h0c5.298-3.248,11.515-5.287,18.293-6.711c10.167-2.137,21.576-2.88,32.939-4.361
		c11.361-1.484,22.691-3.705,32.705-8.893l-0.461-0.889l-0.572,0.82c13.781,9.643,30.958,13.854,48.312,13.855
		c25.046-0.01,50.503-8.752,66.914-22.918c4.082-3.531,7.294-7.744,10.503-11.697c3.207-3.957,6.407-7.647,10.387-10.221
		l-0.544-0.84l-0.17,0.986c7.779,1.35,15.158,1.984,22.148,1.984c22.359,0.004,40.748-6.511,55.57-16.84
		c14.826-10.328,26.092-24.448,34.33-39.653l-0.879-0.477l0.512,0.858c3.934-2.341,7.611-3.175,11.322-3.179
		c4.541-0.004,9.141,1.289,14.066,2.746c4.926,1.453,10.172,3.061,16.014,3.57c3.324,0.291,6.469,0.416,9.459,0.416
		c14.551-0.002,25.441-2.98,35.766-4.422l-0.139-0.99l-1,0.043c0.059,1.327,0.205,2.594,0.547,3.742
		c0.342,1.145,0.896,2.194,1.801,2.973L827.689,301.32h-1H827.689l0.652-0.759c-0.527-0.452-0.916-1.122-1.189-2.03
		c-0.271-0.903-0.412-2.021-0.465-3.255l-0.047-1.1l-1.09,0.153c-10.512,1.477-21.215,4.404-35.488,4.402
		c-2.934,0-6.02-0.123-9.285-0.408c-5.578-0.485-10.684-2.037-15.621-3.496c-4.938-1.455-9.711-2.825-14.633-2.828
		c-4.016-0.004-8.121,0.937-12.346,3.461l-0.236,0.141l-0.131,0.242c-8.123,14.993-19.203,28.858-33.715,38.966
		c-14.515,10.106-32.457,16.478-54.428,16.48c-6.869,0-14.133-0.623-21.807-1.955l-0.387-0.067l-0.328,0.213
		c-4.301,2.787-7.62,6.657-10.854,10.64c-3.23,3.986-6.379,8.094-10.257,11.443c-15.934,13.782-41.025,22.44-65.606,22.432
		c-17.037,0.001-33.81-4.145-47.166-13.494l-0.496-0.348l-0.537,0.279c-12.887,6.686-28.328,8.365-43.332,9.994
		c-7.502,0.817-14.892,1.627-21.803,3.078c-6.911,1.452-13.351,3.545-18.928,6.963h0c-3.966,2.444-7.383,7.081-9.864,12.957
		c-2.474,5.881-3.992,13.021-3.993,20.52c0,2.143,0.125,4.315,0.387,6.496c0.512,4.191,2.424,8.807,4.493,13.488
		c2.073,4.675,4.314,9.41,5.539,13.669l0.023,0.08l-0.023-0.08c2.148,7.436,2.589,12.355,4.219,16.658
		c0.816,2.146,1.953,4.118,3.723,6.041c1.77,1.926,4.156,3.806,7.492,5.873h-0.001c1.769,1.096,3.841,1.787,5.939,2.504
		c2.099,0.712,4.224,1.442,6.092,2.514v0.001c7.367,4.214,12.73,6.896,22.014,12.008l0.001,0.001
		c2.897,1.59,5.491,3.535,8.214,5.123c2.717,1.585,5.607,2.82,9.019,2.818c2.323,0.002,4.853-0.574,7.679-1.915l-0.43-0.903
		l-0.994,0.108c0.414,3.802,1.463,7.022,3.051,9.729c2.778,4.746,7.18,7.855,12.458,9.908c7.926,3.08,17.894,3.893,28.071,4.459
		c10.174,0.559,20.561,0.861,29.199,2.771l0.105,0.023h0.109c1.33,0,2.67,0,4,0h0.271l0.234-0.137
		c1.842-1.084,4.388-1.664,7.234-1.998c4.273-0.51,9.179-0.486,13.462-1.225c2.144-0.373,4.144-0.936,5.846-1.912
		c1.7-0.969,3.097-2.395,3.88-4.355l-0.928-0.373l-0.461,0.887c2.178,1.137,4.344,1.617,6.436,1.615
		c3.922-0.006,7.531-1.635,10.905-3.486c3.372-1.859,6.546-3.963,9.479-5.082l0.529-0.203l0.097-0.559
		c2.565-14.68,7.45-26.213,13.481-36.773c6.032-10.559,13.225-20.14,20.365-30.844c12.426-18.634,24.154-37.952,37.377-55.284
		c13.223-17.334,27.93-32.672,46.297-43.408l-0.506-0.863l-0.67,0.742c1.756,1.587,3.633,2.596,5.518,3.275
		c2.83,1.02,5.668,1.334,8.309,1.855c2.648,0.521,5.07,1.228,7.229,2.915c2.051,1.601,3.848,4.19,5.357,7.593
		c2.652,5.951,4.42,14.332,5.561,23.904c1.719,14.361,2.059,31.41,2.135,47.182c0.074,15.776-0.115,30.261,0.564,39.606
		c0.416,5.735,2.156,10.102,3.775,13.958c1.625,3.865,3.096,7.205,3.223,11.005l0.018,0.502l0.414,0.286
		c2.953,2.032,6.572,2.866,10.225,2.868c4.135-0.003,8.334-1.066,11.793-2.797l0.535-0.27l0.016-0.601
		c1.932-79.341,9.682-152.842,35.902-207.593l0.098-0.205v-0.227c0-1.33,0-2.67,0-4v-0.459l-0.348-0.3L827.689,301.32z"/>
</g>
<g id="tacon_xA0_Image_1_">
	<g>
		<path fill="none" stroke="#000000" stroke-width="2" stroke-miterlimit="10" d="M832,315c0,3,0,6,0,9
			c-22.99,49.34-33.6,111.07-36,181c-35.17,14.87-81.67,10.93-123,17c-39.23,5.76-78.6,19.31-117,23c-11.67,0-23.33,0-35,0
			c-32.71-5.55-70.22-14.33-98-31c-7.98-4.79-20.07-13.14-23-20c-5.27-12.32-2.22-27.59-9-42c0-4,0-8,0-12c1.61-2.72,2.77-5.9,7-6
			c13.42,15.34,34.83,17.96,59,24c39.8,9.94,96.94,16.62,132-4c15.87-9.33,25.47-25.64,37-38c47.64-51.07,117.17-82.43,194-105
			c2.67,0,5.33,0,8,0C829.49,312.18,830.82,313.51,832,315z"/>
	</g>
</g>
<g id="punta_xA0_Image_1_">
	<g>
		<path fill="none" stroke="#000000" stroke-width="2" stroke-miterlimit="10" d="M706,356c0,1,0,2,0,3
			c-29.29,23.29-58.36,47.36-86,75c-8.48,8.48-17.49,20.92-27,26c-15.1,8.06-32.89,11.77-52,16c-9.67,0-19.33,0-29,0
			c-27.5-4.05-63.36-9.57-91-20c-12.36-4.67-26.05-8.26-27-23c0-4,0-8,0-12c9.79-37.09,70.61-23.1,101-45
			c10.47-7.54,11.35-16.98,22-26c1,0,2,0,3,0c15.18,9.97,27.61,20.39,48,22c14.49,1.14,36.29-4.54,57-7c21.29-2.53,42.89-2.05,58-5
			C691.34,358.38,700.97,352.22,706,356z"/>
	</g>
</g>
<g id="cuerpo_xA0_Image_1_">
	<g>
		<path fill="none" stroke="#000000" stroke-width="2" stroke-miterlimit="10" d="M778,172c0.72,9.48,3.91,18.98,3,27
			c-1.12,9.86-6.61,18.73-9,28c-8.36,32.43,0.43,80.79-15,108c-23.15,4.29-42.49,22.56-65,28c-23.58,5.69-60.88,6.7-92,9
			c-12.51,0.92-22.51,4.19-37,3c-20.36-1.67-35.18-13.01-46-24c-0.22-4.22,1.54-6.46,2-10c9.93,2.89,28.92,11.36,28-7
			c-3.43-4.9-13.9-2.76-17-8c-1.54-17.07,19.11-13.39,35-11c2.95-2.72,5.19-6.15,5-12c-5.79-7.21-24.74-1.26-30-9
			c3.26-7.4,12.7-8.64,14-18c14.11-0.47,37.08,5.32,35-8c-1.51-9.69-17.84-3.8-28-7c-0.04-17.82,23.94-16.16,35-17
			c4.09-1.16,4.05-11.65,1-14c-13,2.33-28.46,2.21-35,11c-4.28-14.37,10.72-17.88,10-32c10.01-2.99,26.11,0.11,34-5
			c1.82-3.92,0.97-9.98-1-13c-8.55-2.43-25.91,3.19-34-2c-0.78-15.88,36.93-18.31,38-33c0.39-5.36-3.92-9.54-8-10
			c-4.88-0.55-29,15.42-31,20c-1.48,3.38-0.27,9.87-2,13c-8.06-4.31-2.64-15.99-4-27c3.26,0.08,2.13,4.53,3,7
			c7.98-11.96,39.18-22.17,39-38c-0.06-5.48-5.11-9.8-9-10c-12.62-0.66-12.47,18.97-28,18c-6.43-6.74-1.39-19.49,4-25
			c11.42-11.67,41.05-8.86,67-10c35.08-1.54,81.2-5.45,111-3c9.57,0.79,18.04,3.15,23,8c-7.7,8.13,0.89,19.29,3,29
			C779.49,139.42,776.78,155.92,778,172z"/>
	</g>
</g>
<g id="talon_xA0_Image_1_">
	<g>
		<path fill="none" stroke="#000000" stroke-width="2" stroke-miterlimit="10" d="M778,136c18.21,57.46,48.94,102.4,50,177
			c-24.38,5.97-46.24,19.74-71,22c14.58-53.58,9.08-136.77,20-196C776.91,137.58,776.83,136.17,778,136z"/>
	</g>
</g>
<g id="cintas_xA0_Image_1_">
	<g>
		<path fill="none" stroke="#000000" stroke-width="2" stroke-miterlimit="10" d="M598,148c4.25,3.41,7.5,7.83,8,15
			c-10.1,8.57-24.25,13.09-34,22c-0.42,2.09,0.69,2.65,1,4c6.7,3.37,16.47,0.91,27,2c5.2,5.52,3.8,12.09-1,17
			c-10.6,1.07-24.55-1.22-29,6c0.32,4.26,4,7.99,0,11c-12.31-2.4-6.18-17.92-4-27c-5.47-7.59-8.69-21.64-3-31
			c3.01,1.33,0.74,7.93,3,10C568.21,158.88,586.86,157.19,598,148z"/>
		<path fill="none" stroke="#000000" stroke-width="2" stroke-miterlimit="10" d="M601,118c7.93,22.79-21.74,31.63-36,42
			c1.61-6.81,0.85-16.69-6-20c3.56-4.32-0.04-11.84,3-15c4.2-3.22,4.65,4.22,9,4C580.62,125.11,586.25,113.63,601,118z"/>
		<path fill="none" stroke="#000000" stroke-width="2" stroke-miterlimit="10" d="M594,232c5.68,19.26-30.41,12.65-31,23
			c-0.49,8.6,11.8,6.04,21,7c1.47,8.81-2.49,12.17-6,16c-8.12,1.76-14.03-2.13-19-1c-7.89,1.79-6.31,9.88-14,12
			c-2.32-11.23,2.29-19.08,9-24c-2.72-11.43-2.04-27.74,9-31c-0.66,3.67-1.06,7.6-2,11c4.52-0.48,3.4-6.6,6-9
			C574.82,234.25,586.73,227.85,594,232z"/>
		<path fill="none" stroke="#000000" stroke-width="2" stroke-miterlimit="10" d="M567,305c-1.2,5.46-4.81,8.53-8,12
			c-9.05-3.09-27.46-4.37-29,6c1.7,6.63,8.99,7.67,15,10c2.36,5.85-2.39,11.02-6,14c-8.44-2.89-18.68-3.98-23-11
			c1.59-3.41,2.06-7.94,3-12c3.22,0.22,4.23-1.77,8-1c-5.36-10.76,2.35-15.79,5-24c6.19,0.07,6.99-2.36,11-6
			C548.38,301.72,562.97,295.06,567,305z"/>
	</g>
</g>
<g id="ojetes_xA0_Image_1_">
	<g>
		<path fill="none" stroke="#000000" stroke-width="2" stroke-miterlimit="10" d="M608,154c0,0.67,0,1.33,0,2c-0.33,0-0.67,0-1,0
			c-0.4,4.27-1.7,7.63-6,8c1.89-5.82,0.84-13.07-5-14C600.31,145.96,606.91,149.11,608,154z"/>
		<path fill="none" stroke="#000000" stroke-width="2" stroke-miterlimit="10" d="M605,191c4.15,7.03,1.12,16.54-8,16
			c3.11-5.91,1.04-13.91,0-17C600.44,189.56,602.6,190.4,605,191z"/>
		<path fill="none" stroke="#000000" stroke-width="2" stroke-miterlimit="10" d="M601,234c0.91,8.08-3.75,14.22-11,11
			c0.25-4.75,3.06-6.94,4-11c0.49-3.16-4.96-0.37-4-4C595.08,229.92,598.41,231.59,601,234z"/>
		<path fill="none" stroke="#000000" stroke-width="2" stroke-miterlimit="10" d="M596,112c6.88,1.91,10.81,12.65,3,16
			c0.89-2.56,0.26-6.89-1-10c-1.51-2.49-8.61,0.61-10-2c1.18-1.49,2.51-2.82,4-4C593.33,112,594.67,112,596,112z"/>
		<path fill="none" stroke="#000000" stroke-width="2" stroke-miterlimit="10" d="M589,266c0.49,4.49-0.51,7.49-1,11
			c-2.71,1.29-5.55,2.45-10,2c3.25-3.75,7.17-6.83,7-14C586.79,264.87,587.11,266.22,589,266z"/>
		<path fill="none" stroke="#000000" stroke-width="2" stroke-miterlimit="10" d="M566,303c8.46-2.61,5.39,16.78-4,14
			C563.12,312.41,571.69,308.19,566,303z"/>
		<path fill="none" stroke="#000000" stroke-width="2" stroke-miterlimit="10" d="M550,334c0.38,6.71-1.82,10.84-4,15c-2,0-4,0-6,0
			c2.47-4.53,8.14-5.86,6-15C547.33,334,548.67,334,550,334z"/>
	</g>
</g>
<g id="doblez_xA0_Image_1_">
	<g>
		<path fill="none" stroke="#000000" stroke-width="2" stroke-miterlimit="10" d="M776,93c5.73,19.94,17.6,45.16,12,67
			c-17.88,4.46-34.45-5.16-52-8c-39.36-6.37-83.2,2.16-119,9c-26.98,5.16-49.39,15.55-77,9c3.95-18.41,19.67-37.69,22-55
			c1.61-11.96-5.09-25.99,1-34c6.49-8.53,40.86-11.33,56-13c23.13-2.56,42.4-4.14,62-5C725.25,61.05,752.15,75.37,776,93z"/>
	</g>
</g>
</svg>
