<?xml version="1.0" encoding="utf-8"?>
<!-- Generator: Adobe Illustrator 15.0.0, SVG Export Plug-In . SVG Version: 6.00 Build 0)  -->
<!DOCTYPE svg PUBLIC "-//W3C//DTD SVG 1.1//EN" "http://www.w3.org/Graphics/SVG/1.1/DTD/svg11.dtd">
<svg version="1.1" xmlns="http://www.w3.org/2000/svg" xmlns:xlink="http://www.w3.org/1999/xlink" x="0px" y="0px" width="576px"
	 height="576px" viewBox="0 0 576 576" enable-background="new 0 0 576 576" xml:space="preserve">
<g id="punta">
	<path fill="none" stroke="#262262" stroke-miterlimit="10" d="M1079.751,602.235c0,0,10.408-30.254-31.88-39.687
		c0,0-46.842-6.182-60.505-7.157c0,0-37.083-3.902-73.19-28.95c0,0,8.133,35.131-1.626,42.612c0,0-6.182,6.506-17.893,6.831
		c0,0-46.517-1.057-53.348-0.08c0,0-49.038,10.002-63.921,33.911c0,0,35.295,11.711,64.896,15.614c0,0,70.589,9.108,168.503-1.627
		C1010.788,623.703,1058.607,619.151,1079.751,602.235z"/>
	<path fill="#BCBEC0" d="M862,247"/>
	<g>
		<path fill="#BCBEC0" d="M564.45,408.927c1.374-7.728,1.859-29.192-32.555-36.868c0,0-46.842-6.182-60.505-7.157
			c0,0-37.083-3.902-73.19-28.95c0,0,8.133,35.131-1.626,42.612c0,0-6.182,6.506-17.893,6.831c0,0-46.517-1.057-53.348-0.08
			c0,0-49.039,10.002-63.921,33.911c0,0,0.629,0.208,1.764,0.571c-1.373,2.728-2.971,6.562-2.677,9.203c0,0,74.5,22.5,217.5,17
			c0,0,76.066,0.49,85.533-33.755l-0.411,0.007c0.175-0.135,0.35-0.269,0.521-0.404c-0.003,0.012-0.006,0.023-0.009,0.035
			c0.003-0.012,0.006-0.023,0.009-0.035c0.044-0.034,0.09-0.068,0.133-0.103C563.775,411.745,564.137,410.695,564.45,408.927"/>
		<path fill="#BCBEC0" d="M563.547,412.196c-0.005,0.017-0.009,0.032-0.014,0.049C563.533,412.245,563.539,412.226,563.547,412.196z
			"/>
		<path fill="#BCBEC0" d="M563.547,412.196c0.029-0.107,0.057-0.207,0.087-0.313C563.591,412.036,563.562,412.141,563.547,412.196z"
			/>
	</g>
</g>
<g id="lengueta">
	<path fill="#58595B" d="M261,98.5c0,0,17.5-9.75,46.5-5.25c0,0,19,3.5,34,17c0,0,2.168,1.417-0.166,6.417
		c0,0-19.334,71.833-12.834,99.833c0,0-4.5,75,25,92.5L320,299L261,98.5z"/>
</g>
<g id="trasero">
	<path fill="#58595B" d="M82.333,365.104c1.644-3.452,13.334-11.438,13.334-11.438c2.959-15.128,23.334-63.379,23.334-63.379
		c3.999-14.621-0.668-20.954-0.668-20.954c-4.769-8.057,7.739-11.933,7.739-11.933c3.453-1.316,2.302-5.592,2.302-5.592L123,235.75
		c-3.618-11.511,6.525-20.116,6.525-20.116c2.96-1.973-0.493-12.825-0.493-12.825c-2.466-21.706,3.135-78.975,3.135-78.975
		c-2.959-30.584,4.666-47,4.666-47s-4.5,1.333-6.333,9.667c0,0-2.5,19.25-1,31.75c0,0,2.25,5.25-0.5,7.5c0,0-3,1.5-2.25,7.5
		c0,0,0.25,26-2.75,40.75c0,0-2,15.5,0.25,22c0,0,3.185,10.692,0.224,19.49c-0.143,0.425-0.301,0.846-0.474,1.26
		c-3.75,9-9.5,17.25-5.5,27c0,0,6.167,12.417,1,13.75c0,0-11,6.333-11.5,15.833l-28,85.333L82.333,365.104z"/>
</g>
<g id="circulo">
	<path fill="#414042" d="M147.75,82.083c0,0-7.5-30.583-9-37.083c0,0-3-23.25-20.75-25.5c0,0-22.5-2.75-29.25,15.25
		c0,0-6,14.5,3.25,23.5c0,0,5.334,5.583,16.667,11.75c0,0,21.583,11.083,22.083,15.75c0,0,2.583-6.25,3.75-7.25c0,0-3-6.333-8-9
		c0,0-21.583-12.792-24.75-28.125c0,0-1.875-8.375,0.75-10.375c0,0,3.5-6,21.667,12c0,0,8.885,11.125,12.552,34.125L147.75,82.083z"
		/>
</g>
<g id="largo">
	<path fill="#BCBEC0" d="M329,184.25c1.25-9.5,17.312-52.938,17.312-52.938s0.105-0.382,0.271-0.729
		c3.708-7.792,0.417-8.958,0.417-8.958l-5.666-4.958c0,0-4.501,17.75-4.501,18.833s0,0,0,0s-8.499,41.5-8.499,46.667L329,184.25z"/>
	<path fill="#A7A9AC" stroke="#A7A9AC" stroke-miterlimit="10" d="M398.451,336.607c0,0-5.69-9.898-39.928-24.712
		c0,0-33.578-13.169-39.831-45.759c0,0-16.636-96.496,2.457-160.358c0,0-24.023-6.757-56.055-7.257c0,0-57.669,1.045-86.638-7.186
		c0,0-38.476-11.332-41.571-14.502c0,0-7.632,16.432-4.67,47.046c0,0-5.607,57.325-3.139,79.052c0,0,3.457,10.863,0.494,12.838
		c0,0-10.152,8.613-6.531,20.136l5.38,16.075c0,0,1.151,4.28-2.304,5.597c0,0-12.52,3.879-7.747,11.944c0,0,4.671,6.34,0.668,20.975
		c0,0-20.395,48.299-23.357,63.441c0,0-8.604,5.878-12.091,9.731L83,363.5c0,0-4,6.75-4.5,11.5c0,0-9.167,19.084,181.833,57.584
		c0,0-2,3.5,0.167-3.584c0,0,0.333-5.749,2.435-9.898l0.008,0.001c14.744-23.686,63.325-33.595,63.325-33.595
		c6.767-0.967,52.849,0.081,52.849,0.081c11.601-0.322,17.725-6.769,17.725-6.769C406.509,371.408,398.451,336.607,398.451,336.607z
		"/>
</g>
<g id="suela_tennis">
	<path fill="#FFFFFF" stroke="#BCBEC0" stroke-width="0.5" stroke-miterlimit="10" d="M568.169,417.626c0,0-1.406-4.139-4.636-5.381
		c0,0-6.085,19.995-43.219,24.839c0,0-99.353,13.909-188.274,1.49c0,0-73.272-4.72-162.193-31.545c0,0-92.316-22.768-90.66-33.696
		c0,0-1.159-1.822-1.49,5.795l-0.332,8.195c0.078,0.084,0.167,0.168,0.255,0.253c-0.097,2.512-0.204,21.14,16.904,35.473
		c0,0,5.464,7.452,21.361,7.452c0,0,60.605,4.968,123.198,17.884c0,0,36.76,7.948,40.734,9.935c0,0,32.787,11.923,87.928,15.896
		c0,0,124.191,6.458,165.92-9.935c0,0,37.565-11.089,34.585-46.359C568.25,417.922,568.213,417.689,568.169,417.626z"/>
</g>
<g id="suela_hule" display="none">
	<path display="inline" d="M80.333,395.667c0,0-3.833,0.5-4.333,3.5l-2,48.166c0,0,9.333,5.5,51.333,7.167l6.5-10.5h5.5
		l4.167,10.167L174,454.5l5.667-9.5h7.167l2.167,9.666l33.5-0.333l21-25c0,0,38,6.417,85.25,11.167l10.75,13.25l34,2.5l0.5-10
		l5.75,0.5l9,10.25l35.583,2.333l1-10l4.667-0.666l8.667,9.666h36.666l0.667-9l6.333-0.333l6.667,8.5l33.333-0.167l2.334-10.5
		L530,446.5l6.333,9c0,0,18.666-1.333,25.333-4c0,0,5.333-0.999,6-6.833L568,426.834c0,0-0.667-5.001-5.667-4.167l-0.333-11
		c0,0-82.5,8.833-149.5,7.833c0,0-71.167-1.833-113.5-14.833c0,0-29.25-7.667-58-10.167c0,0-28.75,0.5-37.5-10.75
		c0,0-9.25-12-37.75-11.5c0,0-38.5-3-54-5.5c0,0-26.75-2-26.75-8.5c0,0-5.333-1.417-5.333,3.083c0,0-2.166,1.334-1.333,8.334
		L80.333,395.667z"/>
	<path display="inline" fill="none" d="M1156.334,422.334c0,0,10.666-31.001-32.667-40.667c0,0-48-6.334-62-7.334
		c0,0-38-3.999-75-29.666c0,0,8.334,35.999-1.666,43.666c0,0-6.334,6.666-18.334,7c0,0-47.667-1.083-54.667-0.083
		c0,0-50.25,10.25-65.5,34.75c0,0,36.167,12,66.5,16c0,0,72.334,9.333,172.667-1.667
		C1085.667,444.333,1134.668,439.668,1156.334,422.334z"/>
</g>
<g id="ojetes">
	<g>
		<circle fill="none" stroke="#6D6E71" stroke-width="4" stroke-miterlimit="10" cx="292.949" cy="123.695" r="7.264"/>
		<circle cx="292.949" cy="123.695" r="5.56"/>
	</g>
	<g>
		<circle fill="none" stroke="#6D6E71" stroke-width="4" stroke-miterlimit="10" cx="293.699" cy="227.028" r="6.806"/>
		<circle cx="293.699" cy="227.028" r="5.209"/>
	</g>
	<g>
		<circle fill="none" stroke="#6D6E71" stroke-width="4" stroke-miterlimit="10" cx="300.365" cy="256.362" r="6.806"/>
		<circle cx="300.365" cy="256.362" r="5.209"/>
	</g>
	<g>
		
			<ellipse fill="none" stroke="#6D6E71" stroke-width="4" stroke-miterlimit="10" cx="314.532" cy="285.736" rx="5.473" ry="7.264"/>
		<ellipse cx="314.532" cy="285.736" rx="4.188" ry="5.559"/>
	</g>
	<g>
		
			<ellipse transform="matrix(0.8339 -0.5519 0.5519 0.8339 -113.2064 234.3993)" fill="none" stroke="#6D6E71" stroke-width="4" stroke-miterlimit="10" cx="332.823" cy="305.278" rx="4.22" ry="6.781"/>
		<ellipse transform="matrix(0.834 -0.5518 0.5518 0.834 -113.1988 234.3538)" cx="332.822" cy="305.277" rx="3.23" ry="5.188"/>
	</g>
	<g>
		
			<ellipse transform="matrix(0.6092 -0.793 0.793 0.6092 -116.5096 407.4752)" fill="none" stroke="#6D6E71" stroke-width="4" stroke-miterlimit="10" cx="355.156" cy="321.944" rx="4.714" ry="7.574"/>
		<path d="M357.352,319.083c2.54,1.949,3.615,4.812,2.4,6.39c-1.217,1.582-4.257,1.283-6.795-0.668
			c-2.537-1.949-3.612-4.812-2.399-6.392C351.772,316.834,354.816,317.134,357.352,319.083z"/>
	</g>
	<g>
		
			<ellipse transform="matrix(0.517 -0.856 0.856 0.517 -102.9711 488.0744)" fill="none" stroke="#6D6E71" stroke-width="4" stroke-miterlimit="10" cx="380.99" cy="335.278" rx="4.714" ry="7.573"/>
		<path d="M382.853,332.19c2.742,1.654,4.129,4.379,3.098,6.082c-1.033,1.708-4.087,1.75-6.827,0.094
			c-2.738-1.654-4.126-4.379-3.097-6.085C377.058,330.577,380.116,330.535,382.853,332.19z"/>
	</g>
	<g>
		<circle fill="none" stroke="#6D6E71" stroke-width="4" stroke-miterlimit="10" cx="291.699" cy="192.028" r="6.806"/>
		<circle cx="291.699" cy="192.028" r="5.209"/>
	</g>
	<g>
		<circle fill="none" stroke="#6D6E71" stroke-width="4" stroke-miterlimit="10" cx="292.449" cy="155.528" r="6.806"/>
		<circle cx="292.449" cy="155.528" r="5.209"/>
	</g>
</g>
<g id="cintas">
	<path fill="#D1D3D4" d="M339.227,154.264c0,0,1.268,3.549-0.761,4.563c0,0-12.168,7.479-15.21,9.126c0,0,0-4.943-2.535-8.999
		C320.721,158.954,336.945,156.418,339.227,154.264z"/>
	<path fill="#D1D3D4" d="M333.375,168.542c0,0-2.072,5.083-2.625,8.542c0,0,1.125,3.038-1.156,4.559c0,0-5.831,1.014-13.689,0.634
		c0,0,2.916,10.394,3.169,12.421c0,0,9.126-1.394,13.309-4.943c0,0,4.943-3.042,6.338-3.168c0,0,5.323-0.888,3.422-5.831
		c0,0-4.436-8.239-4.689-10.14C337.452,170.615,334.516,168.288,333.375,168.542z"/>
	<path fill="#F1F2F2" d="M335.551,133.54c0,0,3.803-1.078,6.254,1.204c0,0,4.732,3.802-0.085,6.084c0,0-4.479,3.803-16.815,3.887
		l-10.529,0.41c0,0-2.291,12.292,2.248,14.209c0,0,18.675-1.521,27.04-7.267c0,0,7.013-4.563,7.52-10.225
		c0,0,0.022-5.324-4.668-9.633c0,0-6.654-6.401-16.604-3.929c0,0-2.725,0.38-2.788,0.824l7.922,5.387
		C335.044,134.491,335.044,133.667,335.551,133.54z"/>
	<path fill="#F1F2F2" d="M306.566,150.799c0,0,11.832,2.873,15.381,10.647c0,0,3.549,6.929-1.015,14.196
		c0,0-3.719,6.591-6.422,9.126L306.566,150.799z"/>
	<path fill="#F1F2F2" d="M293.85,188.867c0,0-6.844,1.141-5.957,6.591c0,0,0.127,3.676,6.845,4.31c0,0,3.295,0.253,6.337,2.535
		c0,0,8.493,3.422,10.395,5.831l-3.423-14.576c0,0-2.915,1.099-5.957,0.338c0,0-3.296-2.62-3.549-3.507
		C298.54,190.388,296.385,188.486,293.85,188.867z"/>
	<path fill="#F1F2F2" d="M301.962,224.864c0,0-4.689-5.831-10.394,1.901c0,0-1.901,3.296,3.042,8.493c0,0,3.296,5.957,11.281,10.647
		c0,0,5.577,3.042,6.591,5.577c0,0,3.422,2.408,7.225,3.422l-3.676-19.013c0,0-3.549,0.126-5.196-2.155
		C310.835,233.737,302.596,225.878,301.962,224.864z"/>
	<path fill="#D1D3D4" d="M319.58,203.021c0,0,6.253,2.197,9.126-0.507c0,0,2.367,15.548,2.367,20.449c0,0-8.451-4.816-11.746,7.098
		L319.58,203.021z"/>
	<path fill="#D1D3D4" d="M328.25,228.562c0,0,3.752,0.231,9.202,14.934c0,0,2.789,8.365,2.028,8.999s0.634,0.127,0.634,0.127
		s-7.605-11.154-14.323-13.182c0,0,1.76-1.354,2.646-3.128C328.438,236.312,328.281,231.969,328.25,228.562z"/>
	<path fill="#F1F2F2" d="M298.159,257.312c0,0-0.715,2.86,5.252,5.577c0.187,0.084,0.379,0.168,0.579,0.254
		c6.591,2.789,4.689,2.662,6.591,3.168c0,0,10.394,0.253,13.436-0.507l-4.31-10.9c0,0-3.803-3.549-12.041-2.535
		c0,0-5.07-0.761-6.592,0.253C301.074,252.623,298.286,254.017,298.159,257.312z"/>
	<path fill="#F1F2F2" d="M315.904,281.522c0,0-1.268,1.901-3.676,2.915c0,0-1.394,3.803,2.789,5.197c0,0,3.295,1.521,7.098,1.521
		c0,0,15.464-3.803,17.365-5.958c0,0,3.169-3.803,1.521-6.211c0,0-4.436-1.901-7.985-2.282
		C333.016,276.705,318.566,279.747,315.904,281.522z"/>
	<path fill="#F1F2F2" d="M330.566,305.267c0,0,0.337,3.549,3.802,4.057c0,0,1.099-1.015,3.296-0.761c0,0,6.083,0.339,8.956-1.014
		c0,0,6.93-3.974,7.943-2.874c0,0,1.689,1.605,2.789,1.014c0,0-0.339-3.634-1.521-5.323c0,0-0.591-1.184-3.718-1.774
		c0,0-4.141-6.506-8.45-3.971c0,0-0.845,1.353-3.464,2.027c0,0-4.987,1.521-4.227,3.971c0,0-0.761,0.761-1.774,0.761
		C334.198,301.379,331.156,303.153,330.566,305.267z"/>
	<path fill="#F1F2F2" d="M352.028,317.772c0,0-2.915,3.169,3.296,4.437c0,0,3.549,0.38,4.689,1.141c0,0,1.395,1.141,4.943-1.014
		c0,0,5.45-4.816,10.9-3.803c0,0,5.24,3.297,6.254,3.55c0,0,1.437-1.099-0.254-2.958c0,0-3.718-3.126-3.718-4.31
		c0,0-1.268-4.055-8.534-8.703c0,0-4.648,2.365-4.563,4.731c0,0-3.972-1.268-5.999,1.184c0,0-2.029,3.041-3.465,2.873
		C355.578,314.9,353.211,315.659,352.028,317.772z"/>
	<path fill="#F1F2F2" d="M377.188,332.539c0,0-0.95,1.458,2.155,3.549c0,0,3.422,2.281,4.943,0.317c0,0,1.457-0.951,2.788-0.57
		c0,0,1.711,0.57,1.838-2.853c0,0,1.774-2.788,3.423-3.169c0,0,1.838-1.457,0.696-3.802c0,0-3.485-4.754-4.943-5.261
		c0,0-2.534-1.521-4.562,2.219c0,0-5.261,6.21-5.134,7.225C378.393,330.194,378.71,331.651,377.188,332.539z"/>
	<path fill="#D1D3D4" d="M317.625,122.875c-1.188,9.801-1.938,8.812-2.5,15.25c0,0,8.004,4.393,10.708,4.9
		c0,0,2.027,0.676,2.027,1.521c0,0,10.986-0.506,14.703-4.394C342.563,140.152,330.469,129.297,317.625,122.875z"/>
	<path fill="#B1B3B6" d="M357.353,287.015c0,0,6.718,18.759,8.111,21.421c0,0,2.662,1.014,3.676-0.38c0,0-7.731-17.619-7.985-22.815
		C361.154,285.24,358.154,283.888,357.353,287.015z"/>
	<path fill="#F1F2F2" d="M323.129,238.426c0,0,7.605,0.253,16.985,14.196c0,0,6.845,16.224-3.549,22.562c0,0-7.184,3.211-9.38,0.339
		L323.129,238.426z"/>
	<path fill="#D1D3D4" d="M299.469,123.759c0,0-2.535-6.422-8.112-2.366c0,0-2.535,2.873-2.703,5.239c0,0-0.339,1.69-1.521,2.197
		c0,0-1.436,0.169,0.507,6.761c0,0,3.549,10.816,4.817,15.125c0,0,3.042,12.928,4.816,15.717c0,0,2.281,7.352,2.281,10.647
		c0,3.295,0-3.296,0-3.296s3.465,14.703,7.184,19.604c0,0,4.562,10.816,5.576,23.998c0,0,3.718,36.843,11.154,52.053
		c0,0,3.337-0.212,4.479-1.353c0,0-2.535-25.604-6.592-43.602c0,0,1.395-15.083-3.422-34.856c0,0-11.027-48.799-14.323-54.63
		C303.609,134.998,300.314,126.885,299.469,123.759z"/>
	<path fill="#B1B3B6" d="M323.468,269.439c0,0,7.436,22.773,13.773,31.518c0,0,2.112,0.084,3.38-2.324
		c0,0-9.507-13.562-12.675-30.547C327.946,268.086,326.257,269.439,323.468,269.439z"/>
	<path fill="#C7C8CA" d="M334.167,197c0,0-3.71-3.583-6.584-3.583c0,0-1.608,1.09,0.25,6.667c0,0,2.191,19.1,0.417,28.479
		c0,0,5.916,1.938,9.329,18.229c0,0,2.281,7.098,5.323,13.182c0,0,5.577,8.492,6.084,9c0,0,1.901,2.915,2.155,7.225
		c0,0,2.027,4.943,6.337,10.647c0,0,1.901-2.408,3.676-1.521c0,0,0.888-3.422-1.141-6.971c0,0-4.689-8.492-7.225-11.534
		c0,0-5.704-16.098-7.098-23.576c0,0-3.296-9.887-4.816-14.196c0,0-2.535-15.21-4.31-18.759
		C336.565,210.288,333.66,202.324,334.167,197z"/>
</g>
</svg>
