<?xml version="1.0" encoding="utf-8"?>
<!-- Generator: Adobe Illustrator 15.0.0, SVG Export Plug-In . SVG Version: 6.00 Build 0)  -->
<!DOCTYPE svg PUBLIC "-//W3C//DTD SVG 1.1//EN" "http://www.w3.org/Graphics/SVG/1.1/DTD/svg11.dtd">
<svg version="1.1" id="Layer_1" xmlns="http://www.w3.org/2000/svg" xmlns:xlink="http://www.w3.org/1999/xlink" x="0px" y="0px"
	 width="562.396px" height="486.082px" viewBox="0 0 562.396 486.082" enable-background="new 0 0 562.396 486.082"
	 xml:space="preserve">
<g id="suela_leñaor" display="none">
	<path display="inline" fill="#C7C8CA" d="M527.851,412.533c0,0,14.474,7.26,0.482,17.426c0,0-7.72,16.459-109.51,22.75
		c0,0-93.106,0.484-119.156-1.936c0,0-44.866-1.938-81.047-19.848c0,0-35.539-15.973-51.62-18.877c0,0-13.025,7.742-16.884,9.195
		c0,0-5.789,3.873-12.784,3.631c0,0-46.233-4.113-61.026-9.279c0,0-17.045-1.289-22.834-16.457c0,0-6.754-21.943-7.076-34.206
		c0,0,64.162,18.069,79.118,20.491c0,0,38.593,7.906,61.749,18.559c0,0,82.012,32.914,118.998,32.27c0,0,34.091,2.904,81.366,2.26
		c0,0,89.732-3.227,117.068-14.846C504.694,423.666,526.244,415.595,527.851,412.533z"/>
</g>
<g>
	<path fill="#BCBEC0" d="M496.292,372.059c0,0-46.842-6.183-60.505-7.157c0,0-37.083-3.902-73.19-28.949
		c0,0,8.134,35.131-1.626,42.611c0,0-6.182,6.506-17.893,6.831c0,0-46.517-1.058-53.349-0.08c0,0-49.039,10.002-63.92,33.911
		c0,0,0.16,0.068,0.451,0.19c-2.514,4.152-1.448,7.251-1.448,7.251c80.167,19.248,169.5,22.75,169.5,22.75
		c62.665,7,128.666-24,128.666-24c2.396-2.634,3.754-8.18,4.332-11.101c0.028-0.022,0.058-0.045,0.086-0.067
		C527.396,414.25,538.58,381.492,496.292,372.059z"/>
	<path fill="#BCBEC0" d="M217.886,425.004c-0.695-0.167-1.374-0.33-2.04-0.49C216.553,424.684,217.235,424.848,217.886,425.004z"/>
	<path fill="#BCBEC0" d="M215.846,424.514c-1.463-0.351-3.032-0.728-4.65-1.116C212.66,423.75,214.208,424.121,215.846,424.514z"/>
	<path fill="#BCBEC0" d="M219.842,425.474c-0.637-0.153-1.264-0.304-1.877-0.451C218.626,425.182,219.253,425.333,219.842,425.474z"
		/>
	<path fill="#BCBEC0" d="M211.196,423.398c-0.026-0.006-0.052-0.013-0.078-0.019C211.144,423.385,211.17,423.392,211.196,423.398z"
		/>
	<path fill="#BCBEC0" d="M217.965,425.023c-0.026-0.006-0.053-0.013-0.079-0.019C217.912,425.01,217.939,425.017,217.965,425.023z"
		/>
	<path fill="#BCBEC0" d="M211.118,423.379c-1.295-0.312-2.622-0.63-3.949-0.948C208.41,422.729,209.726,423.045,211.118,423.379z"/>
	<path fill="#BCBEC0" d="M205.227,421.964c-0.096-0.022-0.191-0.046-0.287-0.068C205.036,421.918,205.131,421.942,205.227,421.964z"
		/>
	<path fill="#BCBEC0" d="M219.881,425.484c-0.013-0.004-0.026-0.007-0.04-0.01C219.854,425.477,219.868,425.48,219.881,425.484z"/>
	<path fill="#BCBEC0" d="M205.578,422.049c-0.117-0.028-0.234-0.057-0.351-0.085C205.342,421.993,205.462,422.021,205.578,422.049z"
		/>
	<path fill="#BCBEC0" d="M207.169,422.431c-0.545-0.131-1.075-0.258-1.591-0.382C206.107,422.176,206.639,422.303,207.169,422.431z"
		/>
	<path fill="#BCBEC0" d="M223.364,426.32c-0.216-0.052-0.432-0.104-0.646-0.155C222.951,426.22,223.167,426.273,223.364,426.32z"/>
	<path fill="#BCBEC0" d="M224.387,426.566c-0.089-0.021-0.19-0.046-0.305-0.074C224.184,426.517,224.285,426.541,224.387,426.566z"
		/>
	<path fill="#BCBEC0" d="M224.082,426.492c-0.058-0.014-0.115-0.027-0.172-0.041C223.97,426.465,224.027,426.479,224.082,426.492z"
		/>
	<path fill="#BCBEC0" d="M224.617,426.621c-0.078-0.019-0.153-0.036-0.23-0.055C224.478,426.587,224.555,426.606,224.617,426.621z"
		/>
	<path fill="#BCBEC0" d="M224.718,426.645c-0.028-0.007-0.061-0.015-0.101-0.024C224.651,426.628,224.684,426.636,224.718,426.645z"
		/>
	<path fill="#BCBEC0" d="M222.718,426.165c-0.124-0.029-0.252-0.061-0.386-0.093C222.461,426.103,222.588,426.133,222.718,426.165z"
		/>
	<path fill="#BCBEC0" d="M204.94,421.896c-1.007-0.242-2.005-0.481-2.981-0.716C202.894,421.405,203.887,421.643,204.94,421.896z"/>
	<path fill="#BCBEC0" d="M223.91,426.451c-0.162-0.039-0.345-0.083-0.545-0.131C223.544,426.363,223.728,426.408,223.91,426.451z"/>
	<path fill="#BCBEC0" d="M222.332,426.072c-0.835-0.2-1.653-0.396-2.451-0.588C220.808,425.706,221.633,425.904,222.332,426.072z"/>
	<path fill="#BCBEC0" d="M224.812,426.667c-0.032-0.008-0.062-0.015-0.094-0.022C224.778,426.66,224.812,426.667,224.812,426.667z"
		/>
	<path fill="#BCBEC0" d="M191.598,418.692c-0.15-0.036-0.295-0.071-0.434-0.104C191.301,418.621,191.446,418.656,191.598,418.692z"
		/>
	<path fill="#BCBEC0" d="M190.852,418.513c-0.132-0.032-0.256-0.062-0.374-0.09C190.594,418.451,190.718,418.481,190.852,418.513z"
		/>
	<path fill="#BCBEC0" d="M190.478,418.423c-0.085-0.021-0.167-0.04-0.243-0.059C190.312,418.383,190.393,418.403,190.478,418.423z"
		/>
	<path fill="#BCBEC0" d="M190.234,418.365c-0.075-0.018-0.145-0.035-0.212-0.051C190.088,418.33,190.16,418.347,190.234,418.365z"/>
	<path fill="#BCBEC0" d="M191.165,418.588c-0.109-0.026-0.214-0.052-0.313-0.075C190.952,418.537,191.056,418.562,191.165,418.588z"
		/>
	<path fill="#BCBEC0" d="M201.959,421.18c-0.085-0.021-0.171-0.041-0.255-0.062C201.789,421.139,201.874,421.16,201.959,421.18z"/>
	<path fill="#BCBEC0" d="M189.435,418.172c-0.057-0.014-0.106-0.025-0.144-0.034C189.33,418.147,189.376,418.159,189.435,418.172z"
		/>
	<path fill="#BCBEC0" d="M190.022,418.314c-0.196-0.048-0.358-0.086-0.484-0.116C189.667,418.228,189.829,418.267,190.022,418.314z"
		/>
	<path fill="#BCBEC0" d="M189.292,418.138C189.152,418.105,189.145,418.103,189.292,418.138L189.292,418.138z"/>
	<path fill="#BCBEC0" d="M192.105,418.814c-0.178-0.043-0.346-0.083-0.507-0.122C191.76,418.731,191.929,418.772,192.105,418.814z"
		/>
	<path fill="#BCBEC0" d="M189.538,418.198c-0.037-0.009-0.072-0.018-0.103-0.025C189.467,418.18,189.5,418.188,189.538,418.198z"/>
	<path fill="#BCBEC0" d="M192.933,419.012c-0.291-0.069-0.566-0.136-0.828-0.198C192.362,418.875,192.639,418.942,192.933,419.012z"
		/>
	<path fill="#BCBEC0" d="M196.669,419.91c-0.373-0.09-0.731-0.176-1.074-0.258C195.943,419.736,196.302,419.822,196.669,419.91z"/>
	<path fill="#BCBEC0" d="M198.903,420.446c-0.773-0.186-1.521-0.364-2.234-0.536C197.361,420.076,198.102,420.253,198.903,420.446z"
		/>
	<path fill="#BCBEC0" d="M201.705,421.119c-0.934-0.225-1.846-0.443-2.726-0.654C199.824,420.667,200.732,420.885,201.705,421.119z"
		/>
	<path fill="#BCBEC0" d="M198.979,420.464c-0.024-0.006-0.05-0.012-0.075-0.019C198.928,420.453,198.954,420.458,198.979,420.464z"
		/>
	<path fill="#BCBEC0" d="M193.271,419.093c-0.117-0.027-0.227-0.054-0.338-0.081C193.043,419.04,193.157,419.066,193.271,419.093z"
		/>
	<path fill="#BCBEC0" d="M193.66,419.187c-0.132-0.031-0.262-0.062-0.389-0.094C193.396,419.124,193.527,419.156,193.66,419.187z"/>
	<path fill="#BCBEC0" d="M195.595,419.652c-0.617-0.148-1.204-0.289-1.752-0.421C194.375,419.359,194.96,419.5,195.595,419.652z"/>
	<path fill="#BCBEC0" d="M193.843,419.231c-0.062-0.015-0.122-0.029-0.183-0.044C193.721,419.202,193.781,419.216,193.843,419.231z"
		/>
</g>
<g id="lengueta">
	<path fill="#58595B" d="M225.396,98.5c0,0,17.5-9.75,46.5-5.25c0,0,19,3.5,34,17c0,0,2.169,1.417-0.166,6.417
		c0,0-19.334,71.833-12.834,99.833c0,0-4.5,75,25.001,92.5l-33.501-10L225.396,98.5z"/>
</g>
<g id="trasero">
	<path fill="#58595B" d="M46.729,365.104c1.644-3.452,13.334-11.438,13.334-11.438c2.959-15.127,23.334-63.379,23.334-63.379
		c3.999-14.621-0.668-20.953-0.668-20.953c-4.769-8.058,7.739-11.934,7.739-11.934c3.453-1.316,2.302-5.592,2.302-5.592
		l-5.375-16.06c-3.618-11.511,6.525-20.116,6.525-20.116c2.96-1.973-0.493-12.825-0.493-12.825
		c-2.466-21.706,3.135-78.975,3.135-78.975c-2.959-30.584,4.666-47,4.666-47s-4.5,1.333-6.333,9.667c0,0-2.5,19.25-1,31.75
		c0,0,2.25,5.25-0.5,7.5c0,0-3,1.5-2.25,7.5c0,0,0.25,26-2.75,40.75c0,0-2,15.5,0.25,22c0,0,3.185,10.692,0.224,19.49
		c-0.143,0.425-0.301,0.846-0.474,1.26c-3.75,9-9.5,17.25-5.5,27c0,0,6.167,12.416,1,13.75c0,0-11,6.332-11.5,15.832l-28,85.334
		L46.729,365.104z"/>
</g>
<g id="circulo">
	<path fill="#414042" d="M112.146,82.083c0,0-7.5-30.583-9-37.083c0,0-3-23.25-20.75-25.5c0,0-22.5-2.75-29.25,15.25
		c0,0-6,14.5,3.25,23.5c0,0,5.334,5.583,16.667,11.75c0,0,21.583,11.083,22.083,15.75c0,0,2.583-6.25,3.75-7.25c0,0-3-6.333-8-9
		c0,0-21.583-12.792-24.75-28.125c0,0-1.875-8.375,0.75-10.375c0,0,3.5-6,21.667,12c0,0,8.885,11.125,12.552,34.125L112.146,82.083z
		"/>
</g>
<g>
	<path fill="#A7A9AC" d="M362.847,336.607c0,0-5.689-9.898-39.928-24.712c0,0-33.578-13.169-39.831-45.759
		c0,0-16.636-96.496,2.457-160.358c0,0-24.023-6.757-56.055-7.257c0,0-57.669,1.045-86.638-7.186c0,0-38.476-11.332-41.571-14.502
		c0,0-7.632,16.432-4.67,47.046c0,0-5.607,57.325-3.139,79.052c0,0,3.457,10.863,0.494,12.838c0,0-10.152,8.613-6.531,20.136
		l5.38,16.075c0,0,1.151,4.279-2.304,5.598c0,0-12.52,3.879-7.747,11.943c0,0,4.671,6.34,0.668,20.975
		c0,0-20.395,48.299-23.357,63.441c0,0-11.702,7.993-13.347,11.447c0,0,0.213,0.111,0.591,0.301l-1.09-0.298
		c0,0-4.333,5.948-3.333,10.28c1,4.334,25.334,22,124.667,34.334c0,0,44.385,13.705,58.385,17.039
		c-1.375-1.875,0.083-5.166,0.083-5.166s1.292-2.917,2.04-3.897c15.553-22.874,62.591-32.47,62.591-32.47
		c6.768-0.967,52.849,0.082,52.849,0.082c11.602-0.322,17.726-6.77,17.726-6.77C370.905,371.408,362.847,336.607,362.847,336.607z"
		/>
	<path fill="#A7A9AC" d="M310.708,131.312c0,0,0.105-0.382,0.271-0.729c3.709-7.792,0.418-8.958,0.418-8.958l-5.667-4.958
		c0,0-4.5,17.75-4.5,18.833c0,0-8.5,41.5-8.5,46.667l0.666,2.083C294.646,174.75,310.708,131.312,310.708,131.312z"/>
</g>
<g id="suela_hule" display="none">
	<path display="inline" d="M44.729,395.667c0,0-3.833,0.5-4.333,3.5l-2,48.166c0,0,9.333,5.5,51.333,7.166l6.5-10.5h5.5
		l4.167,10.168l32.5,0.332l5.667-9.5h7.167l2.167,9.666l33.5-0.332l21-25c0,0,38,6.416,85.25,11.166l10.75,13.25l33.999,2.5l0.5-10
		l5.75,0.5l9,10.25l35.584,2.334l1-10l4.666-0.666l8.668,9.666h36.666l0.666-9L446.73,449l6.666,8.5l33.334-0.166l2.334-10.5
		l5.333-0.334l6.333,9c0,0,18.666-1.332,25.332-4c0,0,5.334-0.998,6-6.832l0.334-17.834c0,0-0.666-5-5.666-4.166l-0.334-11
		c0,0-82.5,8.832-149.5,7.832c0,0-71.167-1.832-113.5-14.832c0,0-29.25-7.668-58-10.168c0,0-28.75,0.5-37.5-10.75
		c0,0-9.25-12-37.75-11.5c0,0-38.5-3-54-5.5c0,0-26.75-2-26.75-8.5c0,0-5.333-1.416-5.333,3.084c0,0-2.166,1.334-1.333,8.334
		L44.729,395.667z"/>
	<path display="inline" fill="none" d="M1142.729,422.333c0,0,10.666-31-32.666-40.666c0,0-48-6.334-62-7.334c0,0-38-4-75-29.666
		c0,0,8.334,35.998-1.666,43.666c0,0-6.334,6.666-18.334,7c0,0-47.668-1.084-54.668-0.084c0,0-50.25,10.25-65.5,34.75
		c0,0,36.168,12,66.5,16c0,0,72.334,9.334,172.668-1.666C1072.062,444.333,1121.062,439.667,1142.729,422.333z"/>
</g>
<g id="suela_chinita">
	<path fill="#58595B" d="M525.427,422.224c0,0,8.021,16.043-73.65,36.461c0,0-35.046,7.316-65.143,3.768
		c0,0-125.183-17.258-174.041-29.654c0,0-41.565-10.209-68.546-13.125c0,0-59.917-6.32-84.225-18.961c0,0-20.418-8.75-16.407-26.252
		c0,0,2.188,6.563,17.501,10.574c0,0,39.378,13.732,85.076,20.541c0,0,43.267,8.264,66.116,16.527c0,0,115.216,28.195,201.75,26.738
		C413.857,448.841,478.027,447.625,525.427,422.224z"/>
</g>
<g id="ojetes">
	<g>
		<circle fill="none" stroke="#6D6E71" stroke-width="4" stroke-miterlimit="10" cx="257.344" cy="123.695" r="7.264"/>
		<circle cx="257.345" cy="123.695" r="5.56"/>
	</g>
	<g>
		<circle fill="none" stroke="#6D6E71" stroke-width="4" stroke-miterlimit="10" cx="258.095" cy="227.028" r="6.806"/>
		<circle cx="258.095" cy="227.028" r="5.209"/>
	</g>
	<g>
		<circle fill="none" stroke="#6D6E71" stroke-width="4" stroke-miterlimit="10" cx="264.761" cy="256.362" r="6.806"/>
		<circle cx="264.761" cy="256.362" r="5.209"/>
	</g>
	<g>
		
			<ellipse fill="none" stroke="#6D6E71" stroke-width="4" stroke-miterlimit="10" cx="278.928" cy="285.736" rx="5.473" ry="7.264"/>
		<ellipse cx="278.928" cy="285.736" rx="4.188" ry="5.559"/>
	</g>
	<g>
		
			<ellipse transform="matrix(-0.5519 -0.8339 0.8339 -0.5519 206.6745 721.6229)" fill="none" stroke="#6D6E71" stroke-width="4" stroke-miterlimit="10" cx="297.212" cy="305.285" rx="6.781" ry="4.22"/>
		<ellipse transform="matrix(-0.5517 -0.834 0.834 -0.5517 206.584 721.6361)" cx="297.221" cy="305.302" rx="5.188" ry="3.231"/>
	</g>
	<g>
		
			<ellipse transform="matrix(-0.793 -0.6092 0.6092 -0.793 376.8068 771.9548)" fill="none" stroke="#6D6E71" stroke-width="4" stroke-miterlimit="10" cx="319.547" cy="321.963" rx="7.574" ry="4.713"/>
		<path d="M321.747,319.083c2.54,1.949,3.615,4.812,2.4,6.39c-1.218,1.582-4.258,1.282-6.796-0.668
			c-2.536-1.949-3.611-4.812-2.398-6.392C316.168,316.833,319.212,317.134,321.747,319.083z"/>
	</g>
	<g>
		
			<ellipse transform="matrix(-0.856 -0.5169 0.5169 -0.856 467.7293 800.8463)" fill="none" stroke="#6D6E71" stroke-width="4" stroke-miterlimit="10" cx="345.393" cy="335.286" rx="7.573" ry="4.713"/>
		<path d="M347.248,332.19c2.742,1.653,4.129,4.379,3.098,6.082c-1.033,1.708-4.087,1.75-6.827,0.095
			c-2.737-1.654-4.126-4.38-3.097-6.086C341.453,330.578,344.512,330.535,347.248,332.19z"/>
	</g>
	<g>
		<circle fill="none" stroke="#6D6E71" stroke-width="4" stroke-miterlimit="10" cx="256.095" cy="192.028" r="6.806"/>
		<circle cx="256.095" cy="192.028" r="5.209"/>
	</g>
	<g>
		<circle fill="none" stroke="#6D6E71" stroke-width="4" stroke-miterlimit="10" cx="256.845" cy="155.528" r="6.806"/>
		<circle cx="256.845" cy="155.528" r="5.209"/>
	</g>
</g>
<g id="cintas">
	<path fill="#D1D3D4" d="M303.622,154.264c0,0,1.268,3.549-0.762,4.563c0,0-12.168,7.479-15.209,9.126c0,0,0-4.943-2.535-8.999
		C285.116,158.954,301.341,156.418,303.622,154.264z"/>
	<path fill="#D1D3D4" d="M297.771,168.542c0,0-2.071,5.083-2.625,8.542c0,0,1.125,3.038-1.155,4.559c0,0-5.831,1.014-13.689,0.634
		c0,0,2.916,10.394,3.169,12.421c0,0,9.127-1.394,13.309-4.943c0,0,4.943-3.042,6.339-3.168c0,0,5.323-0.888,3.422-5.831
		c0,0-4.437-8.239-4.688-10.14C301.849,170.615,298.911,168.288,297.771,168.542z"/>
	<path fill="#F1F2F2" d="M299.946,133.54c0,0,3.803-1.078,6.254,1.204c0,0,4.731,3.802-0.085,6.084c0,0-4.479,3.803-16.815,3.887
		l-10.529,0.41c0,0-2.291,12.292,2.248,14.209c0,0,18.675-1.521,27.04-7.267c0,0,7.014-4.563,7.521-10.225
		c0,0,0.021-5.324-4.668-9.633c0,0-6.654-6.401-16.604-3.929c0,0-2.726,0.38-2.789,0.824l7.922,5.387
		C299.438,134.491,299.438,133.667,299.946,133.54z"/>
	<path fill="#F1F2F2" d="M270.962,150.799c0,0,11.832,2.873,15.381,10.647c0,0,3.549,6.929-1.015,14.196
		c0,0-3.719,6.591-6.422,9.126L270.962,150.799z"/>
	<path fill="#F1F2F2" d="M258.245,188.867c0,0-6.844,1.141-5.957,6.591c0,0,0.127,3.676,6.845,4.31c0,0,3.295,0.253,6.337,2.535
		c0,0,8.493,3.422,10.395,5.831l-3.423-14.576c0,0-2.915,1.099-5.957,0.338c0,0-3.296-2.62-3.549-3.507
		C262.936,190.388,260.78,188.486,258.245,188.867z"/>
	<path fill="#F1F2F2" d="M266.357,224.864c0,0-4.689-5.831-10.394,1.901c0,0-1.901,3.296,3.042,8.493c0,0,3.296,5.957,11.281,10.647
		c0,0,5.577,3.042,6.591,5.577c0,0,3.422,2.408,7.226,3.422l-3.677-19.013c0,0-3.549,0.126-5.196-2.155
		C275.23,233.737,266.991,225.878,266.357,224.864z"/>
	<path fill="#D1D3D4" d="M283.976,203.021c0,0,6.254,2.197,9.127-0.507c0,0,2.367,15.548,2.367,20.449c0,0-8.451-4.816-11.746,7.098
		L283.976,203.021z"/>
	<path fill="#D1D3D4" d="M292.646,228.562c0,0,3.752,0.231,9.203,14.934c0,0,2.789,8.365,2.027,9
		c-0.761,0.633,0.634,0.127,0.634,0.127s-7.604-11.155-14.323-13.183c0,0,1.761-1.354,2.646-3.128
		C292.833,236.312,292.677,231.969,292.646,228.562z"/>
	<path fill="#F1F2F2" d="M262.555,257.312c0,0-0.715,2.859,5.252,5.577c0.187,0.084,0.379,0.168,0.579,0.254
		c6.591,2.789,4.689,2.662,6.591,3.168c0,0,10.394,0.253,13.436-0.507l-4.311-10.9c0,0-3.803-3.549-12.041-2.535
		c0,0-5.07-0.761-6.592,0.254C265.47,252.623,262.682,254.017,262.555,257.312z"/>
	<path fill="#F1F2F2" d="M280.3,281.522c0,0-1.268,1.901-3.676,2.915c0,0-1.394,3.803,2.789,5.197c0,0,3.295,1.521,7.098,1.521
		c0,0,15.465-3.803,17.365-5.958c0,0,3.169-3.803,1.521-6.211c0,0-4.437-1.9-7.985-2.281
		C297.411,276.705,282.962,279.748,280.3,281.522z"/>
	<path fill="#F1F2F2" d="M294.962,305.267c0,0,0.337,3.549,3.803,4.057c0,0,1.098-1.015,3.295-0.761c0,0,6.083,0.339,8.956-1.015
		c0,0,6.931-3.973,7.943-2.873c0,0,1.689,1.605,2.789,1.014c0,0-0.339-3.634-1.521-5.322c0,0-0.591-1.185-3.718-1.775
		c0,0-4.141-6.506-8.45-3.971c0,0-0.845,1.354-3.464,2.027c0,0-4.986,1.521-4.227,3.971c0,0-0.762,0.762-1.773,0.762
		C298.594,301.378,295.552,303.153,294.962,305.267z"/>
	<path fill="#F1F2F2" d="M316.424,317.772c0,0-2.915,3.169,3.296,4.437c0,0,3.549,0.381,4.689,1.142c0,0,1.395,1.142,4.942-1.015
		c0,0,5.45-4.815,10.9-3.803c0,0,5.24,3.297,6.254,3.551c0,0,1.438-1.1-0.254-2.959c0,0-3.718-3.125-3.718-4.31
		c0,0-1.269-4.056-8.534-8.703c0,0-4.648,2.365-4.562,4.731c0,0-3.973-1.268-5.999,1.184c0,0-2.029,3.041-3.466,2.873
		C319.974,314.9,317.606,315.66,316.424,317.772z"/>
	<path fill="#F1F2F2" d="M341.584,332.539c0,0-0.95,1.459,2.155,3.549c0,0,3.422,2.281,4.942,0.317c0,0,1.457-0.95,2.788-0.569
		c0,0,1.711,0.569,1.838-2.854c0,0,1.774-2.788,3.424-3.169c0,0,1.838-1.457,0.695-3.802c0,0-3.484-4.754-4.942-5.262
		c0,0-2.534-1.521-4.562,2.219c0,0-5.261,6.211-5.134,7.226C342.788,330.194,343.105,331.651,341.584,332.539z"/>
	<path fill="#D1D3D4" d="M282.021,122.875c-1.188,9.801-1.938,8.812-2.5,15.25c0,0,8.003,4.393,10.708,4.9
		c0,0,2.026,0.676,2.026,1.521c0,0,10.986-0.506,14.703-4.394C306.959,140.152,294.864,129.297,282.021,122.875z"/>
	<path fill="#B1B3B6" d="M321.748,287.015c0,0,6.718,18.759,8.111,21.421c0,0,2.661,1.015,3.676-0.38c0,0-7.731-17.619-7.985-22.814
		C325.55,285.24,322.55,283.888,321.748,287.015z"/>
	<path fill="#F1F2F2" d="M287.524,238.426c0,0,7.604,0.253,16.984,14.197c0,0,6.845,16.224-3.549,22.562c0,0-7.184,3.211-9.38,0.339
		L287.524,238.426z"/>
	<path fill="#D1D3D4" d="M263.864,123.759c0,0-2.535-6.422-8.112-2.366c0,0-2.535,2.873-2.703,5.239c0,0-0.339,1.69-1.521,2.197
		c0,0-1.436,0.169,0.507,6.761c0,0,3.549,10.816,4.817,15.125c0,0,3.042,12.928,4.816,15.717c0,0,2.281,7.352,2.281,10.647
		s0-3.296,0-3.296s3.465,14.703,7.184,19.604c0,0,4.562,10.816,5.576,23.998c0,0,3.718,36.843,11.153,52.053
		c0,0,3.338-0.212,4.479-1.353c0,0-2.534-25.604-6.592-43.603c0,0,1.396-15.083-3.422-34.856c0,0-11.027-48.799-14.323-54.63
		C268.005,134.998,264.71,126.885,263.864,123.759z"/>
	<path fill="#B1B3B6" d="M287.862,269.439c0,0,7.437,22.773,13.773,31.518c0,0,2.112,0.084,3.381-2.324
		c0,0-9.508-13.562-12.676-30.547C292.342,268.085,290.651,269.439,287.862,269.439z"/>
	<path fill="#C7C8CA" d="M298.562,197c0,0-3.709-3.583-6.584-3.583c0,0-1.607,1.09,0.25,6.667c0,0,2.191,19.1,0.418,28.479
		c0,0,5.916,1.938,9.328,18.229c0,0,2.281,7.098,5.323,13.182c0,0,5.577,8.492,6.084,9c0,0,1.901,2.915,2.155,7.225
		c0,0,2.027,4.943,6.337,10.647c0,0,1.901-2.408,3.676-1.521c0,0,0.889-3.423-1.141-6.972c0,0-4.689-8.492-7.226-11.534
		c0,0-5.704-16.098-7.098-23.576c0,0-3.296-9.887-4.816-14.196c0,0-2.535-15.21-4.31-18.759
		C300.961,210.288,298.056,202.324,298.562,197z"/>
</g>
</svg>
