<?xml version="1.0" encoding="utf-8"?>
<!-- Generator: Adobe Illustrator 15.0.0, SVG Export Plug-In . SVG Version: 6.00 Build 0)  -->
<!DOCTYPE svg PUBLIC "-//W3C//DTD SVG 1.1//EN" "http://www.w3.org/Graphics/SVG/1.1/DTD/svg11.dtd">
<svg version="1.1" xmlns="http://www.w3.org/2000/svg" xmlns:xlink="http://www.w3.org/1999/xlink" x="0px" y="0px"
	 width="562.396px" height="486.081px" viewBox="0 0 562.396 486.081" enable-background="new 0 0 562.396 486.081"
	 xml:space="preserve">
<g id="punta">
	<path fill="#BCBEC0" d="M528.171,411.745c0,0,10.408-30.254-31.88-39.687c0,0-46.842-6.182-60.505-7.157
		c0,0-37.083-3.902-73.19-28.95c0,0,8.133,35.131-1.626,42.612c0,0-6.182,6.506-17.893,6.831c0,0-46.517-1.057-53.348-0.08
		c0,0-49.039,10.002-63.921,33.911c0,0,35.295,11.711,64.896,15.614c0,0,70.589,9.108,168.503-1.627
		C459.208,433.213,507.027,428.661,528.171,411.745z"/>
	<path fill="none" stroke="#262262" stroke-miterlimit="10" d="M1066.146,602.235c0,0,10.408-30.254-31.88-39.687
		c0,0-46.842-6.182-60.505-7.157c0,0-37.083-3.902-73.19-28.95c0,0,8.133,35.131-1.626,42.612c0,0-6.182,6.506-17.893,6.831
		c0,0-46.517-1.057-53.348-0.08c0,0-49.038,10.002-63.921,33.911c0,0,35.295,11.711,64.896,15.614c0,0,70.589,9.108,168.503-1.627
		C997.184,623.703,1045.003,619.151,1066.146,602.235z"/>
</g>
<g id="lengueta">
	<path fill="#58595B" d="M225.396,98.5c0,0,17.5-9.75,46.5-5.25c0,0,19,3.5,34,17c0,0,2.168,1.417-0.166,6.417
		c0,0-19.334,71.833-12.834,99.833c0,0-4.5,75,25,92.5l-33.5-10L225.396,98.5z"/>
</g>
<g id="trasero">
	<path fill="#58595B" d="M46.729,365.104c1.644-3.452,13.334-11.438,13.334-11.438c2.959-15.128,23.334-63.379,23.334-63.379
		c3.999-14.621-0.668-20.954-0.668-20.954c-4.769-8.057,7.739-11.933,7.739-11.933c3.453-1.316,2.302-5.592,2.302-5.592
		l-5.375-16.06c-3.618-11.511,6.525-20.116,6.525-20.116c2.96-1.973-0.493-12.825-0.493-12.825
		c-2.466-21.706,3.135-78.975,3.135-78.975c-2.959-30.584,4.666-47,4.666-47s-4.5,1.333-6.333,9.667c0,0-2.5,19.25-1,31.75
		c0,0,2.25,5.25-0.5,7.5c0,0-3,1.5-2.25,7.5c0,0,0.25,26-2.75,40.75c0,0-2,15.5,0.25,22c0,0,3.185,10.692,0.224,19.49
		c-0.143,0.425-0.301,0.846-0.474,1.26c-3.75,9-9.5,17.25-5.5,27c0,0,6.167,12.417,1,13.75c0,0-11,6.333-11.5,15.833l-28,85.333
		L46.729,365.104z"/>
</g>
<g id="circulo">
	<path fill="#414042" d="M112.146,82.083c0,0-7.5-30.583-9-37.083c0,0-3-23.25-20.75-25.5c0,0-22.5-2.75-29.25,15.25
		c0,0-6,14.5,3.25,23.5c0,0,5.334,5.583,16.667,11.75c0,0,21.583,11.083,22.083,15.75c0,0,2.583-6.25,3.75-7.25c0,0-3-6.333-8-9
		c0,0-21.583-12.792-24.75-28.125c0,0-1.875-8.375,0.75-10.375c0,0,3.5-6,21.667,12c0,0,8.885,11.125,12.552,34.125L112.146,82.083z
		"/>
</g>
<g id="largo">
	<path fill="#A7A9AC" stroke="#A7A9AC" stroke-miterlimit="10" d="M227.338,419.103c14.744-23.686,63.325-33.595,63.325-33.595
		c6.767-0.967,52.849,0.081,52.849,0.081c11.601-0.322,17.725-6.769,17.725-6.769c9.668-7.412,1.61-42.213,1.61-42.213
		s-5.69-9.898-39.928-24.712c0,0-33.578-13.169-39.831-45.759c0,0-16.636-96.496,2.457-160.358c0,0-24.023-6.757-56.055-7.257
		c0,0-57.669,1.045-86.638-7.186c0,0-38.476-11.332-41.571-14.502c0,0-7.632,16.432-4.67,47.046c0,0-5.607,57.325-3.139,79.052
		c0,0,3.457,10.863,0.494,12.838c0,0-10.152,8.613-6.531,20.136l5.38,16.075c0,0,1.151,4.28-2.304,5.597
		c0,0-12.52,3.879-7.747,11.944c0,0,4.671,6.34,0.668,20.975c0,0-20.395,48.299-23.357,63.441c0,0-11.702,7.993-13.347,11.448
		c0,0,33.577,14.978,100.403,24.197c0,0,25.021,6.584,42.138,16.458c0,0,18.434,8.396,35.716,12.677L227.338,419.103z"/>
	<path fill="#BCBEC0" d="M293.396,184.25c1.25-9.5,17.312-52.938,17.312-52.938s0.105-0.382,0.271-0.729
		c3.708-7.792,0.417-8.958,0.417-8.958l-5.666-4.958c0,0-4.501,17.75-4.501,18.833s0,0,0,0s-8.499,41.5-8.499,46.667L293.396,184.25
		z"/>
</g>
<g id="suela_hule">
	<path d="M44.729,395.667c0,0-3.833,0.5-4.333,3.5l-2,48.166c0,0,9.333,5.5,51.333,7.167l6.5-10.5h5.5l4.167,10.167l32.5,0.333
		l5.667-9.5h7.167l2.167,9.666l33.5-0.333l21-25c0,0,38,6.417,85.25,11.167l10.75,13.25l34,2.5l0.5-10l5.75,0.5l9,10.25
		l35.583,2.333l1-10l4.667-0.666l8.667,9.666h36.666l0.667-9l6.333-0.333l6.667,8.5l33.333-0.167l2.334-10.5l5.333-0.333l6.333,9
		c0,0,18.666-1.333,25.333-4c0,0,5.333-0.999,6-6.833l0.334-17.833c0,0-0.667-5.001-5.667-4.167l-0.333-11
		c0,0-82.5,8.833-149.5,7.833c0,0-71.167-1.833-113.5-14.833c0,0-29.25-7.667-58-10.167c0,0-28.75,0.5-37.5-10.75
		c0,0-9.25-12-37.75-11.5c0,0-38.5-3-54-5.5c0,0-26.75-2-26.75-8.5c0,0-5.333-1.417-5.333,3.083c0,0-2.166,1.334-1.333,8.334
		L44.729,395.667z"/>
	<path fill="none" d="M1142.729,422.334c0,0,10.666-31.001-32.667-40.667c0,0-48-6.334-62-7.334c0,0-38-3.999-75-29.666
		c0,0,8.334,35.999-1.666,43.666c0,0-6.334,6.666-18.334,7c0,0-47.667-1.083-54.667-0.083c0,0-50.25,10.25-65.5,34.75
		c0,0,36.167,12,66.5,16c0,0,72.334,9.333,172.667-1.667C1072.062,444.333,1121.063,439.668,1142.729,422.334z"/>
</g>
<g id="ojetes">
	<g>
		<circle fill="none" stroke="#6D6E71" stroke-width="4" stroke-miterlimit="10" cx="257.344" cy="123.695" r="7.264"/>
		<circle cx="257.345" cy="123.695" r="5.56"/>
	</g>
	<g>
		<circle fill="none" stroke="#6D6E71" stroke-width="4" stroke-miterlimit="10" cx="258.095" cy="227.028" r="6.806"/>
		<circle cx="258.095" cy="227.028" r="5.209"/>
	</g>
	<g>
		<circle fill="none" stroke="#6D6E71" stroke-width="4" stroke-miterlimit="10" cx="264.761" cy="256.362" r="6.806"/>
		<circle cx="264.761" cy="256.362" r="5.209"/>
	</g>
	<g>
		
			<ellipse fill="none" stroke="#6D6E71" stroke-width="4" stroke-miterlimit="10" cx="278.928" cy="285.736" rx="5.473" ry="7.264"/>
		<ellipse cx="278.928" cy="285.736" rx="4.188" ry="5.559"/>
	</g>
	<g>
		
			<ellipse transform="matrix(0.8339 -0.5519 0.5519 0.8339 -119.1204 214.7484)" fill="none" stroke="#6D6E71" stroke-width="4" stroke-miterlimit="10" cx="297.218" cy="305.278" rx="4.22" ry="6.781"/>
		<ellipse transform="matrix(0.834 -0.5518 0.5518 0.834 -119.1108 214.7059)" cx="297.218" cy="305.277" rx="3.23" ry="5.188"/>
	</g>
	<g>
		
			<ellipse transform="matrix(0.6092 -0.793 0.793 0.6092 -130.4247 379.2395)" fill="none" stroke="#6D6E71" stroke-width="4" stroke-miterlimit="10" cx="319.551" cy="321.944" rx="4.714" ry="7.574"/>
		<path d="M321.747,319.083c2.54,1.949,3.615,4.812,2.4,6.39c-1.217,1.582-4.257,1.283-6.795-0.668
			c-2.537-1.949-3.612-4.812-2.399-6.392C316.168,316.834,319.212,317.134,321.747,319.083z"/>
	</g>
	<g>
		
			<ellipse transform="matrix(0.517 -0.856 0.856 0.517 -120.1689 457.5969)" fill="none" stroke="#6D6E71" stroke-width="4" stroke-miterlimit="10" cx="345.385" cy="335.278" rx="4.714" ry="7.573"/>
		<path d="M347.248,332.19c2.742,1.654,4.129,4.379,3.098,6.082c-1.033,1.708-4.087,1.75-6.827,0.094
			c-2.738-1.654-4.126-4.379-3.097-6.085C341.453,330.577,344.512,330.535,347.248,332.19z"/>
	</g>
	<g>
		<circle fill="none" stroke="#6D6E71" stroke-width="4" stroke-miterlimit="10" cx="256.095" cy="192.028" r="6.806"/>
		<circle cx="256.095" cy="192.028" r="5.209"/>
	</g>
	<g>
		<circle fill="none" stroke="#6D6E71" stroke-width="4" stroke-miterlimit="10" cx="256.845" cy="155.528" r="6.806"/>
		<circle cx="256.845" cy="155.528" r="5.209"/>
	</g>
</g>
<g id="cintas">
	<path fill="#D1D3D4" d="M303.622,154.264c0,0,1.268,3.549-0.761,4.563c0,0-12.168,7.479-15.21,9.126c0,0,0-4.943-2.535-8.999
		C285.116,158.954,301.341,156.418,303.622,154.264z"/>
	<path fill="#D1D3D4" d="M297.771,168.542c0,0-2.072,5.083-2.625,8.542c0,0,1.125,3.038-1.156,4.559c0,0-5.831,1.014-13.689,0.634
		c0,0,2.916,10.394,3.169,12.421c0,0,9.126-1.394,13.309-4.943c0,0,4.943-3.042,6.338-3.168c0,0,5.323-0.888,3.422-5.831
		c0,0-4.436-8.239-4.689-10.14C301.848,170.615,298.911,168.288,297.771,168.542z"/>
	<path fill="#F1F2F2" d="M299.946,133.54c0,0,3.803-1.078,6.254,1.204c0,0,4.732,3.802-0.085,6.084c0,0-4.479,3.803-16.815,3.887
		l-10.529,0.41c0,0-2.291,12.292,2.248,14.209c0,0,18.675-1.521,27.04-7.267c0,0,7.013-4.563,7.52-10.225
		c0,0,0.022-5.324-4.668-9.633c0,0-6.654-6.401-16.604-3.929c0,0-2.725,0.38-2.788,0.824l7.922,5.387
		C299.439,134.491,299.439,133.667,299.946,133.54z"/>
	<path fill="#F1F2F2" d="M270.962,150.799c0,0,11.832,2.873,15.381,10.647c0,0,3.549,6.929-1.015,14.196
		c0,0-3.719,6.591-6.422,9.126L270.962,150.799z"/>
	<path fill="#F1F2F2" d="M258.245,188.867c0,0-6.844,1.141-5.957,6.591c0,0,0.127,3.676,6.845,4.31c0,0,3.295,0.253,6.337,2.535
		c0,0,8.493,3.422,10.395,5.831l-3.423-14.576c0,0-2.915,1.099-5.957,0.338c0,0-3.296-2.62-3.549-3.507
		C262.936,190.388,260.78,188.486,258.245,188.867z"/>
	<path fill="#F1F2F2" d="M266.357,224.864c0,0-4.689-5.831-10.394,1.901c0,0-1.901,3.296,3.042,8.493c0,0,3.296,5.957,11.281,10.647
		c0,0,5.577,3.042,6.591,5.577c0,0,3.422,2.408,7.225,3.422l-3.676-19.013c0,0-3.549,0.126-5.196-2.155
		C275.23,233.737,266.991,225.878,266.357,224.864z"/>
	<path fill="#D1D3D4" d="M283.976,203.021c0,0,6.253,2.197,9.126-0.507c0,0,2.367,15.548,2.367,20.449c0,0-8.451-4.816-11.746,7.098
		L283.976,203.021z"/>
	<path fill="#D1D3D4" d="M292.646,228.562c0,0,3.752,0.231,9.202,14.934c0,0,2.789,8.365,2.028,8.999s0.634,0.127,0.634,0.127
		s-7.605-11.154-14.323-13.182c0,0,1.76-1.354,2.646-3.128C292.833,236.312,292.677,231.969,292.646,228.562z"/>
	<path fill="#F1F2F2" d="M262.555,257.312c0,0-0.715,2.86,5.252,5.577c0.187,0.084,0.379,0.168,0.579,0.254
		c6.591,2.789,4.689,2.662,6.591,3.168c0,0,10.394,0.253,13.436-0.507l-4.31-10.9c0,0-3.803-3.549-12.041-2.535
		c0,0-5.07-0.761-6.592,0.253C265.47,252.623,262.682,254.017,262.555,257.312z"/>
	<path fill="#F1F2F2" d="M280.3,281.522c0,0-1.268,1.901-3.676,2.915c0,0-1.394,3.803,2.789,5.197c0,0,3.295,1.521,7.098,1.521
		c0,0,15.464-3.803,17.365-5.958c0,0,3.169-3.803,1.521-6.211c0,0-4.436-1.901-7.985-2.282
		C297.411,276.705,282.962,279.747,280.3,281.522z"/>
	<path fill="#F1F2F2" d="M294.962,305.267c0,0,0.337,3.549,3.802,4.057c0,0,1.099-1.015,3.296-0.761c0,0,6.083,0.339,8.956-1.014
		c0,0,6.93-3.974,7.943-2.874c0,0,1.689,1.605,2.789,1.014c0,0-0.339-3.634-1.521-5.323c0,0-0.591-1.184-3.718-1.774
		c0,0-4.141-6.506-8.45-3.971c0,0-0.845,1.353-3.464,2.027c0,0-4.987,1.521-4.227,3.971c0,0-0.761,0.761-1.774,0.761
		C298.594,301.379,295.552,303.153,294.962,305.267z"/>
	<path fill="#F1F2F2" d="M316.424,317.772c0,0-2.915,3.169,3.296,4.437c0,0,3.549,0.38,4.689,1.141c0,0,1.395,1.141,4.943-1.014
		c0,0,5.45-4.816,10.9-3.803c0,0,5.24,3.297,6.254,3.55c0,0,1.437-1.099-0.254-2.958c0,0-3.718-3.126-3.718-4.31
		c0,0-1.268-4.055-8.534-8.703c0,0-4.648,2.365-4.563,4.731c0,0-3.972-1.268-5.999,1.184c0,0-2.029,3.041-3.465,2.873
		C319.974,314.9,317.606,315.659,316.424,317.772z"/>
	<path fill="#F1F2F2" d="M341.584,332.539c0,0-0.95,1.458,2.155,3.549c0,0,3.422,2.281,4.943,0.317c0,0,1.457-0.951,2.788-0.57
		c0,0,1.711,0.57,1.838-2.853c0,0,1.774-2.788,3.423-3.169c0,0,1.838-1.457,0.696-3.802c0,0-3.485-4.754-4.943-5.261
		c0,0-2.534-1.521-4.562,2.219c0,0-5.261,6.21-5.134,7.225C342.788,330.194,343.105,331.651,341.584,332.539z"/>
	<path fill="#D1D3D4" d="M282.021,122.875c-1.188,9.801-1.938,8.812-2.5,15.25c0,0,8.004,4.393,10.708,4.9
		c0,0,2.027,0.676,2.027,1.521c0,0,10.986-0.506,14.703-4.394C306.959,140.152,294.864,129.297,282.021,122.875z"/>
	<path fill="#B1B3B6" d="M321.748,287.015c0,0,6.718,18.759,8.111,21.421c0,0,2.662,1.014,3.676-0.38c0,0-7.731-17.619-7.985-22.815
		C325.55,285.24,322.55,283.888,321.748,287.015z"/>
	<path fill="#F1F2F2" d="M287.524,238.426c0,0,7.605,0.253,16.985,14.196c0,0,6.845,16.224-3.549,22.562c0,0-7.184,3.211-9.38,0.339
		L287.524,238.426z"/>
	<path fill="#D1D3D4" d="M263.864,123.759c0,0-2.535-6.422-8.112-2.366c0,0-2.535,2.873-2.703,5.239c0,0-0.339,1.69-1.521,2.197
		c0,0-1.436,0.169,0.507,6.761c0,0,3.549,10.816,4.817,15.125c0,0,3.042,12.928,4.816,15.717c0,0,2.281,7.352,2.281,10.647
		c0,3.295,0-3.296,0-3.296s3.465,14.703,7.184,19.604c0,0,4.562,10.816,5.576,23.998c0,0,3.718,36.843,11.154,52.053
		c0,0,3.337-0.212,4.479-1.353c0,0-2.535-25.604-6.592-43.602c0,0,1.395-15.083-3.422-34.856c0,0-11.027-48.799-14.323-54.63
		C268.005,134.998,264.71,126.885,263.864,123.759z"/>
	<path fill="#B1B3B6" d="M287.863,269.439c0,0,7.436,22.773,13.773,31.518c0,0,2.112,0.084,3.38-2.324
		c0,0-9.507-13.562-12.675-30.547C292.342,268.086,290.652,269.439,287.863,269.439z"/>
	<path fill="#C7C8CA" d="M298.562,197c0,0-3.71-3.583-6.584-3.583c0,0-1.608,1.09,0.25,6.667c0,0,2.191,19.1,0.417,28.479
		c0,0,5.916,1.938,9.329,18.229c0,0,2.281,7.098,5.323,13.182c0,0,5.577,8.492,6.084,9c0,0,1.901,2.915,2.155,7.225
		c0,0,2.027,4.943,6.337,10.647c0,0,1.901-2.408,3.676-1.521c0,0,0.888-3.422-1.141-6.971c0,0-4.689-8.492-7.225-11.534
		c0,0-5.704-16.098-7.098-23.576c0,0-3.296-9.887-4.816-14.196c0,0-2.535-15.21-4.31-18.759
		C300.961,210.288,298.056,202.324,298.562,197z"/>
</g>
</svg>
