<?xml version="1.0" standalone="no"?> <!DOCTYPE svg PUBLIC "-//W3C//DTD SVG 1.0//EN" "http://www.w3.org/TR/2001/REC-SVG-20010904/DTD/svg10.dtd" > <svg xmlns="http://www.w3.org/2000/svg" width="100%" height="100%">
<defs >
<font id="clairehandregular" horiz-adv-x="448" ><font-face
    font-family="Claire Hand"
    units-per-em="1000"
    panose-1="2 0 5 6 4 0 0 2 0 4"
    ascent="714"
    descent="-286"
    alphabetic="0" />
<missing-glyph horiz-adv-x="543" d="M516 313Q518 228 520 146T531 -3L532 -10L526 -13Q513 -20 498 -20Q490 -20 483 -19T467 -16Q460 -14 454 -13T440 -11H412Q387 -11 362 -12T311 -16Q284 -18 257 -20T202 -22Q191 -22 181 -22T161 -20Q153 -20 145 -20T129
-19Q109 -19 89 -20T48 -23L39 -24L38 -15Q24 62 23 160T22 360Q23 459 22 543Q21 548 21 551T21 560Q21 587 20 612T10 661Q9 666 4 674Q-1 682 -4 689T-5 705V706Q-3 716 6 722T27 733T54 738T82 741Q87 742 91 742T100 743Q146 750 197 753T299 757Q414 757
497 740L504 739V732Q511 681 512 627T513 514Q513 485 513 456T513 398Q514 377 514 356T516 313ZM85 583Q87 537 87 491T85 399Q84 321 84 244T91 96Q129 145 160 202T220 316Q223 322 226 328T232 339Q208 371 188 406T148 476Q133 503 118 530T85 583ZM331
542Q350 580 368 618T406 693Q357 703 291 703Q246 703 196 699T91 684Q103 665 114 646T137 608Q152 583 167 559T198 509Q204 498 209 488T220 467Q229 449 238 433T262 402Q280 437 297 472T331 542ZM176 114Q165 95 153 76T130 37Q153 35 177 34T230 32Q267
32 304 34T380 38Q397 39 413 40T447 42L438 57Q401 117 362 177T276 290Q253 243 228 200T176 114ZM306 353Q314 343 321 333T337 313Q367 271 397 230T457 144Q456 275 451 420Q449 472 448 524T446 631Q423 593 404 554T366 474Q352 444 338 414T306 353Z" />
<glyph unicode=" " glyph-name="space" horiz-adv-x="278" />
<glyph unicode="!" glyph-name="exclam" horiz-adv-x="266" d="M129 74Q141 74 154 67T173 46Q176 39 175 27T159 1L156 -2H152Q126 -2 110 9T94 39Q94 55 103 64T129 74ZM186 668Q185 664 185 660T183 652Q181 635 183 617Q184 607 184 597T183 574Q182 561 181
547T179 519Q176 483 174 446T171 373Q171 356 171 341T172 308Q174 257 173 211T158 126L156 120L150 119Q148 119 145 119T140 118Q127 118 119 122T104 131Q103 132 103 132T101 133L96 136L97 142Q100 192 101 245T103 355Q105 449 108 542T124 718V721L126
723Q136 736 152 736Q161 736 170 732T184 720Q192 710 191 696T186 668Z" />
<glyph unicode="&quot;" glyph-name="quotedbl" horiz-adv-x="336" d="M132 719Q135 700 138 679T141 639T138 603T127 578Q118 567 104 567Q93 567 82 574L76 577L77 583Q78 594 78 606T76 631Q75 654 75 676T83 715L85 719L88 720Q89 721 89 721T91 722Q95 724
100 726T114 728Q121 728 124 727L131 726L132 719ZM250 720Q253 701 256 680T259 640T256 604T245 579Q236 568 222 568Q211 568 200 575L194 578L195 584Q196 595 196 607T194 632Q193 655 193 677T201 716L203 720L206 721Q207 722 207 722T209 723Q213 725
218 727T232 729Q239 729 242 728L249 727L250 720Z" />
<glyph unicode="#" glyph-name="numbersign" horiz-adv-x="551" d="M500 325Q483 321 464 320T422 316Q396 314 371 311T324 302Q313 287 305 270T289 235Q278 211 266 188T235 144L231 140L225 141Q199 149 192 166Q185 184 196 205T222 247Q229 258 235 268T245
287H236Q218 287 206 282T185 268T168 247T152 219Q150 215 148 212T143 203Q137 194 131 182Q120 162 109 147T82 131Q65 131 50 155L48 159L50 164Q55 177 61 187T75 208Q81 217 86 226T97 245Q96 244 95 244Q85 241 76 239T56 236Q45 236 34 242T19 270L18 276L23
280Q37 291 55 297T93 308Q106 312 119 316T143 325Q152 338 160 351T176 379Q176 380 176 380T177 382Q169 380 162 378T146 376Q130 376 121 386Q111 396 112 417L113 424L119 426Q145 434 169 442T218 461Q231 477 241 494T262 529Q273 548 284 567T310 603L315
609L321 607Q347 598 353 580Q358 563 348 546T323 512Q310 496 303 483Q318 485 336 490T367 500Q372 505 377 514T388 535Q400 558 413 577T443 597Q461 597 474 572L476 568L474 564Q469 550 464 539T450 516Q453 517 455 517T461 519Q469 521 477 523T495 526H498L501
524Q510 516 518 508T523 488Q519 474 503 470T462 462Q450 460 438 458T418 452Q404 446 395 431T378 398Q374 390 371 382T362 366Q372 367 382 368T404 372Q418 375 432 377T458 380Q478 380 492 371Q506 359 508 336V327L500 325ZM325 431Q317 429 310 427T294
423Q288 421 281 420T267 416Q259 405 253 393T239 369Q236 362 233 356T225 343Q230 344 236 345T248 348Q256 350 263 351T279 353Q289 372 300 389Q307 400 313 410T325 431Z" />
<glyph unicode="$" glyph-name="dollar" horiz-adv-x="487" d="M160 -20Q151 -15 140 -13T116 -7Q102 -4 88 -1T62 9T41 26T29 52L28 57L32 61Q45 72 59 72Q70 72 81 67T104 55Q118 48 132 42T161 36Q166 83 169 129T174 222Q176 269 179 316T188 411Q177 416
166 419T144 426Q125 431 107 437T72 454Q35 478 29 519Q24 552 35 589T71 661Q94 691 123 713T181 746Q181 752 181 758T179 770Q177 779 177 789T177 811L178 815L182 818Q196 826 207 826Q229 826 240 805T252 756Q260 754 268 754T286 753Q304 753 321 751T348
738Q359 727 357 709V702L349 700Q346 699 342 699T333 699Q327 699 321 699T307 700Q299 701 292 701T277 702Q262 702 252 699Q250 672 250 640T252 576T254 515T258 467Q306 459 345 437T414 379Q445 344 459 297Q474 250 469 196Q464 152 447 113T400 44Q368
10 327 -7T236 -24H231Q231 -29 231 -32T232 -40Q234 -50 234 -60T227 -80L225 -83L222 -84Q213 -88 203 -88Q189 -88 180 -82T163 -69L160 -66V-20ZM183 675Q163 658 140 634T105 581Q88 534 106 509Q125 479 188 473Q189 507 188 539T186 603Q186 621 186 639T184
677Q184 676 184 676T183 675ZM255 404Q252 364 248 317T241 220T236 122T235 30H239Q278 30 307 46T357 90T388 151T399 221Q400 254 392 286T366 343T321 385T255 404Z" />
<glyph unicode="%" glyph-name="percent" horiz-adv-x="617" d="M194 489Q206 489 217 482T234 463Q245 443 230 424L228 422L225 421Q216 418 207 418Q190 418 178 430T164 466L163 469L165 472Q176 489 194 489ZM420 260Q403 260 390 273T375 300Q373 313 379
323T400 338Q403 339 411 339Q428 339 439 326T452 297Q455 268 426 261Q424 261 423 261T420 260ZM556 715Q560 709 563 708L575 703L568 693Q539 651 510 608T450 516Q377 401 303 297T146 81Q144 78 141 75T136 67Q129 56 121 45T103 23T84 7T63 0Q45 0 33 18L29
23L32 28Q51 63 74 94T122 154Q130 165 139 176T157 198Q182 234 206 265Q225 289 243 314T280 367Q300 396 318 426T355 486Q393 548 433 609T522 727L525 730H529Q540 730 546 725T556 715Z" />
<glyph unicode="&amp;" glyph-name="ampersand" horiz-adv-x="479" d="M429 93Q438 82 446 71T463 48L464 45V42Q463 28 454 24T437 18L428 15L422 13L418 17Q403 30 391 44T366 73Q364 77 361 80T355 86Q341 67 327 50T296 20T258 -3T211 -16Q206 -16 203 -16T194
-17Q131 -17 87 36Q67 60 56 91T43 157Q40 243 78 304Q95 333 117 356T163 402Q169 408 172 410Q158 458 151 499T141 575Q137 684 195 726H196Q224 745 259 745Q293 745 325 728Q357 711 375 684L376 683V682Q403 594 353 506Q319 445 249 389Q271 342 293 298T345
216Q350 225 354 235T364 256Q370 275 379 291L381 296L386 297Q391 298 395 298T404 298Q427 298 441 277L445 272L442 267Q435 256 430 244T420 218Q413 201 406 184T388 153Q396 136 407 122T429 93ZM198 344Q117 275 111 184V183Q109 167 110 145T117 106V105Q119
99 125 90T138 71T154 54T171 43Q182 39 195 39Q214 39 231 49T264 75T290 112T310 153Q277 198 250 247T198 344ZM226 458Q243 471 260 489T291 529Q304 549 315 578T324 639Q322 663 304 677T266 691Q258 691 248 689T230 675Q205 645 206 589Q206 563 211 536T221
482Q223 475 224 469T226 458Z" />
<glyph unicode="&apos;" glyph-name="quotesingle" horiz-adv-x="216" d="M135 691Q138 672 140 651T143 611T140 575T130 549Q121 539 107 539Q96 539 84 545L79 548V555Q80 566 80 578T79 603Q78 626 78 648T86 687L87 690L91 692Q91 692 93 693Q98 695 103
697T116 700Q123 700 127 699L134 697L135 691V691Z" />
<glyph unicode="(" glyph-name="parenleft" horiz-adv-x="239" d="M162 557Q156 546 151 532T142 504T134 478T130 459Q120 405 119 342T125 215Q133 149 149 97T189 14Q194 6 204 -2Q214 -10 222 -22T227 -60L226 -64L222 -67Q213 -72 201 -72Q180 -72 166 -56T140
-24Q139 -22 136 -19Q102 26 83 82Q75 108 68 139T56 212Q48 275 50 344T64 477Q77 543 99 592Q123 645 156 669Q163 676 177 676Q191 676 203 669T218 648Q220 634 209 618T183 585Q176 577 171 570T163 558L162 557V557Z" />
<glyph unicode=")" glyph-name="parenright" horiz-adv-x="193" d="M15 -5Q45 42 63 105T86 238T83 380T53 519Q48 530 43 541T33 563Q22 583 15 602T7 642V649L12 651Q24 657 34 657Q47 657 57 649T76 628T91 600T103 569Q105 564 107 560T111 550Q129 505 140
446T155 321Q159 251 152 188T129 74Q125 62 118 43T101 4Q75 -47 50 -47Q29 -47 14 -15L12 -10L15 -5Z" />
<glyph unicode="*" glyph-name="asterisk" d="M168 515Q157 507 148 498T129 481Q105 457 77 436L73 432L68 434Q62 436 50 442T37 464Q38 475 41 482T52 499V500L53 501Q56 503 61 509T68 518L69 519L71 521Q74 525 78 526T86 530Q94 533 98 537L99 538Q117 553
132 568Q135 570 138 573T143 578Q135 579 126 579T105 579H92Q81 579 71 579T50 580Q42 581 35 588Q28 597 28 610T29 634L30 641L37 642Q55 645 73 645Q81 645 89 645T104 643Q112 643 118 643T132 642Q137 642 141 642T151 643Q147 651 143 656T130 668Q128
670 126 672T120 676Q104 690 90 707T71 750L70 758L77 761Q89 767 102 767Q126 767 146 747Q154 739 161 730T175 710V714Q175 734 176 754T188 785Q194 792 205 792Q215 792 228 785L230 783L231 781Q240 763 241 747T240 716Q240 708 240 700T240 682Q245 686
249 689T259 695Q276 706 289 716T323 744Q328 749 331 751Q343 763 357 772T395 781H404H409L412 776L415 773Q417 770 420 766T424 757L425 755Q427 750 425 748T420 743L416 739Q413 737 409 734T400 727Q392 720 380 711T353 689Q339 678 326 668T301 649H303Q316
648 330 647T356 642T378 630T390 609L391 604L387 600Q378 591 365 589T340 587Q334 587 328 587T314 588H288H280Q290 576 301 567T324 547Q334 539 343 531T364 512Q371 506 373 492Q374 481 369 466T353 439L349 435L343 437Q325 444 315 455T296 478Q291 484
287 490T276 501V502Q268 510 262 518T250 534Q242 546 234 556Q232 539 232 522T233 487Q235 458 234 429T221 376L219 371L214 370Q212 370 210 370T204 369Q182 369 169 388Q159 405 159 423V424Q161 445 163 465T167 502Q167 506 167 509T168 515Z" />
<glyph unicode="+" glyph-name="plus" horiz-adv-x="620" d="M449 248Q429 248 405 247T352 244Q354 203 355 158T356 64V60L354 57Q348 50 338 44T315 38Q307 38 297 43L291 45V51Q290 94 288 141T284 240V241Q252 239 213 237T132 235Q125 235 119 235T106 236H103L100
237Q88 246 82 262T85 296L88 300L94 301Q117 302 142 302T196 305Q217 305 238 305T282 307L279 380V388Q276 423 277 455T293 503Q304 514 321 511Q329 509 336 503T346 480Q348 471 347 461T345 443Q345 438 345 435T344 428Q343 401 344 373T348 310L423 313H430Q437
314 447 314T471 315Q533 315 548 295Q556 285 553 270Q550 261 544 256T531 248T518 246T508 245Q503 245 497 245T486 247Q481 247 478 247T471 248H449Z" />
<glyph unicode="," glyph-name="comma" horiz-adv-x="298" d="M167 72Q178 63 184 48T193 13T193 -26T185 -63Q168 -114 128 -114Q123 -114 113 -112L105 -110V-102Q105 -91 109 -81T119 -61Q125 -49 129 -37T131 -9Q117 -8 110 -3T98 8Q93 17 94 29T102 53Q109
66 120 73T143 81Q155 81 167 72Z" />
<glyph unicode="-" glyph-name="hyphen" horiz-adv-x="371" d="M260 285Q262 281 263 280Q265 275 267 268T267 250L265 243L259 242Q206 233 173 233Q122 233 110 254Q100 269 112 293L115 298H122Q127 297 132 297T145 297Q152 297 158 297T171 298H197Q211
298 226 297T254 291L259 290L260 285V285Z" />
<glyph unicode="." glyph-name="period" horiz-adv-x="250" d="M125 76Q141 76 155 65T172 34Q172 15 158 2T124 -12Q103 -12 88 6L86 8V11Q82 31 86 43T95 62Q106 76 125 76Z" />
<glyph unicode="/" glyph-name="slash" horiz-adv-x="361" d="M335 726Q356 723 362 710Q367 699 361 686T348 662Q344 656 343 654Q321 612 303 569T266 479Q252 442 237 406T205 332Q191 303 178 274T153 217Q130 163 107 113T56 15L54 9H48H41H34Q26 9 15 10T-3
23L-4 25V27Q-8 48 1 64T20 94Q24 99 27 103T33 112Q41 126 46 139T57 167Q60 174 62 180T69 195Q78 216 88 236T109 278Q120 298 130 318T150 361V362Q156 374 160 387T169 415Q172 426 175 437T183 460Q194 489 205 512T228 558Q247 595 268 641Q270 646 271
651T275 661Q279 672 283 683T294 704T309 720T331 726H335V726Z" />
<glyph unicode="0" glyph-name="zero" horiz-adv-x="573" d="M429 682Q467 656 495 616T540 525Q575 421 557 294Q549 248 534 204T499 121Q476 79 449 52T393 12Q354 -5 308 -5Q258 -5 207 15Q183 24 163 37T125 65V66Q77 113 51 195Q40 232 35 274T29 361Q30
409 36 454T57 542Q71 587 91 621T136 678Q168 707 203 721T284 735Q300 735 320 730T360 717T398 700T429 682ZM491 366Q496 451 474 516Q454 579 417 607Q391 550 367 492T318 377Q289 307 259 236T197 94Q262 53 311 53Q337 53 360 65Q414 91 451 180Q468 222
478 269T491 366ZM182 632Q144 595 122 529T97 382Q95 311 110 249T153 145Q202 256 254 378T365 646Q360 649 356 651T346 657Q331 667 316 674T281 681Q270 681 257 677T230 665T204 650T182 632Z" />
<glyph unicode="1" glyph-name="one" horiz-adv-x="567" d="M347 168Q346 152 346 136T348 102Q349 79 349 57T345 16L344 10L339 8Q334 6 328 4T314 1Q305 1 297 6L293 9L292 13Q283 91 286 173T294 344Q299 421 302 499T301 659Q292 655 283 648T265 633Q260
628 254 624T242 614H241Q240 613 239 613T237 611Q226 605 208 595T173 585Q150 585 148 610Q148 621 163 633T212 667Q216 669 219 671T225 675Q237 682 248 692Q265 704 282 715T318 726Q333 726 349 715L353 712V708Q369 603 366 501T355 297Q353 265 351 233T347
168Z" />
<glyph unicode="2" glyph-name="two" horiz-adv-x="496" d="M289 521Q294 553 289 591T266 652Q251 671 230 672H222Q205 672 190 667T162 657Q160 655 158 655Q151 651 145 646T131 636Q118 625 106 617T76 608Q63 608 45 618L41 621V626Q41 638 47 648T64 666T87
681T111 693L113 694Q167 724 217 724Q265 724 299 696Q362 644 350 512Q347 462 334 416T301 327T258 242T212 163Q195 137 181 112T155 63Q189 68 226 68T301 69Q332 69 361 69T416 73L432 74L428 64Q433 61 440 56T447 39Q447 27 441 20Q433 12 420 10T394 8H375H363V9Q319
12 269 12Q231 10 198 6Q180 4 163 2T131 0Q101 0 80 9L77 11L75 14Q66 31 73 44T88 68Q95 76 97 82H98Q113 106 126 130T154 181Q164 200 174 218T196 257Q210 280 225 311T252 378T275 450T289 521Z" />
<glyph unicode="3" glyph-name="three" horiz-adv-x="542" d="M449 382Q499 322 504 224Q506 141 467 81Q424 16 348 1Q313 -7 274 -7Q255 -7 226 -4T174 13Q153 25 129 43T92 75Q39 138 50 194V199L54 201Q70 209 78 209Q84 209 91 206T103 193Q105 187 107 181T111
167Q112 162 112 159T114 152Q122 126 134 113T168 84Q170 82 171 82T174 79Q182 73 191 67T208 57Q230 49 262 49Q300 49 338 60T397 89Q416 106 427 138T439 211Q441 253 431 289T403 348Q388 368 355 379T280 391Q272 391 265 391T251 389Q246 389 234 384Q220
379 201 374T164 369Q144 369 138 377T129 391Q127 400 131 409T142 426T159 441T178 456Q190 465 197 472Q251 522 294 569T378 670Q366 671 355 671T331 673Q295 675 258 676T186 677Q171 677 158 677T131 676Q127 675 123 675T114 674Q99 671 82 671Q41 671
35 707V712L39 715Q53 728 80 730T136 733Q149 733 160 733T183 735Q204 738 235 738Q261 738 289 737T344 733Q380 730 403 730H404Q408 730 418 729T440 725T462 717T475 703V702Q477 694 474 685T465 667T450 649T434 633Q430 629 427 626T422 620Q383 573 344
532T265 449Q272 449 278 449T290 450Q341 450 382 432Q422 414 449 382Z" />
<glyph unicode="4" glyph-name="four" horiz-adv-x="485" d="M366 270Q377 271 387 271T407 272Q412 272 421 272T439 269T455 260T465 243L466 240L464 237Q457 220 438 216T397 212Q390 212 383 212T368 213H343Q330 213 326 212Q325 193 325 171T327 123Q328
85 328 49T323 -16V-21L318 -23Q310 -28 301 -28Q295 -28 290 -27T280 -24L275 -23L273 -18Q263 8 262 40T262 109Q262 133 262 157T259 205Q243 205 227 203T192 199Q172 197 151 195T109 192Q69 192 38 203L32 205L31 210Q26 237 35 263T55 316Q58 322 61 328T66
341Q93 413 114 474T154 592Q155 595 156 598T158 604Q169 637 180 668T209 726L211 729L215 730Q218 730 220 730T225 731Q236 731 242 727T253 718Q254 716 255 716T257 714L263 709L261 703Q226 597 190 495T117 291Q113 281 110 272T103 252Q108 252 114 252T126
251Q151 251 175 254T223 261Q232 263 240 264T258 267Q262 281 262 298T259 332Q257 350 257 368T262 402L264 408L270 409Q274 410 281 410Q294 410 302 406T317 396L321 394V389Q323 357 324 330T326 267Q345 267 366 270Z" />
<glyph unicode="5" glyph-name="five" horiz-adv-x="501" d="M345 22Q292 0 234 0Q199 0 167 9T110 35Q53 74 47 146L46 154L53 156Q66 162 77 162Q96 162 103 149T116 123Q118 117 121 111T127 100Q157 58 225 58Q260 58 296 69T356 101Q376 123 385 152T391
216Q389 253 374 285T335 338Q317 353 294 359T239 366Q220 366 201 364T160 360Q138 358 117 356T74 353H69L66 357Q53 375 51 395T50 434V443Q50 497 52 556T61 693V700L69 702Q96 707 128 708T194 712Q226 714 258 715T316 722Q319 722 324 722T338 723Q357
723 368 719T384 708T391 695T393 684V681L391 678Q383 666 372 664T356 662Q351 662 347 662T338 664Q334 664 331 664T324 665Q308 664 292 663T259 659Q234 656 209 654T157 652Q149 652 141 652T125 653Q119 608 117 549T118 414Q149 419 175 421T225 424Q322
424 375 382Q418 348 441 296Q467 239 459 177H458Q451 126 419 82Q386 38 345 22Z" />
<glyph unicode="6" glyph-name="six" horiz-adv-x="497" d="M270 -2Q197 -2 125 55Q76 91 55 160Q45 189 41 224T39 298Q43 366 62 436T111 562Q125 588 141 615T174 666T209 706T247 728Q259 731 268 731Q279 731 291 725T311 696L314 688L306 684Q267 664 238
634T187 568T150 490T123 408Q152 419 182 426T244 434Q281 434 313 422Q333 414 356 398T403 360Q409 355 417 346T435 327T452 304T464 282Q471 262 472 237T468 185Q464 161 457 139T440 101Q432 87 418 72T387 42Q375 33 355 20T311 3Q289 -2 270 -2ZM104 225Q106
190 118 161T150 111T194 76T243 58Q249 57 255 57T267 56Q301 56 323 73T369 114Q371 116 373 118T377 122Q379 129 381 135T386 148Q397 177 404 206T403 272Q390 291 372 310T330 344T281 368T227 377Q191 377 156 358L155 357Q151 355 129 336Q118 326 113
320T106 312Q104 308 103 299T102 277T102 252T104 226V225Z" />
<glyph unicode="7" glyph-name="seven" horiz-adv-x="575" d="M447 711Q461 695 455 674T440 631Q437 624 434 618T429 605Q421 584 414 562T398 516Q387 484 376 452T353 389H358Q364 390 370 390T384 391Q392 391 403 389T422 379Q430 370 430 352L429 349L427
346Q415 335 397 333T360 329Q352 329 345 329T330 327Q304 265 282 204T242 89Q240 82 239 76T236 62Q233 47 229 32T212 3L210 0H207Q203 -1 197 -1Q184 -1 176 4Q174 5 173 5T170 6L164 8L163 14Q160 45 169 73T190 130Q194 141 198 152T206 174V175Q213 192
218 209T229 244Q234 263 240 282T253 319H246Q239 319 233 319T218 318Q210 317 203 317T187 316Q176 316 164 318T143 330Q132 343 137 366L139 374H147Q157 375 167 375T189 376Q212 377 235 378T279 384Q294 420 307 458T334 534Q345 565 356 596T379 659H361Q341
659 322 661T281 665Q258 667 236 669T189 672Q181 672 172 671T152 668Q141 666 130 665T108 663Q86 663 72 671Q54 681 50 703L49 708L53 712Q63 722 75 724T100 727Q105 727 108 727T116 726H130Q140 726 152 729Q160 730 168 731T184 732H185Q199 731 212 729T239
725Q249 723 258 722T279 720Q285 719 291 719T305 719Q314 719 323 719T342 720Q350 720 359 720T377 721Q415 721 442 715L445 714L447 711Z" />
<glyph unicode="8" glyph-name="eight" horiz-adv-x="539" d="M510 221Q516 163 482 99Q448 35 399 13Q377 3 342 -2T265 -8Q220 -8 184 -2T128 16Q111 24 97 38T73 70T55 104T45 135Q34 188 45 229T82 301T141 357T209 403Q171 423 145 450T106 510Q86 566 116
623Q138 663 175 696Q217 734 262 740H263Q269 741 275 741T289 741Q321 741 349 732T401 706Q448 671 457 613Q464 551 423 487Q406 462 387 442T350 407Q373 396 398 380T446 343Q501 291 510 221ZM242 343Q225 332 207 320T171 295T140 266T116 234Q107 216
104 194T103 149T115 107T140 76Q166 60 240 60Q254 60 269 60T296 63Q301 64 306 64T318 65Q328 66 339 67T356 71V72H357Q373 77 389 92T419 131Q433 154 440 178T446 223Q443 256 427 278T388 317T336 344T279 365L277 366Q260 354 242 343ZM274 442Q295 456
315 472T351 505T380 541T397 583Q400 605 392 627T370 659Q367 661 354 665T329 674Q317 678 311 680T302 683Q300 683 298 683T294 684Q272 684 248 670T202 632Q181 609 169 583T157 535Q157 520 164 509T184 489T212 473T242 458Q250 453 258 450T274 442Z"
/>
<glyph unicode="9" glyph-name="nine" horiz-adv-x="411" d="M360 721Q364 717 366 716L370 713V708Q366 590 360 470T345 231Q341 175 338 119T331 7V2L327 -1Q319 -6 309 -6Q304 -6 299 -5T289 -2Q287 -1 286 -1T283 0L277 2L276 8Q271 50 272 91T277 177Q280
212 282 249T282 325Q265 320 246 319T208 317Q155 317 118 331Q73 349 56 385Q35 436 42 500Q50 564 83 618Q110 664 149 694Q192 725 241 730Q246 731 250 731T260 731Q266 731 271 731T283 730Q288 730 294 730T306 729Q316 729 320 730Q327 735 335 735Q343
735 349 731T360 721ZM292 679Q245 679 210 661T150 612T114 544T102 467Q102 439 105 420T116 395L117 394Q135 373 187 373Q215 373 243 378T291 391Q296 429 297 470T299 553Q300 586 301 617T304 679H292Z" />
<glyph unicode=":" glyph-name="colon" horiz-adv-x="292" d="M143 438Q149 438 160 433T180 420Q182 412 182 401T179 380Q172 374 164 368T150 362L142 363Q125 363 115 377T105 407Q105 418 112 429Q119 439 134 439L143 438ZM123 92Q140 92 154 83T168 57Q169
43 160 32Q149 20 131 20Q110 20 98 35Q93 40 90 50T91 77L92 80L94 82Q105 92 123 92Z" />
<glyph unicode=";" glyph-name="semicolon" horiz-adv-x="294" d="M187 430Q188 417 185 410T178 398Q169 387 151 387Q131 387 116 402Q106 413 106 429Q109 460 139 460Q152 460 164 453T185 434L186 432L187 430ZM171 86Q175 69 177 50T177 11T170 -25T156
-55Q141 -76 117 -76Q112 -76 102 -74L94 -72V-64Q94 -50 97 -40T106 -22Q110 -14 112 -7T115 9Q111 13 107 15Q102 17 96 21T88 37Q85 56 101 75Q120 99 145 99Q159 99 167 92L170 90L171 86Z" />
<glyph unicode="&lt;" glyph-name="less" horiz-adv-x="480" d="M400 561Q413 561 420 556T432 545T438 531T441 519L442 513L436 510Q373 467 313 422T195 332L126 278Q156 243 192 214T267 156Q289 139 310 123T353 88Q355 87 356 86T359 84Q368 77 378 69T396
50T410 28T414 2L413 -6L406 -7Q398 -9 395 -9Q374 -9 357 5T323 34Q318 39 314 43T304 52Q287 66 269 80T234 109Q196 139 158 170T80 236Q78 238 75 240T69 246Q57 255 48 263T38 282V283Q38 296 56 312T109 353Q114 356 117 358T123 363Q186 412 256 463T392
559L394 561H397H400V561Z" />
<glyph unicode="=" glyph-name="equal" horiz-adv-x="588" d="M454 218Q516 218 531 197Q539 187 536 173V172Q533 163 527 158T514 151T501 149T491 148Q486 148 480 148T469 149Q464 150 461 150T454 150H429Q397 150 363 149T292 145Q250 142 208 140T120 138H89H86L83
140Q71 149 65 165T68 198L71 203H77Q109 205 146 206T224 209Q271 211 317 212T405 215H406Q407 215 409 215T413 216Q420 216 430 217T454 218ZM77 391Q109 393 146 394T224 397Q271 399 317 400T405 403H406Q407 403 409 403T413 404Q420 404 430 404T454 405Q517
405 531 385Q539 375 536 361V360Q533 351 527 346T514 339T501 337T491 336Q486 336 480 336T469 337Q464 338 461 338T454 338H429Q397 338 363 337T292 333Q250 330 208 328T120 326H89H86L83 328Q71 337 65 353T68 386L71 391H77Z" />
<glyph unicode="&gt;" glyph-name="greater" horiz-adv-x="446" d="M259 429Q344 355 409 263L412 259L410 254Q405 242 396 235T377 221Q369 217 365 213H364Q303 175 238 122T107 3Q93 -11 80 -21T51 -31Q28 -31 13 -4L8 3L14 9L44 36Q111 96 180 157T327 272Q310
297 287 320T236 366T179 410T121 451Q119 453 117 454T112 457Q103 463 92 470T71 486T55 504T48 525Q47 530 50 538T63 555L68 559L74 556Q177 501 259 429Z" />
<glyph unicode="?" glyph-name="question" horiz-adv-x="429" d="M163 62Q177 62 191 55T211 33Q213 27 213 16T198 -9L196 -11L192 -12H183Q153 -12 136 5Q127 15 127 29Q128 44 137 53T163 62ZM335 688Q363 658 379 606Q395 554 389 501V500Q379 433 319 385Q293
364 263 349T202 318Q199 317 191 313Q189 294 189 276T192 238Q194 212 195 185T189 127L188 120L181 119Q178 119 175 119T169 118Q161 118 155 120T143 124Q141 124 140 125L135 126L133 131Q126 155 124 185T121 246T121 304T124 349V355L130 357Q139 362 149
366T168 374Q194 385 219 396T265 424T301 461T321 511Q327 548 317 587T284 653Q273 666 255 678T209 690Q189 690 171 683H170Q162 681 156 677T141 666Q139 664 138 664T134 661Q132 660 129 657Q120 650 110 644T87 638Q71 638 54 652L48 657L52 664Q71 704
113 724Q147 743 194 743Q236 743 273 729T335 688Z" />
<glyph unicode="@" glyph-name="at" horiz-adv-x="575" d="M346 649Q371 642 396 627T445 591T487 544T518 490Q536 448 536 410T520 339Q514 328 503 318T477 301T447 289T416 284Q379 284 357 309Q310 217 251 217Q228 217 206 230Q191 238 178 257T157 301Q149
328 150 355T162 405Q168 421 180 435T207 462Q220 471 239 480T285 490Q301 490 313 486Q316 485 324 481T342 471T361 457T376 440V439Q381 429 383 418T386 395Q388 374 391 362T409 345Q417 343 420 343Q435 343 446 355Q457 367 463 387T468 428Q467 464 454
490T429 531Q409 554 372 574T291 595Q276 595 263 592T236 582Q213 571 190 545T148 482Q129 444 120 405T112 330V329Q112 309 120 283T142 230Q156 202 171 183T200 157Q237 140 283 140Q318 140 345 151Q356 156 364 162T381 176Q394 188 408 197T444 209L448
210L451 208Q467 196 469 179Q470 162 456 148T429 123Q428 121 427 121T425 119Q400 99 365 89T289 79Q238 79 196 94T128 138Q107 161 90 190T61 251Q35 326 47 394Q55 437 71 481T112 563T171 626T249 656Q259 657 267 657T283 658Q299 658 314 656T346 649ZM226
373Q218 353 218 328T236 282Q260 286 274 303T295 341T303 386T304 426H298Q270 426 252 409T226 373Z" />
<glyph unicode="A" glyph-name="A" horiz-adv-x="438" d="M23 -6Q14 -6 9 -3T1 4Q-7 15 -5 31T1 62Q2 65 3 68T4 74V75V76Q26 167 50 257T100 436Q120 507 140 578T177 720L178 724L182 727Q194 733 204 733Q225 733 234 707Q238 697 239 686T243 664Q243 659
243 656T245 648Q259 604 272 561T297 476Q320 399 342 328T388 191L389 190V189Q394 163 402 144T420 110Q432 88 438 63T445 15V11L442 8Q429 -5 417 -5Q399 -5 390 14T376 52Q374 57 373 62T370 69V70H369Q358 105 343 143T312 219Q299 250 289 277T270 327Q260
329 250 330T225 332Q211 332 196 331T167 328Q147 326 135 325Q121 292 111 257T90 183Q82 157 75 129T57 72Q57 67 57 56T54 33Q49 9 40 2T23 -6ZM147 383Q156 384 164 384T181 386Q191 387 200 387T219 388Q227 388 235 388T253 386Q251 395 249 404T245 422Q237
465 228 504T203 579Q198 553 191 529T175 482Q167 459 160 435T147 383Z" />
<glyph unicode="B" glyph-name="B" horiz-adv-x="467" d="M104 -2Q101 -2 96 -1T86 6Q66 26 63 61T60 135V728L68 730Q91 734 114 736T161 738Q260 738 326 701Q402 658 410 575Q416 501 371 441Q352 416 331 399T289 369Q431 313 446 194V193Q455 115 405 59Q376
27 331 9T232 -9Q176 -9 125 10Q116 -2 104 -2ZM127 393Q226 398 285 440T354 554Q357 599 331 626Q315 643 290 653T236 667T176 673T117 674Q121 642 121 607T122 535Q122 498 122 461T127 393ZM377 212Q372 238 361 257T332 286L331 287L330 288Q313 304 289
313T238 327T182 333T129 334V74Q175 51 232 51Q277 51 311 65T362 105Q375 128 378 156T377 212Z" />
<glyph unicode="C" glyph-name="C" horiz-adv-x="465" d="M72 129Q43 199 37 294Q32 385 49 476Q67 576 106 648T200 752H201L203 753Q214 755 225 756T249 757Q279 757 309 750T366 729Q394 715 411 697T433 658L435 648L425 646Q416 643 407 643Q391 643 382
650T365 665Q356 676 347 681H346Q316 702 280 702Q255 702 234 691T200 659L199 658L198 657Q161 625 136 564T100 424Q90 347 97 272T128 137Q135 125 147 110T174 81T203 55T228 39Q234 37 241 36T256 35Q276 35 294 40T327 50Q337 54 345 56Q347 60 349 64T354
73Q366 96 375 110T398 124Q418 124 424 111Q431 98 422 81T398 42Q395 37 392 33T388 27L387 24L384 21Q362 4 325 -10T251 -24Q213 -24 187 -8Q171 -1 155 15T123 51T94 91T72 128V129V129Z" />
<glyph unicode="D" glyph-name="D" horiz-adv-x="461" d="M47 631Q47 635 47 639T46 649Q45 660 45 673T46 698T52 719T67 735H68Q77 738 86 738Q100 738 113 734T141 724Q155 719 166 716T189 712H192L194 710Q224 693 256 669T319 614T374 543T413 455Q428 409
432 360T432 264T410 172T369 93Q333 42 283 16T171 -10Q134 -10 92 1L85 3V10Q85 16 84 17T77 20Q73 22 67 24T61 36V286Q56 335 56 378T54 462Q54 504 53 544T47 630V631ZM105 669Q113 511 114 358T116 56Q130 53 143 51T171 49Q213 49 249 67T311 119Q332 147
346 183T367 259T371 342T359 427V428Q350 474 328 513T273 584T197 638T105 669Z" />
<glyph unicode="E" glyph-name="E" horiz-adv-x="472" d="M70 12Q59 54 57 104T61 209Q61 268 61 333T62 466T65 599T70 725V735H389H401Q406 736 416 736Q423 736 432 735T447 725Q455 716 450 699L449 694L444 692Q395 675 340 673T230 670Q206 669 182 669T133
667Q133 632 133 600T130 534Q129 501 128 466T127 393Q164 389 203 388T283 387Q326 387 366 386T442 380L451 379V370Q451 354 442 345T421 332T396 328T376 327Q371 327 366 327T355 328H341Q317 328 290 329T233 331Q207 333 180 334T127 335Q127 315 127 295T125
253Q124 206 124 158T126 54Q136 53 146 53T167 53Q190 53 213 54T259 56Q282 58 305 59T353 60Q400 60 442 54H448L450 48Q454 34 447 24Q439 13 424 9T398 4Q390 2 381 1T360 0Q349 0 339 0T317 2Q306 3 296 3T276 4Q245 0 216 -3T159 -6Q116 -6 77 5L72 6L70
12Z" />
<glyph unicode="F" glyph-name="F" horiz-adv-x="486" d="M59 506Q61 560 61 611T57 718V724L62 727Q68 732 74 733T85 736Q88 736 90 736T96 738L98 739H100Q131 737 166 736Q228 734 290 732T412 729Q430 729 446 727T473 709L477 704L474 699Q464 676 442 671T399
665Q393 665 387 665T374 666Q369 666 364 666T354 667Q331 667 309 668T264 672Q242 674 220 675T176 677Q148 677 126 674Q127 639 127 607T127 544T127 482T126 415Q138 412 153 411T188 410Q198 410 207 410T227 411H269Q276 411 285 412T305 414Q319 416 333
417T360 419Q364 419 372 419T389 416T403 408T412 393V392Q413 380 404 369Q394 358 377 356T342 353H332H326Q269 353 225 352T126 349Q130 307 130 264T129 178Q127 112 129 52Q129 48 131 38Q133 28 133 17T121 -4L119 -5L117 -6Q113 -6 110 -6T104 -7Q89 -7
77 3Q68 13 67 27T67 58V74Q69 116 67 162T63 255Q61 290 59 325T57 395Q57 424 57 451T59 506Z" />
<glyph unicode="G" glyph-name="G" horiz-adv-x="583" d="M142 52Q95 89 69 147T37 278Q32 347 49 417T102 547Q122 580 151 610T211 663L213 664Q228 675 245 688T281 711T322 729T365 736Q379 736 392 733T418 723Q422 722 428 720T438 712T445 697T445 675L444
668L438 667Q434 666 427 666Q419 666 413 668T402 672Q397 674 392 676T381 678Q352 678 322 661T267 629Q262 625 257 622T246 615Q213 588 181 544T125 444T94 328T103 206Q113 172 135 143T189 93T257 59T335 47Q354 47 373 49T411 58Q448 69 462 141Q468 174
468 212T469 285V343Q464 344 459 344T448 344Q440 344 434 344T419 343Q412 343 406 343T391 342H379H362Q348 342 334 344T312 356Q309 359 308 364T308 377Q312 396 335 401T386 406H409Q414 405 418 405T426 405Q431 405 436 405T448 406H473Q492 406 509 403T534
385Q541 377 540 364T535 336Q530 319 530 306V305Q529 291 529 277T528 249Q527 222 526 195T521 143T512 95T495 55Q492 48 486 40T471 23T455 9T439 0Q400 -14 353 -14Q324 -14 293 -9T234 5T182 26T142 52Z" />
<glyph unicode="H" glyph-name="H" horiz-adv-x="543" d="M73 77Q74 82 74 85T74 93Q69 162 67 241T64 402T64 562T67 706V711L71 714Q78 719 89 719Q102 719 112 714Q116 714 118 712L125 711L126 704Q133 663 132 620T128 532Q126 500 125 468T125 407Q158 405
195 404T271 403Q311 403 350 404T426 407Q428 439 428 470T431 532Q432 583 434 632T441 729Q443 739 453 746L457 748L461 747Q465 745 468 744T474 742Q478 740 481 739T488 738H498V727Q493 627 492 508T491 267Q491 201 491 141T491 26V20L485 18Q477 13 468
13Q457 13 450 19T438 34T431 55T429 75V349Q360 346 307 345T203 343Q183 343 165 343T128 344Q124 292 126 239T130 128Q131 115 131 102T133 75Q133 71 133 66T135 56Q137 39 137 22T128 -5Q126 -8 121 -11T108 -14H105Q95 -14 87 -6Q76 5 75 28T73 77Z" />
<glyph unicode="I" glyph-name="I" horiz-adv-x="252" d="M21 714Q34 721 60 726T132 734Q140 735 148 735T164 736Q187 736 200 729Q219 720 220 699L221 696L219 693Q214 682 203 681T186 679Q178 679 174 680H168Q170 617 169 555T166 427Q164 338 164 247T168
60Q172 61 176 61T185 62Q190 63 195 63T206 64Q234 64 239 40L240 37L239 34Q233 18 217 15T185 11Q180 11 176 11T167 10Q160 8 153 6T137 2Q124 -1 112 -4T87 -7Q61 -7 45 9L41 13L42 19Q43 24 47 30T62 40Q68 42 75 42T89 44Q102 44 107 45Q108 80 108 117T105
194Q103 260 103 325T107 457Q111 508 111 566T110 675Q105 674 96 674Q88 673 82 673T67 672Q63 672 55 672T39 676T24 685T16 703L15 710L21 714Z" />
<glyph unicode="J" glyph-name="J" horiz-adv-x="570" d="M53 38Q25 72 16 113Q7 159 22 203L23 207L28 209Q37 212 49 212Q55 212 62 211T76 204L81 200L79 194Q70 159 77 128T97 79Q109 65 135 53T187 41Q213 41 226 55Q239 67 247 88T259 136T264 190T267 244Q268
255 268 266T269 287Q274 360 275 429T275 560Q275 592 275 619T275 671H258Q211 671 168 668Q162 667 156 667T143 665Q134 664 125 663T106 662Q101 662 94 662T78 666T62 677T51 697L50 701L51 704Q59 718 71 720T89 723Q94 723 98 723T107 722Q112 721 115
721T123 721Q157 723 198 725T282 729T365 735T439 741H440H451H466Q479 741 492 739T512 728Q514 725 515 719T515 705Q511 689 490 686T444 682H431H421Q417 681 414 681T406 680Q370 679 342 673Q339 624 339 574T337 472Q336 418 335 363T330 256T319 153T300
59V58Q287 23 252 7Q221 -9 177 -9Q138 -9 104 3T53 38Z" />
<glyph unicode="K" glyph-name="K" horiz-adv-x="540" d="M64 383Q62 426 61 466T59 548Q57 591 56 637T56 725V729L59 732Q69 740 85 740Q90 740 96 740T107 738L113 736L114 730Q125 687 127 634T129 523Q129 494 129 466T131 408Q203 456 264 515T390 641L391
643H392Q401 648 408 656T422 673Q434 689 450 703T495 720H498L500 719Q516 710 519 695Q521 678 507 662T478 632L465 619H464Q425 576 379 534T290 453Q304 429 318 405T346 357Q384 289 425 221T514 91Q520 84 527 75T539 56T546 35T545 17Q543 12 536 8T515
3H503Q490 5 474 24T431 79Q427 85 424 90T418 98Q392 136 369 176T322 258Q300 297 280 334T236 404Q228 398 221 392T205 378Q190 364 174 351T135 330V323Q137 246 137 166T129 -2V-7L125 -9Q121 -11 114 -14T98 -18Q85 -18 73 -8L70 -5V0Q72 97 70 193T64 383Z"
/>
<glyph unicode="L" glyph-name="L" horiz-adv-x="472" d="M53 167Q51 229 53 298T58 438Q61 516 63 587T62 719Q58 733 75 738H76H78H79H84Q86 738 88 738T92 739Q99 739 102 736T107 730Q122 711 124 682T126 625V613Q126 565 125 516T121 417Q117 327 116 237T123
58Q157 44 220 44Q245 44 271 46T321 50Q331 51 340 51T358 52L359 53Q367 54 377 54T396 55Q430 55 445 41L448 38V33Q448 9 426 0Q413 -7 387 -7Q382 -7 378 -7T368 -6H352Q341 -6 328 -7T303 -10Q288 -12 273 -13T243 -15Q94 -15 64 24Q56 34 54 64T53 148V167Z"
/>
<glyph unicode="M" glyph-name="M" horiz-adv-x="691" d="M550 672Q564 597 574 513T594 343T615 172T644 10V6L642 3Q638 -2 631 -7T609 -12Q605 -12 601 -12T592 -10L585 -9L584 -3Q566 83 556 171T533 347Q524 411 517 480T498 615Q481 577 464 531T433 442Q424
413 416 386T398 336V335Q396 333 395 329Q384 301 373 284T348 264Q346 263 343 263Q331 263 323 269T308 286T298 307T290 330Q288 335 287 339T283 348Q281 356 278 364T272 380Q253 437 232 496T189 606Q179 542 172 471T157 327Q151 266 142 201T128 75Q127
64 126 52T121 29Q115 12 107 7T89 1Q80 1 69 5L63 7V14Q60 57 67 98T80 184Q89 249 95 314T108 447T121 583T140 725L145 727Q150 729 154 730T164 731Q180 731 191 721T211 697T226 667T238 638Q245 624 254 602T274 553T295 498T315 443Q322 423 330 399T344
360Q357 392 369 432T393 504Q413 562 433 620T479 733V734L481 736Q486 741 490 743T503 746Q507 746 510 745Q523 743 533 726T550 672Z" />
<glyph unicode="N" glyph-name="N" horiz-adv-x="591" d="M540 49Q545 29 538 10L537 7L534 5Q523 -1 512 -1Q499 -1 489 5T472 21T459 41T450 60Q450 61 450 61T449 64Q446 69 444 74T438 85Q429 103 419 122T400 155Q387 176 377 197T355 240Q335 283 311 325Q294
357 275 388T237 450Q210 492 184 537T129 628Q129 613 129 579T129 501T131 408T132 313T133 230T134 171Q134 163 135 150T134 119Q133 109 134 99T134 78Q133 73 133 68T133 56Q133 45 133 35T129 15Q124 -1 115 -5T98 -10H97H96Q83 -9 78 2T71 26T70 54T71
76Q72 126 72 172T73 263T73 356T73 456Q73 522 71 587T69 727V734L75 736Q80 738 81 739T88 740Q108 740 122 731T148 705Q163 684 176 666T203 628T229 587T258 539Q293 479 332 409T407 268Q411 261 421 242T442 200T464 158T478 131Q476 207 471 279T461 424T453
569T449 721V726L452 729Q457 732 459 733T470 735Q478 735 487 733T502 729L507 727L508 721Q513 631 517 545T524 373Q527 292 528 216T538 69V68Q538 63 538 59T540 49Z" />
<glyph unicode="O" glyph-name="O" horiz-adv-x="612" d="M37 275Q25 362 48 465Q59 511 75 553T111 628Q122 645 140 667T188 709Q243 749 311 751Q338 752 361 749T404 741Q448 729 478 703H479Q493 690 509 671T537 631Q550 611 562 585T578 542Q586 512 585
479T581 411Q580 403 580 396T579 381Q562 106 469 26Q451 10 429 1T387 -12T352 -18T331 -19H321Q261 -19 210 4Q161 26 126 67Q93 105 71 157T37 275ZM109 434Q94 349 104 272T149 134Q160 116 176 99T214 68T262 46T319 37Q344 37 370 43Q442 61 478 166Q495
217 501 274T510 380Q511 392 512 404T514 427Q517 456 518 482T514 530V531Q508 556 496 581T468 627T434 665T398 688Q374 697 344 697Q318 697 291 691T240 673Q193 641 159 578T109 434Z" />
<glyph unicode="P" glyph-name="P" horiz-adv-x="449" d="M125 -7Q121 -8 118 -8T112 -9Q94 -9 84 3Q68 20 66 50T66 106V125Q66 152 64 182T60 242Q59 256 59 269T57 295Q55 344 56 392T59 489Q61 551 61 608T57 720L56 732L68 731Q73 730 76 730T84 730Q95 730
106 731T128 734Q140 736 153 737T181 739H193H194Q227 736 260 723T322 688T374 639T412 579Q435 524 433 470T405 368Q379 321 335 289Q289 257 235 248H234Q213 245 181 245H147Q142 245 137 245T127 246Q127 222 128 199T132 152Q135 112 136 75T132 1L131
-6L125 -7ZM122 673Q127 613 127 560T125 452Q124 417 124 381T124 302Q131 301 137 301T150 301Q203 301 248 318T325 368Q372 418 369 482Q367 522 351 558T307 621T244 664T170 680Q144 680 122 673Z" />
<glyph unicode="Q" glyph-name="Q" horiz-adv-x="615" d="M60 137Q46 171 40 218T35 316Q36 338 39 369T49 436T67 509T97 580Q112 609 131 639T178 693T239 732T319 747Q327 747 335 747T351 745Q382 741 414 727T468 694Q518 650 547 573Q561 538 568 498T579
412Q581 370 579 326T568 239Q560 197 548 159T518 87Q523 76 532 69T551 54Q565 43 579 31T598 -4L599 -11L594 -15Q577 -27 563 -27Q550 -27 540 -20T521 -5Q516 -2 511 3T500 16Q495 21 490 26T482 34Q478 32 472 26T463 16Q458 11 455 8T449 3H448Q399 -26
326 -26Q298 -26 271 -21T220 -7Q197 1 180 9T149 28T122 53T95 87Q92 90 88 96Q80 106 73 116T60 137ZM294 683Q265 678 236 654T179 586Q156 549 139 507T116 426Q111 398 107 366T101 307V306Q99 273 104 238T123 169Q135 139 151 115T184 77V76Q209 57 246
45T322 33Q333 33 348 34T378 41T407 56T431 80Q420 91 411 103Q398 117 386 131T360 162Q356 167 353 170T344 179Q328 196 313 216T292 262L290 270L297 274Q310 280 323 280Q346 280 361 265T390 233Q393 228 396 225T403 217Q416 203 426 188Q437 174 447 162T469
141Q487 192 497 253T509 376Q510 447 498 505T459 603Q446 622 434 636T408 660T374 675T328 683H320H306H294Z" />
<glyph unicode="R" glyph-name="R" horiz-adv-x="473" d="M58 626Q55 650 54 675T61 723L63 730H71Q91 730 108 733T143 740Q160 743 177 746T212 749Q216 749 220 749T228 748Q270 743 307 720Q340 700 367 662Q381 642 391 620T406 575Q417 526 406 482Q398
448 378 424T334 375Q365 364 384 341T413 286T427 220T433 148Q434 138 434 129T436 111Q438 79 439 51T436 -2L435 -8L430 -10Q416 -16 406 -16Q391 -16 384 -7Q373 4 372 22T371 61Q373 77 371 89Q370 119 368 149T363 206T354 257T340 297Q336 300 333 303T327
309Q319 316 312 321Q306 322 300 322T288 322Q265 322 245 319T205 310Q188 306 170 303T131 297Q129 259 129 216T128 129Q127 95 127 62T126 -4V-10L121 -12Q113 -17 102 -17Q96 -17 86 -15Q83 -15 81 -15T76 -14L67 -13V-4Q62 68 62 148T62 315Q63 386 63 457T61
599L58 626ZM123 668Q128 596 130 524T132 363Q157 366 191 374T258 400T314 446T344 519Q347 539 342 562T327 606T303 646T271 675Q247 687 215 687Q188 687 164 681T123 668Z" />
<glyph unicode="S" glyph-name="S" horiz-adv-x="562" d="M120 9Q108 16 96 30T74 61T57 97T46 133Q44 147 44 167T58 200L61 202H64Q66 202 67 202T71 203Q97 203 106 180Q109 172 109 163T110 144Q110 139 110 135T111 129V128Q116 111 126 91T149 59Q161 50
176 46T206 39T237 37T264 36H268Q330 36 377 65T447 144Q467 189 458 236T414 321Q391 345 353 356T272 376Q233 385 198 395T140 426Q128 436 117 453T99 490T88 531T85 573Q87 611 104 644T152 703Q181 728 216 741T289 754Q343 754 393 726Q399 723 410 716T430
699T445 677T445 650L442 642L434 644Q411 648 395 656T365 673Q349 683 335 690T298 697Q285 697 263 692Q243 687 224 674T189 638Q174 618 165 594T153 546Q152 536 153 523T161 495T179 468T214 446Q230 439 246 437T280 433Q291 432 300 431T320 428Q384 414
436 374T512 278Q519 261 524 240T530 193T522 139T496 79Q467 31 396 2Q364 -12 328 -18T255 -25Q174 -25 120 9Z" />
<glyph unicode="T" glyph-name="T" horiz-adv-x="505" d="M50 672Q39 672 27 674T5 686Q-4 697 -3 715V719L1 722Q17 733 36 735T74 738Q82 738 90 738T109 737Q118 736 127 736T146 736Q187 736 232 735T312 730H321Q328 730 335 730T352 731Q361 732 370 732T389
733Q428 733 439 719Q446 712 446 699Q446 693 441 686T420 673Q402 668 374 668Q354 668 334 669T295 673Q289 674 284 674T273 675Q272 633 272 591T275 504Q277 439 278 373T276 233Q275 227 275 221T273 208Q271 187 270 166T270 121V120Q270 115 270 109T271
95Q272 69 271 43T258 3Q250 -6 238 -6Q231 -6 218 -1L214 1L213 6Q202 44 202 84T204 166L205 174Q205 192 205 210T207 247Q211 353 212 460T205 674Q191 675 174 675T136 676H99Q95 675 92 675T85 674Q76 673 67 673T50 672Z" />
<glyph unicode="U" glyph-name="U" horiz-adv-x="584" d="M96 194Q82 247 75 306T65 426T62 550T62 672V739V745L68 748Q80 754 91 754Q106 754 116 744Q132 726 135 678Q137 658 137 637T135 595Q134 584 134 575T134 558Q134 532 134 509T133 462Q133 432 133
403T134 345T142 284T157 217Q159 209 161 201T166 185Q175 151 185 119T209 70Q223 56 246 44T297 32Q310 32 325 37Q343 44 358 60T387 99T409 147T424 198V199Q480 420 469 651V652Q469 657 469 662T467 674Q465 691 465 710T477 745L480 748L484 749Q508 752
523 736Q532 727 536 713T541 682T541 648T538 616V603Q535 505 526 417T501 231Q487 156 467 106T414 23Q391 0 359 -12T289 -25Q245 -25 209 -8T151 40Q134 66 122 105T98 185L96 194Z" />
<glyph unicode="V" glyph-name="V" horiz-adv-x="469" d="M448 663Q446 656 444 650T440 638Q431 606 424 577T409 519Q399 479 389 440T364 354Q356 329 350 304T337 255Q326 211 313 166T283 73Q282 71 281 68T279 60Q276 50 272 38T262 14T246 -5T223 -13Q220
-13 217 -13T210 -11Q193 -6 180 32T149 142Q147 150 146 156T143 167Q132 202 123 236T103 304Q80 385 58 461T10 613Q9 618 5 628Q-1 645 -6 664T-11 704V711L-5 713Q6 717 17 717Q30 717 39 711T53 695T62 673T69 650Q72 639 75 632Q79 618 83 605T93 577Q99
562 104 547T114 517Q142 419 169 320T223 120Q255 211 281 305T332 495Q348 557 364 619T399 743L401 748L406 749Q421 755 432 755Q443 755 448 751T457 743Q466 730 461 709T448 663Z" />
<glyph unicode="W" glyph-name="W" horiz-adv-x="798" d="M19 626Q12 654 6 680T-3 724V731L3 734Q15 740 26 740Q44 740 58 724Q78 698 83 666T94 601Q96 589 99 579T104 562V561Q138 418 170 305T236 101Q266 149 291 200T345 310Q350 320 354 334T366 360T382
382T405 391Q414 391 421 387Q435 382 443 358T462 299Q462 287 471 259T493 198T518 138T539 98Q544 119 549 139T560 180Q587 283 613 380T673 574Q686 612 695 652T728 730L730 733L733 734Q737 736 744 736Q753 736 760 733T774 724Q776 723 778 721L785 717L783
710Q747 595 710 482T647 246Q629 194 620 145T593 43Q585 17 576 4T553 -9Q526 -9 495 42Q484 62 475 83T458 119Q456 122 456 125T453 130Q436 168 424 205T401 278Q383 249 369 215T337 149Q314 110 294 72T248 -4Q243 -6 239 -8T231 -10Q209 -10 199 7Q195
14 193 22T188 40Q148 167 107 296T34 569Q28 594 19 626Z" />
<glyph unicode="X" glyph-name="X" horiz-adv-x="513" d="M46 642Q40 651 31 660Q19 674 9 691T3 731L4 736L8 738Q20 743 29 743Q52 743 66 726T93 690Q99 679 105 672V671Q134 629 165 581T222 490Q223 488 224 487T226 483Q242 511 255 541T281 601Q299 646
319 690T368 771L371 776L377 775Q407 772 414 756Q421 744 415 730T400 702Q398 698 397 697Q387 679 379 660T363 619Q356 602 349 585T334 550Q330 542 327 536T320 523Q315 513 310 503T299 481V480Q297 478 295 472Q292 466 288 457T280 439T273 423T270 412Q270
405 274 395T285 374T300 352T315 332Q320 327 323 322T330 313V312Q354 276 374 245T413 183Q432 151 451 121T493 56Q494 53 499 50Q503 45 508 39T515 26T518 11T511 -7L509 -9L507 -10Q502 -12 498 -13T489 -14Q477 -14 466 -7T445 10T426 34T409 60Q406 65
404 69T398 78Q377 108 357 141T316 207Q296 242 276 274T236 334Q210 288 184 228T134 108Q132 102 129 96T124 83Q122 78 120 72T116 59Q112 47 108 35T97 13T83 -4T64 -11Q52 -11 36 0L32 3V7L27 9L30 18Q65 119 105 214T194 406Q180 427 168 448T142 492Q119
530 96 567T46 642Z" />
<glyph unicode="Y" glyph-name="Y" horiz-adv-x="426" d="M34 610Q20 634 7 657T-19 703L-20 705V708Q-20 721 -7 727Q-3 729 1 729T10 730Q14 731 17 731T22 732L29 735L34 729Q74 675 109 617T177 498Q190 475 202 452T229 406Q258 448 279 498T321 599Q335
636 349 672T382 743L384 747L389 748Q391 748 392 748T396 749Q404 749 409 746T420 740Q423 737 427 735L434 732L433 724Q423 666 404 615T364 514Q357 499 350 484T334 452Q330 444 326 436T318 420Q312 409 306 400T295 381Q287 370 281 359T270 336T262 307T259
268Q259 245 259 217T261 160T264 102T268 51Q268 47 268 44T270 36Q272 25 272 12T258 -12Q253 -16 245 -16Q237 -16 231 -13Q223 -11 222 -11H214L212 -3Q205 28 202 64T197 136T195 210T194 280V297Q195 306 195 315T194 332Q192 346 181 363T159 397Q154 405
150 411T141 425Q134 437 128 448T115 471Q107 484 100 496T87 519Q73 544 60 566T34 610Z" />
<glyph unicode="Z" glyph-name="Z" horiz-adv-x="447" d="M438 36Q445 25 436 8Q431 -4 422 -7T404 -10H389Q384 -9 379 -9T368 -9Q351 -10 332 -10T292 -11Q257 -11 222 -10T153 -7Q145 -6 137 -6T120 -6Q113 -5 107 -5T92 -4Q74 -4 57 -3T26 1T3 10T-9 27Q-12
40 -4 57T19 98Q24 105 27 110T32 120L33 121Q64 176 93 231T150 342Q194 427 239 512T336 679Q306 681 274 681T210 683Q181 683 155 683T104 685H101H97Q80 685 65 687T40 701Q27 713 29 736L30 745H45Q52 745 60 745T77 746Q97 746 119 746T166 744Q192 743
219 743T272 742Q289 742 303 742T331 743H332H350Q355 743 360 743T370 744Q378 744 389 744T411 740T429 729T437 709Q437 696 428 686T409 667Q404 664 403 661Q389 642 378 621T355 577Q347 561 338 545T319 512Q281 446 244 375T170 232Q147 187 125 144T80
61Q125 55 178 50T291 45Q327 45 360 48H362Q370 49 379 49T397 50Q408 50 420 48T438 36Z" />
<glyph unicode="[" glyph-name="bracketleft" horiz-adv-x="265" d="M254 749Q255 747 255 747T256 744Q258 739 260 732T260 714L259 707L252 706Q239 704 216 701T170 697Q163 697 158 697T147 698Q144 648 145 599T148 497Q150 461 151 424T152 348V237Q153
184 153 134T150 34H174Q186 34 200 33T228 27L232 25L233 22Q234 21 234 21T235 19Q238 14 240 6T240 -15L239 -21L232 -23Q219 -25 195 -28T148 -31Q115 -31 99 -22Q97 -22 96 -22T94 -21Q93 -21 92 -20L88 -19L87 -16Q74 1 75 19T81 54Q83 60 84 66T86 77Q88
91 87 103T85 130Q85 139 85 148T84 167Q83 193 84 218T87 269Q89 289 89 310T91 352Q91 366 89 381T85 412Q83 423 82 434T80 456Q78 485 79 509T81 557Q83 580 83 603T83 655V656Q83 661 83 667T81 680Q80 691 80 703T81 725T88 745T105 759V762H117Q120 763
125 763Q130 763 132 762H141H166Q173 763 179 763T192 763Q206 763 220 762T248 755L253 754L254 749V749Z" />
<glyph unicode="\" glyph-name="backslash" horiz-adv-x="364" d="M328 112Q330 108 333 105T339 97Q350 83 359 66T366 27L365 25L364 23Q357 12 347 11T328 9H321H314H308L305 15Q278 63 255 112T209 216Q196 245 184 274T157 332Q140 368 125 404T96 476Q77
523 59 567T18 654Q17 656 13 662Q6 673 0 686T0 710Q6 723 26 726H30Q43 726 52 720T67 705T78 684T87 661Q89 656 90 651T94 641Q104 615 114 594T136 552Q147 531 157 509T178 461Q184 447 188 433T197 405Q200 394 203 383T211 361Q221 339 231 319T252 278Q263
257 273 237T293 195Q296 187 298 181T304 167Q309 153 314 140T328 112Z" />
<glyph unicode="]" glyph-name="bracketright" horiz-adv-x="263" d="M181 344Q181 317 181 290T182 236Q182 173 182 114T176 -6V-14L169 -15Q169 -15 165 -17V-22L157 -24Q140 -26 118 -29T74 -32Q21 -32 9 -11Q-1 5 11 27L14 33L21 32H40H68Q75 33 82 33T96
33H107Q108 40 109 46T112 58L115 73Q117 89 117 103T115 133Q114 141 114 148T113 163Q113 188 114 213T117 265Q118 285 119 306T120 348Q120 362 119 377T115 408Q113 419 112 430T109 452Q108 481 108 505T111 553Q112 576 113 599T112 651V652Q112 657 112
662T111 673Q110 680 110 686T109 700Q104 699 98 699T87 699Q35 699 22 721Q13 736 25 759L28 765L34 764Q39 764 45 764T58 763Q65 763 71 763T84 764H110Q124 764 138 763T167 758L171 756L173 751V750L174 749L175 747Q175 747 176 745Q177 743 177 741T179
736Q182 729 179 717Q179 714 179 711T178 705Q176 697 176 695V694Q173 644 174 595T178 493Q180 457 181 420T181 344Z" />
<glyph unicode="^" glyph-name="asciicircum" horiz-adv-x="623" d="M360 688Q399 627 451 563T570 430Q584 416 595 401T604 370Q601 351 577 336L570 332L564 338Q492 419 427 494T301 651Q276 634 253 611T207 560T163 503T122 445Q120 443 120 441T117 437Q111
428 104 417T87 396T68 379T47 372Q30 372 18 387L14 392L17 398Q72 500 146 584Q182 626 223 663T310 733L314 736L319 734Q334 729 342 717T357 694L360 688V688Z" />
<glyph unicode="_" glyph-name="underscore" horiz-adv-x="521" d="M408 -48L410 -51L412 -53Q418 -60 426 -72T427 -101L425 -107H417Q377 -108 335 -109T244 -116Q237 -117 230 -118T214 -121Q200 -123 185 -125T158 -128Q144 -128 137 -124Q129 -121 121 -111T116
-86Q120 -64 148 -64Q152 -64 156 -64T164 -65Q168 -65 172 -65T180 -66Q194 -65 212 -63T251 -59Q283 -54 318 -51T386 -48H403H408Z" />
<glyph unicode="`" glyph-name="grave" horiz-adv-x="184" d="M10 782Q30 774 52 758T96 720T137 675T170 629L174 623L170 617Q168 615 168 613T165 609Q162 602 157 594T138 585H136L133 586Q122 592 116 600T103 617Q97 628 87 639Q79 648 68 657T45 675Q23
692 6 708T-14 743Q-15 762 -1 779L3 784L10 782V782Z" />
<glyph unicode="a" glyph-name="a" horiz-adv-x="422" d="M141 312Q133 286 125 258T108 197Q98 162 88 127T67 58Q65 55 64 49Q62 41 59 33T51 17T40 4T23 -1Q12 -1 2 6L-3 9V14Q-4 31 1 45T13 73Q16 81 19 88T24 103Q53 204 77 306Q99 391 122 476T175 647Q177
654 181 665T190 688T200 711T211 731L212 733L213 734Q223 741 233 741Q245 741 253 733T268 711T278 683T285 654V652Q294 613 301 569T314 480Q318 451 321 424T329 374Q330 373 336 368Q339 366 343 364T350 356L351 354V352Q352 342 348 337T341 330Q339 328
338 328Q338 328 339 326Q353 270 370 209T409 82Q410 79 411 76T413 69Q419 53 424 36T424 0L423 -4L419 -7Q414 -9 410 -10T401 -11Q396 -11 393 -11T385 -9Q382 -8 375 -8L369 -7L367 -1Q338 87 316 166T274 321Q266 322 258 322T242 322Q217 322 191 320T141
312ZM156 371Q163 371 169 371T183 373Q202 374 221 375T261 376Q254 435 246 493T226 607Q212 569 201 529T178 448Q173 429 168 410T156 371Z" />
<glyph unicode="b" glyph-name="b" horiz-adv-x="502" d="M464 160Q446 80 381 36Q320 -5 223 -14Q215 -14 208 -14T193 -15Q149 -15 114 -5T56 25L53 28V32Q51 128 53 221T60 407Q64 492 66 571T68 729V733L71 736Q73 738 74 739T78 741Q79 742 79 742T81 743L83
745H86Q97 746 107 746T128 747Q194 747 251 733T343 692Q376 667 392 623T402 530Q391 465 342 434Q371 425 394 409T434 368Q461 329 469 276T464 160ZM121 318Q116 255 113 188T111 55Q134 50 157 47T205 43Q251 43 288 53T352 83Q382 105 399 164Q408 192 411
221T411 276Q406 314 385 337T333 374T266 393T196 398Q179 398 162 397T126 394Q125 377 124 358T121 318ZM127 692Q129 649 129 611T128 531Q128 512 128 493T127 453Q282 454 328 505Q352 532 348 571Q347 580 343 591T332 613T318 633T303 649Q277 670 235
680T127 692Z" />
<glyph unicode="c" glyph-name="c" horiz-adv-x="485" d="M249 -18Q120 -3 66 126Q22 234 33 415Q37 465 46 509T69 589Q105 677 167 710Q196 725 229 733T294 741Q344 741 381 722Q388 718 398 712T416 698T429 678T432 651L431 643H423Q421 643 420 643T416
642Q396 642 385 650T366 666Q358 674 349 680Q331 686 308 686Q286 686 262 681T218 665Q183 648 156 605T112 498Q99 447 96 390T98 276Q104 218 118 172T156 95Q173 70 203 56T266 41Q315 41 352 72Q363 81 369 93T382 119Q387 130 393 141T408 164L413 171L420
167Q449 153 452 128Q454 111 446 95T428 65T409 43T398 33Q369 8 334 -5T265 -18H249V-18Z" />
<glyph unicode="d" glyph-name="d" horiz-adv-x="520" d="M260 684Q342 650 393 595Q439 549 460 479Q483 406 475 328Q473 310 466 285T450 234T430 184T410 143Q394 112 368 84T309 35Q237 -11 155 -11Q100 -11 48 12L42 15V21Q33 146 34 275T40 534Q42 584
43 634T45 733V737L48 740Q54 746 60 749H63H66Q74 747 79 744T88 739Q91 736 97 734Q138 724 179 713T260 684ZM412 348Q417 404 401 460T352 555Q315 597 257 624T110 670Q107 586 104 505Q99 387 98 276T106 54Q134 48 161 48Q208 48 244 64Q274 77 303 107T359
185Q382 226 396 269T412 348Z" />
<glyph unicode="e" glyph-name="e" horiz-adv-x="479" d="M352 754Q356 754 361 754T372 755Q379 756 386 756T401 757Q409 757 420 755T439 745Q447 737 446 722V719L444 717Q434 704 419 701T388 697Q384 697 381 697T373 698H361Q349 697 337 697T311 696Q263
695 214 693T127 682Q127 614 127 541T124 389Q155 386 183 385T237 384Q257 384 274 384T309 386Q316 387 323 388T338 390Q349 392 359 393T379 395Q413 395 430 369L434 363L428 357Q415 344 397 342T359 337Q354 337 349 337T338 336Q302 332 263 331T183 329Q169
329 155 329T126 330Q124 309 123 289T120 250Q115 193 112 142T108 32Q133 29 162 29Q186 29 210 30T259 34Q282 36 305 38T352 40Q387 40 411 35T451 20L458 15L454 8Q444 -21 409 -21Q401 -21 392 -20T375 -17Q360 -14 346 -14Q324 -14 302 -15T254 -19Q228
-21 203 -22T151 -24Q122 -24 99 -22T56 -13L50 -11L49 -4Q46 81 48 171T54 351Q58 450 60 542T58 719V727L65 729Q103 745 158 748T270 752Q292 752 312 752T351 754H352V754Z" />
<glyph unicode="f" glyph-name="f" horiz-adv-x="459" d="M106 181Q108 135 108 89T102 1L101 -3L98 -6Q90 -11 80 -11Q75 -11 70 -10T59 -7Q53 -5 51 -4L44 -2V5Q41 80 41 157T42 309Q43 412 43 514T35 715L34 719L37 722Q41 727 46 729Q47 729 47 729T48 730L50
732H54Q73 731 97 731T153 731H272Q298 732 322 732T367 732H377H387Q406 732 422 728T448 706L453 697L444 692Q416 677 380 673T313 669Q297 669 281 669T249 670Q233 671 218 671T186 672Q134 672 103 665Q108 617 108 571T108 475V394Q121 392 133 391T158
388Q180 385 202 383T246 378Q254 378 263 379T282 381Q304 384 327 384Q362 384 382 371L388 366L386 359Q379 338 358 332T318 324Q316 324 314 324T310 323Q304 323 298 323T285 322Q260 322 236 324T187 330Q166 332 146 334T107 337Q103 300 103 260T106 181Z"
/>
<glyph unicode="g" glyph-name="g" horiz-adv-x="597" d="M399 367Q410 368 421 369T444 372Q459 374 474 375T505 377Q538 377 556 366L559 363L560 359Q566 326 567 287T565 208Q561 168 553 132T532 70V69Q525 54 516 40T493 14T461 -5T417 -12H408Q380 -11
351 -6T294 7T241 25T198 47Q190 52 184 58T172 72Q167 77 163 81T153 90Q148 93 144 95T136 101Q126 107 117 113T100 127Q77 150 64 177T43 232T34 289T34 341Q37 397 53 452T96 552Q103 566 115 581T140 611T168 639T194 663Q207 675 224 686T260 706T298 723T335
732Q356 735 372 735Q383 735 396 734T421 726T445 710T463 681L467 670L457 667Q452 665 448 665T439 665Q429 665 422 667T409 673Q399 678 392 679H380Q350 679 323 668T270 640T224 602T184 559Q152 521 130 466T102 353Q95 288 111 236T162 150Q167 146 172
143T184 135Q197 128 210 118Q215 113 219 109T229 99Q235 93 240 88T251 80V79Q260 74 277 67T314 54T357 44T398 40Q423 40 434 47H435Q447 53 457 71T475 113T489 167T498 223Q504 282 497 320Q486 318 475 318T452 315Q435 312 417 310T382 308Q358 308 341
313T309 328L305 332V338Q307 350 313 356T327 366T342 369T354 370Q361 370 367 370T379 368Q384 368 389 368T399 367Z" />
<glyph unicode="h" glyph-name="h" horiz-adv-x="526" d="M116 381Q115 332 118 282T125 182Q128 137 130 93T133 3V-2L129 -5Q124 -8 117 -9T105 -11Q91 -11 86 -7T80 2L79 3V4Q58 141 52 305T56 662V682Q54 694 55 706T65 728L68 731H73Q80 730 89 729T108 722L112
720L113 714Q118 676 118 638T116 558Q115 529 115 500T116 438Q127 440 138 442T160 447Q220 460 281 471T410 482Q416 505 417 538T417 607Q416 644 417 676T425 730L426 731Q426 733 427 733Q429 739 432 742T443 748H444H445Q457 750 466 741Q477 730 478 709T479
665V651Q479 606 477 564T471 479Q469 437 467 398T464 321Q464 292 466 261T470 198Q474 150 476 108T473 33L472 26L465 25Q461 24 459 24T453 23Q451 23 450 23T446 24Q444 24 442 24T435 25H426L425 33Q412 137 408 236T409 419Q401 420 392 420T374 421Q326
421 282 413T193 396Q174 392 155 388T116 381Z" />
<glyph unicode="i" glyph-name="i" horiz-adv-x="190" d="M58 461Q57 525 58 589T67 716L68 718L69 720Q77 734 97 734Q106 734 116 731T131 720L133 717V714Q131 681 131 648T128 583Q124 479 122 373T124 155Q124 148 124 142T125 130Q128 95 129 63T121 2L120
-2L115 -4Q111 -6 105 -7T92 -9Q80 -9 75 -2Q64 6 63 17T64 38Q65 42 65 49Q63 100 63 151T61 253Q60 287 60 321T58 389V461Z" />
<glyph unicode="j" glyph-name="j" horiz-adv-x="600" d="M185 723Q270 727 355 732T514 745H515Q518 745 521 745T529 746Q533 746 537 746T546 747Q549 747 554 747T565 744T576 736T585 721L586 717L585 714Q578 700 566 697T542 692Q534 692 530 691Q496 686
455 682T373 675Q380 625 384 571T389 459T389 345T383 233Q376 145 357 93Q333 23 286 -3Q259 -18 223 -18Q195 -18 166 -10T114 14H113Q68 46 56 113Q50 145 53 177T69 240L73 250L82 246Q95 240 102 231T111 210T114 185T113 159Q111 144 111 130T115 104Q119
90 124 82T138 65Q147 58 154 46Q180 33 208 33Q234 33 254 45T289 79Q301 98 308 124T319 181T324 246T327 316Q328 329 328 342T329 369Q333 450 330 524T323 661Q322 666 322 674Q318 674 314 674T304 675Q290 675 274 674T243 670Q227 668 212 667T182 665Q163
665 141 670T105 699L100 707L108 712Q119 720 131 722T152 724Q162 724 167 723H180H185Z" />
<glyph unicode="k" glyph-name="k" horiz-adv-x="491" d="M121 308Q123 285 125 261T129 210Q134 159 137 107T133 7L132 -1L124 -2H114Q111 -3 105 -3Q102 -3 99 -3T91 -1L87 0L85 2Q76 14 75 28T74 56V71Q72 103 70 136T64 205Q59 263 55 323T53 443Q59 564
47 716V717Q47 737 68 737Q76 737 83 735T95 730Q96 730 97 729L101 728L103 723Q110 699 113 672T118 614T119 553T118 491Q118 465 118 439T118 387Q175 429 231 478T349 583Q353 586 362 597Q373 610 387 622T419 635Q434 635 449 622L453 619V615Q454 599 444
589T423 571Q417 568 413 564Q398 552 384 539T354 510Q338 495 322 480T289 451Q295 437 301 422T313 390Q330 343 349 296T391 206Q404 183 417 160T445 113Q459 90 472 65T495 11L497 3L489 -1Q480 -5 468 -5Q454 -5 444 2T425 19T410 41T398 63Q396 68 392
76Q346 155 307 240T239 407Q220 395 204 381T171 351Q160 340 148 330T121 308Z" />
<glyph unicode="l" glyph-name="l" horiz-adv-x="465" d="M441 16L433 9Q414 -7 379 -7Q361 -7 343 -4Q335 -3 327 -3T312 -2H311H296Q243 0 189 4T81 19L74 21L73 28Q63 119 63 214T66 404Q68 484 68 564T64 721Q63 731 67 735Q73 742 84 742Q88 742 92 741T101
739Q103 739 104 739T107 738H113L116 733Q128 709 129 682T130 626Q129 618 129 611T129 596Q129 580 130 565T132 534Q134 514 135 495T135 456Q130 400 128 350T126 251T126 157T131 62Q141 61 151 60T172 58Q188 56 204 55T237 51Q242 50 248 50T260 50Q271
50 281 50T303 52Q313 52 323 52T342 53Q366 53 391 48T434 24L441 16Z" />
<glyph unicode="m" glyph-name="m" horiz-adv-x="699" d="M490 737Q503 745 516 745Q521 745 527 742T539 728Q541 722 542 715T545 699L548 678Q561 630 569 590T583 511Q585 488 589 467T598 423Q602 405 605 386T612 346Q616 325 619 304T627 263Q639 194 650
130T666 7L667 1L662 -2Q649 -10 639 -10Q623 -10 613 2T597 34T588 75T582 116Q581 121 581 125T580 134Q573 185 565 240T547 352T527 464T507 569Q496 534 481 492T450 409T419 335T393 285L391 280H386H381Q355 280 340 299T314 337Q312 341 311 344T307 351Q275
412 244 479T184 610V612Q173 569 169 518T162 412Q161 392 161 373T158 333Q156 313 155 295T151 258Q149 235 147 211T140 157V156Q139 151 139 144T136 126Q134 106 131 84T122 42Q121 37 118 28T110 11T98 -4T79 -11Q68 -11 55 -2L51 2V8Q55 37 59 67T67 129Q75
186 82 243T95 360Q97 384 99 408T103 456Q108 528 114 594T137 722L139 727L144 729Q154 731 159 731Q186 731 207 705Q215 695 221 684T233 663Q244 646 251 627T267 589Q269 581 272 575T277 562Q299 514 323 467T370 375Q381 392 391 418T411 475T430 539T447
603Q458 644 468 678T486 732L487 735L490 737Z" />
<glyph unicode="n" glyph-name="n" horiz-adv-x="543" d="M423 742Q433 748 445 748Q462 748 475 735L477 733L478 729Q483 654 486 570T494 401Q499 300 502 199T516 10L517 3L511 0Q497 -8 486 -8Q475 -8 467 -3T453 11T442 28T433 46V48Q421 74 410 102T386
160Q369 204 352 246T314 324Q267 409 225 487T143 624Q141 598 139 558T134 469T128 368T123 264T118 166T114 83Q113 54 111 34T109 7V0L102 -2Q96 -4 88 -6T70 -8Q60 -8 53 -5L47 -2V5Q52 153 62 330Q67 402 70 473T76 614Q77 640 78 665T80 715V723L87 725Q92
726 95 726T103 727Q119 727 133 720T159 702T180 679T197 656Q232 593 266 535T331 418T392 295T449 159Q449 189 447 228T441 308T435 391T429 467Q425 541 422 608T418 733V739L423 742Z" />
<glyph unicode="o" glyph-name="o" horiz-adv-x="600" d="M300 -15Q223 -15 156 37Q94 85 63 156Q20 259 25 383Q27 444 41 499T79 602Q111 662 155 699T254 748Q256 748 256 748T259 749Q260 749 260 749T262 748Q268 749 275 749T288 750Q305 750 324 749T357
742Q385 734 415 718T473 676Q501 652 522 625T558 570Q571 544 577 514T584 449Q584 387 565 308Q514 85 422 22Q362 -15 300 -15ZM174 95Q194 72 214 57T250 39Q255 38 260 38T271 38Q290 38 309 42T346 54T377 69T400 85Q422 106 438 132T466 189T486 252T501
316Q505 335 509 356T517 398T522 438T523 475Q521 502 512 525T489 569T462 606T437 634Q407 665 376 678T302 692Q283 692 262 689Q222 676 190 645T134 566Q114 525 103 477T90 379T95 278T119 181Q126 162 141 139T174 95Z" />
<glyph unicode="p" glyph-name="p" horiz-adv-x="438" d="M84 -12Q80 -11 74 -11L65 -10V-1Q54 125 56 254T64 513Q66 561 67 610T71 708V712L73 714Q89 734 124 739T197 744Q234 744 266 733T324 702T368 659T398 609Q410 580 412 539T407 455Q399 410 383 375T343
320Q318 299 279 287T199 274Q154 274 121 290Q120 271 120 252T121 213Q122 198 122 184T122 157Q121 143 121 128T123 99Q125 72 125 46T115 -7L113 -13L107 -14H101Q96 -14 92 -14T84 -12ZM134 684Q135 624 133 569T126 459Q124 429 123 400T119 342Q146 334
168 331T210 328Q272 328 310 367Q333 391 344 434T350 529Q345 577 328 614T286 668Q267 680 246 683T203 686Q193 686 183 686T162 685Q155 685 149 685T134 684Z" />
<glyph unicode="q" glyph-name="q" horiz-adv-x="601" d="M548 530Q557 506 563 478T572 419T575 357T570 296Q562 247 545 196T503 98Q510 88 522 78Q533 67 544 54T557 20L558 14L553 10Q542 2 530 2Q514 2 503 14T483 39Q480 43 477 47T472 53Q469 51 464 46T455
37Q445 28 439 22T428 14Q402 2 364 -5T287 -13Q259 -13 235 -9T193 3Q178 8 162 17T132 35T106 54T88 69Q70 87 60 109T44 158T36 214T32 274Q31 279 31 283T31 292Q30 302 30 312T28 331Q26 357 25 383T25 434Q28 472 38 512T63 591Q80 632 99 660T138 700V701Q163
714 201 727T273 745Q279 746 285 746T299 747Q334 747 369 735T433 700L435 698L436 694Q438 688 438 684T435 676Q443 665 452 655T472 634Q493 611 513 587T547 530H548ZM334 294Q356 294 369 278T393 245Q396 240 399 236T404 227L405 226Q413 213 422 202T443
179L464 155Q481 192 493 238T510 334T511 432T491 519Q478 548 460 571T421 617Q416 622 411 627T401 639Q399 641 398 642T395 646Q377 668 365 676T325 685H313Q292 683 269 679T225 667T187 651T160 631Q106 568 93 445Q88 397 88 339T94 210Q96 176 107 144T132
96V95Q136 90 147 83T171 68T198 54T222 44Q259 36 293 36Q305 36 324 38T364 46T402 64T431 98Q420 118 406 136T377 171Q357 195 339 220T309 277L305 287L315 290Q323 294 334 294Z" />
<glyph unicode="r" glyph-name="r" horiz-adv-x="459" d="M417 509Q416 457 397 416T341 352Q350 324 356 297T368 240Q372 224 375 209T382 177Q386 162 390 147T399 118Q408 87 415 58T426 0V-8L418 -10Q414 -12 411 -12T404 -12Q380 -12 368 9Q363 17 361 26T356
45Q354 55 353 59Q344 89 335 122T318 190Q310 223 302 256T284 318Q273 314 262 310T239 300Q212 288 183 278T118 268Q115 235 116 193T119 110Q121 80 122 53T122 5V1L118 -2Q112 -8 103 -8Q98 -8 93 -6T83 -2Q79 1 75 2L69 4L68 10Q51 151 49 294T48 579Q49
611 49 644T49 709V716L55 718Q84 729 117 735T185 742Q269 742 322 708Q367 680 393 623Q419 570 417 509ZM110 677Q112 624 110 559Q109 501 109 440T115 324Q148 330 189 342T267 377Q344 424 352 497Q363 583 317 635Q295 660 261 673T185 687Q147 687 110
677Z" />
<glyph unicode="s" glyph-name="s" horiz-adv-x="544" d="M298 -12Q291 -13 284 -13T270 -13Q234 -13 196 -5T123 20Q87 37 63 58T29 103Q26 110 23 123T19 150Q17 174 23 184T37 198V199Q42 201 46 202T54 203Q61 203 68 198T81 179Q83 171 83 162T85 142Q85
125 88 116Q105 65 226 49V48Q245 45 265 45Q310 45 351 62T421 112Q468 163 460 229Q457 257 446 276T416 308T374 330T322 350Q312 353 303 356T282 364Q276 365 269 369Q232 382 190 399T116 444Q78 475 67 511Q52 554 69 606Q87 668 135 705Q188 746 263 746Q269
746 275 746T289 745Q346 740 378 718T415 660L416 646L403 649Q388 652 377 658T356 670Q346 676 337 681T314 688Q300 691 286 691Q260 691 235 685T193 668Q179 660 165 645T141 609T127 564T127 517Q138 478 186 455Q208 444 235 435T292 418Q336 406 378 392T452
353Q479 333 496 302T519 233Q525 193 516 156T484 87Q470 68 450 51T406 21T354 0T298 -12Z" />
<glyph unicode="t" glyph-name="t" horiz-adv-x="459" d="M210 674Q197 678 169 678Q159 678 149 678T127 677Q116 676 105 676T83 675Q69 675 55 676T29 682T7 696T-6 721L-9 732L3 733Q25 735 47 736T94 738Q120 738 146 737T201 734Q223 732 245 732T293 730H294H306Q314
730 321 730T336 731Q344 731 351 731T366 732Q387 732 408 726T441 697L443 692L440 688Q433 676 422 673T401 670Q396 670 392 670T383 671Q379 671 375 671T368 672Q358 672 349 672T332 671Q324 671 315 671T298 670Q291 670 285 670T272 671Q275 620 276 561T277
440T275 314T273 189Q272 160 272 133T271 79V78V58Q273 44 273 30T264 2L262 -1L258 -2Q253 -4 250 -4T242 -4Q229 -4 222 4Q214 12 213 24T212 48Q213 52 213 58Q216 144 217 222T218 376T215 524T210 674Z" />
<glyph unicode="u" glyph-name="u" horiz-adv-x="544" d="M169 30Q137 53 117 91T85 177T66 278T55 383Q55 390 55 396T53 411Q47 481 43 547T44 680Q45 693 47 708T57 734L60 739H65H71Q93 739 102 728Q110 719 109 706T106 678Q105 671 104 665T102 652Q100
615 103 571T111 481Q117 432 120 390Q125 313 133 253T158 148V147Q164 130 176 108T203 72Q217 59 245 48T306 37Q334 37 354 47Q392 64 416 168Q427 213 432 259T439 340Q442 389 440 452T431 589Q430 598 429 607T426 624Q421 650 419 675T426 724L428 729L434
730Q462 731 474 711Q478 703 479 695T481 678Q482 674 482 671T483 664V663Q496 591 501 506T503 341Q502 306 499 267T488 189T470 114T441 50Q421 20 385 3T303 -14Q266 -14 232 -3T169 30Z" />
<glyph unicode="v" glyph-name="v" horiz-adv-x="449" d="M423 761Q426 756 429 755L436 752L435 744Q422 672 403 611T361 486Q350 456 340 425T319 361Q312 342 306 321T292 279Q283 252 275 225T258 174Q255 165 253 155T248 133Q246 119 243 104T234 74V73Q223
43 209 18T178 -9L177 -10H175Q146 -10 125 49Q117 71 113 95T104 138Q102 145 102 150T100 159Q77 250 61 339T28 522Q23 548 19 575T9 632Q6 644 1 660Q-4 675 -8 691T-10 724L-9 734L1 733Q43 730 59 688Q66 671 69 652T74 613Q75 605 75 598T77 584Q91 490
111 396T154 210Q159 184 165 161T176 113Q182 130 187 148T199 185Q204 201 208 217T218 249Q229 282 239 315T260 382Q276 432 291 483T324 585Q329 600 332 615T340 644Q348 675 356 703T379 754L380 755V756Q381 759 383 765T396 772H399Q409 772 414 769T423
761Z" />
<glyph unicode="w" glyph-name="w" horiz-adv-x="643" d="M607 740Q615 740 620 737T628 731Q638 720 636 702T631 664Q630 662 630 659T629 654V653Q612 581 597 508T566 363Q548 278 530 191T491 19L490 12H483Q480 11 474 11Q457 11 445 18T425 37T411 60T402
82Q388 114 377 148T354 215Q343 250 331 285T304 354Q291 317 281 279T260 201Q251 168 242 134T221 64Q219 60 218 56T215 46Q206 16 198 -4T178 -28H177Q174 -29 169 -29Q137 -29 118 30Q110 52 106 76T98 121Q96 131 95 139L58 329Q53 357 50 382T43 434Q40
460 37 484T29 531Q26 550 23 567T16 602Q9 634 4 664T-4 728V730V731Q1 749 17 749Q26 749 35 744T51 734L54 732L55 728Q66 669 76 610T96 492Q112 395 129 297T167 104Q188 169 206 237T242 373Q244 383 247 401Q252 433 258 454T275 481Q285 485 291 485Q303
485 312 477T328 457T340 432T348 408Q348 406 348 406T349 404Q355 389 361 374T374 341Q395 290 416 236T456 130Q471 201 485 274T514 424Q523 471 532 518T551 614V615Q553 620 554 627T557 642Q565 684 572 709T594 739Q599 740 607 740Z" />
<glyph unicode="x" glyph-name="x" horiz-adv-x="410" d="M263 452Q260 445 256 437T247 420Q238 405 230 388T221 360Q221 340 256 276Q279 233 299 194T342 112Q343 109 347 103Q352 94 358 84T367 62T370 39T362 15L359 11H353Q339 11 329 17T312 32T299 51T290
71Q288 75 288 76Q274 103 260 130T232 186Q220 209 208 232T185 278Q173 253 161 228T137 178Q115 130 92 83T43 -10L39 -16L32 -14Q22 -12 13 -6Q7 -2 4 -1L-5 2L-2 11Q13 65 34 110T79 202Q88 219 97 237T115 275L126 297Q134 313 142 331T151 360Q151 368 144
384T128 415Q124 423 121 430T115 443L112 451Q95 494 81 533T56 626Q54 635 51 644T46 662Q40 681 36 699T34 733V734L35 736Q40 746 50 749L51 750H53H56Q78 750 90 725Q95 715 97 704T103 680Q106 665 109 653L110 652Q124 587 143 531T184 434Q204 478 226
520T270 604Q278 620 286 636T304 670Q306 673 306 676T309 683Q317 702 328 722T362 750L369 752L373 746Q381 734 382 721T380 696T372 671T361 648Q359 645 358 643T355 637Q344 611 333 589T308 542Q297 521 286 499T263 452Z" />
<glyph unicode="y" glyph-name="y" horiz-adv-x="442" d="M435 716Q423 670 406 623T372 529Q364 508 356 487T340 444Q336 433 332 423T323 402Q315 385 309 369T300 334Q295 306 294 278T293 221Q292 207 292 193T291 164Q290 152 290 140T290 116Q290 85 288
54T275 -5L272 -12H266Q244 -12 234 0Q226 9 225 21T226 45V61Q227 72 227 82T227 105Q227 128 227 154T230 206Q230 217 231 227T234 249Q237 276 239 302T236 351Q234 356 228 364T216 380Q213 384 210 387T204 394Q188 415 172 441T141 494Q134 505 128 516T115
537Q98 564 83 585T51 627Q47 632 44 636T35 646Q20 662 6 680T-10 721V731L-1 732H7Q32 732 49 715T79 680Q85 672 88 669Q125 622 159 572T227 470Q234 459 241 448T255 426Q272 459 284 495T307 569Q321 614 337 659T376 742L377 745L381 747Q384 748 392 748Q404
748 415 741T433 725L436 721L435 716Z" />
<glyph unicode="z" glyph-name="z" horiz-adv-x="430" d="M386 84Q435 84 443 46L445 41L441 37Q431 26 420 23T395 20H390H385H368Q328 15 276 11T163 4Q151 3 140 3T117 0Q100 -2 85 -3T56 -5H40Q-1 -2 -13 19Q-22 36 -14 57T6 101L15 119Q39 168 67 217T123
311Q131 322 137 333T151 356Q192 424 225 496T289 635Q294 645 298 654T306 674Q286 672 265 670T222 666Q190 662 158 659T88 655Q83 655 79 655T70 654Q65 653 60 653T50 653Q29 653 18 660Q2 670 2 694V700L7 703Q30 714 54 715T105 717Q118 717 130 717T155
719Q172 721 189 723T223 727Q262 733 294 736Q296 736 298 736T302 737Q310 738 317 738T332 739Q336 739 342 739T357 736T372 729T386 714L388 710L387 706Q343 580 285 470T166 253Q139 205 112 157T58 58Q79 60 101 60T147 63Q189 65 230 67T312 75Q317 75
323 76T335 78Q348 80 361 82T386 84Z" />
<glyph unicode="{" glyph-name="braceleft" horiz-adv-x="398" d="M319 759Q329 757 340 754T357 740Q365 729 360 714L359 713V712Q349 696 334 696Q329 696 325 697T315 700Q311 702 308 702T302 704Q287 703 273 695T248 675T228 649T215 620Q207 596 205 569T200
515Q198 490 196 468T189 424Q180 385 156 362Q159 357 162 354T170 346Q178 337 185 328T199 305Q213 276 215 240T219 165Q220 139 220 116T226 72Q236 36 264 30H265Q269 29 273 29T281 29H288H295Q300 29 307 29T320 26T332 18T339 3Q340 -8 333 -15Q322 -27
292 -27Q279 -27 268 -26T251 -23Q246 -22 239 -20T225 -14T210 -7T199 0Q185 12 177 29T164 68T157 114T154 164Q153 188 152 211T146 256T135 294T115 323Q113 323 111 324T107 326Q96 331 82 338T66 359V360V361Q66 369 74 377T96 400Q105 409 114 418T127 434Q130
442 132 453T135 473L138 518Q140 546 143 574T151 629T167 678T195 718Q241 761 293 761Q299 761 304 761T315 760H316Q317 759 319 759Z" />
<glyph unicode="|" glyph-name="bar" horiz-adv-x="240" d="M159 342Q158 309 158 277T158 212Q159 155 159 101T153 -8L152 -14L147 -16Q145 -17 145 -17T142 -18Q134 -22 126 -25T110 -28Q100 -28 95 -24L94 -23L92 -22Q80 -4 81 14T87 49Q89 55 90 60T92 71Q93
99 92 127Q91 135 91 144T91 162Q90 185 91 208T93 257Q95 279 96 301T97 347Q97 359 96 371T92 398Q87 426 87 451Q85 480 86 504T88 551Q90 574 90 598T90 650Q90 656 90 662T88 675Q87 687 87 699T88 722T97 742T117 755Q124 758 131 758Q139 758 143 755T150
750Q157 742 157 730T154 706Q153 701 153 694V693Q150 643 151 594T155 493Q157 456 158 418T159 342Z" />
<glyph unicode="}" glyph-name="braceright" horiz-adv-x="355" d="M231 361Q240 359 248 355T270 335L276 329L270 322Q265 316 259 310T248 299Q231 284 218 267T203 220V219Q202 205 202 190T204 159Q206 121 204 85T176 23Q172 19 163 12T143 0Q129 -5 113
-8T83 -12Q51 -12 39 3Q36 8 34 14T33 32V37L38 39Q47 44 58 45T81 48Q95 49 106 51T125 61Q139 78 140 105T140 165Q139 176 139 187T138 211Q139 253 152 279T181 324Q171 332 163 339T146 354Q144 356 142 357T138 360L137 362L136 363Q128 379 124 398T118
439T116 482T118 527Q119 549 119 571T118 613T112 652T100 684Q99 685 97 685Q80 687 63 693T39 718L38 722L40 725Q43 732 51 738T74 744Q86 744 99 740T124 729T147 715T162 700V699Q180 674 181 632T181 542Q180 515 180 488T182 437T192 395T214 367Q219 363
223 363T231 361Z" />
<glyph unicode="~" glyph-name="asciitilde" horiz-adv-x="676" d="M601 393Q622 358 604 309Q595 286 582 268T557 236Q538 215 515 197T458 178Q444 178 433 182Q404 189 382 206T336 245Q331 249 327 253T317 262Q311 267 303 272T287 283Q281 287 275 291T261
301H260Q255 305 251 309T241 318Q233 326 226 332T212 338Q206 338 198 333T182 321T168 306T158 292H157Q155 287 152 276T147 254Q142 231 137 213T117 193H111Q95 193 88 205Q77 224 87 267Q90 283 94 296T101 313V314Q109 328 119 340T141 363Q172 391 207
391Q225 391 240 384Q252 379 265 369T293 346Q302 338 311 331T330 317Q340 309 349 301T367 283Q387 264 406 249T447 234Q464 234 483 248T519 287Q535 309 545 334T558 378Q557 383 558 386T562 391Q566 396 571 397T581 398Q583 398 584 398T587 397H592H598L601
393Z" />
</font>
</defs>
</svg>
