<?xml version="1.0" encoding="utf-8"?>
<!-- Generator: Adobe Illustrator 16.0.0, SVG Export Plug-In . SVG Version: 6.00 Build 0)  -->
<!DOCTYPE svg PUBLIC "-//W3C//DTD SVG 1.0//EN" "http://www.w3.org/TR/2001/REC-SVG-20010904/DTD/svg10.dtd">
<svg version="1.0" id="Layer_9" xmlns="http://www.w3.org/2000/svg" xmlns:xlink="http://www.w3.org/1999/xlink" x="0px" y="0px"
	 width="792px" height="504px" viewBox="0 0 792 504" enable-background="new 0 0 792 504" xml:space="preserve">
<g>
	<path fill="#231F20" d="M483.25,185.074c20.754,7.536,124.925,45.251,166.066,57.997c35.155,10.891,58.277,27.843,61.851,45.348
		c2.533,12.41-4.449,25.71-20.753,39.529c-26.016,22.051-79.324,34.194-150.107,34.194c-45.563,0-94.748-4.993-138.495-14.06
		c-51.603-10.694-92.337-24.229-125.068-35.104c-26.214-8.71-47.316-15.722-64.456-18.015c0.514-4.09,1.944-11.145,5.919-18.079
		c7.992-13.945,22.247-21.016,42.367-21.016c1.532,0,3.119,0.042,4.717,0.125c16.768,0.875,36.118,3.356,54.832,5.755
		c24.254,3.11,49.333,6.325,70.345,6.325c21.317,0,36.182-3.396,45.441-10.381C458.885,240.36,477.901,197.852,483.25,185.074
		 M481,180c0,0-21.479,54.87-47.5,74.5c-9.43,7.113-24.714,9.574-43.032,9.574c-37.046,0-86.493-10.066-124.968-12.074
		c-1.691-0.088-3.332-0.131-4.926-0.131C208.001,251.87,208,298.5,208,298.5c37.5,3.5,96.5,33.5,193,53.5
		c41.477,8.596,91.527,14.143,139.307,14.143c63.384,0,122.759-9.77,152.693-35.143c52.5-44.5,3.5-77.5-42.5-91.75S481,180,481,180
		L481,180z"/>
</g>
<g>
	<path fill="#231F20" d="M326.826,112.211c6.455,0,13.045,4.722,18.86,8.888c2.42,1.733,4.706,3.371,6.966,4.689
		c10.676,6.228,99.386,64.185,116.663,75.48c-11.728,24.737-23.662,41.378-36.432,50.817c-13.172,9.735-26.328,11.047-37.46,11.047
		c-5.962,0-12.087-0.431-18.572-0.888c-2.798-0.197-5.692-0.4-8.618-0.571c-15.071-0.879-31.572-3.438-47.531-5.914
		c-19.605-3.041-39.877-6.185-57.512-6.185c-6.199,0-11.688,0.372-16.783,1.136c-14.983,2.248-26.762,11.264-34.063,26.076
		c-3.431,6.959-5.097,13.62-5.865,17.644c-41.797-3.488-72.08-19.104-90.301-31.786c-17.832-12.412-27.831-24.453-30.109-27.347
		c-3.967-19.577-5.898-35.2-5.74-46.446c0.128-9.127,1.592-13.371,2.562-16.179c0.595-1.725,1.109-3.215,1.109-5.005
		c0-3.132-1.153-12.863-2.28-21.628c11.695,11.916,29.998,20.669,54.659,26.108c26.296,5.8,53.064,6.419,67.446,6.752
		c1.509,0.035,2.868,0.066,4.061,0.101c0.264,0.007,0.53,0.011,0.801,0.011c11.681,0,31.941-7.516,54.197-20.106
		c21.505-12.165,40.249-26.502,48.916-37.417C316.756,115.246,321.671,112.211,326.826,112.211 M326.826,108.211
		c-5.748,0-11.83,2.818-18.159,10.789c-17.825,22.446-76.188,56.01-99.979,56.01c-0.233,0-0.461-0.003-0.688-0.01
		c-23.333-0.667-110-0.333-132.333-44c0,0,4.333,31,4.333,36.667S70.333,178.333,82.333,237c0,0,40.862,56.026,127.529,61.693
		c0,0,3.804-39.025,37.137-44.026c5.088-0.764,10.512-1.092,16.19-1.092c31.519,0,70.916,10.115,104.81,12.092
		c9.59,0.56,18.673,1.466,27.423,1.466c27.744,0,52.161-9.111,78.984-67.313c0,0-107.74-70.486-119.74-77.486
		C346.887,117.795,337.424,108.211,326.826,108.211L326.826,108.211z"/>
</g>
<g>
	<path fill="#231F20" d="M329.771,79.675c7.735,0,16.646,3.763,26.486,11.185c15.029,11.335,34.133,26.604,52.608,41.371
		c28.091,22.452,54.758,43.765,68.141,52.241l-6.146,11.473L368.985,129.9c-0.704-0.486-8.26-5.698-16.471-10.879
		c-18.1-11.422-21.753-11.604-23.313-11.683c-0.324-0.016-0.649-0.024-0.976-0.024c-7.976,0-15.871,4.795-24.135,14.66
		c-4.421,5.276-13.48,12.056-20.945,17.216c4.876-10.269,11.633-24.238,16.031-32.269c0.258-0.471,0.525-0.962,0.802-1.473
		C305.21,95.809,313.97,79.675,329.771,79.675 M329.771,75.675c-19.08,0-28.681,19.419-34.105,29.325
		c-7.667,14-22.18,45.333-22.18,45.333s24.934-15.365,33.668-25.791c7.723-9.218,14.625-13.229,21.069-13.229
		c0.259,0,0.518,0.007,0.775,0.02c6.667,0.333,37.758,21.891,37.758,21.891l105.575,68.443l10-18.667
		C463.666,172.667,398,117.333,358.667,87.667C347.162,78.99,337.659,75.675,329.771,75.675L329.771,75.675z"/>
</g>
<path fill="none" stroke="#231F20" stroke-width="4" stroke-miterlimit="10" d="M78.195,139.678c0,0-9.626-25.738,31.806-25.11
	s154.844,2.511,190.835-14.856l-24.754,48.984c0,0-35.301,23.625-63.34,28.438s-91.232-5.858-109.437-17.577
	S78.195,139.678,78.195,139.678z"/>
<g id="suela">
	<path fill="#FFFFFF" d="M525.634,415.239c-78.466,0-127.443-20.36-174.77-43.043c-39.846-19.098-111.114-38.441-211.826-57.494
		c-38.927-7.364-50.989-55.888-54.076-73.196c29.587,29.742,64.972,45.711,88.958,50.785c4.718,0.998,10.55,2.136,17.302,3.453
		c29.348,5.726,73.7,14.379,104.703,26.779c35.972,14.389,143.417,44.101,245.938,44.101c16.585,0,32.625-0.774,47.674-2.3
		c51.144-5.187,87.43-17.53,107.852-36.687c16.649-15.619,18.389-32.022,17.943-40.41c-0.306-5.761-4.982-12.281-10.997-18.364
		c8.906,7.277,16.821,16.354,18.7,26.501c4.496,24.276,0.425,45.489-12.102,63.048c-18.351,25.723-54.314,42.75-106.894,50.61
		C576.438,413.147,550.06,415.239,525.634,415.239z"/>
	<path fill="#231F20" d="M88.156,247.4c28.905,27.188,62.314,41.975,85.35,46.847c4.733,1.002,10.572,2.141,17.332,3.46
		c29.275,5.711,73.516,14.343,104.343,26.674c16.565,6.626,51.737,17.718,96.345,27.17c66.596,14.11,118.511,17.073,150.335,17.073
		c16.652,0,32.76-0.777,47.875-2.311c51.591-5.231,88.27-17.753,109.019-37.218c17.239-16.172,19.036-33.239,18.572-41.974
		c-0.02-0.381-0.056-0.764-0.106-1.151c1.855,3.105,3.22,6.374,3.847,9.758c4.393,23.723,0.435,44.422-11.764,61.521
		c-18.023,25.265-53.539,42.018-105.562,49.794c-27.502,4.111-53.781,6.195-78.108,6.195c-36.069,0-69.004-4.454-100.688-13.617
		c-28.461-8.231-52.716-19.403-73.216-29.229c-40.002-19.173-111.437-38.57-212.319-57.656c-19.007-3.596-33.74-17.55-43.79-41.477
		C91.954,262.53,89.609,253.982,88.156,247.4 M82.048,235.594c0,0,7.285,71.74,56.618,81.073S293.667,347,350,374
		c43.646,20.919,94.701,43.239,175.634,43.239c23.525,0,49.572-1.885,78.7-6.239C733.667,391.667,730,322,725,295
		s-49.632-46.106-49.632-46.106s37.138,22.854,37.965,38.44s-5.667,63-124,75c-15.601,1.582-31.521,2.29-47.472,2.29
		c-105.036,0-211.916-30.646-245.195-43.957c-38.333-15.333-97.14-25.004-122.333-30.333S111.763,267.521,82.048,235.594
		L82.048,235.594z"/>
</g>
</svg>
