<?xml version="1.0" encoding="utf-8"?>
<!-- Generator: Adobe Illustrator 15.0.0, SVG Export Plug-In . SVG Version: 6.00 Build 0)  -->
<!DOCTYPE svg PUBLIC "-//W3C//DTD SVG 1.1//EN" "http://www.w3.org/Graphics/SVG/1.1/DTD/svg11.dtd">
<svg version="1.1" xmlns="http://www.w3.org/2000/svg" xmlns:xlink="http://www.w3.org/1999/xlink" x="0px" y="0px" width="850px"
	 height="567px" viewBox="0 0 850 567" enable-background="new 0 0 850 567" xml:space="preserve">
<g id="Layer_2">
	
		<image overflow="visible" width="1818" height="1897" id="Capa_1_xA0_Image" xlink:href="772B8121.png"  transform="matrix(0.24 0 0 0.24 339.7402 90.2402)">
	</image>
</g>
<g id="Layer_1">
	<g id="punta_xA0_Image_2_">
		<g>
			<path fill="none" stroke="#000000" stroke-width="0.5" stroke-miterlimit="10" d="M646.5,359c0.375,0,2.75-0.125,2.75-0.375
				c-21.5,14-49.5,34.875-82.25,69.875c-8.479,8.48-16.5,18.5-29.875,27.625C521,464.5,518.5,465.25,499.625,471
				c-14.625,2.625-35.375,3-47.25,2.125c-35.75-3.625-54.125-9.375-82.375-19c-12.359-4.67-26.75-7.875-27.5-21.125
				c0-4,0.833-8,0.833-12c9.333-35.333,55-16,98.417-42.125c6.25-5,12.375-11.875,21-24.625c1,0,3.5,2.875,5.75,4.625
				c15.18,9.97,24.485,14.89,44.875,16.5c15,0.75,39.29-4.165,60-6.625c21.29-2.53,40.64-3.55,55.75-6.5
				C636.375,361.25,641.25,359.5,646.5,359z"/>
		</g>
	</g>
	<g id="punta_xA0_Image_3_">
		<g>
			<path fill="none" stroke="#000000" stroke-width="0.5" stroke-miterlimit="10" d="M700.375,337
				c-20.75,6-51.887,22.158-51.365,21.979c-21.479,13.999-49.422,34.856-82.093,69.771c-8.479,8.48-16.5,18.5-29.875,27.625
				c-16.125,8.375-18.625,9.125-37.5,14.875c-14.625,2.625-35.375,3-47.25,2.125c-35.75-3.625-54.125-9.375-82.375-19
				c-11.638-4.397-25.077-7.495-27.232-18.905c-0.133-0.707-2.685,3.863-2.685,3.863c-2.063,3.5-0.833,10-0.833,10
				c2.417,9.042,5.708,20.917,5.708,20.917c5,16.125,3.125,21.625,3.125,21.625c1,8.75,10.75,16.625,10.75,16.625
				c26.375,16.25,36.125,19.375,59.625,28.375c18.348,7.026,54.676,12.811,84.25,10.875c34.375-2.25,74.538-14.18,103.25-19.625
				c29-5.5,63.125-8.25,93.5-9.125l36.375-7.25c2.375-3.75,0.75-7.5,1.375-7.875s2.25-0.375,2.25-4.625s-0.041-14.916-0.041-14.916
				C741.001,423.001,756,372.875,756,372.875c6.375-21.25,12.983-32.761,16.375-42.375c2.081-5.896,3.125-11.25,3.125-11.25
				c-0.125-7.125-6.75-4.25-6.75-4.25c-16.75,4.25-51.375,17.5-51.375,17.5L700.375,337z"/>
			<path fill="none" stroke="#000000" stroke-width="0.5" stroke-miterlimit="10" d="M649.01,358.979
				c0.092-0.03,0.157-0.064,0.157-0.104C649.115,358.909,649.062,358.944,649.01,358.979z"/>
		</g>
	</g>
	<path fill="none" stroke="#000000" stroke-width="0.5" stroke-miterlimit="10" d="M773.125,306.5c0,0-0.375-22.25-8.875-61
		c0,0-6-20-18.25-49c0,0-11.25-26.25-21.5-61.25l-1-2c0,0-10.75,92.5-12.5,123.25c0,0,2.25,53-8.75,79l-0.125,0.938
		c0,0,10.938-2.563,15.25-3.938c0,0,19.25-7.188,28.75-10.5c0,0,13.5-4.625,22.625-7c0,0,1.688-0.938,4.563-0.313
		C773.313,314.688,773.563,312.188,773.125,306.5z"/>
	<g>
		<path fill="none" stroke="#000000" stroke-width="0.5" stroke-miterlimit="10" d="M723.438,133.688c0,0-0.188-8.188-5.688-21.688
			c0,0-2.5-6-0.75-8.5c0,0,2.75-0.25,2.75-4.75c0,0-0.75-5.25-9.25-7c0,0-29-2.5-78.75,0c0,0-61.5,2-79.75,2.5
			c0,0-39.25-5.25-41.25,29.75l-0.083,0.75l5.417,3.917l3,0.083l10.417-8.75l3.083-2c0,0,1.75-7.5,9-6.083
			c0,0,10.417,2.417,8,11.667c0,0-0.334,3.917-5,11.333c0,0-21,16.833-32.75,25.417l-0.583-0.75l-0.167-10.667
			c0,0-0.25-2.833-1.583-4.25l-0.167,22.083l-0.166,0.833c0,0,0,10,3.5,11.25c0,0-0.584-13,9.833-18.333l18.25-10.917
			c0,0,5.5-4.833,10.75-0.083c0,0,4.666,4,1.416,9.417c0,0-1.999,3.417-8.083,8s-21.083,12.417-21.083,12.417
			s-7.167,2.917-6.667,7.5c0,0,0.333,3.917,5.333,4.25c0,0,7.833-0.045,16.5-0.167c5.959-0.083,8.79,0.953,9.292,6.333
			c0.708,7.583-3.708,9.458-6.625,10.458c0,0-12.167,1.042-19.667,1.292s-8.416,5.75-6.333,7.417c0,0,4.167,4.75,0.167,7.5
			c0,0-4.084,2-6.167-3.667c0,0,0.667,7.083-2.083,13.583c0,0,1.916,0.333,0.083,4.5c0,0-2.75,5,0,7.25l0.833,0.333
			c0,0-0.75-9,8.167-11.5c0,0,9.679-3.06,17.917-4c3.291-0.375,4.333,2.541,4.333,6.125s-0.958,6.625-3.917,8.042
			c0,0-17.416,2-24.333,6.333c0,0-4.75,3.417-1.25,8.167c0,0,2.75,3.417,14.167,3.333c0,0,4.542-1.042,6.208,1.625
			c0,0,7.626,0.041,5.542,8.208s-9.75,7.667-13.417,6.5c0,0-13.333-0.583-18.5-1.5c0,0-6.583-1.75-6.25,5
			c0.342,6.924-4.917,6.084-4.917,6.084s-1.667-0.167-1.667-2.084c0,0-4.875,3.875-4.875,9.875c0,0,17.313-0.125,25.375,5.688
			c0,0,7.563-1.438,6,7.25c-1.563,8.688-7.688,9.375-11.938,7.063c0,0-9.563-0.563-16-1.875c0,0-8.188-1.875-10.875,3.25
			c0,0-2.438,4.313-2.563,7.938c0,0,6.875,6.313,14.5,8.313c0,0,9.25-2.5,5.563,8c-3.687,10.5-10.375,8.875-12.313,4.938
			c0,0-12.563-2.5-18.813-7.75c0,0-2.625,8.5-1.813,15.313l0.031,0.047c1,0,3.469,2.703,5.719,4.453
			c15.18,9.97,24.485,14.89,44.875,16.5c15,0.75,39.29-4.165,60-6.625c21.29-2.53,40.64-3.55,55.75-6.5
			c7.25-1,12.125-2.75,17.375-3.25c0.318,0,2.088,0.039,2.609-0.141l0.404-0.143"/>
		<path fill="none" stroke="#000000" stroke-width="0.5" stroke-miterlimit="10" d="M723.396,134.083
			c0,0-10.646,91.542-12.396,122.292c0,0,2.25,53-8.75,79l-0.125,0.938l-1.75,0.563c-19.81,5.729-50.016,21.391-50.859,21.766"/>
	</g>
	<g>
		<path fill="none" stroke="#000000" stroke-width="0.5" stroke-miterlimit="10" d="M464.604,338.938
			c6.25,5.25,18.813,7.75,18.813,7.75c3.375,1.063,5.959-3.021,6.625-5.521c1.819-6.828,0.125-7.417,0.125-7.417
			c-7.625-2-14.5-8.313-14.5-8.313c0.125-3.625,2.563-7.938,2.563-7.938c2.688-5.125,10.875-3.25,10.875-3.25
			c6.438,1.313,16,1.875,16,1.875c4.854,0.875,5.827-4.998,6.229-6.458c1.333-4.834-0.292-7.854-0.292-7.854
			c-8.063-5.813-25.375-5.688-25.375-5.688c0-6,4.875-9.875,4.875-9.875c0,1.917,1.666,2.084,1.666,2.084s5.26,0.84,4.918-6.084
			c-0.334-6.75,6.25-5,6.25-5c5.166,0.917,18.5,1.5,18.5,1.5c3.666-1.083,6.195-4.306,6.958-7.083c1.5-5.458,0.75-7.75,0.75-7.75
			c-1.666-2.667-6.042-1.5-6.042-1.5c-11.416,0.083-14.166-3.333-14.166-3.333c-3.5-4.75,1.25-8.167,1.25-8.167
			c6.916-4.333,24.332-6.333,24.332-6.333c11.666,3.167,11.918-5.25,11.918-8.833s-4.084-6.167-12.334-5.333s-17.916,4-17.916,4
			c-8.918,2.5-8.168,11.5-8.168,11.5l-0.832-0.333c-2.75-2.25,0-7.25,0-7.25c1.832-4.167-0.084-4.5-0.084-4.5
			c2.75-6.5,2.084-13.583,2.084-13.583c2.082,5.667,6.166,3.667,6.166,3.667c4-2.75-0.166-7.5-0.166-7.5
			c-2.084-1.667-1.168-7.167,6.332-7.417s19.793-1.333,19.793-1.333c5.833-0.25,12.625-4.083,10.957-11.75
			c-1.666-7.667-5.082-5.083-13.75-5c-8.666,0.083-16.5,0.167-16.5,0.167c-5-0.333-5.332-4.25-5.332-4.25
			c-0.5-4.583,6.666-7.5,6.666-7.5s14.956-7.892,21.084-12.417c5.417-4,5.625-5.083,5.625-5.083c1.666-3.5-2.042-9.083-2.042-9.083
			c-4.25-4.958-7.667-3.167-7.667-3.167l-18.25,10.917c-10.416,5.333-9.832,18.333-9.832,18.333c-3.5-1.25-3.5-11.25-3.5-11.25
			l0.166-0.833l0.166-22.083c1.334,1.417,1.584,4.25,1.584,4.25l0.166,10.667l0.584,0.75c11.75-8.583,32.75-25.417,32.75-25.417
			c4.375-7.417,4.542-9.75,4.542-9.75c-0.375-7.083-6.875-8.542-6.875-8.542c-5.75-1.375-9.667,1.375-9.667,1.375l-3.084,2
			l-10.416,8.75l-3-0.083l-5.418-3.917l-0.166-0.75c0,0-4.833-4.167-5.291,7l-0.167,7.208c0,0-1.042,6.708,4.333,6.083
			l-0.083,22.833c0,0-5.021,0.875-3.428,11.563c0,0,1.219,3.219-0.031,5.25c0,0-1,4.875,5.875,12.188l-0.125,7
			c0,0-3.5,1.688-2.75,8.875c0.226,2.158-0.681,4.495,0.333,7.667l0.584,1.417c0,0-0.25,8.583-2.209,12.792
			c0,0-5.458-0.125-7.333,11.75c0,0-4.5,7.125-1.25,12.625c0,0,1.875,4.625,0.875,7.25c0,0-7.813,3.313-7.938,11.563
			c0,0-3.313,3.313-1.688,6.063c0,0,0.656,1.719,0.25,3.156c0,0-5.031,4.438-4.844,10.094c0,0-1.364-0.541-2.489,2.292
			c0,0-6.042-1.917-7.292,5.708c0,0-6.75,5.625-4.875,11.625c0,0,0.125,2.125,2.125,2.75c0,0,1.25,2.375-1,4.5
			c0,0-8.625-0.875-8.375,5.125l-0.125,3.375c0,0-3.958,3.001,0.542,6.667L464.604,338.938z"/>
	</g>
	<path fill="none" stroke="#000000" stroke-width="0.5" stroke-miterlimit="10" d="M462.75,354.125"/>
	<g id="doblez_xA0_Image_2_">
		<g>
			<path fill="none" stroke="#000000" stroke-width="0.5" stroke-miterlimit="10" d="M721.5,95
				c5.729,19.94,18.225,42.66,12.625,64.5c-17.88,4.46-34.125-5.125-52.875-6.875c-39.36-6.37-82.575,1.785-118.375,8.625
				c-26.979,5.16-48.765,15.175-76.375,8.625c3.95-18.41,18.67-35.565,21-52.875c1.61-11.96-3.59-28.657,2.5-36.667
				c6.49-8.53,39.527-9.997,54.667-11.667C587.797,66.107,607.4,64.86,627,64C671.25,62.05,698,73.667,721.5,95z"/>
		</g>
	</g>
	<path fill="none" stroke="#000000" stroke-width="0.5" stroke-miterlimit="10" d="M532.688,117.969c0,0,4.625-3.406,11.313-0.688
		c0,0,4.563,1.219,5.156,8.094c0,0,3.75-7.656-4.25-12.188C544.906,113.188,535.844,107.625,532.688,117.969z"/>
	<path fill="none" stroke="#000000" stroke-width="0.5" stroke-miterlimit="10" d="M548.542,152.875c0,0,3.666,6.042,1.875,9.042
		c0,0,7.043-5.417,1.584-11.917c0,0-4.209-5.375-11.084-0.625C540.917,149.375,545.417,148.542,548.542,152.875z"/>
	<path fill="none" stroke="#000000" stroke-width="0.5" stroke-miterlimit="10" d="M540.251,190.917c0,0,5.291-0.833,8.833-0.333
		c0,0,2.667,0.125,3.625,5.292c0,0,1.126,5.458-2.208,8.292c0,0-3.834,3.458-8.792,3.458c0,0,6.249-1.042,6.583-8.5
		C548.292,199.125,549.418,190.375,540.251,190.917z"/>
	<path fill="none" stroke="#000000" stroke-width="0.5" stroke-miterlimit="10" d="M534.876,244.542c0,0,6.375,2.458,10-1.25
		c0,0,3-3.958,1.833-8.75c0,0-0.126-4.75-11.542-4.25c0,0,3.126,0.208,3.459,3.792C538.626,234.083,540.21,242.292,534.876,244.542z
		"/>
	<path fill="none" stroke="#000000" stroke-width="0.5" stroke-miterlimit="10" d="M541.042,242.625c0,0,4.126-2.459,1.709-7.792
		c0,0-1-2.292-4.375-1.917c0,0,1.916,7.625-2.084,10.625C536.292,243.542,538.084,244.208,541.042,242.625z"/>
	<path fill="none" stroke="#000000" stroke-width="0.5" stroke-miterlimit="10" d="M521.959,278.791c0,0,9.041,3.25,12.833-5
		c0,0,2.958-6.375-2.125-9.083c0,0-2.124-0.833-3.041-0.708c0,0,0.792,1.708-0.75,7.417
		C528.876,271.416,527.834,276.749,521.959,278.791z"/>
	<path display="none" fill="none" stroke="#000000" stroke-width="0.5" stroke-miterlimit="10" d="M530.542,274.541
		c0,0,4.334-4.875,1.042-7.5c0,0-0.749-0.667-1.833-0.125c0,0-0.584,7.917-4.459,9.958
		C525.292,276.875,527.75,277.416,530.542,274.541z"/>
	<path display="none" fill="none" stroke="#000000" stroke-width="0.5" stroke-miterlimit="10" d="M505.209,316.208
		c0,0,7.292,4.459,11.042-4.416c0,0,3.125-6.793-1.375-9.584c0,0-1.667-0.791-3.917-0.416c0,0,1.834,2.583,0.417,7.708
		C511.376,309.5,510.501,316.749,505.209,316.208z"/>
	<path fill="none" stroke="#000000" stroke-width="0.5" stroke-miterlimit="10" d="M514.209,310.625c0,0,1.499-5.249-2.667-7.458
		c0,0,0.959,4.459-0.416,7.625c0,0-0.543,3.416-2.959,4.833C508.167,315.625,512.667,314.75,514.209,310.625z"/>
	<path fill="none" stroke="#000000" stroke-width="0.5" stroke-miterlimit="10" d="M483.375,346.625c0,0,5.063,8.625,11.375-2.625
		c0,0,4.25-7.438-0.063-10.063c0,0-1.813-0.938-4.5-0.25c0,0,1.813,1.313-0.25,7.875
		C489.938,341.563,487.688,348.125,483.375,346.625z"/>
	<path fill="none" stroke="#000000" stroke-width="0.5" stroke-miterlimit="10" d="M489,346.125c0,0,3.188-0.813,4.563-6.563
		c0,0,0.563-4.188-2.688-3.5c0,0,0.25,5.813-3.75,9.813C487.125,345.875,487.188,346.313,489,346.125z"/>
</g>
</svg>
