<?xml version="1.0" encoding="utf-8"?>
<!-- Generator: Adobe Illustrator 15.0.0, SVG Export Plug-In . SVG Version: 6.00 Build 0)  -->
<!DOCTYPE svg PUBLIC "-//W3C//DTD SVG 1.1//EN" "http://www.w3.org/Graphics/SVG/1.1/DTD/svg11.dtd">
<svg version="1.1" xmlns="http://www.w3.org/2000/svg" xmlns:xlink="http://www.w3.org/1999/xlink" x="0px" y="0px" width="539px"
	 height="576px" viewBox="0 0 539 576" enable-background="new 0 0 539 576" xml:space="preserve">
<g id="plataforma">
	<path fill="#58595B" d="M21.002,499c0,0,24,23.5,67,39.5c0,0,72.75,31.75,164,7.834c0,0,57.666-17.002,118-22.668
		c0,0,61.334-4.333,75.334-5.333c0,0,22.998-1.332,30.499-7.666c0,0,2.332,0.333,3.165-45c0,0,3-67,18-108.667
		c0,0,13.332-42.001,19.666-50.667c0,0,6.167-16.499,0-17.667c0,0-89.333,30.333-120.666,42.333c0,0-67,27.334-137,110.667
		c0,0-32.5,36.333-106.5,34.833c0,0-86.5-8-129-33c0,0-10.25-5-9.25-12.25c0,0-7.5,1-4.5,17C9.75,448.25,19.333,477,21.002,499z"/>
</g>
<g id="suela">
	<path fill="#A7A9AC" d="M475.833,510.667c0,0,0.501,10.833-11.166,14c0,0-73.667,3.833-103.667,7.333
		c0,0-77.833,12.667-101.333,20.667c0,0-67.667,22.333-141.167,2.333c0,0-91.75-26-97.5-56c0,0,24,23.5,67,39.5
		c0,0,72.75,31.75,164,7.834c0,0,57.666-17.002,118-22.668c0,0,61.334-4.333,75.334-5.333
		C445.334,518.333,468.332,517.001,475.833,510.667z"/>
	<path fill="none" stroke="#EC008C" stroke-miterlimit="10" d="M790.147,212.673"/>
</g>
<g id="punta">
	<path fill="#BCBEC0" d="M14.417,431.084c-1,7.25,9.25,12.25,9.25,12.25c42.5,25,129,33,129,33c74,1.5,106.5-34.833,106.5-34.833
		c46.908-55.842,92.467-86.538,117.422-100.714c0,0-93.339,12.713-129.339,16.213c0,0-45.25,9.75-69.583-6.667
		c0,0-20.334-14.665-22-16.999c0,0-15.667,31-38.333,37.333c0,0-35.75,16.666-75.083,18.333C42.25,389,14,390.75,14.417,431.084z"/>
</g>
<g id="largo">
	<path fill="none" stroke="#F7941E" stroke-miterlimit="10" d="M376.656,340.914"/>
	<path fill="#939598" d="M433.986,317.291c-15.062,5.312-28.829,10.266-37.82,13.709c0,0-6.767,2.677-18.289,9.141
		c0,0-0.574,0.559-1.288,0.646c-89.256,12.157-89.23,12.313-129.339,16.213c0,0-45.25,9.75-69.583-6.667
		c0,0-20.334-14.665-22.001-16.999L152,330c6.75-10.5,31-61.667,31-61.667c23-27.667,26.333-87,26.333-87
		c4.5-17.5-1.333-87.083-1.333-87.083c-11.75-67,47.667-61.917,47.667-61.917L421.5,26.75c28-0.25,34.001,8.75,34.001,8.75
		c3,4.667-4.167,5.5-4.167,5.5c-2.667,0-0.334,6-0.334,6c0.646,4.953,3.124,13.986,6.614,25.112C457.614,72.112,448,173,445,220
		C445,220,448.973,284.582,433.986,317.291z"/>
	<path fill="#6D6E71" d="M457.614,72.112c12.672,40.493,39.068,108.633,39.068,108.633c26,50,20.275,107.879,20.275,107.879
		s-45.553,15.467-83.01,28.682l0.146-0.4c14.883-32.769,10.926-97.099,10.926-97.099c3-47,12.531-146.954,12.531-146.954
		L457.614,72.112z"/>
	<path fill="#006838" stroke="#F7941E" stroke-miterlimit="10" d="M377,340.538"/>
</g>
<g id="ojetes">
	<g>
		<circle fill="none" stroke="#6D6E71" stroke-width="5" stroke-miterlimit="10" cx="245.699" cy="63.778" r="8.431"/>
		<circle cx="245.699" cy="63.778" r="6.078"/>
	</g>
	<g>
		<circle fill="none" stroke="#6D6E71" stroke-width="5" stroke-miterlimit="10" cx="252.365" cy="102.778" r="8.431"/>
		<circle cx="252.365" cy="102.778" r="6.078"/>
	</g>
	<g>
		<circle fill="none" stroke="#6D6E71" stroke-width="5" stroke-miterlimit="10" cx="251.032" cy="152.778" r="8.431"/>
		<circle cx="251.032" cy="152.778" r="6.078"/>
	</g>
	<g>
		<circle fill="none" stroke="#6D6E71" stroke-width="5" stroke-miterlimit="10" cx="243.782" cy="199.528" r="8.431"/>
		<circle cx="243.782" cy="199.528" r="6.078"/>
	</g>
	<g>
		<circle fill="none" stroke="#6D6E71" stroke-width="5" stroke-miterlimit="10" cx="230.449" cy="238.528" r="8.431"/>
		<circle cx="230.449" cy="238.528" r="6.078"/>
	</g>
	<g>
		<circle fill="none" stroke="#6D6E71" stroke-width="5" stroke-miterlimit="10" cx="209.115" cy="282.528" r="8.431"/>
		<circle cx="209.115" cy="282.528" r="6.078"/>
	</g>
	<g>
		<circle fill="none" stroke="#6D6E71" stroke-width="5" stroke-miterlimit="10" cx="183.449" cy="319.861" r="8.431"/>
		<circle cx="183.449" cy="319.861" r="6.078"/>
	</g>
</g>
<g id="cintas">
	<path fill="#E6E7E8" d="M221.667,75.333c0,0-10.333-5.333-11.667-9.333c0,0-5.667,1-6,8.333c0,0,1.333,9-0.333,11.333
		c0,0,2,5.667,12.333,2.333L221.667,75.333z"/>
	<path fill="#E6E7E8" d="M213.833,150.25c-5-2.667-9-11.917-9-11.917c1.667-2.333,0.167-13,0.167-13c0.333-7.333,4-8,4-8
		s-2.333,12.917,12.333,27.917C221.333,145.25,213.333,148.583,213.833,150.25z"/>
	<path fill="#F1F2F2" d="M236.75,59.5c0,0,9.25-3.5,15,1.25c0,0,2.167,3-2.5,16.5c0,0-30.917,28-40.167,30.25
		c0,0-1.5-17.5-2.667-21.583c0,0,7.544-5.947,13.762-11.775C226.651,68.073,233.944,61.413,236.75,59.5z"/>
	<path fill="#F1F2F2" d="M242.833,99.333c0,0,6.5-3.167,12.833,2.167c0,0,0.833,7.167-3.167,12.333c0,0-39.667,20.875-36.167,26
		c0,0-8.458-6.958-3.833-13.583c0,0,0-7.75,5.25-11C217.75,115.25,230.167,105.417,242.833,99.333z"/>
	<path fill="#E6E7E8" d="M207.5,174.167c0,0,0.333-8.334,4.167-9.5c0,0,3.167,4.667,5.167,9.333c0,0,2.167,9.333-2.167,10
		C214.667,184,210.833,182.834,207.5,174.167z"/>
	<path fill="#F1F2F2" d="M232.667,192.833c0,0,13-4,10.5,5.167c0,0-1.333,5.667-1,6.667c0,0-32.792,6.083-34.292,13.583
		c0,0-3.75-7.375,2.25-15.375C210.125,202.875,217.834,195.167,232.667,192.833z"/>
	<path fill="#E6E7E8" d="M208.292,197.917c0,0-2.792-9.083-8.792,5.917c0,0-0.833,6.167-1.833,7.5c0,0-2.333,4.666-1,9.833
		c0,0,3,7.458,3.833,7.958c0,0,6.312-1.812,9.25-2.125c0,0-4.083-17.292-1.583-19.667
		C208.167,207.333,206.583,202.958,208.292,197.917z"/>
	<path fill="#F1F2F2" d="M199.25,290.5c0,0,8.25-0.5,12.25-6c0,0,3.625-4.625-2.75-9.75c0,0-10.375-7.75-32.375-4.125
		c0,0-5.25,1.25-6.625,8.125c0,0-1.25,3.375-2.75,4.625c0,0-5.25,4.125-0.5,9.375c0,0,4.375,1.875,8.25-3
		C174.75,289.75,185.333,283.833,199.25,290.5z"/>
	<path fill="#F1F2F2" d="M165.667,299.5c0,0-11.667-0.667-9.333,5.833c0,0,0.833,3.668-1.833,4.834c0,0-3,5.167,3.5,8
		c0,0,17,10,22.833,8c0,0,4.167-1.166,5.833-4.5c0,0,2.5-2.667,0.667-7c0,0-1-3.833-6.708-3.542c0,0-21.438-9.156-14.062-8.906
		C166.562,302.219,168.875,299.781,165.667,299.5z"/>
	<path fill="#F1F2F2" d="M242.5,144.75c0,0,10.417,0.417,11.667,7.917c0,0,1.333,4.5-5.542,9.583c0,0-7.875,3-14.875,2.25
		c0,0-20.5,0.125-17.75,7.875c0,0-5.75-2.958-6-5.208c0,0-3.25-4.417,2-8.417c0,0-1.25-12.5,9-13.75L242.5,144.75z"/>
	<path fill="#E6E7E8" d="M198.5,245.833c0,0-7.458,9.75-10.125,15.417c0,0-3.042-3.896-1.875-9.562
		C186.5,251.688,193.833,243.333,198.5,245.833z"/>
	<path fill="#F1F2F2" d="M186.375,256.708c0,0,2-4.708,5.5-8.333c0,0,2.167-2.666,10.167-3.166c0,0,18.167-0.667,25.5-1.667
		c0,0,1.75,0.667,3.75-6.375c0,0,2.417-4.792-8.083-9.458c0,0-21-3.667-26.833,4.667c0,0-8.375,7.625-10.875,18.125L186.375,256.708
		z"/>
</g>
</svg>
