<?xml version="1.0" encoding="utf-8"?>
<!-- Generator: Adobe Illustrator 15.0.0, SVG Export Plug-In . SVG Version: 6.00 Build 0)  -->
<!DOCTYPE svg PUBLIC "-//W3C//DTD SVG 1.1//EN" "http://www.w3.org/Graphics/SVG/1.1/DTD/svg11.dtd">
<svg version="1.1" id="Layer_1" xmlns="http://www.w3.org/2000/svg" xmlns:xlink="http://www.w3.org/1999/xlink" x="0px" y="0px"
	 width="562.396px" height="486.082px" viewBox="0 0 562.396 486.082" enable-background="new 0 0 562.396 486.082"
	 xml:space="preserve">
<g id="suela_leñaor" display="none">
	<path display="inline" fill="#C7C8CA" d="M527.851,412.533c0,0,14.476,7.261,0.482,17.426c0,0-7.72,16.459-109.51,22.75
		c0,0-93.106,0.484-119.156-1.936c0,0-44.866-1.938-81.047-19.849c0,0-35.539-15.974-51.62-18.877c0,0-13.025,7.741-16.884,9.194
		c0,0-5.789,3.873-12.784,3.631c0,0-46.233-4.112-61.026-9.278c0,0-17.045-1.289-22.834-16.457c0,0-6.754-21.942-7.076-34.206
		c0,0,64.162,18.068,79.118,20.49c0,0,38.593,7.906,61.749,18.561c0,0,82.012,32.914,118.998,32.271c0,0,34.091,2.903,81.366,2.26
		c0,0,89.732-3.228,117.068-14.847C504.694,423.666,526.244,415.595,527.851,412.533z"/>
</g>
<g>
	<path fill="#BCBEC0" d="M496.292,372.059c0,0-46.842-6.184-60.505-7.156c0,0-37.083-3.902-73.19-28.949
		c0,0,8.136,35.131-1.626,42.611c0,0-6.182,6.506-17.893,6.83c0,0-46.517-1.059-53.349-0.08c0,0-49.041,10.002-63.92,33.911
		c0,0,0.16,0.068,0.451,0.189c-2.514,4.152-1.448,7.252-1.448,7.252c80.167,19.247,169.5,22.75,169.5,22.75
		c62.665,7,128.666-24,128.666-24c2.396-2.635,3.756-8.181,4.332-11.102c0.028-0.021,0.06-0.046,0.086-0.067
		C527.396,414.25,538.58,381.492,496.292,372.059z"/>
	<path fill="#BCBEC0" d="M217.886,425.005c-0.695-0.167-1.374-0.33-2.04-0.49C216.553,424.684,217.235,424.848,217.886,425.005z"/>
	<path fill="#BCBEC0" d="M215.846,424.514c-1.463-0.352-3.032-0.729-4.65-1.115C212.66,423.75,214.208,424.121,215.846,424.514z"/>
	<path fill="#BCBEC0" d="M219.842,425.474c-0.637-0.152-1.264-0.304-1.877-0.45C218.626,425.182,219.253,425.334,219.842,425.474z"
		/>
	<path fill="#BCBEC0" d="M211.196,423.398c-0.026-0.007-0.052-0.014-0.078-0.02C211.144,423.385,211.17,423.392,211.196,423.398z"/>
	<path fill="#BCBEC0" d="M217.965,425.023c-0.026-0.007-0.053-0.014-0.079-0.02C217.912,425.01,217.939,425.017,217.965,425.023z"/>
	<path fill="#BCBEC0" d="M211.118,423.38c-1.295-0.312-2.622-0.631-3.949-0.948C208.41,422.729,209.726,423.046,211.118,423.38z"/>
	<path fill="#BCBEC0" d="M205.227,421.965c-0.096-0.021-0.191-0.046-0.287-0.067C205.036,421.919,205.131,421.942,205.227,421.965z"
		/>
	<path fill="#BCBEC0" d="M219.881,425.484c-0.013-0.004-0.026-0.008-0.04-0.011C219.854,425.477,219.868,425.48,219.881,425.484z"/>
	<path fill="#BCBEC0" d="M205.578,422.05c-0.117-0.027-0.234-0.058-0.351-0.085C205.342,421.993,205.462,422.021,205.578,422.05z"/>
	<path fill="#BCBEC0" d="M207.169,422.431c-0.545-0.131-1.075-0.258-1.591-0.382C206.107,422.177,206.639,422.303,207.169,422.431z"
		/>
	<path fill="#BCBEC0" d="M223.364,426.32c-0.216-0.053-0.432-0.104-0.646-0.155C222.951,426.22,223.167,426.273,223.364,426.32z"/>
	<path fill="#BCBEC0" d="M224.387,426.566c-0.089-0.021-0.19-0.047-0.305-0.074C224.184,426.517,224.285,426.541,224.387,426.566z"
		/>
	<path fill="#BCBEC0" d="M224.082,426.492c-0.058-0.015-0.115-0.026-0.172-0.041C223.97,426.466,224.027,426.479,224.082,426.492z"
		/>
	<path fill="#BCBEC0" d="M224.617,426.621c-0.078-0.02-0.153-0.035-0.23-0.055C224.478,426.588,224.555,426.606,224.617,426.621z"/>
	<path fill="#BCBEC0" d="M224.718,426.645c-0.028-0.007-0.061-0.015-0.101-0.023C224.651,426.629,224.684,426.636,224.718,426.645z"
		/>
	<path fill="#BCBEC0" d="M222.718,426.165c-0.124-0.028-0.252-0.062-0.386-0.093C222.461,426.103,222.588,426.134,222.718,426.165z"
		/>
	<path fill="#BCBEC0" d="M204.94,421.896c-1.007-0.242-2.005-0.481-2.981-0.717C202.894,421.405,203.887,421.643,204.94,421.896z"/>
	<path fill="#BCBEC0" d="M223.91,426.451c-0.162-0.039-0.345-0.083-0.545-0.131C223.544,426.363,223.728,426.408,223.91,426.451z"/>
	<path fill="#BCBEC0" d="M222.332,426.072c-0.835-0.2-1.653-0.396-2.451-0.588C220.808,425.706,221.633,425.904,222.332,426.072z"/>
	<path fill="#BCBEC0" d="M224.812,426.668c-0.032-0.009-0.062-0.016-0.094-0.022C224.778,426.66,224.812,426.668,224.812,426.668z"
		/>
	<path fill="#BCBEC0" d="M191.598,418.692c-0.15-0.036-0.295-0.071-0.434-0.104C191.301,418.621,191.446,418.656,191.598,418.692z"
		/>
	<path fill="#BCBEC0" d="M190.852,418.513c-0.132-0.031-0.256-0.062-0.374-0.09C190.594,418.451,190.718,418.481,190.852,418.513z"
		/>
	<path fill="#BCBEC0" d="M190.478,418.424c-0.085-0.021-0.167-0.04-0.243-0.06C190.312,418.384,190.393,418.403,190.478,418.424z"/>
	<path fill="#BCBEC0" d="M190.234,418.365c-0.075-0.019-0.145-0.035-0.212-0.051C190.088,418.33,190.16,418.347,190.234,418.365z"/>
	<path fill="#BCBEC0" d="M191.165,418.589c-0.109-0.025-0.214-0.053-0.313-0.075C190.952,418.537,191.056,418.562,191.165,418.589z"
		/>
	<path fill="#BCBEC0" d="M201.959,421.18c-0.085-0.021-0.171-0.041-0.255-0.062C201.789,421.139,201.874,421.16,201.959,421.18z"/>
	<path fill="#BCBEC0" d="M189.435,418.173c-0.057-0.015-0.106-0.024-0.144-0.034C189.33,418.147,189.376,418.159,189.435,418.173z"
		/>
	<path fill="#BCBEC0" d="M190.022,418.314c-0.196-0.049-0.358-0.087-0.484-0.116C189.667,418.228,189.829,418.267,190.022,418.314z"
		/>
	<path fill="#BCBEC0" d="M189.292,418.138C189.152,418.105,189.145,418.103,189.292,418.138L189.292,418.138z"/>
	<path fill="#BCBEC0" d="M192.105,418.814c-0.178-0.043-0.346-0.083-0.507-0.122C191.76,418.731,191.929,418.772,192.105,418.814z"
		/>
	<path fill="#BCBEC0" d="M189.538,418.198c-0.037-0.009-0.072-0.019-0.103-0.024C189.467,418.18,189.5,418.188,189.538,418.198z"/>
	<path fill="#BCBEC0" d="M192.933,419.012c-0.291-0.068-0.566-0.136-0.828-0.197C192.362,418.875,192.639,418.942,192.933,419.012z"
		/>
	<path fill="#BCBEC0" d="M196.669,419.91c-0.373-0.09-0.731-0.176-1.074-0.258C195.943,419.736,196.302,419.822,196.669,419.91z"/>
	<path fill="#BCBEC0" d="M198.903,420.446c-0.773-0.187-1.521-0.364-2.234-0.536C197.361,420.076,198.102,420.254,198.903,420.446z"
		/>
	<path fill="#BCBEC0" d="M201.705,421.119c-0.934-0.226-1.846-0.442-2.726-0.653C199.824,420.668,200.732,420.885,201.705,421.119z"
		/>
	<path fill="#BCBEC0" d="M198.979,420.465c-0.024-0.007-0.05-0.013-0.075-0.02C198.928,420.453,198.954,420.459,198.979,420.465z"/>
	<path fill="#BCBEC0" d="M193.271,419.094c-0.117-0.026-0.227-0.055-0.338-0.081C193.043,419.04,193.157,419.066,193.271,419.094z"
		/>
	<path fill="#BCBEC0" d="M193.66,419.188c-0.132-0.031-0.262-0.062-0.389-0.095C193.396,419.124,193.527,419.156,193.66,419.188z"/>
	<path fill="#BCBEC0" d="M195.595,419.652c-0.617-0.147-1.204-0.289-1.752-0.421C194.375,419.359,194.96,419.5,195.595,419.652z"/>
	<path fill="#BCBEC0" d="M193.843,419.231c-0.062-0.016-0.122-0.029-0.183-0.045C193.721,419.202,193.781,419.217,193.843,419.231z"
		/>
</g>
<g id="lengueta">
	<path fill="#58595B" d="M225.396,98.5c0,0,17.5-9.75,46.5-5.25c0,0,19,3.5,34,17c0,0,2.171,1.417-0.166,6.417
		c0,0-19.334,71.833-12.834,99.833c0,0-4.5,75,25.003,92.5l-33.503-10L225.396,98.5z"/>
</g>
<g id="trasero">
	<path fill="#58595B" d="M46.729,365.104c1.644-3.451,13.334-11.438,13.334-11.438c2.959-15.127,23.334-63.379,23.334-63.379
		c3.999-14.621-0.668-20.953-0.668-20.953c-4.769-8.059,7.739-11.934,7.739-11.934c3.453-1.316,2.302-5.592,2.302-5.592
		l-5.375-16.062c-3.618-11.511,6.525-20.116,6.525-20.116c2.96-1.973-0.493-12.824-0.493-12.824
		c-2.466-21.706,3.135-78.976,3.135-78.976c-2.959-30.584,4.666-47,4.666-47s-4.5,1.333-6.333,9.667c0,0-2.5,19.25-1,31.75
		c0,0,2.25,5.25-0.5,7.5c0,0-3,1.5-2.25,7.5c0,0,0.25,26-2.75,40.75c0,0-2,15.5,0.25,22c0,0,3.185,10.692,0.224,19.49
		c-0.143,0.425-0.301,0.846-0.474,1.26c-3.75,9-9.5,17.25-5.5,27c0,0,6.167,12.416,1,13.75c0,0-11,6.332-11.5,15.832l-28,85.334
		L46.729,365.104z"/>
</g>
<g id="circulo">
	<path fill="#414042" d="M112.146,82.083c0,0-7.5-30.583-9-37.083c0,0-3-23.25-20.75-25.5c0,0-22.5-2.75-29.25,15.25
		c0,0-6,14.5,3.25,23.5c0,0,5.334,5.583,16.667,11.75c0,0,21.583,11.083,22.083,15.75c0,0,2.583-6.25,3.75-7.25c0,0-3-6.333-8-9
		c0,0-21.583-12.792-24.75-28.125c0,0-1.875-8.375,0.75-10.375c0,0,3.5-6,21.667,12c0,0,8.885,11.125,12.552,34.125L112.146,82.083z
		"/>
</g>
<g>
	<path fill="#A7A9AC" d="M362.847,336.607c0,0-5.688-9.898-39.928-24.713c0,0-33.578-13.168-39.831-45.759
		c0,0-16.636-96.496,2.457-160.358c0,0-24.023-6.757-56.055-7.257c0,0-57.669,1.045-86.638-7.187c0,0-38.476-11.332-41.571-14.502
		c0,0-7.632,16.433-4.67,47.046c0,0-5.607,57.325-3.139,79.053c0,0,3.457,10.862,0.494,12.838c0,0-10.152,8.612-6.531,20.136
		l5.38,16.076c0,0,1.151,4.277-2.304,5.598c0,0-12.52,3.879-7.747,11.943c0,0,4.671,6.34,0.668,20.975
		c0,0-20.395,48.299-23.357,63.441c0,0-11.702,7.992-13.347,11.445c0,0,0.213,0.111,0.591,0.303l-1.09-0.299
		c0,0-4.333,5.947-3.333,10.279c1,4.334,25.334,22,124.667,34.334c0,0,44.385,13.705,58.385,17.039
		c-1.375-1.875,0.083-5.166,0.083-5.166s1.292-2.917,2.04-3.896c15.553-22.873,62.591-32.471,62.591-32.471
		c6.769-0.967,52.849,0.082,52.849,0.082c11.604-0.32,17.728-6.771,17.728-6.771C370.905,371.408,362.847,336.607,362.847,336.607z"
		/>
	<path fill="#A7A9AC" d="M310.708,131.312c0,0,0.105-0.382,0.271-0.729c3.711-7.792,0.42-8.958,0.42-8.958l-5.669-4.958
		c0,0-4.5,17.75-4.5,18.833c0,0-8.5,41.5-8.5,46.667l0.666,2.083C294.646,174.75,310.708,131.312,310.708,131.312z"/>
</g>
<g id="suela_hule" display="none">
	<path display="inline" d="M44.729,395.667c0,0-3.833,0.5-4.333,3.501l-2,48.166c0,0,9.333,5.5,51.333,7.165l6.5-10.5h5.5
		l4.167,10.169l32.5,0.331l5.667-9.5h7.167l2.167,9.666l33.5-0.332l21-25c0,0,38,6.416,85.25,11.166l10.75,13.25l33.997,2.5l0.5-10
		l5.75,0.5l9,10.25l35.585,2.334l1-10l4.665-0.665l8.67,9.666h36.666l0.664-9L446.73,449l6.666,8.5l33.334-0.165l2.334-10.5
		l5.333-0.335l6.333,9c0,0,18.666-1.331,25.332-4c0,0,5.334-0.997,6-6.831l0.334-17.835c0,0-0.666-5-5.666-4.165l-0.334-11
		c0,0-82.5,8.831-149.5,7.831c0,0-71.167-1.831-113.5-14.831c0,0-29.25-7.669-58-10.169c0,0-28.75,0.5-37.5-10.75
		c0,0-9.25-12-37.75-11.5c0,0-38.5-3-54-5.5c0,0-26.75-2-26.75-8.5c0,0-5.333-1.416-5.333,3.084c0,0-2.166,1.334-1.333,8.334
		L44.729,395.667z"/>
	<path display="inline" fill="none" d="M1142.729,422.334c0,0,10.666-31.001-32.666-40.667c0,0-48-6.334-62-7.334
		c0,0-38-4-75-29.666c0,0,8.334,35.998-1.666,43.666c0,0-6.334,6.666-18.334,7c0,0-47.668-1.084-54.668-0.084
		c0,0-50.25,10.25-65.5,34.75c0,0,36.168,12,66.5,16c0,0,72.334,9.335,172.668-1.665
		C1072.062,444.334,1121.062,439.668,1142.729,422.334z"/>
</g>
<g id="suela_chinita">
	<path fill="#58595B" d="M525.427,422.224c0,0,8.021,16.043-73.648,36.461c0,0-35.046,7.316-65.145,3.769
		c0,0-125.183-17.258-174.041-29.653c0,0-41.565-10.209-68.546-13.125c0,0-59.917-6.32-84.225-18.961
		c0,0-20.418-8.751-16.407-26.253c0,0,2.188,6.562,17.501,10.574c0,0,39.378,13.731,85.076,20.541c0,0,43.267,8.265,66.116,16.526
		c0,0,115.216,28.195,201.75,26.738C413.857,448.842,478.027,447.625,525.427,422.224z"/>
</g>
<g>
	<path fill="#6D6E71" d="M257.344,132.959c-5.108,0-9.264-4.155-9.264-9.264s4.156-9.264,9.264-9.264
		c5.108,0,9.264,4.155,9.264,9.264S262.452,132.959,257.344,132.959z M257.344,118.431c-2.902,0-5.264,2.36-5.264,5.264
		s2.361,5.264,5.264,5.264c2.903,0,5.264-2.36,5.264-5.264S260.247,118.431,257.344,118.431z"/>
</g>
<g>
	<path fill="#6D6E71" d="M258.095,235.834c-4.856,0-8.806-3.949-8.806-8.806c0-4.855,3.95-8.806,8.806-8.806
		c4.855,0,8.806,3.949,8.806,8.806S262.951,235.834,258.095,235.834z M258.095,222.222c-2.65,0-4.806,2.155-4.806,4.806
		s2.156,4.806,4.806,4.806c2.65,0,4.806-2.155,4.806-4.806S260.745,222.222,258.095,222.222z"/>
</g>
<g>
	<path fill="#6D6E71" d="M264.761,265.168c-4.855,0-8.806-3.949-8.806-8.807c0-4.854,3.95-8.805,8.806-8.805
		c4.856,0,8.806,3.949,8.806,8.805C273.567,261.219,269.617,265.168,264.761,265.168z M264.761,251.557
		c-2.65,0-4.806,2.154-4.806,4.805s2.156,4.807,4.806,4.807c2.65,0,4.806-2.155,4.806-4.807
		C269.567,253.712,267.411,251.557,264.761,251.557z"/>
</g>
<g>
	<path fill="#6D6E71" d="M278.928,295c-4.121,0-7.473-4.154-7.473-9.264s3.353-9.264,7.473-9.264c4.12,0,7.473,4.154,7.473,9.264
		S283.049,295,278.928,295z M278.928,280.473c-1.883,0-3.473,2.409-3.473,5.264c0,2.854,1.59,5.264,3.473,5.264
		c1.883,0,3.473-2.41,3.473-5.264C282.401,282.883,280.811,280.473,278.928,280.473z"/>
</g>
<g>
	<path fill="#6D6E71" d="M299.343,313.408c-2.596,0-5.396-1.795-7.31-4.685c-1.203-1.817-1.896-3.853-1.947-5.729
		c-0.062-2.19,0.772-4.022,2.288-5.025c0.785-0.521,1.729-0.796,2.725-0.796c2.596,0,5.396,1.796,7.31,4.686
		c1.202,1.816,1.895,3.853,1.946,5.729c0.062,2.192-0.771,4.024-2.287,5.026C301.281,313.133,300.34,313.408,299.343,313.408z
		 M295.099,301.174c-0.216,0-0.385,0.044-0.517,0.131c-0.333,0.221-0.519,0.812-0.497,1.58c0.031,1.122,0.499,2.446,1.284,3.633
		c1.521,2.297,3.731,3.266,4.489,2.762c0.332-0.221,0.519-0.811,0.496-1.579c-0.03-1.123-0.5-2.448-1.283-3.634
		C297.815,302.167,296.122,301.174,295.099,301.174z"/>
</g>
<g>
	<path fill="#6D6E71" d="M322.41,329.908c-2.256,0-4.791-0.953-6.954-2.615c-1.896-1.456-3.338-3.316-4.06-5.239
		c-0.832-2.217-0.63-4.372,0.558-5.916c1.043-1.357,2.722-2.104,4.728-2.104c2.257,0,4.79,0.953,6.953,2.614
		c4.258,3.271,5.796,8.171,3.503,11.156C326.096,329.16,324.416,329.908,322.41,329.908z M316.682,318.032
		c-0.426,0-1.192,0.07-1.556,0.542c-0.326,0.424-0.32,1.18,0.016,2.073c0.455,1.214,1.458,2.479,2.751,3.474
		c1.457,1.119,3.146,1.787,4.519,1.787c0.425,0,1.192-0.07,1.556-0.542c0.674-0.878-0.068-3.475-2.768-5.548
		C319.742,318.7,318.054,318.032,316.682,318.032z"/>
</g>
<g>
	<path fill="#6D6E71" d="M348.148,342.929c-2.021,0-4.233-0.666-6.236-1.875c-4.595-2.774-6.67-7.473-4.725-10.693
		c1.024-1.699,3.005-2.674,5.43-2.674c2.019,0,4.232,0.666,6.234,1.875c4.595,2.773,6.671,7.472,4.726,10.693
		C352.551,341.955,350.572,342.929,348.148,342.929z M342.617,331.687c-0.977,0-1.727,0.276-2.006,0.741
		c-0.571,0.945,0.457,3.442,3.369,5.201c1.366,0.825,2.886,1.3,4.168,1.3c0.976,0,1.725-0.276,2.005-0.74
		c0.57-0.946-0.457-3.444-3.369-5.203C345.417,332.16,343.898,331.687,342.617,331.687z"/>
</g>
<g>
	<path fill="#6D6E71" d="M256.095,200.834c-4.856,0-8.806-3.949-8.806-8.806c0-4.855,3.95-8.806,8.806-8.806
		c4.855,0,8.806,3.949,8.806,8.806S260.951,200.834,256.095,200.834z M256.095,187.222c-2.65,0-4.806,2.155-4.806,4.806
		s2.156,4.806,4.806,4.806c2.65,0,4.806-2.155,4.806-4.806S258.745,187.222,256.095,187.222z"/>
</g>
<g>
	<path fill="#6D6E71" d="M256.845,164.334c-4.856,0-8.806-3.949-8.806-8.806c0-4.855,3.95-8.806,8.806-8.806
		c4.855,0,8.806,3.949,8.806,8.806S261.701,164.334,256.845,164.334z M256.845,150.722c-2.65,0-4.806,2.155-4.806,4.806
		s2.156,4.806,4.806,4.806c2.65,0,4.806-2.155,4.806-4.806S259.495,150.722,256.845,150.722z"/>
</g>
<g>
	<path fill="#C7C8CA" d="M346.251,319.125c0,0-3.718-3.125-3.718-4.311c0,0-1.271-4.057-8.534-8.703c0,0-0.439,0.225-1.044,0.602
		c-1.791-4.188-7.146-17.031-7.4-21.411c0.062-0.256,0.805-3.538-1.146-6.947c0,0-4.689-8.492-7.228-11.535
		c0,0-5.703-16.098-7.098-23.575c0,0-3.296-9.887-4.815-14.196c0,0-2.535-15.21-4.311-18.759c0.003,0-2.902-7.964-2.396-13.288
		c0,0-3.709-3.583-6.584-3.583c0,0-1.605,1.09,0.25,6.667c0,0,0.127,1.099,0.293,2.886c-2.299,1.487-5.961,0.769-7.643,0.319
		c-0.479-3.645-1.16-7.63-2.124-11.853c0.366,1.469,0.646,2.693,0.718,3.262c0,0,9.127-1.394,13.31-4.943
		c0,0,4.942-3.042,6.339-3.168c0,0,5.323-0.888,3.422-5.831c0,0-4.438-8.238-4.688-10.14c-0.004-0.001-2.941-2.328-4.082-2.074
		c0,0-2.07,5.083-2.625,8.542c0,0,1.125,3.038-1.154,4.56c0,0-5.479,0.948-12.966,0.662c2.195-2.929,4.303-6.663,4.303-6.663
		c1.713-2.729,2.282-5.407,2.326-7.691c3.046-1.649,15.206-9.124,15.206-9.124c1.81-0.903,1-3.816,0.803-4.438
		c1.633-0.685,3.133-1.454,4.396-2.321c0,0,7.016-4.563,7.521-10.225c0,0,0.021-5.324-4.668-9.634c0,0-6.654-6.4-16.604-3.929
		c0,0-1.438,0.202-2.248,0.482c-3.143-2.085-6.562-4.148-10.039-5.888c-1.188,9.802-1.938,8.812-2.5,15.25
		c0,0,8.003,4.394,10.708,4.9c0,0,2.024,0.676,2.024,1.521c0,0,4.978-0.23,9.365-1.566c-2.679,0.877-6.666,1.697-12.32,1.735
		l-10.529,0.41c0,0-0.852,4.58-0.484,8.585c-1.943-1.052-3.816-1.791-5.184-2.26c-2.091-7.958-4.014-14.535-5.099-16.455
		c0.001,0.002-3.294-8.11-4.14-11.236c0,0-2.535-6.423-8.112-2.366c0,0-2.535,2.873-2.703,5.238c0,0-0.339,1.69-1.521,2.197
		c0,0-1.436,0.169,0.507,6.761c0,0,3.549,10.816,4.817,15.125c0,0,3.042,12.929,4.816,15.718c0,0,2.281,7.352,2.281,10.646
		c0-1.241,0-3.296,0-3.296s3.465,14.703,7.184,19.604c0,0,0.071,0.167,0.196,0.484c-1.124,0.253-2.958,0.496-4.844,0.024
		c0,0-3.296-2.62-3.549-3.507c0-0.001-2.156-1.903-4.691-1.522c0,0-6.844,1.142-5.957,6.591c0,0,0.127,3.677,6.845,4.311
		c0,0,3.295,0.253,6.337,2.535c0,0,7.224,2.914,9.834,5.257c0.617,3.004,1.136,6.33,1.405,9.825c0,0,0.826,8.18,2.477,18.421
		c-1.184-0.167-2.935-0.656-3.956-2.07c0,0.001-8.239-7.858-8.873-8.872c0,0-4.689-5.831-10.394,1.901c0,0-1.901,3.296,3.042,8.493
		c0,0,3.296,5.956,11.281,10.646c0,0,5.577,3.042,6.591,5.577c0,0,0.633,0.444,1.654,1.031c-1.732-0.33-3.881-0.463-6.47-0.146
		c0,0-5.07-0.762-6.592,0.254c0.001,0-2.787,1.396-2.914,4.689c0,0-0.715,2.857,5.252,5.576c0.187,0.084,0.379,0.168,0.579,0.254
		c6.591,2.789,4.689,2.662,6.591,3.168c0,0,7.287,0.178,11.442-0.211c0.465,1.195,0.945,2.317,1.442,3.338
		c0,0,1.525-0.099,2.865-0.514c-0.737,0.275-1.697,0.516-2.865,0.516c0,0,1.218,3.726,3.086,8.74
		c-4.215,1.022-9.192,2.372-10.647,3.342c0,0-1.268,1.9-3.676,2.916c0,0-1.394,3.803,2.789,5.196c0,0,3.295,1.521,7.099,1.521
		c0,0,4.324-1.062,8.682-2.385c1.699,3.896,3.531,7.661,5.32,10.513c-0.216,0.407-0.295,0.854-0.146,1.337
		c0,0-0.763,0.762-1.772,0.762c-0.002-0.003-3.043,1.771-3.634,3.888c0,0,0.337,3.549,3.804,4.057c0,0,1.098-1.016,3.295-0.762
		c0,0,6.083,0.34,8.955-1.016c0,0,6.933-3.973,7.943-2.872c0,0,1.689,1.604,2.789,1.015c0,0-0.339-3.635-1.521-5.322
		c0,0-0.592-1.186-3.719-1.774c0,0-4.141-6.507-8.45-3.972c0,0-0.845,1.354-3.463,2.027c0,0-0.287,0.089-0.709,0.253
		c-1.16-1.85-3.07-5.093-5.06-9.306c2.438-0.851,4.44-1.708,5.049-2.398c0,0,3.169-3.803,1.521-6.211c0,0-4.438-1.9-7.984-2.281
		c0,0-1.079,0.229-2.697,0.593c-0.062-0.193-0.125-0.393-0.187-0.589c2.872,0.062,6.431-1.522,6.431-1.522
		c7.002-4.271,6.18-13.021,4.896-18.282c0.457,1.027,0.938,2.062,1.44,3.071c0,0,5.577,8.491,6.084,9c0,0,1.901,2.914,2.155,7.225
		c0,0,2.014,4.906,6.289,10.581c-0.025,0.079-0.055,0.149-0.077,0.235c0,0,6.718,18.758,8.111,21.42c0,0,0.267,0.102,0.662,0.196
		c-0.646,0.685-1.112,1.445-1.085,2.211c0,0-3.974-1.269-5.999,1.185c0,0-2.028,3.041-3.467,2.873c0.002,0-2.364,0.76-3.548,2.871
		c0,0-2.915,3.17,3.296,4.438c0,0,3.549,0.382,4.689,1.144c0,0,1.395,1.142,4.94-1.017c0,0,5.45-4.813,10.9-3.803
		c0,0,5.24,3.297,6.254,3.551C346.505,322.084,347.943,320.984,346.251,319.125z M295.962,231.481
		c0.646,0.845,1.346,1.928,2.055,3.306C297.265,233.398,296.576,232.319,295.962,231.481z M293.274,222.182
		c-0.09,2.353-0.283,4.552-0.629,6.38l0,0c0,0,0,0,0,0.001l0,0l0,0c0.03,3.407,0.188,7.749,0.188,7.749
		c-0.689,1.382-1.9,2.5-2.406,2.93c-0.83-0.354-1.499-0.552-1.986-0.666c-0.756-4.58-1.605-9.183-2.539-13.404
		C288.243,221.865,291.26,221.753,293.274,222.182z M286.343,161.446c-0.416-0.91-0.947-1.751-1.559-2.53
		c1.273-0.166,2.802-0.386,4.477-0.672c-2.41,0.439-4.145,0.711-4.145,0.711c0.519,0.829,0.926,1.695,1.254,2.548
		C286.356,161.476,286.343,161.446,286.343,161.446z M294.196,157.272c3.031-0.68,6.181-1.561,8.978-2.686
		C301.649,155.514,297.896,156.483,294.196,157.272z M299.501,134.07c0.062-0.224,0.188-0.466,0.445-0.53
		c0,0,3.803-1.078,6.254,1.204c0,0,4.518,3.646,0.172,5.94c0.209-0.171,0.408-0.348,0.586-0.533
		C306.958,140.152,304.019,137.514,299.501,134.07z"/>
	<path fill="#C7C8CA" d="M357.426,326.011c0,0-3.482-4.755-4.94-5.263c0,0-2.534-1.521-4.562,2.22c0,0-5.261,6.212-5.134,7.226
		c0,0,0.316,1.457-1.204,2.346c0,0-0.95,1.459,2.155,3.549c0,0,3.422,2.281,4.94,0.316c0,0,1.457-0.949,2.788-0.568
		c0,0,1.711,0.568,1.838-2.854c0,0,1.774-2.789,3.426-3.17C356.731,329.812,358.569,328.355,357.426,326.011z"/>
</g>
</svg>
