<?xml version="1.0" encoding="utf-8"?>
<!-- Generator: Adobe Illustrator 15.0.0, SVG Export Plug-In . SVG Version: 6.00 Build 0)  -->
<!DOCTYPE svg PUBLIC "-//W3C//DTD SVG 1.1//EN" "http://www.w3.org/Graphics/SVG/1.1/DTD/svg11.dtd">
<svg version="1.1" id="Layer_1" xmlns="http://www.w3.org/2000/svg" xmlns:xlink="http://www.w3.org/1999/xlink" x="0px" y="0px"
	 width="562.396px" height="486.082px" viewBox="0 0 562.396 486.082" enable-background="new 0 0 562.396 486.082"
	 xml:space="preserve">
<g id="suela_leñaor">
	<path fill="#C7C8CA" d="M527.851,412.533c0,0,14.475,7.261,0.482,17.426c0,0-7.72,16.459-109.51,22.75
		c0,0-93.106,0.484-119.156-1.936c0,0-44.866-1.938-81.047-19.848c0,0-35.539-15.974-51.62-18.877c0,0-13.025,7.741-16.884,9.194
		c0,0-5.789,3.873-12.784,3.631c0,0-46.233-4.112-61.026-9.278c0,0-17.045-1.289-22.834-16.457c0,0-6.754-21.943-7.076-34.206
		c0,0,64.162,18.068,79.118,20.49c0,0,38.593,7.906,61.749,18.56c0,0,82.012,32.914,118.998,32.271c0,0,34.091,2.903,81.366,2.26
		c0,0,89.732-3.228,117.068-14.847C504.694,423.666,526.244,415.595,527.851,412.533z"/>
</g>
<g id="punta">
	<path fill="#BCBEC0" d="M527.396,414.25c0,0,11.184-32.758-31.104-42.189c0,0-46.842-6.184-60.505-7.157
		c0,0-37.083-3.902-73.19-28.949c0,0,8.135,35.131-1.626,42.611c0,0-6.182,6.506-17.893,6.831c0,0-46.517-1.059-53.349-0.08
		c0,0-49.04,10.002-63.92,33.911c0,0,34.982,14.998,64.584,18.9c0,0,70.589,9.108,168.503-1.628
		C458.896,436.5,506.252,431.166,527.396,414.25z"/>
</g>
<g id="lengueta">
	<path fill="#58595B" d="M225.396,98.5c0,0,17.5-9.75,46.5-5.25c0,0,19,3.5,34,17c0,0,2.17,1.417-0.166,6.417
		c0,0-19.334,71.833-12.834,99.833c0,0-4.5,75,25.002,92.5l-33.502-10L225.396,98.5z"/>
</g>
<g id="trasero">
	<path fill="#58595B" d="M46.729,365.104c1.644-3.452,13.334-11.438,13.334-11.438c2.959-15.127,23.334-63.379,23.334-63.379
		c3.999-14.621-0.668-20.953-0.668-20.953c-4.769-8.058,7.739-11.934,7.739-11.934c3.453-1.316,2.302-5.592,2.302-5.592
		l-5.375-16.061c-3.618-11.511,6.525-20.116,6.525-20.116c2.96-1.973-0.493-12.824-0.493-12.824
		c-2.466-21.706,3.135-78.976,3.135-78.976c-2.959-30.584,4.666-47,4.666-47s-4.5,1.333-6.333,9.667c0,0-2.5,19.25-1,31.75
		c0,0,2.25,5.25-0.5,7.5c0,0-3,1.5-2.25,7.5c0,0,0.25,26-2.75,40.75c0,0-2,15.5,0.25,22c0,0,3.185,10.692,0.224,19.49
		c-0.143,0.425-0.301,0.846-0.474,1.26c-3.75,9-9.5,17.25-5.5,27c0,0,6.167,12.416,1,13.75c0,0-11,6.332-11.5,15.832l-28,85.334
		L46.729,365.104z"/>
</g>
<g id="circulo">
	<path fill="#414042" d="M112.146,82.083c0,0-7.5-30.583-9-37.083c0,0-3-23.25-20.75-25.5c0,0-22.5-2.75-29.25,15.25
		c0,0-6,14.5,3.25,23.5c0,0,5.334,5.583,16.667,11.75c0,0,21.583,11.083,22.083,15.75c0,0,2.583-6.25,3.75-7.25c0,0-3-6.333-8-9
		c0,0-21.583-12.792-24.75-28.125c0,0-1.875-8.375,0.75-10.375c0,0,3.5-6,21.667,12c0,0,8.885,11.125,12.552,34.125L112.146,82.083z
		"/>
</g>
<g id="largo">
	<path fill="#A7A9AC" stroke="#A7A9AC" stroke-miterlimit="10" d="M227.338,419.103c14.744-23.687,63.325-33.597,63.325-33.597
		c6.768-0.967,52.849,0.082,52.849,0.082c11.603-0.321,17.727-6.77,17.727-6.77c9.668-7.412,1.608-42.213,1.608-42.213
		s-5.688-9.898-39.928-24.712c0,0-33.578-13.169-39.831-45.759c0,0-16.636-96.496,2.457-160.358c0,0-24.023-6.757-56.055-7.257
		c0,0-57.669,1.045-86.638-7.187c0,0-38.476-11.332-41.571-14.502c0,0-7.632,16.433-4.67,47.046c0,0-5.607,57.325-3.139,79.053
		c0,0,3.457,10.862,0.494,12.838c0,0-10.152,8.612-6.531,20.136l5.38,16.075c0,0,1.151,4.278-2.304,5.598
		c0,0-12.52,3.879-7.747,11.943c0,0,4.671,6.34,0.668,20.975c0,0-20.395,48.299-23.357,63.441c0,0-11.702,7.993-13.347,11.446
		c0,0,33.341,17.646,100.167,26.865c0,0,25.256,3.916,42.374,13.791c0,0,18.434,8.396,35.716,12.677L227.338,419.103z"/>
	<path fill="#BCBEC0" d="M293.396,184.25c1.25-9.5,17.312-52.938,17.312-52.938s0.105-0.382,0.271-0.729
		c3.71-7.792,0.419-8.958,0.419-8.958l-5.668-4.958c0,0-4.5,17.75-4.5,18.833s0,0,0,0s-8.5,41.5-8.5,46.667L293.396,184.25z"/>
</g>
<g id="suela_hule" display="none">
	<path display="inline" d="M44.729,395.667c0,0-3.833,0.5-4.333,3.501l-2,48.166c0,0,9.333,5.5,51.333,7.165l6.5-10.5h5.5
		l4.167,10.169l32.5,0.331l5.667-9.5h7.167l2.167,9.666l33.5-0.332l21-25c0,0,38,6.416,85.25,11.166l10.75,13.25l33.998,2.5l0.5-10
		l5.75,0.5l9,10.25l35.585,2.334l1-10l4.665-0.665l8.669,9.666h36.666l0.665-9L446.73,449l6.666,8.5l33.334-0.165l2.334-10.5
		l5.333-0.335l6.333,9c0,0,18.666-1.331,25.332-4c0,0,5.334-0.997,6-6.831l0.334-17.835c0,0-0.666-5-5.666-4.165l-0.334-11
		c0,0-82.5,8.831-149.5,7.831c0,0-71.167-1.831-113.5-14.831c0,0-29.25-7.669-58-10.169c0,0-28.75,0.5-37.5-10.75
		c0,0-9.25-12-37.75-11.5c0,0-38.5-3-54-5.5c0,0-26.75-2-26.75-8.5c0,0-5.333-1.416-5.333,3.084c0,0-2.166,1.334-1.333,8.334
		L44.729,395.667z"/>
	<path display="inline" fill="none" d="M1142.729,422.334c0,0,10.666-31.001-32.666-40.667c0,0-48-6.334-62-7.334
		c0,0-38-4-75-29.666c0,0,8.334,35.998-1.666,43.666c0,0-6.334,6.666-18.334,7c0,0-47.668-1.084-54.668-0.084
		c0,0-50.25,10.25-65.5,34.75c0,0,36.168,12,66.5,16c0,0,72.334,9.335,172.668-1.665
		C1072.062,444.334,1121.062,439.668,1142.729,422.334z"/>
</g>
<g>
	<path fill="#6D6E71" d="M257.344,132.959c5.108,0,9.264-4.155,9.264-9.264s-4.156-9.264-9.264-9.264
		c-5.108,0-9.264,4.155-9.264,9.264S252.236,132.959,257.344,132.959z M257.344,118.431c2.903,0,5.264,2.36,5.264,5.264
		s-2.361,5.264-5.264,5.264c-2.903,0-5.264-2.36-5.264-5.264S254.442,118.431,257.344,118.431z"/>
	<path fill="#6D6E71" d="M266.901,227.028c0-4.856-3.951-8.806-8.806-8.806c-4.856,0-8.806,3.95-8.806,8.806
		c0,4.856,3.95,8.806,8.806,8.806C262.951,235.834,266.901,231.885,266.901,227.028z M253.289,227.028
		c0-2.65,2.156-4.806,4.806-4.806c2.65,0,4.806,2.155,4.806,4.806s-2.156,4.806-4.806,4.806
		C255.445,231.834,253.289,229.678,253.289,227.028z"/>
	<path fill="#6D6E71" d="M264.761,247.555c-4.856,0-8.806,3.949-8.806,8.806c0,4.855,3.951,8.806,8.806,8.806
		c4.856,0,8.806-3.95,8.806-8.806C273.567,251.505,269.617,247.555,264.761,247.555z M264.761,261.168
		c-2.65,0-4.806-2.155-4.806-4.806s2.156-4.806,4.806-4.806c2.65,0,4.806,2.155,4.806,4.806S267.411,261.168,264.761,261.168z"/>
	<path fill="#6D6E71" d="M278.928,276.472c-4.12,0-7.473,4.154-7.473,9.264s3.352,9.264,7.473,9.264
		c4.121,0,7.473-4.154,7.473-9.264S283.048,276.472,278.928,276.472z M278.928,291c-1.883,0-3.473-2.41-3.473-5.264
		c0-2.854,1.59-5.264,3.473-5.264c1.883,0,3.473,2.409,3.473,5.264C282.401,288.59,280.811,291,278.928,291z"/>
	<path fill="#6D6E71" d="M295.089,297.168c-0.996,0-1.938,0.274-2.723,0.794c-1.516,1.003-2.35,2.835-2.288,5.027
		c0.052,1.877,0.743,3.912,1.946,5.729c1.914,2.89,4.715,4.685,7.311,4.685c0.996,0,1.938-0.276,2.725-0.795
		c2.907-1.925,3.058-6.649,0.34-10.755C300.487,298.963,297.687,297.168,295.089,297.168z M299.851,309.272
		c-0.765,0.507-2.969-0.465-4.49-2.761c-0.784-1.187-1.252-2.511-1.283-3.635c-0.021-0.768,0.164-1.358,0.496-1.579
		c0.133-0.088,0.302-0.13,0.516-0.13c1.023,0,2.719,0.994,3.975,2.893C300.649,306.458,300.587,308.785,299.851,309.272z"/>
	<path fill="#6D6E71" d="M323.638,316.641c-2.163-1.662-4.697-2.615-6.954-2.615c-2.006,0-3.686,0.748-4.729,2.105
		c-2.293,2.985-0.755,7.887,3.503,11.157c2.162,1.661,4.696,2.613,6.952,2.613c2.007,0,3.687-0.748,4.729-2.105
		c1.188-1.544,1.391-3.699,0.559-5.916C326.976,319.958,325.534,318.097,323.638,316.641z M323.969,325.359
		c-0.363,0.473-1.132,0.543-1.558,0.543c-1.372,0-3.062-0.667-4.517-1.785c-2.698-2.073-3.441-4.672-2.768-5.549
		c0.363-0.473,1.131-0.543,1.557-0.543c1.372,0,3.061,0.668,4.519,1.787c1.293,0.994,2.296,2.26,2.751,3.474
		C324.289,324.179,324.295,324.935,323.969,325.359z"/>
	<path fill="#6D6E71" d="M348.864,329.54c-2.002-1.21-4.216-1.876-6.236-1.876c-2.424,0-4.404,0.975-5.43,2.673
		c-1.946,3.223,0.129,7.921,4.724,10.697c2.002,1.209,4.215,1.875,6.234,1.875c2.425,0,4.406-0.975,5.432-2.674
		C355.534,337.013,353.459,332.314,348.864,329.54z M350.164,338.167c-0.28,0.465-1.031,0.742-2.008,0.742
		c-1.281,0-2.8-0.474-4.166-1.299c-2.912-1.76-3.94-4.258-3.368-5.205c0.28-0.464,1.03-0.741,2.006-0.741
		c1.282,0,2.801,0.474,4.168,1.3C349.708,334.723,350.735,337.221,350.164,338.167z"/>
	<path fill="#6D6E71" d="M256.095,200.834c4.856,0,8.806-3.949,8.806-8.806s-3.951-8.806-8.806-8.806
		c-4.856,0-8.806,3.95-8.806,8.806C247.289,196.885,251.239,200.834,256.095,200.834z M256.095,187.222
		c2.65,0,4.806,2.155,4.806,4.806s-2.156,4.806-4.806,4.806c-2.65,0-4.806-2.155-4.806-4.806S253.445,187.222,256.095,187.222z"/>
	<path fill="#6D6E71" d="M256.845,164.334c4.856,0,8.806-3.949,8.806-8.806s-3.951-8.806-8.806-8.806
		c-4.856,0-8.806,3.95-8.806,8.806C248.039,160.385,251.989,164.334,256.845,164.334z M256.845,150.722
		c2.65,0,4.806,2.155,4.806,4.806s-2.156,4.806-4.806,4.806c-2.65,0-4.806-2.155-4.806-4.806S254.195,150.722,256.845,150.722z"/>
</g>
<g>
	<path fill="#C7C8CA" d="M346.252,319.125c0,0-3.718-3.125-3.718-4.31c0,0-1.27-4.056-8.534-8.703c0,0-0.439,0.225-1.044,0.602
		c-1.791-4.187-7.147-17.03-7.401-21.412c0.062-0.259,0.803-3.54-1.146-6.946c0,0-4.689-8.491-7.227-11.534
		c0,0-5.704-16.098-7.098-23.576c0,0-3.296-9.887-4.816-14.196c0,0-2.535-15.21-4.31-18.759c0.002-0.001-2.903-7.965-2.397-13.289
		c0,0-3.709-3.583-6.584-3.583c0,0-1.606,1.09,0.25,6.667c0,0,0.127,1.099,0.293,2.886c-2.299,1.487-5.961,0.77-7.643,0.319
		c-0.475-3.619-1.15-7.573-2.104-11.761c0.354,1.427,0.625,2.614,0.694,3.17c0,0,9.128-1.394,13.31-4.943
		c0,0,4.943-3.042,6.339-3.168c0,0,5.323-0.888,3.422-5.831c0,0-4.437-8.238-4.688-10.14c-0.002-0.001-2.938-2.328-4.08-2.074
		c0,0-2.07,5.083-2.625,8.542c0,0,1.125,3.038-1.154,4.56c0,0-5.479,0.947-12.965,0.662c2.196-2.929,4.303-6.663,4.303-6.663
		c1.713-2.729,2.281-5.407,2.326-7.69c3.046-1.649,15.205-9.125,15.205-9.125c1.811-0.904,1-3.816,0.804-4.438
		c1.633-0.685,3.133-1.454,4.396-2.321c0,0,7.015-4.563,7.521-10.225c0,0,0.021-5.324-4.668-9.634c0,0-6.654-6.4-16.604-3.929
		c0,0-1.438,0.202-2.25,0.482c-3.142-2.085-6.562-4.148-10.037-5.888c-1.188,9.802-1.938,8.812-2.5,15.25
		c0,0,8.002,4.394,10.708,4.9c0,0,2.026,0.676,2.026,1.521c0,0,4.97-0.229,9.354-1.563c-2.678,0.876-6.662,1.694-12.312,1.732
		l-10.529,0.41c0,0-0.852,4.581-0.484,8.585c-1.942-1.051-3.815-1.79-5.183-2.26c-2.091-7.958-4.014-14.534-5.099-16.454
		c0,0.001-3.295-8.111-4.141-11.237c0,0-2.535-6.423-8.112-2.366c0,0-2.535,2.873-2.703,5.238c0,0-0.339,1.69-1.521,2.197
		c0,0-1.436,0.169,0.507,6.761c0,0,3.549,10.816,4.817,15.125c0,0,3.042,12.929,4.816,15.718c0,0,2.281,7.352,2.281,10.646
		c0-1.241,0-3.296,0-3.296s3.465,14.703,7.184,19.604c0,0,0.071,0.167,0.196,0.484c-1.124,0.253-2.958,0.496-4.844,0.024
		c0,0-3.296-2.62-3.549-3.507c0-0.001-2.156-1.903-4.691-1.522c0,0-6.844,1.142-5.957,6.591c0,0,0.127,3.677,6.845,4.311
		c0,0,3.295,0.253,6.337,2.535c0,0,7.224,2.914,9.834,5.257c0.617,3.005,1.136,6.33,1.405,9.825c0,0,0.826,8.18,2.477,18.421
		c-1.184-0.167-2.935-0.656-3.956-2.07c0,0.001-8.239-7.858-8.873-8.872c0,0-4.689-5.831-10.394,1.901c0,0-1.901,3.296,3.042,8.493
		c0,0,3.296,5.956,11.281,10.647c0,0,5.577,3.041,6.591,5.576c0,0,0.633,0.444,1.653,1.031c-1.732-0.331-3.881-0.463-6.468-0.146
		c0,0-5.07-0.761-6.592,0.254c0,0-2.788,1.396-2.915,4.689c0,0-0.715,2.858,5.252,5.577c0.187,0.084,0.379,0.168,0.579,0.254
		c6.591,2.789,4.689,2.662,6.591,3.168c0,0,7.285,0.177,11.442-0.211c0.466,1.194,0.945,2.317,1.443,3.338
		c0,0,1.521-0.099,2.862-0.512c-0.738,0.273-1.697,0.513-2.862,0.513c0,0,1.217,3.726,3.085,8.74
		c-4.215,1.023-9.192,2.373-10.647,3.343c0,0-1.268,1.9-3.676,2.915c0,0-1.394,3.803,2.789,5.197c0,0,3.295,1.521,7.099,1.521
		c0,0,4.325-1.062,8.682-2.385c1.699,3.896,3.533,7.66,5.32,10.512c-0.216,0.406-0.295,0.854-0.146,1.337
		c0,0-0.763,0.762-1.772,0.762c-0.002-0.002-3.043,1.772-3.634,3.888c0,0,0.337,3.549,3.804,4.057c0,0,1.098-1.015,3.295-0.761
		c0,0,6.083,0.339,8.955-1.016c0,0,6.932-3.973,7.943-2.872c0,0,1.689,1.604,2.789,1.014c0,0-0.339-3.634-1.521-5.322
		c0,0-0.592-1.185-3.719-1.774c0,0-4.141-6.507-8.449-3.972c0,0-0.846,1.354-3.464,2.027c0,0-0.287,0.089-0.709,0.253
		c-1.16-1.85-3.07-5.093-5.06-9.306c2.438-0.85,4.44-1.708,5.049-2.398c0,0,3.169-3.803,1.521-6.211c0,0-4.437-1.9-7.984-2.281
		c0,0-1.079,0.229-2.695,0.593c-0.063-0.194-0.125-0.394-0.188-0.59c2.874,0.062,6.432-1.522,6.432-1.522
		c7-4.27,6.18-13.017,4.897-18.275c0.456,1.025,0.937,2.06,1.438,3.065c0,0,5.577,8.492,6.084,9c0,0,1.901,2.915,2.155,7.225
		c0,0,2.014,4.906,6.288,10.582c-0.024,0.079-0.054,0.148-0.076,0.234c0,0,6.718,18.759,8.111,21.421c0,0,0.267,0.102,0.663,0.196
		c-0.646,0.684-1.112,1.446-1.085,2.211c0,0-3.974-1.269-5.999,1.184c0,0-2.029,3.041-3.467,2.873c0.001,0-2.365,0.76-3.549,2.872
		c0,0-2.915,3.169,3.296,4.437c0,0,3.55,0.382,4.689,1.143c0,0,1.395,1.142,4.941-1.016c0,0,5.45-4.814,10.9-3.803
		c0,0,5.24,3.297,6.254,3.551C346.506,322.083,347.943,320.984,346.252,319.125z M295.962,231.481
		c0.646,0.845,1.346,1.927,2.053,3.304C297.265,233.397,296.576,232.319,295.962,231.481z M293.274,222.182
		c-0.09,2.353-0.283,4.552-0.629,6.38l0,0c0,0,0,0,0,0.001l0,0l0,0c0.03,3.407,0.188,7.749,0.188,7.749
		c-0.689,1.382-1.9,2.499-2.406,2.93c-0.83-0.353-1.499-0.552-1.986-0.666c-0.756-4.581-1.605-9.184-2.539-13.405
		C288.244,221.865,291.26,221.753,293.274,222.182z M286.343,161.446c-0.416-0.91-0.947-1.751-1.559-2.53
		c1.273-0.166,2.802-0.386,4.477-0.672c-2.41,0.439-4.145,0.711-4.145,0.711c0.519,0.829,0.926,1.695,1.254,2.548
		C286.356,161.476,286.343,161.446,286.343,161.446z M294.196,157.272c3.031-0.68,6.181-1.561,8.978-2.686
		C301.649,155.514,297.896,156.483,294.196,157.272z M299.501,134.07c0.062-0.224,0.188-0.466,0.445-0.53
		c0,0,3.803-1.078,6.254,1.204c0,0,4.517,3.646,0.175,5.938c0.208-0.17,0.407-0.346,0.584-0.531
		C306.959,140.152,304.019,137.514,299.501,134.07z"/>
	<path fill="#C7C8CA" d="M357.427,326.011c0,0-3.483-4.755-4.941-5.263c0,0-2.534-1.521-4.562,2.22c0,0-5.261,6.211-5.134,7.226
		c0,0,0.317,1.457-1.204,2.345c0,0-0.95,1.459,2.155,3.549c0,0,3.422,2.281,4.941,0.317c0,0,1.457-0.95,2.788-0.569
		c0,0,1.711,0.569,1.838-2.854c0,0,1.774-2.788,3.425-3.169C356.731,329.813,358.569,328.356,357.427,326.011z"/>
</g>
</svg>
