<?xml version="1.0" encoding="utf-8"?>
<!-- Generator: Adobe Illustrator 15.0.0, SVG Export Plug-In . SVG Version: 6.00 Build 0)  -->
<!DOCTYPE svg PUBLIC "-//W3C//DTD SVG 1.1//EN" "http://www.w3.org/Graphics/SVG/1.1/DTD/svg11.dtd">
<svg version="1.1" id="Layer_1" xmlns="http://www.w3.org/2000/svg" xmlns:xlink="http://www.w3.org/1999/xlink" x="0px" y="0px"
	 width="576px" height="576px" viewBox="0 0 576 576" enable-background="new 0 0 576 576" xml:space="preserve">
<g id="punta">
	<path fill="none" stroke="#262262" stroke-miterlimit="10" d="M1079.751,602.235c0,0,10.408-30.255-31.88-39.688
		c0,0-46.842-6.183-60.505-7.157c0,0-37.083-3.901-73.19-28.949c0,0,8.133,35.131-1.626,42.611c0,0-6.182,6.506-17.893,6.831
		c0,0-46.519-1.058-53.35-0.08c0,0-49.038,10.002-63.921,33.911c0,0,35.295,11.711,64.896,15.613c0,0,70.589,9.107,168.503-1.627
		C1010.788,623.703,1058.607,619.151,1079.751,602.235z"/>
	<path fill="#BCBEC0" d="M862,247"/>
	<g>
		<path fill="#BCBEC0" d="M564.45,408.927c1.374-7.729,1.857-29.192-32.556-36.868c0,0-46.843-6.183-60.506-7.156
			c0,0-37.083-3.902-73.188-28.95c0,0,8.133,35.131-1.626,42.612c0,0-6.184,6.506-17.895,6.83c0,0-46.517-1.058-53.348-0.08
			c0,0-49.039,10.002-63.921,33.911c0,0,0.629,0.208,1.764,0.571c-1.373,2.729-2.971,6.562-2.677,9.202c0,0,74.5,22.5,217.5,17
			c0,0,76.066,0.49,85.533-33.755l-0.411,0.008c0.175-0.136,0.35-0.27,0.521-0.404c-0.003,0.013-0.006,0.022-0.009,0.035
			c0.003-0.013,0.006-0.022,0.009-0.035c0.045-0.033,0.092-0.067,0.135-0.104C563.775,411.745,564.137,410.695,564.45,408.927"/>
		<path fill="#BCBEC0" d="M563.547,412.196c-0.005,0.018-0.009,0.032-0.014,0.049C563.533,412.245,563.539,412.226,563.547,412.196z
			"/>
		<path fill="#BCBEC0" d="M563.547,412.196c0.029-0.106,0.057-0.207,0.087-0.312C563.591,412.036,563.562,412.141,563.547,412.196z"
			/>
	</g>
</g>
<g id="lengueta">
	<path fill="#58595B" d="M261,98.5c0,0,17.5-9.75,46.5-5.25c0,0,19,3.5,34,17c0,0,2.168,1.417-0.166,6.417
		c0,0-19.334,71.833-12.834,99.833c0,0-4.5,75,25,92.5L320,299L261,98.5z"/>
</g>
<g id="trasero">
	<path fill="#58595B" d="M82.333,365.104c1.644-3.451,13.334-11.438,13.334-11.438c2.959-15.128,23.334-63.379,23.334-63.379
		c3.999-14.621-0.668-20.954-0.668-20.954c-4.769-8.057,7.739-11.933,7.739-11.933c3.453-1.316,2.302-5.592,2.302-5.592L123,235.75
		c-3.618-11.511,6.525-20.115,6.525-20.115c2.96-1.974-0.493-12.825-0.493-12.825c-2.466-21.706,3.135-78.976,3.135-78.976
		c-2.959-30.584,4.666-47,4.666-47s-4.5,1.333-6.333,9.667c0,0-2.5,19.25-1,31.75c0,0,2.25,5.25-0.5,7.5c0,0-3,1.5-2.25,7.5
		c0,0,0.25,26-2.75,40.75c0,0-2,15.5,0.25,22c0,0,3.185,10.692,0.224,19.49c-0.143,0.425-0.301,0.846-0.474,1.26
		c-3.75,9-9.5,17.25-5.5,27c0,0,6.167,12.417,1,13.75c0,0-11,6.333-11.5,15.833l-28,85.333L82.333,365.104z"/>
</g>
<g id="circulo">
	<path fill="#414042" d="M147.75,82.083c0,0-7.5-30.583-9-37.083c0,0-3-23.25-20.75-25.5c0,0-22.5-2.75-29.25,15.25
		c0,0-6,14.5,3.25,23.5c0,0,5.334,5.583,16.667,11.75c0,0,21.583,11.083,22.083,15.75c0,0,2.583-6.25,3.75-7.25c0,0-3-6.333-8-9
		c0,0-21.583-12.792-24.75-28.125c0,0-1.875-8.375,0.75-10.375c0,0,3.5-6,21.667,12c0,0,8.885,11.125,12.552,34.125L147.75,82.083z"
		/>
</g>
<g id="largo">
	<path fill="#BCBEC0" d="M329,184.25c1.25-9.5,17.312-52.938,17.312-52.938s0.104-0.382,0.271-0.729
		c3.708-7.792,0.417-8.958,0.417-8.958l-5.666-4.958c0,0-4.501,17.75-4.501,18.833s0,0,0,0s-8.499,41.5-8.499,46.667L329,184.25z"/>
	<path fill="#A7A9AC" stroke="#A7A9AC" stroke-miterlimit="10" d="M398.451,336.607c0,0-5.69-9.898-39.928-24.713
		c0,0-33.578-13.168-39.831-45.759c0,0-16.636-96.496,2.457-160.358c0,0-24.023-6.757-56.057-7.257c0,0-57.669,1.045-86.638-7.187
		c0,0-38.476-11.332-41.571-14.502c0,0-7.632,16.433-4.67,47.046c0,0-5.607,57.325-3.139,79.053c0,0,3.457,10.862,0.494,12.838
		c0,0-10.152,8.612-6.531,20.136l5.38,16.075c0,0,1.151,4.279-2.304,5.597c0,0-12.52,3.879-7.747,11.944
		c0,0,4.671,6.34,0.668,20.975c0,0-20.395,48.299-23.357,63.441c0,0-8.604,5.877-12.091,9.729L83,363.5c0,0-4,6.75-4.5,11.5
		c0,0-9.167,19.084,181.833,57.584c0,0-2,3.5,0.167-3.584c0,0,0.333-5.748,2.435-9.897l0.008,0.001
		c14.744-23.687,63.325-33.596,63.325-33.596c6.769-0.967,52.851,0.081,52.851,0.081c11.601-0.32,17.725-6.769,17.725-6.769
		C406.509,371.408,398.451,336.607,398.451,336.607z"/>
</g>
<g id="suela_tennis">
	<path fill="#FFFFFF" stroke="#BCBEC0" stroke-width="0.5" stroke-miterlimit="10" d="M568.169,417.627c0,0-1.406-4.14-4.636-5.382
		c0,0-6.085,19.995-43.219,24.839c0,0-99.354,13.909-188.274,1.49c0,0-73.272-4.721-162.193-31.545c0,0-92.316-22.77-90.66-33.696
		c0,0-1.159-1.822-1.49,5.795l-0.332,8.194c0.078,0.085,0.167,0.169,0.255,0.254c-0.097,2.512-0.204,21.141,16.904,35.474
		c0,0,5.464,7.451,21.361,7.451c0,0,60.605,4.969,123.198,17.885c0,0,36.76,7.947,40.734,9.936c0,0,32.789,11.923,87.928,15.896
		c0,0,124.191,6.458,165.92-9.936c0,0,37.565-11.089,34.585-46.358C568.25,417.923,568.213,417.689,568.169,417.627z"/>
</g>
<g id="suela_hule" display="none">
	<path display="inline" d="M80.333,395.667c0,0-3.833,0.5-4.333,3.501l-2,48.166c0,0,9.333,5.5,51.333,7.166l6.5-10.5h5.5
		l4.167,10.168L174,454.5l5.667-9.5h7.167l2.167,9.666l33.5-0.332l21-25c0,0,38,6.416,85.25,11.166l10.75,13.25l34,2.5l0.5-10
		l5.75,0.5l9,10.25l35.583,2.334l1-10l4.667-0.666l8.667,9.666h36.666l0.667-9l6.333-0.334l6.667,8.5l33.333-0.166l2.334-10.5
		L530,446.5l6.333,9c0,0,18.666-1.332,25.333-4c0,0,5.333-0.998,6-6.832L568,426.835c0,0-0.667-5.001-5.667-4.167l-0.333-11
		c0,0-82.5,8.833-149.5,7.833c0,0-71.167-1.833-113.5-14.833c0,0-29.25-7.667-58-10.168c0,0-28.75,0.5-37.5-10.75
		c0,0-9.25-12-37.75-11.5c0,0-38.5-3-54-5.5c0,0-26.75-2-26.75-8.5c0,0-5.333-1.417-5.333,3.083c0,0-2.166,1.334-1.333,8.334
		L80.333,395.667z"/>
	<path display="inline" fill="none" d="M1156.334,422.335c0,0,10.666-31.002-32.667-40.668c0,0-48-6.334-62-7.334
		c0,0-38-3.999-75-29.666c0,0,8.334,35.999-1.666,43.666c0,0-6.334,6.666-18.334,7c0,0-47.667-1.083-54.667-0.083
		c0,0-50.25,10.25-65.5,34.75c0,0,36.167,12,66.5,16c0,0,72.334,9.334,172.667-1.666
		C1085.667,444.334,1134.668,439.669,1156.334,422.335z"/>
</g>
<g>
	<path fill="#6D6E71" d="M292.949,132.959c5.109,0,9.264-4.155,9.264-9.264s-4.156-9.264-9.264-9.264
		c-5.108,0-9.264,4.155-9.264,9.264S287.841,132.959,292.949,132.959z M292.949,118.431c2.902,0,5.264,2.36,5.264,5.264
		s-2.361,5.264-5.264,5.264s-5.264-2.36-5.264-5.264S290.047,118.431,292.949,118.431z"/>
	<path fill="#6D6E71" d="M302.505,227.028c0-4.856-3.95-8.806-8.806-8.806s-8.806,3.95-8.806,8.806c0,4.856,3.951,8.806,8.806,8.806
		S302.505,231.885,302.505,227.028z M288.893,227.028c0-2.65,2.156-4.806,4.807-4.806s4.806,2.155,4.806,4.806
		s-2.157,4.806-4.806,4.806C291.048,231.834,288.893,229.678,288.893,227.028z"/>
	<path fill="#6D6E71" d="M300.365,247.556c-4.857,0-8.807,3.95-8.807,8.806c0,4.856,3.95,8.806,8.807,8.806
		c4.855,0,8.806-3.949,8.806-8.806S305.221,247.556,300.365,247.556z M300.365,261.168c-2.651,0-4.807-2.155-4.807-4.806
		s2.156-4.806,4.807-4.806s4.806,2.155,4.806,4.806S303.014,261.168,300.365,261.168z"/>
	<path fill="#6D6E71" d="M314.532,276.472c-4.121,0-7.475,4.155-7.475,9.264s3.354,9.264,7.475,9.264
		c4.12,0,7.473-4.155,7.473-9.264S318.652,276.472,314.532,276.472z M314.532,291c-1.883,0-3.475-2.411-3.475-5.264
		c0-2.854,1.592-5.264,3.475-5.264s3.473,2.41,3.473,5.264C318.005,288.589,316.415,291,314.532,291z"/>
	<path fill="#6D6E71" d="M330.694,297.168c-0.996,0-1.938,0.274-2.724,0.794c-1.516,1.003-2.35,2.835-2.288,5.027
		c0.053,1.877,0.744,3.912,1.947,5.729c1.913,2.89,4.713,4.685,7.311,4.685c0.997,0,1.938-0.275,2.724-0.795
		c2.908-1.925,3.058-6.649,0.341-10.755C336.091,298.963,333.291,297.168,330.694,297.168z M335.456,309.273
		c-0.765,0.507-2.97-0.464-4.49-2.761c-0.785-1.187-1.253-2.511-1.284-3.635c-0.021-0.768,0.164-1.358,0.496-1.579
		c0.133-0.088,0.303-0.13,0.517-0.13c1.023,0,2.718,0.993,3.974,2.893C336.254,306.459,336.192,308.786,335.456,309.273z"/>
	<path fill="#6D6E71" d="M359.243,316.641c-2.162-1.661-4.696-2.614-6.953-2.614c-2.006,0-3.687,0.748-4.729,2.104
		c-2.293,2.985-0.755,7.887,3.502,11.157c2.163,1.661,4.697,2.614,6.953,2.614c2.007,0,3.687-0.748,4.729-2.106
		C365.038,324.812,363.499,319.912,359.243,316.641z M359.574,325.36c-0.364,0.473-1.132,0.543-1.559,0.543
		c-1.372,0-3.06-0.668-4.516-1.786c-2.699-2.073-3.442-4.671-2.768-5.548c0.363-0.473,1.132-0.543,1.558-0.543
		c1.372,0,3.061,0.667,4.516,1.786C359.505,321.885,360.248,324.483,359.574,325.36z"/>
	<path fill="#6D6E71" d="M384.471,329.538c-2.002-1.209-4.215-1.875-6.233-1.875c-2.425,0-4.405,0.976-5.432,2.674
		c-1.007,1.666-0.969,3.832,0.104,5.94c0.93,1.83,2.571,3.519,4.618,4.755c2.002,1.21,4.216,1.876,6.235,1.876
		c2.424,0,4.403-0.973,5.432-2.673C391.141,337.013,389.066,332.314,384.471,329.538z M385.769,338.168
		c-0.279,0.464-1.029,0.741-2.006,0.741c-1.281,0-2.801-0.474-4.168-1.3c-1.395-0.843-2.533-1.99-3.122-3.146
		c-0.433-0.851-0.521-1.601-0.245-2.059c0.28-0.465,1.03-0.742,2.008-0.742c1.281,0,2.8,0.475,4.166,1.3
		C385.313,334.723,386.341,337.221,385.769,338.168z"/>
	<path fill="#6D6E71" d="M291.699,200.834c4.855,0,8.806-3.949,8.806-8.806s-3.95-8.806-8.806-8.806
		c-4.856,0-8.806,3.95-8.806,8.806C282.893,196.885,286.843,200.834,291.699,200.834z M291.699,187.222
		c2.65,0,4.806,2.155,4.806,4.806s-2.157,4.806-4.806,4.806c-2.65,0-4.806-2.155-4.806-4.806S289.049,187.222,291.699,187.222z"/>
	<path fill="#6D6E71" d="M292.449,164.334c4.855,0,8.806-3.949,8.806-8.806s-3.95-8.806-8.806-8.806
		c-4.856,0-8.806,3.95-8.806,8.806C283.643,160.385,287.593,164.334,292.449,164.334z M292.449,150.722
		c2.65,0,4.806,2.155,4.806,4.806s-2.157,4.806-4.806,4.806c-2.65,0-4.806-2.155-4.806-4.806S289.799,150.722,292.449,150.722z"/>
</g>
<g>
	<path fill="#C7C8CA" d="M381.856,319.125c0,0-3.72-3.126-3.72-4.311c0,0-1.268-4.055-8.534-8.703c0,0-0.438,0.225-1.044,0.602
		c-1.79-4.188-7.146-17.03-7.398-21.413c0.062-0.258,0.801-3.538-1.147-6.945c0,0-4.688-8.492-7.225-11.534
		c0,0-5.704-16.098-7.098-23.576c0,0-3.298-9.887-4.816-14.196c0,0-2.535-15.21-4.31-18.759c0.001-0.001-2.904-7.965-2.397-13.289
		c0,0-3.71-3.583-6.584-3.583c0,0-1.608,1.09,0.25,6.667c0,0,0.126,1.099,0.292,2.885c-2.298,1.488-5.961,0.771-7.643,0.32
		c-0.476-3.619-1.15-7.573-2.104-11.761c0.354,1.427,0.625,2.614,0.694,3.17c0,0,9.126-1.394,13.309-4.943
		c0,0,4.943-3.042,6.338-3.168c0,0,5.323-0.888,3.422-5.831c0,0-4.436-8.238-4.688-10.14c-0.002-0.001-2.938-2.328-4.079-2.074
		c0,0-2.072,5.083-2.625,8.542c0,0,1.125,3.038-1.156,4.56c0,0-5.479,0.947-12.965,0.662c2.195-2.929,4.303-6.663,4.303-6.663
		c1.713-2.728,2.283-5.407,2.327-7.69c3.046-1.649,15.207-9.125,15.207-9.125c1.811-0.904,0.999-3.815,0.802-4.438
		c1.634-0.685,3.135-1.454,4.396-2.321c0,0,7.013-4.563,7.52-10.226c0,0,0.022-5.323-4.668-9.633c0,0-6.652-6.4-16.604-3.929
		c0,0-1.438,0.202-2.249,0.482c-3.143-2.085-6.562-4.148-10.038-5.888c-1.188,9.802-1.938,8.812-2.5,15.25
		c0,0,8.004,4.394,10.708,4.9c0,0,2.027,0.676,2.027,1.521c0,0,4.977-0.23,9.364-1.566c-2.679,0.877-6.666,1.697-12.319,1.735
		l-10.529,0.41c0,0-0.852,4.581-0.483,8.586c-1.942-1.052-3.815-1.79-5.184-2.26c-2.092-7.958-4.016-14.535-5.1-16.454
		c0,0.001-3.295-8.111-4.142-11.238c0,0-2.534-6.422-8.11-2.365c0,0-2.535,2.873-2.703,5.238c0,0-0.339,1.69-1.521,2.197
		c0,0-1.436,0.169,0.507,6.761c0,0,3.549,10.816,4.817,15.125c0,0,3.042,12.929,4.816,15.718c0,0,2.281,7.352,2.281,10.646
		c0-1.241,0-3.296,0-3.296s3.465,14.703,7.184,19.604c0,0,0.069,0.167,0.194,0.484c-1.124,0.253-2.958,0.496-4.844,0.024
		c0,0-3.296-2.62-3.549-3.507c-0.001-0.001-2.156-1.903-4.69-1.522c0,0-6.845,1.141-5.958,6.591c0,0,0.127,3.676,6.844,4.311
		c0,0,3.296,0.253,6.338,2.535c0,0,7.226,2.915,9.835,5.258c0.616,3.004,1.136,6.33,1.403,9.824c0,0,0.826,8.18,2.478,18.421
		c-1.186-0.167-2.936-0.656-3.956-2.07c0,0.001-8.239-7.858-8.873-8.872c0,0-4.688-5.831-10.395,1.901c0,0-1.9,3.296,3.041,8.492
		c0,0,3.297,5.957,11.281,10.647c0,0,5.577,3.042,6.592,5.577c0,0,0.635,0.445,1.654,1.032c-1.731-0.331-3.882-0.463-6.471-0.146
		c0,0-5.07-0.761-6.592,0.253c0,0.001-2.788,1.396-2.916,4.69c0,0-0.715,2.859,5.253,5.577c0.187,0.084,0.379,0.168,0.579,0.254
		c6.591,2.789,4.688,2.662,6.591,3.168c0,0,7.287,0.177,11.442-0.211c0.466,1.195,0.945,2.318,1.443,3.338
		c0,0,1.524-0.099,2.866-0.515c-0.739,0.276-1.699,0.516-2.866,0.516c0,0,1.217,3.726,3.085,8.74
		c-4.215,1.023-9.192,2.373-10.647,3.343c0,0-1.27,1.9-3.678,2.915c0,0-1.394,3.803,2.789,5.196c0,0,3.296,1.521,7.1,1.521
		c0,0,4.325-1.063,8.684-2.385c1.697,3.895,3.531,7.659,5.319,10.511c-0.218,0.407-0.297,0.854-0.146,1.339
		c0,0-0.761,0.761-1.772,0.761c0-0.001-3.042,1.772-3.633,3.889c0,0,0.338,3.549,3.803,4.057c0,0,1.099-1.016,3.296-0.762
		c0,0,6.083,0.34,8.956-1.015c0,0,6.93-3.974,7.941-2.874c0,0,1.689,1.605,2.789,1.016c0,0-0.339-3.635-1.521-5.323
		c0,0-0.591-1.185-3.718-1.773c0,0-4.143-6.507-8.45-3.972c0,0-0.846,1.354-3.464,2.027c0,0-0.287,0.089-0.708,0.253
		c-1.16-1.85-3.07-5.094-5.061-9.306c2.438-0.85,4.439-1.708,5.049-2.398c0,0,3.169-3.803,1.521-6.211c0,0-4.437-1.901-7.985-2.282
		c0,0-1.078,0.229-2.694,0.593c-0.063-0.194-0.124-0.393-0.188-0.589c2.874,0.061,6.432-1.522,6.432-1.522
		c6.999-4.269,6.182-13.016,4.899-18.275c0.454,1.025,0.935,2.06,1.438,3.065c0,0,5.576,8.491,6.085,9c0,0,1.899,2.915,2.153,7.225
		c0,0,2.015,4.905,6.288,10.582c-0.023,0.079-0.054,0.149-0.076,0.234c0,0,6.72,18.758,8.111,21.42c0,0,0.267,0.102,0.662,0.195
		c-0.645,0.685-1.112,1.446-1.085,2.212c0,0-3.973-1.269-5.999,1.185c0,0-2.029,3.041-3.465,2.873c0.001,0-2.366,0.759-3.55,2.871
		c0,0-2.914,3.17,3.297,4.438c0,0,3.549,0.38,4.688,1.142c0,0,1.396,1.142,4.943-1.015c0,0,5.45-4.815,10.899-3.803
		c0,0,5.239,3.297,6.254,3.55C382.11,322.083,383.547,320.984,381.856,319.125z M331.562,231.476
		c0.65,0.849,1.354,1.938,2.066,3.327C332.871,233.403,332.18,232.317,331.562,231.476z M328.88,222.182
		c-0.091,2.353-0.284,4.552-0.63,6.38l0,0c0,0,0,0,0,0.001l0,0l0,0c0.031,3.407,0.188,7.749,0.188,7.749
		c-0.689,1.382-1.899,2.499-2.405,2.93c-0.83-0.353-1.498-0.552-1.987-0.666c-0.755-4.581-1.604-9.185-2.538-13.406
		C323.849,221.864,326.865,221.753,328.88,222.182z M321.947,161.446c-0.416-0.91-0.948-1.751-1.56-2.53
		c1.272-0.166,2.8-0.386,4.474-0.671c-2.408,0.438-4.142,0.71-4.142,0.71c0.52,0.829,0.927,1.695,1.254,2.548
		C321.962,161.476,321.947,161.446,321.947,161.446z M329.808,157.271c3.029-0.681,6.176-1.561,8.971-2.684
		C337.254,155.514,333.505,156.482,329.808,157.271z M335.105,134.071c0.062-0.224,0.188-0.467,0.444-0.531
		c0,0,3.804-1.078,6.254,1.204c0,0,4.519,3.646,0.175,5.939c0.209-0.17,0.406-0.347,0.585-0.531
		C342.562,140.152,339.622,137.514,335.105,134.071z"/>
	<path fill="#C7C8CA" d="M393.031,326.011c0,0-3.485-4.755-4.943-5.262c0,0-2.534-1.521-4.562,2.22c0,0-5.263,6.211-5.136,7.225
		c0.001,0,0.318,1.457-1.204,2.346c0,0-0.948,1.458,2.155,3.549c0,0,3.422,2.281,4.943,0.316c0,0,1.457-0.95,2.788-0.569
		c0,0,1.711,0.569,1.838-2.853c0,0,1.772-2.789,3.423-3.17C392.335,329.812,394.173,328.355,393.031,326.011z"/>
</g>
</svg>
