<?xml version="1.0" encoding="utf-8"?>
<!-- Generator: Adobe Illustrator 15.0.0, SVG Export Plug-In . SVG Version: 6.00 Build 0)  -->
<!DOCTYPE svg PUBLIC "-//W3C//DTD SVG 1.1//EN" "http://www.w3.org/Graphics/SVG/1.1/DTD/svg11.dtd">
<svg version="1.1" xmlns="http://www.w3.org/2000/svg" xmlns:xlink="http://www.w3.org/1999/xlink" x="0px" y="0px"
	 width="481.581px" height="475.476px" viewBox="0 0 481.581 475.476" enable-background="new 0 0 481.581 475.476"
	 xml:space="preserve">
<g id="adentro">
	<path fill="#939598" d="M557.75,8.064"/>
	<g>
		<path d="M366,101.397l1.086,9.715L359,106.147l-64.5-25l-1-1.25l-2.5-7c0,0,0.833,0,10.5-5c0,0,31.833-18.667,80.5-22.333
			c0,0,37.334-4,58.667,6.667c0,0,11.583,6.333,3.583,14.083c0,0-18.25,18.25-54.75,32.25c0,0-15.75,7.25-23.5,3"/>
		<path d="M367.696,112.073l-8.958-5.5l-64.545-25.009l-1.164-1.5l-2.739-7.667H291c-0.017-0.005,1.265-0.286,10.271-4.944
			c0.296-0.174,32.468-18.754,80.692-22.388c0.358-0.039,37.708-3.892,58.928,6.718c0.259,0.142,5.975,3.317,6.618,8.067
			c0.317,2.348-0.662,4.643-2.911,6.822c-0.178,0.178-18.738,18.48-54.919,32.358c-0.6,0.277-14.976,6.807-23.062,3.386
			L367.696,112.073z M294.807,80.729l64.374,24.951l7.295,4.471l-0.973-8.699l0.595-0.066l0.143-0.261
			c7.441,4.079,22.896-2.944,23.051-3.016c36.015-13.815,54.424-31.968,54.605-32.149c2.013-1.95,2.894-3.958,2.621-5.972
			c-0.572-4.249-6.035-7.289-6.091-7.319c-20.943-10.471-58.003-6.648-58.373-6.608c-47.997,3.616-79.983,22.082-80.301,22.268
			c-5.04,2.607-8.645,4.348-10.107,4.889l2.297,6.432L294.807,80.729z"/>
	</g>
</g>
<g id="suela">
	<path fill="#D1D3D4" stroke="#BCBEC0" stroke-width="0.5" stroke-miterlimit="10" d="M302.305,323.737c0,0,38.5-35.5,76.5-51.5
		c0,0,55.764-18.736,68.266-50.312c0,0-0.07,11.222-2.57,15.722c0,0,4,14-1.25,26.5c0,0-5,8.75-15.75,13.5c0,0-23.5,9.5-31,13.5
		c0,0-49.167,21.916-64.167,38.583c0,0-27.333,26-39.666,43.333c0,0-40.667,47.168-64.667,58.334c0,0-100,43-150,14
		c0,0-27.5-14-32.5-47c0,0-4-19.167-2-31.167c0,0,0.625-5.708,4.125-10.833c0,0-2.015,10.93-0.32,12.34c0,0,2,57.5,94.5,51
		c0,0,51,4,102-43C243.805,376.737,289.805,335.237,302.305,323.737"/>
</g>
<g id="lengueta">
	<path fill="#58595B" d="M360.659,104.344c0,0,8.024-15.717-4.349-20.733c0,0-8.861-4.682-20.9-7.19c0,0-14.547-4.264-17.808-5.518
		c0,0-10.785-5.769-21.569,4.766c0,0-3.666,3.625-1.283,10.021c0,0,2.788,9.417,0.906,14.683c0,0-40.338,96.938-71.773,114.662
		c0,0,2.544,6.937,12.242,9.613l107.479-119.3c0,0,7.858-8.695,14.547-2.174l1.839,1.672L360.659,104.344z"/>
</g>
<g id="punta">
	<path fill="#A7A9AC" d="M77,315.897c0,0-35,32-30,52.5c0,0,2,57.5,94.5,51c0,0,51,4,102-43c0,0,46-41.5,58.5-53l-13.667-27
		c0,0-9.667-20.667,15.333-61c0,0,57.333-83.5,66.333-109c0,0,6.75-8.5-0.5-13.25l-12.75-10.75c0,0-5.75-5.25-13.75,4
		c0,0-89,95.667-107,117.667c0,0-11.5-5.417-11.25-8.667c0,0,28.583-16.667,50.25-57c0,0,2.333-12,6.333-18
		c0,0,20.333-37.333,13.667-54.333c0,0-3.334-6,2-12.333c0,0,1.666-8.333-1-11.667c0,0-9,5.333-7.667,9.667
		c0,0,3.167,3.417-0.083,6.167c0,0-4.25,5-3.25,11.25c0,0,0.25,3.5-1.5,6.75c0,0-5.75,9.25-8.75,19.5c0,0-3.25,3.25-6.75,10
		c0,0-26,46-61,81c0,0-16.75,18.5-22.5,23.75c0,0-24.167,18.25-28.833,21.583C155.667,251.73,105.667,289.73,77,315.897z"/>
</g>
<g id="lateral">
	<path fill="#939598" d="M367.086,111.112l2.414,2.035c7.25,4.75,0.5,13.25,0.5,13.25c-9,25.5-66.333,109-66.333,109
		c-25,40.333-15.333,61-15.333,61l13.666,27c0,0,38.5-35.5,76.5-51.5c0,0,62.5-21,70-56c0,0,5.5-18.833-0.833-45.5
		c0,0-2.167-71.5,1.833-90c0,0,3.5-4,5-6.25c0,0,3-7.75,0.25-17c0,0-2.417-15.083-46.417-18.417c0,0-54.083-2.333-87.583,11.667
		c0,0-23.583,8.333-29.583,12.333c0,0-14.834,10.167-0.167,10c0,0,0.833,0,10.5-5c0,0,31.833-18.667,80.5-22.333
		c0,0,37.334-4,58.667,6.667c0,0,11.583,6.333,3.583,14.083c0,0-18.25,18.25-54.75,32.25c0,0-15.75,7.25-23.5,3L367.086,111.112z"/>
</g>
<g id="ojetes">
	<g>
		<g>
			<path fill="#6D6E71" d="M260.008,245.898c-4.545,0-8.243-3.698-8.243-8.243s3.698-8.243,8.243-8.243s8.243,3.698,8.243,8.243
				S264.554,245.898,260.008,245.898z M260.008,233.412c-2.34,0-4.243,1.903-4.243,4.243s1.903,4.243,4.243,4.243
				s4.243-1.903,4.243-4.243S262.348,233.412,260.008,233.412z"/>
		</g>
		<g>
			<circle cx="260.008" cy="237.655" r="4.955"/>
		</g>
	</g>
	<g>
		<g>
			<path fill="#6D6E71" d="M212.934,215.337c-2.822,1.333-5.907,0.748-6.877-1.307c-0.97-2.053,0.537-4.808,3.359-6.141
				c2.822-1.333,5.907-0.748,6.876,1.306C217.263,211.249,215.756,214.004,212.934,215.337z M210.27,209.697
				c-1.453,0.687-2.229,2.104-1.729,3.161c0.5,1.058,2.087,1.359,3.54,0.672s2.229-2.104,1.729-3.162
				C213.31,209.312,211.723,209.01,210.27,209.697z"/>
		</g>
		<ellipse transform="matrix(0.9042 -0.4271 0.4271 0.9042 -70.1498 110.463)" cx="211.175" cy="211.613" rx="3.402" ry="2.476"/>
	</g>
	<g>
		<g>
			<path fill="#6D6E71" d="M228.267,200.003c-2.822,1.333-5.907,0.748-6.877-1.307c-0.97-2.053,0.537-4.808,3.359-6.141
				c2.822-1.333,5.907-0.748,6.876,1.306C232.596,195.916,231.089,198.67,228.267,200.003z M225.603,194.363
				c-1.453,0.687-2.229,2.104-1.729,3.161c0.5,1.058,2.087,1.359,3.54,0.672s2.229-2.104,1.729-3.162
				C228.643,193.978,227.056,193.677,225.603,194.363z"/>
		</g>
		<ellipse transform="matrix(0.9042 -0.4271 0.4271 0.9042 -62.1321 115.5428)" cx="226.508" cy="196.279" rx="3.402" ry="2.476"/>
	</g>
	<g>
		<g>
			<path fill="#6D6E71" d="M246.791,181.626c-2.409,1.983-5.544,2.171-6.987,0.417c-1.443-1.753-0.656-4.792,1.754-6.776
				c2.409-1.983,5.544-2.171,6.987-0.417C249.988,176.603,249.201,179.643,246.791,181.626z M242.827,176.81
				c-1.241,1.021-1.646,2.585-0.903,3.488c0.744,0.903,2.356,0.807,3.597-0.215c1.241-1.021,1.646-2.585,0.902-3.488
				C245.681,175.692,244.068,175.788,242.827,176.81z"/>
		</g>
		<ellipse transform="matrix(0.7721 -0.6355 0.6355 0.7721 -57.7556 195.8346)" cx="244.174" cy="178.446" rx="3.402" ry="2.476"/>
	</g>
	<g>
		<g>
			<path fill="#6D6E71" d="M231.958,197.959c-2.409,1.983-5.544,2.171-6.987,0.417c-1.443-1.753-0.656-4.792,1.754-6.776
				c2.409-1.983,5.544-2.171,6.987-0.417C235.154,192.936,234.368,195.976,231.958,197.959z M227.994,193.143
				c-1.241,1.021-1.646,2.585-0.903,3.488c0.744,0.903,2.356,0.807,3.597-0.215c1.241-1.021,1.646-2.585,0.902-3.488
				C230.847,192.025,229.235,192.122,227.994,193.143z"/>
		</g>
		<ellipse transform="matrix(0.7721 -0.6355 0.6355 0.7721 -71.5157 190.1303)" cx="229.34" cy="194.779" rx="3.402" ry="2.476"/>
	</g>
	<g>
		<g>
			<path fill="#6D6E71" d="M260.94,159.658c-2.055,2.349-5.117,3.043-6.827,1.547c-1.708-1.495-1.427-4.622,0.628-6.971
				c2.055-2.349,5.117-3.043,6.826-1.548C263.277,154.182,262.995,157.309,260.94,159.658z M256.245,155.55
				c-1.058,1.21-1.203,2.818-0.323,3.588c0.881,0.771,2.456,0.413,3.514-0.797c1.059-1.209,1.204-2.818,0.323-3.589
				C258.879,153.983,257.304,154.341,256.245,155.55z"/>
		</g>
		<ellipse transform="matrix(0.6585 -0.7526 0.7526 0.6585 -30.0576 247.6564)" cx="257.84" cy="156.946" rx="3.402" ry="2.476"/>
	</g>
	<g>
		<g>
			<path fill="#6D6E71" d="M274.773,133.325c-2.055,2.349-5.117,3.043-6.827,1.547c-1.708-1.495-1.427-4.622,0.628-6.971
				c2.055-2.349,5.117-3.043,6.826-1.548C277.11,127.848,276.829,130.976,274.773,133.325z M270.079,129.217
				c-1.058,1.21-1.203,2.818-0.323,3.588c0.881,0.771,2.456,0.413,3.514-0.797c1.059-1.209,1.204-2.818,0.323-3.589
				C272.712,127.65,271.137,128.007,270.079,129.217z"/>
		</g>
		<ellipse transform="matrix(0.6585 -0.7526 0.7526 0.6585 -5.514 249.0739)" cx="271.674" cy="130.612" rx="3.402" ry="2.476"/>
	</g>
	<g>
		<g>
			<path fill="#6D6E71" d="M277.675,223.898c-4.545,0-8.243-3.698-8.243-8.243s3.698-8.243,8.243-8.243s8.243,3.698,8.243,8.243
				S282.221,223.898,277.675,223.898z M277.675,211.412c-2.34,0-4.243,1.903-4.243,4.243s1.903,4.243,4.243,4.243
				s4.243-1.903,4.243-4.243S280.015,211.412,277.675,211.412z"/>
		</g>
		<g>
			<circle cx="277.675" cy="215.655" r="4.955"/>
		</g>
	</g>
	<g>
		<g>
			<path fill="#6D6E71" d="M297.342,202.898c-4.545,0-8.243-3.698-8.243-8.243s3.698-8.243,8.243-8.243s8.243,3.698,8.243,8.243
				S301.887,202.898,297.342,202.898z M297.342,190.412c-2.34,0-4.243,1.903-4.243,4.243s1.903,4.243,4.243,4.243
				s4.243-1.903,4.243-4.243S299.682,190.412,297.342,190.412z"/>
		</g>
		<g>
			<circle cx="297.342" cy="194.655" r="4.955"/>
		</g>
	</g>
	<g>
		<g>
			<path fill="#6D6E71" d="M318.25,181.64c-4.545,0-8.243-3.698-8.243-8.243s3.698-8.243,8.243-8.243s8.243,3.698,8.243,8.243
				S322.795,181.64,318.25,181.64z M318.25,169.154c-2.34,0-4.243,1.903-4.243,4.243s1.903,4.243,4.243,4.243
				s4.243-1.903,4.243-4.243S320.59,169.154,318.25,169.154z"/>
		</g>
		<g>
			<circle cx="318.25" cy="173.397" r="4.955"/>
		</g>
	</g>
	<g>
		<g>
			<path fill="#6D6E71" d="M329.342,163.147c-4.545,0-8.243-3.698-8.243-8.243s3.698-8.243,8.243-8.243s8.243,3.698,8.243,8.243
				S333.887,163.147,329.342,163.147z M329.342,150.661c-2.34,0-4.243,1.903-4.243,4.243s1.903,4.243,4.243,4.243
				s4.243-1.903,4.243-4.243S331.682,150.661,329.342,150.661z"/>
		</g>
		<g>
			<circle cx="329.342" cy="154.904" r="4.955"/>
		</g>
	</g>
	<g>
		<g>
			<path fill="#6D6E71" d="M339.699,136.433c-3.147-2.199-3.614-6.989-1.039-10.678c2.577-3.688,7.233-4.901,10.382-2.702
				c3.149,2.199,3.617,6.989,1.041,10.679C347.507,137.42,342.849,138.631,339.699,136.433z M346.777,126.299
				c-1.622-1.131-4.02-0.508-5.346,1.391c-1.325,1.898-1.086,4.365,0.534,5.497c1.622,1.132,4.021,0.508,5.346-1.39
				C348.638,129.897,348.396,127.431,346.777,126.299z"/>
		</g>
		<g>
			
				<ellipse transform="matrix(0.8199 0.5725 -0.5725 0.8199 136.2858 -173.7785)" cx="344.372" cy="129.743" rx="4.187" ry="4.905"/>
		</g>
	</g>
</g>
<g id="cintas">
	<path fill="#6D6E71" d="M346.625,129.022c0,0-2.188,4.562-8.438,7c0,0-8.438,0.75-13.312,2.125c0,0-11.875,2.625-17.625,0
		c0,0-6.25-1.375-9.75-1.375l-8.875-7.625c0,0,10-3,18.125,0.25c0,0,12.625,2.75,19.125-0.875c0,0,7.25-3.375,13.875-4
		c0,0,4.625-1.375,6.625,0.75C346.375,125.272,348,127.022,346.625,129.022z"/>
	<path fill="#6D6E71" d="M331.875,153.897c0,0-1.25,3.25-5.375,3.125c0,0-5.5,0.875-10.75-1.125c0,0-9.5-4.5-17.125-4.125
		c0,0-12.375,0.625-14.375,0.875L278,147.73c0,0,2-6.708,28.125-3.333c0,0,14.25,1.75,18.625,3.375
		C324.75,147.772,333.25,151.272,331.875,153.897z"/>
	<path fill="#6D6E71" d="M321.25,170.772c0,0-1.25,5.625-4.5,7.625c0,0-8.75,3.375-20.75-1c0,0-12-3.25-16-5.375
		c0,0-4.375-2.625-8.875-1.25c0,0-3.542-2.5-1.292-4.625c0,0,2.75-5.75,4-4.75c0,0,6.167,0.375,17.167,5.125
		c0,0,7.75,3.25,19.375,2.75C310.375,169.272,319.75,168.272,321.25,170.772z"/>
	<path fill="#6D6E71" d="M297.667,189.397c0,0,0.667,4.167-0.5,5.5c0,0-2.667,3.334-6,4.167c0,0-8.5-6.667-14-9
		c0,0-8.167-4.667-12-4.333c0,0-6-1.333-4.5-4.5c0,0,2-4.333,4.167-4.333C264.833,176.897,281.834,180.063,297.667,189.397z"/>
	<path fill="#6D6E71" d="M275.333,208.73c0,0,4.167,6.167,2.667,9.333c0,0-2.5,2.333-5.333,0.667c0,0-4.833-1.667-8.333-5.333
		c0,0-15.833-13.667-18-15.667c0,0-9.083-9.333-10.833-12.083c0,0-5.167-7.583,3.833-10.25c0,0,4.083-1.312,6.917,0.688
		c0,0,0.25,5.479-1.75,6.312c0,0-1.5,3,5.667,8.833c0,0,2.167,2.833,12.667,8.167C262.833,199.397,272.167,204.397,275.333,208.73z"
		/>
	<path fill="#6D6E71" d="M244.625,214.522c0,0-9.458-15.958-12.958-18.292c0,0-0.417-0.708,1.333-0.958c0,0-2.375-4.375-7.625-2.625
		c0,0-5.625,1.25-3.75,6.25c0,0,1.5,2.75,3.25,3.75c0,0,11.125,9.25,13.5,18.75L244.625,214.522z"/>
	<path fill="#6D6E71" d="M257,234.064c0,0,4.334,3.5,0.167,6c0,0-13.334,5-33.167-9.333c0,0-21-12.5-22-16c0,0-3.5-6.25,4.333-7.75
		c0,0,6.333,3.583,6.167,7.083c0,0,38.5,23.5,44,19.5"/>
	<path fill="#939598" d="M276.5,179.147l-6.75,6.375c0,0-15.583-15.292-21.917-26.458c0,0-2.667-8,5.167-9.667
		c0,0,3.312-0.021,7.812,2.812c0,0-0.312,4.521-1.979,5.854c0,0-2.5,6.167,9.667,14.167C268.5,172.23,274.333,176.147,276.5,179.147
		z"/>
	<path fill="#939598" d="M296.75,156.563L290,163.98c0,0-25-11.25-28-25.083c0,0-2.833-12,4-14.167c0,0,3.667-1,7,0.333
		c0,0,2.667,4.5,0,7.667c0,0-3.167,0.667-3.5,1.667c0,0-4,4.833,15.833,19C285.333,153.397,294.584,156.73,296.75,156.563z"/>
	<path fill="#939598" d="M286.5,99.563c0,0-11.167,0.833-12.333,8.833c0,0-3.333,10.833,8.5,24.833c0,0,15.667,15.333,19,18.333l6-7
		c0,0-23.667-16.333-25-26.5c0,0-1.833-5.833,1.5-9.167c0,0,2.833-1.875,3.083-2.875C287.25,106.022,289.75,101.605,286.5,99.563z"
		/>
</g>
</svg>
