<?xml version="1.0" encoding="utf-8"?>
<!-- Generator: Adobe Illustrator 15.0.0, SVG Export Plug-In . SVG Version: 6.00 Build 0)  -->
<!DOCTYPE svg PUBLIC "-//W3C//DTD SVG 1.1//EN" "http://www.w3.org/Graphics/SVG/1.1/DTD/svg11.dtd">
<svg version="1.1" xmlns="http://www.w3.org/2000/svg" xmlns:xlink="http://www.w3.org/1999/xlink" x="0px" y="0px"
	 width="761.957px" height="436.956px" viewBox="0 0 761.957 436.956" enable-background="new 0 0 761.957 436.956"
	 xml:space="preserve">
<g id="adentro">
	<path d="M719.682,87.588l-0.089-0.079c-15.314-10.654-45.384-6.793-45.704-6.749c-11.515,1.974-64.758,6.945-65.316,6.997
		c-48.038,6.583-116.338-3.562-117.023-3.666l-0.052-0.008l-0.053,0.003c-21.201,1.289-42.396-20.952-42.665-21.23
		c-10.966-8.474-25.397-11.4-25.506-11.42c-20.637-5.704-30.302,10.4-30.43,10.63c-2.611,6.526-9.861,16.12-9.896,16.172
		c-23.659,24.645-86.713,53.602-87.347,53.892l0.415,0.91c0.016-0.007,0.08-0.037,0.169-0.078l38.102,38.102
		c-0.01,0.011-0.022,0.025-0.032,0.037l0.772,0.636c6.886-8.361,64.839-53.965,65.402-54.409l11.861-8.354
		c19.43-15.866,36.521-1.489,36.637-1.396c3.963,4.623,24.148,25.806,24.366,26.034c19.799,19.139,38.208,32.251,38.429,32.405
		c22.846,13.352,59.487,14.079,67.159,14.079c0.889,0,1.39-0.01,1.434-0.011c42.333-0.661,93.109-36.729,93.631-37.103
		c12.841-9.877,49.607-35.063,49.912-35.279c1.815-0.874,2.918-2.224,3.275-4.01C728.381,97.464,720.038,87.989,719.682,87.588z"/>
</g>
<g id="lateral">
	<g>
		<path fill="#808285" d="M727.462,221.678c1.549-2.898,3.002-6.723,3.002-10.924c0,0,4.999-37.667,7.333-46
			c0,0,15.333-58.667-4.667-75.667c0,0-14-18.333-34-15.667c0,0-59.25,3.167-80,4.417c0,0-70,7.5-104.75,1c0,0-33-3.75-46.5-9
			c0,0-18.75-11.25-23-14.5c0,0-12.5-9.25-26.5-8.75c0,0-20.5-0.25-29.25,6c0,0-22.25,12.5-29.25,33.5
			c0,0-19.083,24.167-61.083,40.667c0,0-4.167,2.167-3.5,6c0,0,63.5-29,87.5-54c0,0,7.333-9.667,10-16.333
			c0,0,9.333-16,29.833-10.333c0,0,14.333,2.833,25.333,11.333c0,0,21.335,22.667,43.001,21.333c0,0,68.499,10.333,117.166,3.667
			c0,0,53.666-5,65.333-7c0,0,30.001-4,45.334,6.667c0,0,13.333,15,4.333,19.333c0,0-37,25.333-50,35.333
			c0,0-50.668,36.333-93.334,37c0,0-42.666,1-68.333-14c0,0-18.333-13-38.333-32.333c0,0-20.334-21.333-24.334-26
			c0,0-17.333-15-37.333,1.333l-11.833,8.333c0,0-58.5,46-65.5,54.5c0,0-20,18-10.5,45c0,0,29,65,83.5,116l0.012-0.004l4.488,5.004
			c0,0,116-27.5,206-61.5c0,0,90.999-24.834,105-45.5C722.63,230.587,725.692,224.989,727.462,221.678"/>
	</g>
</g>
<g id="arriba">
	<path fill="#58595B" d="M454.427,67.983c-0.343-0.453-8.509-11.085-18.312-11.085c-2.658,0-5.183,0.786-7.469,2.313
		c-0.801,0.443-19.876,11.011-42.312,25.322c-0.85,0.443-85.078,44.363-91.939,47.304l-157.933,69.307
		c-63.111,22.421-70.036,47.149-70.298,48.185c-7.64,28.522,21.672,44.468,21.94,44.609c16.78,10.363,74.734,10.482,77.193,10.482
		h0.126c4.035,0.158,8.131,0.239,12.176,0.239c94.51-0.002,169.892-43.458,170.643-43.896l0.897-0.525l-0.56-0.875
		c-15.309-23.988-23.669-42.365-24.007-43.108c-9.026-25.651,9.486-43.244,10.328-44.032c6.716-8.155,62.91-52.432,65.305-54.318
		l11.89-8.376c6.01-4.908,12.362-7.396,18.882-7.396c9.558,0,16.468,5.464,17.301,6.144c0.071,0.043,1.782,1.072,3.681,1.072
		c1.533,0,4.179-0.705,4.667-5.419C456.729,102.814,459.098,76.523,454.427,67.983z"/>
</g>
<g id="punta">
	<path fill="#A7A9AC" d="M321.464,354.754"/>
	<path fill="#A7A9AC" d="M348.13,260.212c0,0-82.177,47.713-183.177,43.713c0,0-59.833,0.166-76.833-10.334c0,0-29-15.5-21.5-43.5
		c0,0,6.335-25,69.667-47.5c0,0-67.157,16.496-87.157,46.996c0,0-33.666,54.5,33.667,87.167c0,0,94.333,46.333,239.833,19.833
		c0,0,79.583-13.75,88.5-21C411.13,335.587,368.13,294.087,348.13,260.212z"/>
</g>
<g id="suela_tennis" display="none">
	<path display="inline" fill="#E6E7E8" stroke="#DCDDDE" stroke-width="0.5" stroke-miterlimit="10" d="M49.13,249.587
		c0,0-21,18.499-21,39.833c0,0-8.666,44.666,30.667,80c0,0,62.666,46,202.667,42.667c0,0,71.333,9.333,172-44
		c0,0,101.333-40.667,162-54c0,0,60.001-15.332,78.001-20.666c0,0,44.666-10.666,49.333-42c0,0,0.333-8.834-0.167-13.584
		c0,0,5.172-8.219,4.422-15.219c0,0-10.922,16.803-50.922,30.136c0,0-158.501,58.833-268.917,80.083
		c0,0-129.083,51.251-275.083,15.917C132.13,348.754,10.13,336.421,49.13,249.587z"/>
</g>
<g id="suela_rafik" display="none">
	<path display="inline" fill="#58595B" d="M723.797,226.42c0,0,1.343,29.384-31.902,42.983c0,0-34.756,16.623-68.505,22.667
		c0,0-60.445,13.601-82.104,17.126c0,0-98.56,20.317-131.469,29.72c0,0-124.249,40.297-235.065,26.192
		c0,0-116.688-8.702-130.121-63.104c0,0,24.005,44.972,169.074,57.731c0,0,58.43,4.699,107.458-6.718
		c0,0,137.68-32.909,166.56-44.998c0,0,130.294-33.581,180.665-53.729C668.388,254.29,716.076,235.487,723.797,226.42z"/>
</g>
<g id="suela_hule">
	<path fill="#58595B" d="M42.039,300.625c0,0-14.505,13.265-4.199,26.434l-0.287,14.601c0,0,4.294,14.315,36.358,28.629
		c0,0,9.927,5.152,23.477,9.162l6.488-4.01l16.987,4.01l1.908,6.489l19.659,3.435l4.581-4.199l6.298,0.573l1.717,6.679l17.369,1.909
		l0.954-4.58l24.621,2.29l2.671,6.68l16.605,1.526l0.955-6.488L230.416,393l2.29,6.679l22.713-1.145l0.954-6.107l26.529-3.244
		l0.381,4.771l20.421-3.436l1.337-6.107l10.306-2.29l1.909,4.39l17.368-3.053l1.527-6.107l21.566-4.2l2.481,3.627l18.131-4.39
		l2.482-5.153l8.397-1.909l0.955,2.673l2.481,1.337c0,0,16.987-4.199,18.895-6.871l0.954-3.627c0,0,97.146-23.475,111.65-32.636
		l22.142,22.903l23.283-4.963l3.437-6.107l9.16-1.909l1.146,2.673c0,0,23.285-3.817,25.193-5.345l3.435-5.725l22.522-6.871
		l0.382,3.054c0,0,20.23-1.527,25.957-6.49l2.671-4.58l9.161-3.436l-0.383,4.771c0,0,36.932-13.169,43.229-30.919
		c0,0,8.875-15.173,7.729-35.213c0,0,6.871-11.165,0.859-20.04c0,0-18.989,22.999-88.461,41.703c0,0-154.596,50.195-229.603,66.8
		c0,0-133.026,48.478-269.681,17.177c0,0-76.154-12.597-92.185-54.395L42.039,300.625z"/>
</g>
<g id="ojetes">
	<g>
		<circle fill="none" stroke="#6D6E71" stroke-width="5" stroke-miterlimit="10" cx="353.992" cy="194.115" r="9.181"/>
		<circle cx="353.992" cy="194.115" r="6.619"/>
	</g>
	<g>
		<circle fill="none" stroke="#6D6E71" stroke-width="5" stroke-miterlimit="10" cx="380.492" cy="172.115" r="9.181"/>
		<circle cx="380.492" cy="172.115" r="6.619"/>
	</g>
	<g>
		<circle fill="none" stroke="#6D6E71" stroke-width="5" stroke-miterlimit="10" cx="401.242" cy="152.74" r="9.181"/>
		<circle cx="401.242" cy="152.74" r="6.619"/>
	</g>
	<g>
		<circle fill="none" stroke="#6D6E71" stroke-width="5" stroke-miterlimit="10" cx="432.118" cy="130.49" r="9.181"/>
		<circle cx="432.117" cy="130.49" r="6.619"/>
	</g>
</g>
<g id="placa_logo">
	<path fill="#58595B" d="M473.181,180.824c-0.42,2.897-3.059,4.914-5.895,4.504l-18.256-2.645c-2.835-0.411-4.793-3.094-4.373-5.992
		l2.01-13.875c0.42-2.898,3.059-4.914,5.894-4.504l18.256,2.645c2.836,0.41,4.794,3.094,4.374,5.991L473.181,180.824z"/>
</g>
<g id="cintas">
	<path fill="#E6E7E8" d="M429.63,136.337c0,0,6.875,1,9.75-4c0,0,2.875-4.125-2-7.125c0,0-9.249-21.792-15.083-27.625
		c0,0-12.834-13.666-34.5-10.333c0,0,2.917,6.917,16.667,26.667c0,0,12.292,12.042,20.042,17.917
		C424.505,131.837,426.005,135.087,429.63,136.337z"/>
	<path fill="#E6E7E8" d="M373.297,137.92c-13.667-16-12.5-26.167-12.5-26.167c-1.333-3.167,1.667-6.5,1.667-6.5
		c4.833-4.333,9.167-0.417,9.167-0.417c8,6.25,18.667,20.75,18.667,20.75c7.833,4.5,13.5,14.5,13.5,14.5c5.333,10,2.5,14.5,2.5,14.5
		c-2.5,3.167-7.5,2-7.5,2s-3.333-1.667-4.167-2.917C394.63,153.67,371.797,139.42,373.297,137.92"/>
	<path fill="#E6E7E8" d="M373.255,176.712c0,0,3.75,1.25,5.375-0.25c0,0,3-3.875,5.375-5.375c0,0,4.125-2.375,0.875-5
		c0,0-19.75-19.25-25.75-26.25c0,0-16.25-16.5-16.5-19c0,0-7.25-0.75-8,0.25c0,0-3.5,2.5,1.25,9.25c0,0,5.083,2.083,5.75,9.083
		c0,0,1,12.333,8.667,19.167C350.297,158.587,363.38,172.503,373.255,176.712z"/>
	<path fill="#E6E7E8" d="M345.297,196.587c0,0,4.167,3.667,8.667,2.833c0,0,5.833-3.667,6-6.5c0,0,0.666-5-2.667-11.5
		c0,0-17.667-26.083-24.917-37.833c0,0-15-19.25-10-30.25c0,0-13.25,2-16,11.25c0,0-0.5,12.75,14.25,35.25
		C320.63,159.837,337.213,188.087,345.297,196.587z"/>
	<path fill="#F1F2F2" d="M404.964,115.087c0,0-19.834-26-20.334-38.25c0,0-4.25-17,5-24.75c0,0-25.5,12.5-26.25,22.25
		c0,0,0.25,30.375,27.25,51.125C390.63,125.462,399.13,118.212,404.964,115.087z"/>
	<path fill="#F1F2F2" d="M365.38,88.087c0,0-11.75,11.25-2.5,34.5c0,0,5.125,9.625,11.208,16.292l-9.125,7.292
		c0,0-19.333-11.583-18.833-29.583c0,0-1.5-12.5,2.75-18.75c0,0,10.75-12.25,16-14"/>
	<path fill="#F1F2F2" d="M347.297,160.42l2.833-3c0,0-5.667-14.833-10.5-22.833c0,0-10.167-8.333-4.667-17.5
		c0,0,4.5-13.667,11.667-13c0,0,0.833-4.333,2-5c0,0-8.167-3.333-15.333,0.5c0,0-10.5,7.333-11,14.333
		c0,0-8.25,11.667,22.417,48.833L347.297,160.42z"/>
</g>
</svg>
