<?xml version="1.0" encoding="utf-8"?>
<!-- Generator: Adobe Illustrator 15.0.0, SVG Export Plug-In . SVG Version: 6.00 Build 0)  -->
<!DOCTYPE svg PUBLIC "-//W3C//DTD SVG 1.1//EN" "http://www.w3.org/Graphics/SVG/1.1/DTD/svg11.dtd">
<svg version="1.1" xmlns="http://www.w3.org/2000/svg" xmlns:xlink="http://www.w3.org/1999/xlink" x="0px" y="0px"
	 width="673.571px" height="358.482px" viewBox="0 0 673.571 358.482" enable-background="new 0 0 673.571 358.482"
	 xml:space="preserve">
<g id="suela">
	<path fill="#58595B" d="M637.667,242.569c0,0-43.334,41.333-107.334,52.333c0,0-60.333,11-132.833,6.5c0,0-89-2-153-41
		c0,0-147-44-183.75-42c0,0,5,12,17,6.5c0,0,13.5,12.25,23,5c0,0,11.5,11,26.5,6c0,0,12,11.25,28.25,5.5c0,0,14,10.5,28.5,4.75
		c0,0,11.25,11.75,28.5,7.5c0,0,16.5,15.75,29.75,7.75c0,0,1.5,11.75,21.75,12.75c0,0,37.333,24.084,93.333,27.417
		c0,0,11.666,9.333,38,5.333c0,0,14.668,8,31.334,1c0,0,13.333,11,37,0c0,0,14.667,10.001,37.667-1.333c0,0,14.666,9,38.666-6.667
		c0,0,23.333,6,40.333-14c0,0,24.667,7.333,56.917-42"/>
</g>
<g id="punta">
	<path fill="#A7A9AC" d="M241,261.569c0,0,96.667,63.333,259.334,39.333c0,0,58.666-4.5,112.166-37.5c0,0,30.5-14,33.5-39.5
		c0,0,5.5-9.5-5.5-21.5c0,0-2-23-16-31c0,0-30-20.5-107.5-36c0,0-69.5-33.5-117.5-52c0,0-25-22-32-19c0,0-13,7.5-20,20.5
		c0,0,7.833-6.333,21.5-15c0,0,3.333-3,6.833-0.167c0,0,40,34.833,44.667,39.917c0,0,15.833,13.417,3.5,13.25
		c0,0-31.334-4-55.667-14.833c0,0-12.583-5.792-16.083-2.792L241,261.569z"/>
</g>
<g id="interior">
	<path fill="#D1D3D4" d="M370.62,70.797c-0.534-1.292-1.41-1.526-1.509-1.549l-0.156-0.036l-0.148,0.062
		c-5.169,2.167-20.465,14.061-21.114,14.566l-3.879,7.427c-49.661-16.233-126.565-31.949-127.333-32.105
		c-37.324-8.08-85.728-9.776-119.762-9.776c-24.997,0-42.777,0.923-42.933,0.932c-23.792,0.25-28.509,9.881-28.71,10.317
		c-6.595,16.742,32.86,35.751,34.556,36.558c33.557,14.759,241.627,76.565,243.725,77.188l0.344,0.102l41.396-58.326
		c6.36-10.697,10.308-11.264,11.136-11.264c0.002,0,0.004,0,0.006,0l0.336,0.064l0.182-0.289
		C370.657,82.583,371.968,74.059,370.62,70.797z"/>
	<path fill="#EC008C" d="M-427.833,135.067"/>
</g>
<g id="lateral">
	<path fill="#6D6E71" d="M241.75,261.152l61.875-87.875c0,0-217.5-62.5-244.125-76.5c0,0-40.5-19.875-34-36.375
		c0,0,4.5-9.75,28.25-10c0,0,97.917-5.167,162.583,8.833c0,0,96.667,19.667,144,38l2-3.667c0,0-18.668-17.334-110.334-34.667
		c0,0-86.666-19.666-169.333-15.333c0,0-58,0.667-63,19c0,0-3.333,7.666,4,20.333c0,0-6.667,23,0.833,73.5
		c0,0-2.833,52.834,28.5,60.834C53,217.236,138.25,231.402,241.75,261.152z"/>
</g>
<g id="elastico">
	<path fill="#E6E7E8" d="M369,69.652c0,0,3.25-3,6.25,0c0,0,46.25,37.25,50.25,44.25c0,0,6.5,7.75,1,9.25
		c0,0-28.083-0.083-57.833-15.583c0,0-9.417-3.167-12.417-3.167C356.25,104.402,376.25,71.902,369,69.652z"/>
</g>
<g id="placa">
	<path fill="#A7A9AC" d="M82.333,161.735c0,2.852-2.312,5.165-5.164,5.165L61.5,158.903c-2.833-0.834-5.333-2.983-5.333-5.834
		l0.169-15.002c0-2.853,2.312-5.165,5.164-5.165l15.669,7.997c2.852,0,5.164,2.312,5.164,5.165V161.735z"/>
</g>
</svg>
