<?xml version="1.0" encoding="utf-8"?>
<!-- Generator: Adobe Illustrator 15.0.0, SVG Export Plug-In . SVG Version: 6.00 Build 0)  -->
<!DOCTYPE svg PUBLIC "-//W3C//DTD SVG 1.1//EN" "http://www.w3.org/Graphics/SVG/1.1/DTD/svg11.dtd">
<svg version="1.1" xmlns="http://www.w3.org/2000/svg" xmlns:xlink="http://www.w3.org/1999/xlink" x="0px" y="0px" width="787px"
	 height="529px" viewBox="0 0 787 529" enable-background="new 0 0 787 529" xml:space="preserve">
<g id="suela">
	<path fill="none" stroke="#D1D3D4" stroke-width="0.75" stroke-miterlimit="10" d="M721.667,352.111
		C691,433.118,533,429.104,533,429.104c-84,7.334-169.333-35.334-169.333-35.334C292.334,358.437,185,337.271,185,337.271
		c-32-5-57.5-12-57.5-12c-35.5-12-39.5-51-39.5-51s48,32.5,112.5,45c0,0,96.5,20,188,51.5c0,0,107.5,45.5,265.5,6
		c0,0,72.334-17.5,67.667-70.5C721.667,306.271,731.667,321.771,721.667,352.111z"/>
	<path fill="none" stroke="#EC008C" stroke-miterlimit="10" d="M79.667,248.667"/>
	<path fill="none" stroke="#D1D3D4" stroke-width="0.75" stroke-miterlimit="10" d="M80.594,248.667
		c0,0,44.099,54.804,133.349,65.054c0,0,96.253,19.149,171.307,47.779c0,0,57.749,19.834,130.416,17.167
		c0,0,119.002,5.667,169.334-29.876c0,0,50.5-33.624,15.5-72.291c0,0,19.167,10.29,21.167,30.124
		c5.338,52.937-67.667,70.5-67.667,70.5c-158,39.5-265.5-6-265.5-6c-91.5-31.5-188-51.5-188-51.5S134,305.771,88,274.271
		C88,274.271,81.243,264.324,80.594,248.667z"/>
	<g>
		<g>
			<path fill="#D1D3D4" d="M419.269,400.415c-24.107-5.38-47.611-13.875-70.104-24.039c-6.019-2.72-11.748-5.999-17.812-8.653
				c-9.42-4.122-19.113-7.608-28.862-10.862c-18.461-6.163-37.272-11.3-56.171-15.931c-6.154-1.508-12.302-3.078-18.555-4.108
				c-19.707-3.248-39.282-7.485-58.584-12.607c-25.104-6.661-51.958-14.543-73.3-29.873c-1.181-0.848-2.303,1.104-1.136,1.943
				c15.253,10.955,33.433,17.685,51.16,23.45c18.471,6.009,37.395,10.634,56.401,14.591c19.047,3.966,37.853,7.223,56.713,12.137
				c27.32,7.117,55.23,14.956,80.59,27.576c25.086,12.483,51.675,22.435,79.062,28.547
				C420.084,402.9,420.685,400.731,419.269,400.415L419.269,400.415z"/>
		</g>
	</g>
</g>
<g id="frente">
	<path fill="none" stroke="#BCBEC0" stroke-miterlimit="10" d="M479.5,193c0,0,56.499,17.667,87.833,31.667
		c0,0,109,31,130.917,50.083c0,0,44.232,37.701-22.342,79.643c0,0-57.752,35.988-222.08,21.548c0,0-25.658,1.562-102.493-26.439
		c0,0-81.668-27.835-146.335-37.168c0,0,4.666-45.667,48-47.833c0,0,66.334,2.834,103.334,8.167c0,0,67.333,14.667,89.333-23
		C445.667,249.667,470.75,214,479.5,193z"/>
</g>
<g id="talon">
	<path fill="none" stroke="#A7A9AC" stroke-miterlimit="10" d="M205,312.333c0,0,4.666-45.667,48-47.833
		c0,0,66.334,2.834,103.334,8.167c0,0,67.333,14.667,89.333-23c0,0,14.108-20.063,24.854-38.954l0.689-1.22
		c-9.806-7.732-128.961-83.827-128.961-83.827c-24.751-20-48.75,9.833-48.75,9.833c-50.5,55.5-98.009,51.099-98.009,51.099
		C110,188,74.535,151.25,74.535,151.25c-0.715,6,2.798,30.75,2.798,30.75c-7.667,7.667,2.851,66.426,2.851,66.426
		S122.398,299.354,205,312.333"/>
	<path fill="none" stroke="#A7A9AC" stroke-miterlimit="10" d="M335,91.5l139.501,111.958c0,0,4.999-7.027,4.999-11.291
		c0,0-65.532-49.626-94.166-73.401c0,0-17.5-21.932-30.667-28.099C354.667,90.667,343.833,81.167,335,91.5z"/>
	<line fill="none" stroke="#A7A9AC" stroke-miterlimit="10" x1="474.501" y1="203.458" x2="471.211" y2="209.494"/>
</g>
<g id="orilla_talon">
	<path fill="none" stroke="#6D6E71" stroke-miterlimit="10" d="M74.167,150.129c-1.756-29.362,69.146-25.475,69.146-25.475
		c90.909,3.431,155.083-12.723,155.083-12.723l-4.521,6.833c0,0-52.079,12.981-126.287,11.764c0,0-66.297-4.875-80.612,6.625
		c0,0-11.854,7.618-5.273,16.25c0,0,5.672,8.013,20.917,16.381C102.62,169.786,74.494,155.584,74.167,150.129z"/>
</g>
<g id="interior">
	<path fill="none" stroke="#000000" stroke-miterlimit="10" d="M102.245,169.598c18.561,10.188,49.811,18.291,93.353,17.346
		c0,0,35.417,3.28,77.595-31.545c0,0,17.955-28.833,20.683-36.632c0,0-52.454,12.793-126.662,11.576c0,0-66.297-4.875-80.612,6.625
		c0,0-11.854,7.618-5.273,16.25C81.328,153.216,87,161.229,102.245,169.598z"/>
	<path fill="none" stroke="#262262" stroke-miterlimit="10" d="M445.773,250.011"/>
</g>
<g id="lengueta">
	<path fill="none" stroke="#58595B" stroke-miterlimit="10" d="M474.501,203.458L335,91.5c0,0-14.5-9.5-23.75,2.25
		c0,0-16.957,21.144-38.058,61.648c0,0,13.816-11.602,22.187-22c0,0,18.678-22.005,40.774-11.702c0,0,127.602,81.625,135.058,87.797
		L474.501,203.458z"/>
</g>
<g id="ojetes">
	<g>
		<path fill="none" stroke="#6D6E71" stroke-miterlimit="10" d="M328.022,163.276c-6.44,0-11.681-5.24-11.681-11.681
			s5.24-11.681,11.681-11.681s11.681,5.24,11.681,11.681S334.463,163.276,328.022,163.276z M328.022,144.915
			c-3.684,0-6.681,2.997-6.681,6.681s2.997,6.681,6.681,6.681s6.681-2.997,6.681-6.681S331.706,144.915,328.022,144.915z"/>
	</g>
	<circle fill="none" stroke="#000000" stroke-miterlimit="10" cx="328.022" cy="151.595" r="6.619"/>
	<g>
		<path fill="none" stroke="#6D6E71" stroke-miterlimit="10" d="M362.772,186.276c-6.44,0-11.681-5.24-11.681-11.681
			s5.24-11.681,11.681-11.681s11.681,5.24,11.681,11.681S369.213,186.276,362.772,186.276z M362.772,167.915
			c-3.684,0-6.681,2.997-6.681,6.681s2.997,6.681,6.681,6.681s6.681-2.997,6.681-6.681S366.456,167.915,362.772,167.915z"/>
	</g>
	<circle fill="none" stroke="#000000" stroke-miterlimit="10" cx="362.772" cy="174.595" r="6.619"/>
	<g>
		<path fill="none" stroke="#6D6E71" stroke-miterlimit="10" d="M393.698,205.959c-6.44,0-11.681-5.24-11.681-11.681
			s5.24-11.681,11.681-11.681s11.681,5.24,11.681,11.681S400.139,205.959,393.698,205.959z M393.698,187.598
			c-3.684,0-6.681,2.997-6.681,6.681s2.997,6.681,6.681,6.681s6.681-2.997,6.681-6.681S397.382,187.598,393.698,187.598z"/>
	</g>
	<circle fill="none" stroke="#000000" stroke-miterlimit="10" cx="393.698" cy="194.278" r="6.619"/>
	<g>
		<path fill="none" stroke="#6D6E71" stroke-miterlimit="10" d="M424.862,225.709c-6.44,0-11.681-5.24-11.681-11.681
			s5.24-11.681,11.681-11.681s11.681,5.24,11.681,11.681S431.303,225.709,424.862,225.709z M424.862,207.348
			c-3.684,0-6.681,2.997-6.681,6.681s2.997,6.681,6.681,6.681s6.681-2.997,6.681-6.681S428.546,207.348,424.862,207.348z"/>
	</g>
	<circle fill="none" stroke="#000000" stroke-miterlimit="10" cx="424.862" cy="214.028" r="6.619"/>
</g>
<g id="cinta">
	<path fill="none" stroke="#BCBEC0" stroke-miterlimit="10" d="M357.324,92.083c0,0,6.843-2.083,14.01,4.583
		c0,0,7.911,6.856,5.872,12.761c0,0-15.206,34.322-42.206,44.572c0,0-4.792,2.458-10.125,0.125c0,0-4.5-4.938-0.688-7.917
		c0,0,7.813-6.875,10.813-12.208c0,0,31.479-37.307,27.114-38.653L357.324,92.083z"/>
	<path fill="none" stroke="#BCBEC0" stroke-miterlimit="10" d="M356.652,172.073c0,0,0.739-6.25,10.848-16.943
		c0,0,22.75-20.63,17.25-37.88c0,0,9.25,0,17.377,16.248c0,0-6.877,23.502-35.627,44.502"/>
	<path fill="none" stroke="#BCBEC0" stroke-miterlimit="10" d="M410.696,140.42c0,0,7.745-1.753,12.471,7.642
		c0,0,4.501,6.938-1.166,16.438c0,0-12.417,25.612-22.084,29.778l-12.838-0.403c0,0,0-3.875,4.088-8.875c0,0,0.708-2.75,2.958-6.125
		C394.125,178.875,417.28,150.754,410.696,140.42z"/>
	<path fill="none" stroke="#BCBEC0" stroke-miterlimit="10" d="M424.862,216.417c0,0-8.756,0.083-4.922-6.583
		c0,0,5.228-4.667,8.061-6.167c0,0,19.165-24,12.249-41.917c0,0,11.75,2.5,17.75,12.75c0,0-5.434,32.583-26.767,41.917H424.862z"/>
</g>
<g id="plaquita_logo">
	<path fill="none" stroke="#58595B" stroke-miterlimit="10" d="M308.069,195.008c-0.062,2.98-2.631,5.345-5.738,5.28l-17.115-2.75
		c-3.107-0.064-5.578-2.533-5.515-5.513L280,177.521c0.062-2.98,2.63-5.344,5.737-5.28l17.117,2.75
		c3.105,0.064,5.575,2.532,5.514,5.513L308.069,195.008z"/>
</g>
</svg>
